<?xml version="1.0" encoding="UTF-8"?>
<svg version="1.1" xmlns="http://www.w3.org/2000/svg" width="440" height="136">
<path d="M0 0 C3.97406541 0.02212224 7.94768597 0.09464006 11.92089844 0.17822266 C13.6394839 0.21005433 15.3582999 0.23126021 17.07714844 0.24169922 C19.55131221 0.25691606 22.02301116 0.30428313 24.49658203 0.35888672 C25.26541718 0.35809113 26.03425232 0.35729553 26.8263855 0.35647583 C30.45941962 0.47231466 32.19401131 0.64516114 34.75219727 3.32397461 C35.86293907 6.84044775 35.39136573 7.9907906 33.79736328 11.27685547 C33.33241455 12.26169922 32.86746582 13.24654297 32.38842773 14.26123047 C31.86982178 15.30150391 31.35121582 16.34177734 30.81689453 17.41357422 C30.04381958 19.02619141 30.04381958 19.02619141 29.25512695 20.67138672 C27.7355936 23.82615993 26.18729889 26.96510681 24.62939453 30.10107422 C23.88167267 31.62565395 23.13423415 33.15037271 22.38720703 34.67529297 C20.81823492 37.85522539 19.21926718 41.01886662 17.60742188 44.17724609 C15.80361745 47.72541856 14.03154304 51.28949877 12.25439453 54.85107422 C11.60087477 56.15842891 10.94723749 57.46572487 10.29345703 58.77294922 C9.46974609 60.42037109 9.46974609 60.42037109 8.62939453 62.10107422 C7.96272786 63.43440755 7.2960612 64.76774089 6.62939453 66.10107422 C9.50497157 66.18245847 12.37821715 66.24175273 15.25439453 66.28857422 C16.06263672 66.31371094 16.87087891 66.33884766 17.70361328 66.36474609 C22.78560737 66.42672163 26.22769524 65.93560503 30.62939453 63.10107422 C31.67055294 61.7996262 32.68317294 60.47309553 33.62939453 59.10107422 C34.28939453 59.10107422 34.94939453 59.10107422 35.62939453 59.10107422 C35.51199994 60.58086391 35.38493321 62.05988606 35.25439453 63.53857422 C35.14998047 64.77414063 35.14998047 64.77414063 35.04345703 66.03466797 C34.68652415 68.67799166 34.19100269 71.19438269 33.60351562 73.79272461 C33.42162689 74.60036758 33.23973816 75.40801056 33.05233765 76.24012756 C32.91276642 76.85423996 32.77319519 77.46835236 32.62939453 78.10107422 C30.90946289 78.05563477 30.90946289 78.05563477 29.15478516 78.00927734 C-2.10341326 77.18506036 -2.10341326 77.18506036 -33.37060547 77.10107422 C-32.86400391 75.81330078 -32.86400391 75.81330078 -32.34716797 74.49951172 C-31.30886176 70.88620611 -31.33320516 68.43767699 -31.74560547 64.72607422 C-31.95185547 62.86982422 -32.15810547 61.01357422 -32.37060547 59.10107422 C-42.27060547 59.59607422 -42.27060547 59.59607422 -52.37060547 60.10107422 C-53.89640118 66.20425706 -54.21278404 71.41671708 -51.37060547 77.10107422 C-56.23954304 78.10112571 -60.89049824 78.15656146 -65.83154297 77.97998047 C-66.6221109 77.95636948 -67.41267883 77.93275848 -68.22720337 77.90843201 C-70.7335444 77.83232025 -73.23953459 77.74807286 -75.74560547 77.66357422 C-77.45261998 77.61030086 -79.15965123 77.55756089 -80.86669922 77.50537109 C-85.03488696 77.37677691 -89.20277965 77.24088946 -93.37060547 77.10107422 C-91.37060547 73.10107422 -91.37060547 73.10107422 -90.24633789 71.27075195 C-89.0143752 68.21849313 -89.23259664 65.66689726 -89.35888672 62.38623047 C-89.39286812 61.4088517 -89.39286812 61.4088517 -89.42753601 60.41172791 C-89.50277397 58.32849838 -89.59301819 56.24620851 -89.68310547 54.16357422 C-89.73285227 52.79837301 -89.7816886 51.4331383 -89.82958984 50.06787109 C-90.13769591 41.72799167 -90.66067416 33.41626711 -91.37060547 25.10107422 C-92.18464844 26.7465625 -92.18464844 26.7465625 -93.01513672 28.42529297 C-93.73768517 29.87977361 -94.46034743 31.33419771 -95.18310547 32.78857422 C-95.53953125 33.50980469 -95.89595703 34.23103516 -96.26318359 34.97412109 C-98.16071147 38.78658536 -100.17193204 42.45166318 -102.37060547 46.10107422 C-102.86560547 47.31794922 -103.36060547 48.53482422 -103.87060547 49.78857422 C-105.37060547 53.10107422 -105.37060547 53.10107422 -108.37060547 55.10107422 C-111.26191411 50.14639319 -113.90717831 45.12526677 -116.43310547 39.97607422 C-118.59273257 35.57454851 -120.76995086 31.26536229 -123.37060547 27.10107422 C-125.86277568 38.01217236 -125.48779481 49.83921329 -125.62060547 60.97607422 C-125.64195557 61.93312256 -125.66330566 62.8901709 -125.68530273 63.8762207 C-125.68973389 64.77284424 -125.69416504 65.66946777 -125.69873047 66.59326172 C-125.70807617 67.39103027 -125.71742188 68.18879883 -125.72705078 69.01074219 C-125.28312351 71.61410196 -124.24347935 72.32153498 -122.37060547 74.10107422 C-122.37060547 75.09107422 -122.37060547 76.08107422 -122.37060547 77.10107422 C-129.46649491 78.00213954 -136.32600586 78.80885594 -143.37060547 77.10107422 C-143.37060547 76.11107422 -143.37060547 75.12107422 -143.37060547 74.10107422 C-141.88560547 73.11107422 -141.88560547 73.11107422 -140.37060547 72.10107422 C-138.09860796 66.25038939 -137.98526611 59.62387339 -137.73779297 53.42138672 C-137.67544968 52.08127029 -137.67544968 52.08127029 -137.61184692 50.71408081 C-137.52595516 48.83689606 -137.44380057 46.95953687 -137.36523438 45.08203125 C-137.24620138 42.24030076 -137.11609016 39.39925077 -136.98388672 36.55810547 C-135.79940472 20.2524231 -135.79940472 20.2524231 -137.37060547 4.10107422 C-138.03060547 4.10107422 -138.69060547 4.10107422 -139.37060547 4.10107422 C-139.37060547 3.11107422 -139.37060547 2.12107422 -139.37060547 1.10107422 C-132.77060547 1.10107422 -126.17060547 1.10107422 -119.37060547 1.10107422 C-114.56860294 10.0427341 -109.86108105 18.99883628 -105.37060547 28.10107422 C-104.89433716 27.0873877 -104.89433716 27.0873877 -104.40844727 26.05322266 C-102.96300988 22.98361241 -101.51063984 19.91733214 -100.05810547 16.85107422 C-99.55859375 15.78759766 -99.05908203 14.72412109 -98.54443359 13.62841797 C-98.0578125 12.60361328 -97.57119141 11.57880859 -97.06982422 10.52294922 C-96.62469482 9.58032227 -96.17956543 8.63769531 -95.72094727 7.66650391 C-94.42175217 5.19824464 -93.29867917 3.12040383 -91.37060547 1.10107422 C-89.28588867 0.64697266 -89.28588867 0.64697266 -86.92138672 0.71044922 C-86.07382813 0.72333984 -85.22626953 0.73623047 -84.35302734 0.74951172 C-83.47195312 0.78302734 -82.59087891 0.81654297 -81.68310547 0.85107422 C-80.79042969 0.86912109 -79.89775391 0.88716797 -78.97802734 0.90576172 C-76.77447043 0.95289663 -74.57307946 1.01866765 -72.37060547 1.10107422 C-73.37060547 4.10107422 -73.37060547 4.10107422 -74.91357422 5.28857422 C-77.26806546 8.21748558 -76.76273739 11.50740981 -76.68310547 15.10107422 C-76.67327637 15.94395996 -76.66344727 16.7868457 -76.65332031 17.65527344 C-76.48250167 26.8523409 -75.98737583 36.04157114 -75.49560547 45.22607422 C-75.45658112 45.98533203 -75.41755676 46.74458984 -75.37734985 47.52685547 C-74.94051855 55.84292058 -74.39590719 63.98744218 -72.37060547 72.10107422 C-70.88560547 72.59607422 -70.88560547 72.59607422 -69.37060547 73.10107422 C-66.80927768 67.58346936 -65.20969993 62.11714621 -63.77685547 56.21435547 C-63.54405884 55.27609421 -63.31126221 54.33783295 -63.07141113 53.37113953 C-62.33223456 50.3866289 -61.60126054 47.40018116 -60.87060547 44.41357422 C-60.13952038 41.4517857 -59.40681031 38.49040216 -58.67407227 35.52902222 C-58.20434785 33.62477607 -57.73702613 31.71993548 -57.2722168 29.81448364 C-55.85912774 24.02349423 -54.37117725 18.2605854 -52.73583984 12.52758789 C-52.28327749 9.52089191 -52.78395712 7.06984748 -53.37060547 4.10107422 C-53.37060547 3.11107422 -53.37060547 2.12107422 -53.37060547 1.10107422 C-46.77060547 1.10107422 -40.17060547 1.10107422 -33.37060547 1.10107422 C-31.79116044 4.25996428 -30.93702948 6.42738301 -30.18701172 9.76904297 C-29.98140625 10.66300781 -29.77580078 11.55697266 -29.56396484 12.47802734 C-29.35578125 13.40550781 -29.14759766 14.33298828 -28.93310547 15.28857422 C-27.57581941 21.32143245 -26.08298874 27.18448615 -24.06030273 33.0300293 C-23.03977196 36.09451163 -22.30269254 39.20952877 -21.55810547 42.35107422 C-19.13841045 52.35378914 -16.24675247 62.22188391 -13.37060547 72.10107422 C-11.09157365 69.24059339 -9.43596871 66.40829765 -7.88232422 63.10107422 C-7.19855713 61.65619629 -7.19855713 61.65619629 -6.50097656 60.18212891 C-6.0248291 59.16538086 -5.54868164 58.14863281 -5.05810547 57.10107422 C-4.06540564 55.00174226 -3.07192499 52.90277933 -2.07763672 50.80419922 C-1.60535645 49.80582031 -1.13307617 48.80744141 -0.64648438 47.77880859 C0.78123186 44.78240759 2.25314595 41.81128268 3.75439453 38.85107422 C6.82069862 32.79915825 9.69201032 26.65629245 12.55957031 20.50830078 C12.92808105 19.72293945 13.2965918 18.93757813 13.67626953 18.12841797 C14.0046582 17.42450928 14.33304688 16.72060059 14.67138672 15.99536133 C15.62939453 14.10107422 15.62939453 14.10107422 17.62939453 11.10107422 C15.42034823 11.18883085 13.2121086 11.29701789 11.00439453 11.41357422 C9.15974609 11.50058594 9.15974609 11.50058594 7.27783203 11.58935547 C1.39148027 12.41495727 -2.43612859 14.71261924 -6.37060547 19.10107422 C-7.59025469 14.77538498 -7.06347519 11.68133492 -5.99560547 7.35107422 C-5.71974609 6.20123047 -5.44388672 5.05138672 -5.15966797 3.86669922 C-4.0914621 0.12269052 -4.0914621 0.12269052 0 0 Z M-43.37060547 20.10107422 C-43.51159668 20.69533203 -43.65258789 21.28958984 -43.79785156 21.90185547 C-44.44661217 24.63504512 -45.09610421 27.36806048 -45.74560547 30.10107422 C-45.96732422 31.03564453 -46.18904297 31.97021484 -46.41748047 32.93310547 C-47.70100623 38.3314638 -49.01287058 43.72089112 -50.37060547 49.10107422 C-45.09060547 49.10107422 -39.81060547 49.10107422 -34.37060547 49.10107422 C-37.01060547 39.53107422 -39.65060547 29.96107422 -42.37060547 20.10107422 C-42.70060547 20.10107422 -43.03060547 20.10107422 -43.37060547 20.10107422 Z " fill="#FDB305" transform="translate(266.37060546875,27.89892578125)"/>
<path d="M0 0 C16.17 0 32.34 0 49 0 C52 15 52 15 51 20 C48.11816032 18.9068884 47.1514292 18.28843658 45.6875 15.5 C43.35516864 12.04469428 40.93711997 11.9786167 37 11 C40.95242884 25.185327 44.94358163 39.35875251 49.00878906 53.51220703 C50.67585242 59.3259086 52.32205786 65.14396429 53.921875 70.9765625 C54.22996094 72.09546875 54.53804688 73.214375 54.85546875 74.3671875 C55.43071604 76.46219292 56.00140797 78.55845733 56.56640625 80.65625 C59.36383172 92.37500641 59.36383172 92.37500641 66 102 C65 103 65 103 62.77514648 103.11352539 C61.33764038 103.10567017 61.33764038 103.10567017 59.87109375 103.09765625 C58.31938477 103.09282227 58.31938477 103.09282227 56.73632812 103.08789062 C55.64771484 103.07951172 54.55910156 103.07113281 53.4375 103.0625 C51.7987793 103.05573242 51.7987793 103.05573242 50.12695312 103.04882812 C47.41791505 103.03699826 44.70898401 103.02051543 42 103 C42.16016602 102.41371826 42.32033203 101.82743652 42.48535156 101.22338867 C44.18677696 93.8728758 42.30420084 87.24387742 40.25 80.1875 C39.99734375 79.24712891 39.7446875 78.30675781 39.484375 77.33789062 C39.2265625 76.43619141 38.96875 75.53449219 38.703125 74.60546875 C38.35749512 73.38573364 38.35749512 73.38573364 38.00488281 72.14135742 C36.7921071 69.55699012 35.37702141 68.52164921 33 67 C33.226875 67.53625 33.45375 68.0725 33.6875 68.625 C34.16588814 72.26074987 32.98605353 73.95885553 31 77 C25.03593393 82.7383987 17.59719738 85.16445001 9.4375 85.1875 C7.9577692 85.14020267 6.47814012 85.08331896 5 85 C4.94550162 86.72880982 4.90698312 88.45812712 4.875 90.1875 C4.85179687 91.15042969 4.82859375 92.11335938 4.8046875 93.10546875 C5.00920447 96.1364103 5.82216507 98.22638871 7 101 C6.625 103.3125 6.625 103.3125 6 105 C2.18510326 106.46726798 -0.29011622 105.43336419 -4 104 C-4 103.34 -4 102.68 -4 102 C-5.32 102 -6.64 102 -8 102 C-8 102.763125 -8 103.52625 -8 104.3125 C-9 107 -9 107 -12.3125 108.625 C-13.86571599 109.11387194 -15.42988805 109.56846302 -17 110 C-17.97453125 110.27972656 -18.9490625 110.55945313 -19.953125 110.84765625 C-33.12522299 114.40544654 -33.12522299 114.40544654 -38.8125 111.625 C-41 110 -41 110 -43 108 C-43.375 104.5625 -43.375 104.5625 -43 101 C-40.89172636 98.57938952 -39.59654522 98.0872993 -36.4375 97.625 C-34 98 -34 98 -32.1875 99.1875 C-30.63824946 101.55214556 -30.91371748 103.22533581 -31 106 C-23.52068906 104.39072203 -17.90333397 102.03487257 -13 96 C-10.72453043 92.11030843 -8.79156032 88.13280392 -7 84 C-8.35351562 83.58041016 -8.35351562 83.58041016 -9.734375 83.15234375 C-12.5353618 82.16395726 -14.75653125 81.13809738 -17.25 79.5625 C-17.91515625 79.15128906 -18.5803125 78.74007812 -19.265625 78.31640625 C-21 77 -21 77 -23 74 C-23.43365359 69.59118852 -23.3929938 66.9824845 -21.75 62.875 C-17.50483687 58.43687491 -10.99698682 54.45127271 -4.77490234 53.7487793 C-1.88519518 53.29050898 -0.33501786 52.80091139 2 51 C4.50744005 45.6021323 5.71405877 39.97660157 7 34.1875 C7.38060757 32.61308035 7.7646893 31.03949627 8.15234375 29.46679688 C9.6406419 23.34354888 11.02841701 17.23088316 12 11 C8.64566891 11.94933899 5.30753495 12.89748835 2 14 C0.77479736 17.00847418 0.77479736 17.00847418 0 20 C-0.99 20 -1.98 20 -3 20 C-2.88449154 17.97860193 -2.75711059 15.95788094 -2.625 13.9375 C-2.55539063 12.81214844 -2.48578125 11.68679687 -2.4140625 10.52734375 C-2 7 -2 7 0 0 Z M22 21 C21.01433257 24.68579337 20.03764451 28.3739099 19.0625 32.0625 C18.78470703 33.10083984 18.50691406 34.13917969 18.22070312 35.20898438 C16.83528831 40.46688399 15.60580604 45.59375621 15 51 C19.27269711 52.44154827 23.56324029 53.80507356 27.875 55.125 C29.60363281 55.65480469 29.60363281 55.65480469 31.3671875 56.1953125 C32.23601562 56.46085937 33.10484375 56.72640625 34 57 C32.09695492 49.08733887 30.00627978 41.22875961 27.875 33.375 C27.60929199 32.39063965 27.34358398 31.4062793 27.06982422 30.39208984 C26.8173291 29.46605957 26.56483398 28.5400293 26.3046875 27.5859375 C26.07765137 26.7511084 25.85061523 25.9162793 25.61669922 25.05615234 C25.05293649 22.96303501 25.05293649 22.96303501 24 21 C23.34 21 22.68 21 22 21 Z M13 59 C8.57954018 68.64999729 8.57954018 68.64999729 7 79 C8.6065676 78.74379316 10.2102483 78.46944129 11.8125 78.1875 C12.70582031 78.03667969 13.59914063 77.88585937 14.51953125 77.73046875 C17.18321256 76.94604607 18.25690322 76.11372201 20 74 C19.67 73.01 19.34 72.02 19 71 C16.69 71 14.38 71 12 71 C14.98405081 66.95021676 16.9786902 64.49967816 22.03125 63.6640625 C24.01633317 63.40544251 26.00807583 63.19919242 28 63 C27.10309052 60.63111827 27.10309052 60.63111827 23.875 59.875 C20.09941262 59.02244801 16.85361088 58.84270976 13 59 Z M-8 65 C-9.16210219 67.39351495 -9.16210219 67.39351495 -9 70 C-7.24886475 73.71261227 -7.24886475 73.71261227 -4 76 C-3.49564306 74.0636296 -2.99666126 72.12585854 -2.5 70.1875 C-2.2215625 69.10855469 -1.943125 68.02960938 -1.65625 66.91796875 C-0.89029052 64.01066025 -0.89029052 64.01066025 -1 61 C-4.25543028 61 -5.70976448 62.82721246 -8 65 Z " fill="#FDC90A" transform="translate(62,13)"/>
<path d="M0 0 C1.13115234 0.07250977 1.13115234 0.07250977 2.28515625 0.14648438 C3.45111328 0.2305957 3.45111328 0.2305957 4.640625 0.31640625 C5.82978516 0.3947168 5.82978516 0.3947168 7.04296875 0.47460938 C8.99256497 0.60379949 10.94165386 0.7406059 12.890625 0.87890625 C12.890625 1.86890625 12.890625 2.85890625 12.890625 3.87890625 C11.890625 4.87890625 10.890625 5.87890625 9.890625 6.87890625 C8.67634045 10.35506757 8.77012585 13.73734966 8.77709961 17.39160156 C8.77695358 18.03592133 8.77680756 18.68024109 8.7766571 19.34408569 C8.7773515 21.46510228 8.78512164 23.58603008 8.79296875 25.70703125 C8.79483461 27.18105013 8.79625772 28.65506963 8.79725647 30.12908936 C8.80106839 34.00229617 8.81088735 37.87546528 8.82196045 41.74865723 C8.83220307 45.70352671 8.8367602 49.65840231 8.84179688 53.61328125 C8.85251082 61.36850674 8.86957131 69.12370121 8.890625 76.87890625 C7.07881095 77.07292258 5.26613968 77.25895 3.453125 77.44140625 C1.93912109 77.59802734 1.93912109 77.59802734 0.39453125 77.7578125 C-0.84490234 77.81775391 -0.84490234 77.81775391 -2.109375 77.87890625 C-3.78496025 76.203321 -3.4961926 74.03685147 -3.72265625 71.734375 C-5.20008891 55.40210205 -5.20008891 55.40210205 -10.109375 39.87890625 C-10.69912109 38.53505859 -10.69912109 38.53505859 -11.30078125 37.1640625 C-14.90108803 29.47814113 -18.25511951 24.58455911 -26.109375 20.87890625 C-26.16006911 27.64156902 -26.19510608 34.4041828 -26.21923828 41.16699219 C-26.2292982 43.46779207 -26.24294762 45.76857915 -26.26025391 48.06933594 C-26.28450235 51.37568315 -26.29585823 54.68186137 -26.3046875 57.98828125 C-26.31501007 59.01757751 -26.32533264 60.04687378 -26.33596802 61.10736084 C-26.33611908 62.06805481 -26.33627014 63.02874878 -26.33642578 64.01855469 C-26.34308762 65.28430328 -26.34308762 65.28430328 -26.34988403 66.57562256 C-26.08384967 69.12335478 -25.47293401 70.72000337 -24.109375 72.87890625 C-23.449375 73.20890625 -22.789375 73.53890625 -22.109375 73.87890625 C-22.109375 74.86890625 -22.109375 75.85890625 -22.109375 76.87890625 C-29.369375 76.87890625 -36.629375 76.87890625 -44.109375 76.87890625 C-43.449375 75.55890625 -42.789375 74.23890625 -42.109375 72.87890625 C-41.449375 72.87890625 -40.789375 72.87890625 -40.109375 72.87890625 C-38.84602827 67.01458307 -38.9475655 61.2021867 -38.94140625 55.234375 C-38.93807785 54.11001541 -38.93474945 52.98565582 -38.93132019 51.82722473 C-38.92626718 49.45277311 -38.92391136 47.07831442 -38.92407227 44.70385742 C-38.92188899 41.08956064 -38.90372446 37.47557083 -38.88476562 33.86132812 C-38.88183065 31.54817812 -38.87984655 29.23502668 -38.87890625 26.921875 C-38.87172073 25.84971237 -38.86453522 24.77754974 -38.85713196 23.67289734 C-38.50877976 13.26321916 -38.50877976 13.26321916 -42.68269348 4.25798035 C-43.15349838 3.80288589 -43.62430328 3.34779144 -44.109375 2.87890625 C-44.109375 2.21890625 -44.109375 1.55890625 -44.109375 0.87890625 C-34.24681816 -0.01050268 -25.37095357 2.14304288 -17.2265625 7.92578125 C-16.52789062 8.5703125 -15.82921875 9.21484375 -15.109375 9.87890625 C-15.109375 10.53890625 -15.109375 11.19890625 -15.109375 11.87890625 C-14.52671875 12.09289063 -13.9440625 12.306875 -13.34375 12.52734375 C-10.34278939 14.34261013 -9.16460039 16.51834119 -7.359375 19.50390625 C-6.74578125 20.50679687 -6.1321875 21.5096875 -5.5 22.54296875 C-4.81164062 23.69925781 -4.81164062 23.69925781 -4.109375 24.87890625 C-4.08227377 22.31633445 -4.06248729 19.7540526 -4.046875 17.19140625 C-4.03430664 16.10956055 -4.03430664 16.10956055 -4.02148438 15.00585938 C-4.00393868 11.16335243 -4.17413279 7.61251099 -5.109375 3.87890625 C-6.099375 3.54890625 -7.089375 3.21890625 -8.109375 2.87890625 C-8.109375 2.21890625 -8.109375 1.55890625 -8.109375 0.87890625 C-5.27553392 0.05375841 -2.94002249 -0.20045608 0 0 Z " fill="#FDB612" transform="translate(406.109375,28.12109375)"/>
<path d="M0 0 C9.25032552 5.58142004 12.83133349 14.2966335 15.70703125 24.2421875 C18.80105841 37.00075434 17.74631915 52.79122213 11.046875 64.18359375 C7.00604012 69.72609024 2.23668168 74.29610611 -4.375 76.5 C-11.20464038 77.34292897 -16.92939526 77.43390479 -22.8125 73.5625 C-31.39140237 66.65481238 -35.93489765 57.47695555 -37.1809082 46.6652832 C-38.49083136 32.05181345 -37.97253469 17.71382837 -28.625 5.75 C-21.27996707 -2.21471313 -10.09789955 -4.40064105 0 0 Z M-19.6875 10.125 C-25.96420552 18.95888184 -24.65809918 33.78046855 -22.95605469 44.02050781 C-20.97481558 52.67694212 -18.0415962 61.38893587 -10.375 66.5 C-6.96000409 67.16707548 -6.96000409 67.16707548 -3.375 66.5 C1.62366874 62.50106501 2.60564917 58.12630257 3.40625 51.90625 C4.2951147 38.06535675 2.12599024 22.91702758 -6.375 11.5 C-9.11686485 9.07322849 -10.13324652 8.53021919 -13.875 8.0625 C-17.36142878 8.22043277 -17.36142878 8.22043277 -19.6875 10.125 Z " fill="#FDCB11" transform="translate(342.375,29.5)"/>
<path d="M0 0 C0.66 0.66 1.32 1.32 2 2 C3.32 1.34 4.64 0.68 6 0 C6.495 4.455 6.495 4.455 7 9 C10.3863251 10.50930183 10.3863251 10.50930183 14 11 C14 10.01 14 9.02 14 8 C14.639375 8.33 15.27875 8.66 15.9375 9 C17.76794567 10.07271225 17.76794567 10.07271225 19 10 C19.33 9.01 19.66 8.02 20 7 C21.32 7 22.64 7 24 7 C23.67 9.64 23.34 12.28 23 15 C26.96 14.01 30.92 13.02 35 12 C35 10.35 35 8.7 35 7 C32.69 7 30.38 7 28 7 C29.15173355 4.53199953 30.04783565 2.95216435 32 1 C36.89945159 -0.44101517 42.81898379 -1.11846985 47.4375 1.25 C49.28689431 3.32132162 49.92032795 4.21147815 50 7 C48.11179741 12.5465951 44.98153629 15.27224615 40 18 C33.68229606 20.9302894 27.89788426 21.38881602 21 21 C20.94550162 22.72880982 20.90698312 24.45812712 20.875 26.1875 C20.85179687 27.15042969 20.82859375 28.11335938 20.8046875 29.10546875 C21.00920447 32.1364103 21.82216507 34.22638871 23 37 C22.625 39.3125 22.625 39.3125 22 41 C18.18510326 42.46726798 15.70988378 41.43336419 12 40 C12 39.34 12 38.68 12 38 C10.68 38 9.36 38 8 38 C8 38.763125 8 39.52625 8 40.3125 C7 43 7 43 3.6875 44.625 C2.13428401 45.11387194 0.57011195 45.56846302 -1 46 C-1.97453125 46.27972656 -2.9490625 46.55945313 -3.953125 46.84765625 C-17.12522299 50.40544654 -17.12522299 50.40544654 -22.8125 47.625 C-25 46 -25 46 -27 44 C-27.375 40.5625 -27.375 40.5625 -27 37 C-24.89172636 34.57938952 -23.59654522 34.0872993 -20.4375 33.625 C-18 34 -18 34 -16.1875 35.1875 C-14.63824946 37.55214556 -14.91371748 39.22533581 -15 42 C-7.52068906 40.39072203 -1.90333397 38.03487257 3 32 C5.27546957 28.11030843 7.20843968 24.13280392 9 20 C7.64841797 19.56880859 7.64841797 19.56880859 6.26953125 19.12890625 C2.03921863 17.66826067 -1.79714903 16.210495 -5 13 C-5.95087258 9.96941147 -6.1102268 7.16213124 -6 4 C-4.02 3.34 -2.04 2.68 0 2 C0 1.34 0 0.68 0 0 Z " fill="#FB8309" transform="translate(46,77)"/>
<path d="M0 0 C1.32 0 2.64 0 4 0 C4.00410889 0.85529297 4.00821777 1.71058594 4.01245117 2.59179688 C3.60217729 29.1622194 3.60217729 29.1622194 14 53 C17.73255448 55.48836965 19.58440935 55.54226552 24 55 C26.41666667 52.83333333 26.41666667 52.83333333 28 50 C28.391875 49.38125 28.78375 48.7625 29.1875 48.125 C30.32778516 45.14271573 30.63546488 42.15930439 31 39 C31.66 39 32.32 39 33 39 C33.495 38.01 33.495 38.01 34 37 C34.99 36.67 35.98 36.34 37 36 C38.50943396 42.98113208 38.50943396 42.98113208 37 46 C36.97419254 47.72909958 36.95419584 49.45828843 36.9375 51.1875 C36.56731053 55.81183401 35.73116085 57.96668341 32.25 61.0625 C26.31488122 65.69506409 20.7777388 66.63426903 13.359375 66.5 C6.73827044 65.51453328 2.46083936 61.77292086 -1.87890625 56.8828125 C-7.75585255 48.92415269 -8.76364416 39.67874578 -8 30 C-7.505 28.515 -7.505 28.515 -7 27 C-7.39397335 24.36195411 -7.39397335 24.36195411 -8 22 C-6.68 21.67 -5.36 21.34 -4 21 C-4 20.34 -4 19.68 -4 19 C-4.66 18.67 -5.32 18.34 -6 18 C-6 15.44738498 -5.90102041 12.97881152 -5.6875 10.4375 C-5.62949219 9.65246094 -5.57148438 8.86742187 -5.51171875 8.05859375 C-5 6 -5 6 -2 4 C-0.80767387 1.94996045 -0.80767387 1.94996045 0 0 Z " fill="#FDA60C" transform="translate(315,40)"/>
<path d="M0 0 C3.97406541 0.02212224 7.94768597 0.09464006 11.92089844 0.17822266 C13.6394839 0.21005433 15.3582999 0.23126021 17.07714844 0.24169922 C19.55131221 0.25691606 22.02301116 0.30428313 24.49658203 0.35888672 C25.26541718 0.35809113 26.03425232 0.35729553 26.8263855 0.35647583 C30.45941962 0.47231466 32.19401131 0.64516114 34.75219727 3.32397461 C35.86293907 6.84044775 35.39136573 7.9907906 33.79736328 11.27685547 C33.33201172 12.26250488 32.86666016 13.2481543 32.38720703 14.26367188 C31.86900391 15.30313965 31.35080078 16.34260742 30.81689453 17.41357422 C30.30513672 18.48140137 29.79337891 19.54922852 29.26611328 20.64941406 C27.74326979 23.81169375 26.19106604 26.95782104 24.62939453 30.10107422 C23.82319437 31.74289791 23.01718212 33.38481391 22.21142578 35.02685547 C20.38053214 38.73388587 18.51026883 42.41917405 16.62939453 46.10107422 C15.62757345 48.10016264 14.6269607 50.09985915 13.62939453 52.10107422 C12.96939453 51.77107422 12.30939453 51.44107422 11.62939453 51.10107422 C11.95939453 48.79107422 12.28939453 46.48107422 12.62939453 44.10107422 C13.28939453 44.10107422 13.94939453 44.10107422 14.62939453 44.10107422 C13.63939453 43.11107422 12.64939453 42.12107422 11.62939453 41.10107422 C7.23624661 42.1126827 7.23624661 42.1126827 4.25439453 45.22607422 C4.04814453 45.84482422 3.84189453 46.46357422 3.62939453 47.10107422 C2.63939453 47.10107422 1.64939453 47.10107422 0.62939453 47.10107422 C1.63789792 43.73939626 2.81838619 40.61103751 4.41845703 37.49560547 C7.21998153 31.96514143 9.82751052 26.3451836 12.44970703 20.72802734 C12.83126953 19.9165625 13.21283203 19.10509766 13.60595703 18.26904297 C13.9470752 17.53967529 14.28819336 16.81030762 14.63964844 16.05883789 C15.62939453 14.10107422 15.62939453 14.10107422 17.62939453 11.10107422 C15.42034823 11.18883085 13.2121086 11.29701789 11.00439453 11.41357422 C9.15974609 11.50058594 9.15974609 11.50058594 7.27783203 11.58935547 C1.39148027 12.41495727 -2.43612859 14.71261924 -6.37060547 19.10107422 C-7.59025469 14.77538498 -7.06347519 11.68133492 -5.99560547 7.35107422 C-5.71974609 6.20123047 -5.44388672 5.05138672 -5.15966797 3.86669922 C-4.0914621 0.12269052 -4.0914621 0.12269052 0 0 Z " fill="#FDD508" transform="translate(266.37060546875,27.89892578125)"/>
<path d="M0 0 C6.6 0 13.2 0 20 0 C21.57944503 3.15889007 22.43357599 5.32630879 23.18359375 8.66796875 C23.38919922 9.56193359 23.59480469 10.45589844 23.80664062 11.37695312 C24.01482422 12.30443359 24.22300781 13.23191406 24.4375 14.1875 C25.7898508 20.19842203 27.27318861 26.04311034 29.28833008 31.86743164 C30.41457319 35.24229736 31.27690783 38.67156867 32.125 42.125 C32.29386719 42.78886719 32.46273437 43.45273438 32.63671875 44.13671875 C33.70032919 48.41628515 34.44426644 52.63352201 35 57 C34.34 57 33.68 57 33 57 C33 55.35 33 53.7 33 52 C32.01 51.67 31.02 51.34 30 51 C30 47.7 30 44.4 30 41 C25.76915097 42.68807908 25.76915097 42.68807908 23 46 C22.34 46 21.68 46 21 46 C20.67 47.32 20.34 48.64 20 50 C14.72 49.67 9.44 49.34 4 49 C4 48.67 4 48.34 4 48 C8.62 47.67 13.24 47.34 18 47 C14.535 34.625 14.535 34.625 11 22 C9.3864789 25.22704219 8.5058368 27.55375696 7.7109375 30.984375 C7.49179688 31.91894531 7.27265625 32.85351562 7.046875 33.81640625 C6.82515625 34.78449219 6.6034375 35.75257812 6.375 36.75 C6.14554688 37.73355469 5.91609375 38.71710938 5.6796875 39.73046875 C5.11529793 42.15264064 4.55557375 44.57579361 4 47 C3.67 47 3.34 47 3 47 C3 42.66666667 3 38.33333333 3 34 C3.99 33.505 3.99 33.505 5 33 C5.12469099 27.42169984 5.12469099 27.42169984 4 22 C2.35 22.33 0.7 22.66 -1 23 C-1.33 24.65 -1.66 26.3 -2 28 C-3.50703691 23.47888927 -1.67613132 19.50902685 -0.3828125 15.06835938 C0.82464519 10.64790638 1.06488535 7.55904042 0 3 C0 2.01 0 1.02 0 0 Z M28 49 C28.99 50.485 28.99 50.485 30 52 C29.34 52 28.68 52 28 52 C28 51.01 28 50.02 28 49 Z " fill="#FDD20A" transform="translate(213,29)"/>
<path d="M0 0 C0 0.66 0 1.32 0 2 C-0.66 2 -1.32 2 -2 2 C-1.505 4.475 -1.505 4.475 -1 7 C-1.66 7 -2.32 7 -3 7 C-2.77441406 7.69480469 -2.54882812 8.38960937 -2.31640625 9.10546875 C-1.89276085 12.98103962 -3.10531004 14.9098615 -4.9375 18.3125 C-5.50339844 19.38113281 -6.06929688 20.44976562 -6.65234375 21.55078125 C-7.31943359 22.76314453 -7.31943359 22.76314453 -8 24 C-5.12442297 24.08138426 -2.25117738 24.14067851 0.625 24.1875 C1.83736328 24.22520508 1.83736328 24.22520508 3.07421875 24.26367188 C8.15621284 24.32564741 11.59830071 23.83453082 16 21 C17.04115841 19.69855198 18.05377841 18.37202131 19 17 C19.66 17 20.32 17 21 17 C20.88260541 18.47978969 20.75553868 19.95881184 20.625 21.4375 C20.55539062 22.26121094 20.48578125 23.08492187 20.4140625 23.93359375 C20.05712962 26.57691744 19.56160816 29.09330847 18.97412109 31.69165039 C18.79223236 32.49929337 18.61034363 33.30693634 18.42294312 34.13905334 C18.28337189 34.75316574 18.14380066 35.36727814 18 36 C16.85337891 35.96970703 15.70675781 35.93941406 14.52539062 35.90820312 C-16.7328078 35.08398614 -16.7328078 35.08398614 -48 35 C-47.67257813 34.12085938 -47.34515625 33.24171875 -47.0078125 32.3359375 C-46.05579413 29.18468288 -45.78689703 26.8848099 -45.875 23.625 C-45.89304688 22.75101563 -45.91109375 21.87703125 -45.9296875 20.9765625 C-45.95289063 20.32429688 -45.97609375 19.67203125 -46 19 C-45.01 19.66 -44.02 20.32 -43 21 C-42.7421875 23.56640625 -42.7421875 23.56640625 -42.875 26.5625 C-42.94567363 28.37410084 -42.99417987 30.18703048 -43 32 C-41.99440206 33.22784809 -41.99440206 33.22784809 -39.95874023 33.11352539 C-39.08419189 33.10828857 -38.20964355 33.10305176 -37.30859375 33.09765625 C-36.36435547 33.09443359 -35.42011719 33.09121094 -34.44726562 33.08789062 C-32.95743164 33.07532227 -32.95743164 33.07532227 -31.4375 33.0625 C-30.44041016 33.05798828 -29.44332031 33.05347656 -28.41601562 33.04882812 C-25.94395151 33.03700007 -23.47200482 33.02051849 -21 33 C-20.67 31.68 -20.34 30.36 -20 29 C-19.34 29 -18.68 29 -18 29 C-18.33 27.68 -18.66 26.36 -19 25 C-20.32 24.67 -21.64 24.34 -23 24 C-23.144375 24.78375 -23.28875 25.5675 -23.4375 26.375 C-24 29 -24 29 -25 31 C-25.66 30.67 -26.32 30.34 -27 30 C-25.75124037 27.33274642 -24.50102473 24.66619101 -23.25 22 C-22.90195312 21.25621094 -22.55390625 20.51242188 -22.1953125 19.74609375 C-19.8692447 14.79243084 -17.46519139 9.88596491 -15 5 C-13.68 5 -12.36 5 -11 5 C-10.34 3.02 -9.68 1.04 -9 -1 C-5.22102349 -2.0497157 -3.35080929 -2.10976881 0 0 Z " fill="#FC9B11" transform="translate(281,70)"/>
<path d="M0 0 C1.32 0.33 2.64 0.66 4 1 C4.86339129 7.81188072 5.20211715 14.51649825 5.31640625 21.37890625 C5.33718735 22.43158188 5.35796844 23.48425751 5.37937927 24.5688324 C5.44426471 27.89999466 5.50347336 31.2312293 5.5625 34.5625 C5.60574337 36.83399157 5.64935942 39.10547608 5.69335938 41.37695312 C5.79988268 46.91789437 5.90175723 52.45890608 6 58 C7.65 58.33 9.3 58.66 11 59 C11 59.99 11 60.98 11 62 C3.74 62 -3.52 62 -11 62 C-10.34 60.68 -9.68 59.36 -9 58 C-8.34 58 -7.68 58 -7 58 C-4.94563117 52.04807113 -4.69067575 46.62630721 -4.65625 40.359375 C-4.6416272 39.35537659 -4.62700439 38.35137817 -4.61193848 37.31695557 C-4.54991108 33.04313499 -4.50993797 28.76917705 -4.46826172 24.49511719 C-4.4345939 21.36638094 -4.38949075 18.23795421 -4.34375 15.109375 C-4.3384729 14.14062439 -4.3331958 13.17187378 -4.32775879 12.17376709 C-4.31434448 11.27563293 -4.30093018 10.37749878 -4.28710938 9.45214844 C-4.27981812 8.66273865 -4.27252686 7.87332886 -4.26501465 7.05999756 C-4 5 -4 5 -2 2 C-1.34 2 -0.68 2 0 2 C0 1.34 0 0.68 0 0 Z " fill="#FCA509" transform="translate(373,43)"/>
<path d="M0 0 C9.86255684 -0.88940893 18.73842143 1.26413663 26.8828125 7.046875 C27.58148438 7.69140625 28.28015625 8.3359375 29 9 C29 9.66 29 10.32 29 11 C29.60328125 11.2475 30.2065625 11.495 30.828125 11.75 C33.35722953 13.20559973 34.26772507 14.51124209 35.75 17 C36.17796875 17.70125 36.6059375 18.4025 37.046875 19.125 C38 21 38 21 38 23 C36.02 23.99 36.02 23.99 34 25 C33.8453125 24.0409375 33.8453125 24.0409375 33.6875 23.0625 C33.460625 22.381875 33.23375 21.70125 33 21 C32.01 20.67 31.02 20.34 30 20 C29.67 20.99 29.34 21.98 29 23 C29.66 23.33 30.32 23.66 31 24 C30.67 25.65 30.34 27.3 30 29 C29.319375 28.2575 28.63875 27.515 27.9375 26.75 C25.88887011 24.68271627 23.86367667 23.23227406 21.31640625 21.828125 C20.22199219 21.22484375 19.12757813 20.6215625 18 20 C17.97465286 26.76268718 17.95713431 33.52536211 17.94506836 40.28808594 C17.94003843 42.58887184 17.93321376 44.88965455 17.92456055 47.19042969 C17.91243641 50.49675282 17.90675828 53.8030337 17.90234375 57.109375 C17.89718246 58.13867126 17.89202118 59.16796753 17.88670349 60.22845459 C17.88662796 61.18914856 17.88655243 62.14984253 17.88647461 63.13964844 C17.88314369 64.40539703 17.88314369 64.40539703 17.87974548 65.69671631 C17.99629785 67.92909127 18.37773147 69.85859336 19 72 C18.34 72 17.68 72 17 72 C16.07716824 69.23150473 15.85686327 67.48770739 15.81054688 64.6237793 C15.78547058 63.30176765 15.78547058 63.30176765 15.7598877 61.95304871 C15.74631226 61.00303482 15.73273682 60.05302094 15.71875 59.07421875 C15.69113586 57.60369804 15.69113586 57.60369804 15.66296387 56.10346985 C15.6041892 52.96487451 15.55141117 49.82622407 15.5 46.6875 C15.43215343 42.56629626 15.35841091 38.44525738 15.28125 34.32421875 C15.26767456 33.38027756 15.25409912 32.43633636 15.2401123 31.46379089 C15.17013441 27.73500197 15.03815134 24.22741472 14.41992188 20.54223633 C14 18 14 18 15 15 C13.68 14.67 12.36 14.34 11 14 C11 14.66 11 15.32 11 16 C10.51391769 16.44213333 10.02783539 16.88426666 9.52702332 17.33979797 C7.54158716 19.49839313 7.60736385 20.66243904 7.56762695 23.56323242 C7.54783279 24.48396042 7.52803864 25.40468842 7.50764465 26.35331726 C7.50125473 27.34402725 7.49486481 28.33473724 7.48828125 29.35546875 C7.47033005 30.37224197 7.45237885 31.3890152 7.43388367 32.43659973 C7.3796646 35.68685752 7.34584741 38.9369675 7.3125 42.1875 C7.27933721 44.38999458 7.24484853 46.59246963 7.20898438 48.79492188 C7.12393168 54.19648204 7.05563102 59.59806106 7 65 C6.67 65 6.34 65 6 65 C5.98786972 64.07158043 5.98786972 64.07158043 5.97549438 63.12440491 C5.88907718 56.65101445 5.78955959 50.17791719 5.68261719 43.70483398 C5.64446142 41.29277492 5.60958576 38.88066154 5.578125 36.46850586 C5.53218264 32.99052595 5.47423671 29.51291558 5.4140625 26.03515625 C5.40251129 24.96604507 5.39096008 23.8969339 5.37905884 22.79542542 C5.44014196 11.38042865 5.44014196 11.38042865 0 2 C0 1.34 0 0.68 0 0 Z " fill="#FDD21E" transform="translate(362,29)"/>
<path d="M0 0 C0.33 0.66 0.66 1.32 1 2 C2.65 1.34 4.3 0.68 6 0 C6.495 2.475 6.495 2.475 7 5 C9.64 5.33 12.28 5.66 15 6 C14.01 6.33 13.02 6.66 12 7 C12 8.32 12 9.64 12 11 C9.69 11 7.38 11 5 11 C4.814375 12.7634375 4.814375 12.7634375 4.625 14.5625 C4.13564065 18.54120426 3.1944795 22.17766559 2 26 C1.67 25.34 1.34 24.68 1 24 C-0.32 24 -1.64 24 -3 24 C-3 25.65 -3 27.3 -3 29 C-5.46800047 27.84826645 -7.04783565 26.95216435 -9 25 C-9 25.99 -9 26.98 -9 28 C-9.66 28 -10.32 28 -11 28 C-10.69024532 26.22868439 -10.37709575 24.45796222 -10.0625 22.6875 C-9.80146484 21.20830078 -9.80146484 21.20830078 -9.53515625 19.69921875 C-9 17 -9 17 -8 14 C-12.38351301 16.39076077 -12.38351301 16.39076077 -15 20.4375 C-15 23.39744042 -14.28535369 25.35368359 -13 28 C-14.9375 27.5 -14.9375 27.5 -17 26 C-17.68790422 23.30341548 -17.81946464 20.7982981 -18 18 C-18.66 18 -19.32 18 -20 18 C-20.33 18.66 -20.66 19.32 -21 20 C-21.66 19.67 -22.32 19.34 -23 19 C-23.99 19.66 -24.98 20.32 -26 21 C-26.99 21 -27.98 21 -29 21 C-29 22.65 -29 24.3 -29 26 C-28.34 26.33 -27.68 26.66 -27 27 C-27.99 27 -28.98 27 -30 27 C-30.29632131 22.70334096 -30.35567893 19.88919731 -28.75 15.875 C-21.29457632 8.08069342 -11.39371562 5.97231533 -1 5 C-1.66 4.34 -2.32 3.68 -3 3 C-2.01 2.67 -1.02 2.34 0 2 C0 1.34 0 0.68 0 0 Z " fill="#FCAA0A" transform="translate(69,60)"/>
<path d="M0 0 C2.47676894 2.97473215 3.68316126 5.57289557 4.75390625 9.28125 C5.05103516 10.28800781 5.34816406 11.29476562 5.65429688 12.33203125 C6.10385742 13.90017578 6.10385742 13.90017578 6.5625 15.5 C7.16471349 17.57386471 7.77006193 19.64682227 8.37890625 21.71875 C8.77444702 23.09450195 8.77444702 23.09450195 9.17797852 24.49804688 C10.47604509 28.44891896 11.91220825 31.1929166 15 34 C14 35 14 35 11.77514648 35.11352539 C10.81680908 35.10828857 9.85847168 35.10305176 8.87109375 35.09765625 C7.31938477 35.09282227 7.31938477 35.09282227 5.73632812 35.08789062 C4.64771484 35.07951172 3.55910156 35.07113281 2.4375 35.0625 C0.7987793 35.05573242 0.7987793 35.05573242 -0.87304688 35.04882812 C-3.58208495 35.03699826 -6.29101599 35.02051543 -9 35 C-8.84225098 34.40904541 -8.68450195 33.81809082 -8.52197266 33.20922852 C-7.79521029 30.13323568 -7.60687922 27.08774485 -7.375 23.9375 C-7.27960938 22.70902344 -7.18421875 21.48054688 -7.0859375 20.21484375 C-6.81641864 16.98163494 -6.81641864 16.98163494 -8 14 C-4.98968256 13.06576355 -4.13349732 12.95550089 -1 14 C-1.33 12.68 -1.66 11.36 -2 10 C-1.34 10 -0.68 10 0 10 C0.25030977 7.58380177 0.25030977 7.58380177 0 5 C-0.99 4.34 -1.98 3.68 -3 3 C-2 1 -2 1 0 0 Z " fill="#FB8115" transform="translate(113,81)"/>
<path d="M0 0 C1.32 0.33 2.64 0.66 4 1 C4 2.32 4 3.64 4 5 C5.98 4.34 7.96 3.68 10 3 C11.11593757 6.37643832 11.03997393 6.90477756 9.55859375 10.43359375 C8.86280674 11.77412548 8.15506099 13.1084962 7.4375 14.4375 C6.69488294 15.86238009 5.95402255 17.28817698 5.21484375 18.71484375 C4.84214355 19.42882324 4.46944336 20.14280273 4.08544922 20.87841797 C1.54939841 25.8352964 -0.70690929 30.92740539 -3 36 C-3.66 35.67 -4.32 35.34 -5 35 C-4.67 32.69 -4.34 30.38 -4 28 C-3.34 28 -2.68 28 -2 28 C-2.99 27.01 -3.98 26.02 -5 25 C-9.39314793 26.01160848 -9.39314793 26.01160848 -12.375 29.125 C-12.684375 30.053125 -12.684375 30.053125 -13 31 C-13.99 31 -14.98 31 -16 31 C-14.51200112 26.04000375 -12.35784633 21.58669194 -10 17 C-8.74491252 14.50253835 -7.49774117 12.00113818 -6.25 9.5 C-5.63033393 8.26035387 -5.01055183 7.02076574 -4.390625 5.78125 C-3.93171875 4.8634375 -3.4728125 3.945625 -3 3 C-2.34 3 -1.68 3 -1 3 C-0.67 2.01 -0.34 1.02 0 0 Z " fill="#FBBE16" transform="translate(283,44)"/>
<path d="M0 0 C1.8125 1.1875 1.8125 1.1875 3 3 C3.04731525 4.66599491 3.05180256 6.33413858 3 8 C9.69891766 6.34211897 14.60695547 4.33788364 20 0 C19.34 1.65 18.68 3.3 18 5 C20.31 3.68 22.62 2.36 25 1 C25 1.66 25 2.32 25 3 C26.32 3 27.64 3 29 3 C29 2.34 29 1.68 29 1 C29.99 1 30.98 1 32 1 C32 2.65 32 4.3 32 6 C34.64 6 37.28 6 40 6 C39.67 6.66 39.34 7.32 39 8 C36.36 7.67 33.72 7.34 31 7 C30.505 5.515 30.505 5.515 30 4 C28.68 4 27.36 4 26 4 C26 4.763125 26 5.52625 26 6.3125 C25 9 25 9 21.6875 10.625 C20.13428401 11.11387194 18.57011195 11.56846302 17 12 C16.02546875 12.27972656 15.0509375 12.55945313 14.046875 12.84765625 C0.87477701 16.40544654 0.87477701 16.40544654 -4.8125 13.625 C-7 12 -7 12 -9 10 C-9.375 6.5625 -9.375 6.5625 -9 3 C-6.34915657 -0.04356098 -3.94419493 -0.60679922 0 0 Z " fill="#FC7D20" transform="translate(28,111)"/>
<path d="M0 0 C0.33 0.66 0.66 1.32 1 2 C2.32 2 3.64 2 5 2 C5.39832031 3.49853516 5.39832031 3.49853516 5.8046875 5.02734375 C6.16103998 6.33084361 6.51783368 7.6342229 6.875 8.9375 C7.04902344 9.59685547 7.22304687 10.25621094 7.40234375 10.93554688 C7.87476237 12.641503 8.43215028 14.32339261 9 16 C9.66 16.33 10.32 16.66 11 17 C11.99 14.69 12.98 12.38 14 10 C15.32 10.33 16.64 10.66 18 11 C18.495 12.98 18.495 12.98 19 15 C18.34 15 17.68 15 17 15 C16.67 16.32 16.34 17.64 16 19 C13.22276075 19.78688445 10.77389923 20.11949924 7.890625 20.09765625 C7.13652344 20.09443359 6.38242188 20.09121094 5.60546875 20.08789062 C4.82816406 20.07951172 4.05085938 20.07113281 3.25 20.0625 C2.45722656 20.05798828 1.66445312 20.05347656 0.84765625 20.04882812 C-1.10159508 20.03708565 -3.05080738 20.01915146 -5 20 C-6.78707657 16.94242368 -7.18828906 14.8936518 -7 11.375 C-6.83286503 9.07776501 -6.83286503 9.07776501 -7 7 C-7.66 6.34 -8.32 5.68 -9 5 C-9 4.01 -9 3.02 -9 2 C-16.26 2 -23.52 2 -31 2 C-31 1.67 -31 1.34 -31 1 C-23.41 1 -15.82 1 -8 1 C-8 1.99 -8 2.98 -8 4 C-7.01 3.67 -6.02 3.34 -5 3 C-4.67 2.34 -4.34 1.68 -4 1 C-1.9375 0.375 -1.9375 0.375 0 0 Z " fill="#FB8B07" transform="translate(244,84)"/>
<path d="M0 0 C1.32 0 2.64 0 4 0 C4 0.99 4 1.98 4 3 C5.65 2.67 7.3 2.34 9 2 C9.268125 2.721875 9.53625 3.44375 9.8125 4.1875 C10.88930887 6.97708682 10.88930887 6.97708682 12.44140625 9.18359375 C14.34133541 12.61679907 15.23994472 16.08696342 16.125 19.875 C16.29386719 20.55691406 16.46273437 21.23882812 16.63671875 21.94140625 C17.68530616 26.276118 18.43409656 30.57671389 19 35 C18.34 35 17.68 35 17 35 C17 33.35 17 31.7 17 30 C16.01 29.67 15.02 29.34 14 29 C14 25.7 14 22.4 14 19 C9.76915097 20.68807908 9.76915097 20.68807908 7 24 C6.34 24 5.68 24 5 24 C4.67 25.32 4.34 26.64 4 28 C-1.28 27.67 -6.56 27.34 -12 27 C-12 26.67 -12 26.34 -12 26 C-7.38 25.67 -2.76 25.34 2 25 C1.67 24.01 1.34 23.02 1 22 C0.9314505 20.10529184 0.91519628 18.2083166 0.9375 16.3125 C0.94652344 15.31863281 0.95554688 14.32476562 0.96484375 13.30078125 C0.97644531 12.54152344 0.98804688 11.78226563 1 11 C0.34 11 -0.32 11 -1 11 C-1.0270043 9.54176788 -1.04639787 8.08339325 -1.0625 6.625 C-1.07410156 5.81289063 -1.08570313 5.00078125 -1.09765625 4.1640625 C-1 2 -1 2 0 0 Z M12 27 C12.99 28.485 12.99 28.485 14 30 C13.34 30 12.68 30 12 30 C12 29.01 12 28.02 12 27 Z " fill="#FDB709" transform="translate(229,51)"/>
<path d="M0 0 C1.84939431 2.07132162 2.48282795 2.96147815 2.5625 5.75 C0.66878044 11.3128012 -2.54545216 13.88820601 -7.4375 16.75 C-10.92614534 18.45375702 -12.4499556 18.75 -16.4375 18.75 C-17.0975 17.76 -17.7575 16.77 -18.4375 15.75 C-22.00519552 15.01393501 -22.00519552 15.01393501 -25.4375 14.75 C-25.4375 12.77 -25.4375 10.79 -25.4375 8.75 C-24.7775 8.42 -24.1175 8.09 -23.4375 7.75 C-23.7675 9.73 -24.0975 11.71 -24.4375 13.75 C-20.4775 12.76 -16.5175 11.77 -12.4375 10.75 C-12.4375 9.1 -12.4375 7.45 -12.4375 5.75 C-14.7475 5.75 -17.0575 5.75 -19.4375 5.75 C-18.28576645 3.28199953 -17.38966435 1.70216435 -15.4375 -0.25 C-10.53804841 -1.69101517 -4.61851621 -2.36846985 0 0 Z " fill="#FAA020" transform="translate(93.4375,78.25)"/>
<path d="M0 0 C0.66 0 1.32 0 2 0 C1.88260541 1.47978969 1.75553868 2.95881184 1.625 4.4375 C1.52058594 5.67306641 1.52058594 5.67306641 1.4140625 6.93359375 C1.05712962 9.57691744 0.56160816 12.09330847 -0.02587891 14.69165039 C-0.20776764 15.49929337 -0.38965637 16.30693634 -0.57705688 17.13905334 C-0.71662811 17.75316574 -0.85619934 18.36727814 -1 19 C-2.14662109 18.96970703 -3.29324219 18.93941406 -4.47460938 18.90820312 C-35.7328078 18.08398614 -35.7328078 18.08398614 -67 18 C-66.67257813 17.12085937 -66.34515625 16.24171875 -66.0078125 15.3359375 C-65.05579413 12.18468288 -64.78689703 9.8848099 -64.875 6.625 C-64.89304688 5.75101562 -64.91109375 4.87703125 -64.9296875 3.9765625 C-64.95289063 3.32429688 -64.97609375 2.67203125 -65 2 C-64.01 2.66 -63.02 3.32 -62 4 C-61.7421875 6.56640625 -61.7421875 6.56640625 -61.875 9.5625 C-61.94567363 11.37410084 -61.99417987 13.18703048 -62 15 C-60.91784458 16.30595419 -60.91784458 16.30595419 -58.30859375 16.1328125 C-42.8647098 16.10164422 -27.4332833 15.531062 -12 15 C-11.67 14.01 -11.34 13.02 -11 12 C-9.68 12 -8.36 12 -7 12 C-7 11.01 -7 10.02 -7 9 C-7.66 8.34 -8.32 7.68 -9 7 C-8.071875 6.5875 -7.14375 6.175 -6.1875 5.75 C-3.07312814 4.04014879 -1.95780365 2.8388153 0 0 Z " fill="#F58A25" transform="translate(300,87)"/>
<path d="M0 0 C-0.33 2.31 -0.66 4.62 -1 7 C1.97 7.33 4.94 7.66 8 8 C7.67 8.66 7.34 9.32 7 10 C4.03 10 1.06 10 -2 10 C-2.99 12.97 -3.98 15.94 -5 19 C-5.33 19 -5.66 19 -6 19 C-6.33 16.69 -6.66 14.38 -7 12 C-8.32 12.33 -9.64 12.66 -11 13 C-11 13.99 -11 14.98 -11 16 C-11.99 16.33 -12.98 16.66 -14 17 C-14.19658808 18.41543415 -14.38187546 19.83244031 -14.5625 21.25 C-14.66691406 22.03890625 -14.77132813 22.8278125 -14.87890625 23.640625 C-15.00102173 26.01990719 -14.65530174 27.7282873 -14 30 C-14 30.66 -14 31.32 -14 32 C-15.98 32.495 -15.98 32.495 -18 33 C-17.649375 33.94875 -17.29875 34.8975 -16.9375 35.875 C-16 39 -16 39 -17 41 C-17.0716735 43.55157655 -17.09308442 46.07472971 -17.0625 48.625 C-17.05573242 49.68460938 -17.05573242 49.68460938 -17.04882812 50.765625 C-17.03703875 52.51045275 -17.01910324 54.255237 -17 56 C-22.44190245 47.83714633 -20.89823874 31.84558839 -19.25 22.4375 C-17.39972567 14.8565149 -13.73209274 8.336776 -8 3 C-2.96774194 0 -2.96774194 0 0 0 Z " fill="#FCDE2D" transform="translate(325,29)"/>
<path d="M0 0 C1.20628008 2.33214148 2.1654738 4.49642139 3 7 C2.01 8.485 2.01 8.485 1 10 C0.90536652 11.7479361 0.87011037 13.49951087 0.875 15.25 C0.539662 19.8410821 -0.29535884 22.03995346 -3.6875 25.1875 C-6.3940543 27.20043913 -7.97312588 27.99391529 -11.3125 28.75 C-14 28 -14 28 -15.875 25.5 C-16.24625 24.675 -16.6175 23.85 -17 23 C-17.598125 23.33 -18.19625 23.66 -18.8125 24 C-21 25 -21 25 -24 25 C-23 22 -23 22 -22 21 C-19.98035801 20.92755947 -17.95832876 20.91622812 -15.9375 20.9375 C-14.28041016 20.95103516 -14.28041016 20.95103516 -12.58984375 20.96484375 C-11.73519531 20.97644531 -10.88054687 20.98804687 -10 21 C-6.55903827 15.36933535 -5.88943501 9.46671569 -5 3 C-4.34 3 -3.68 3 -3 3 C-2.67 2.34 -2.34 1.68 -2 1 C-1.34 0.67 -0.68 0.34 0 0 Z " fill="#FC9805" transform="translate(351,76)"/>
<path d="M0 0 C2.15229884 3.22844826 2.60309873 5.18974777 3 9 C2.67 9.99 2.34 10.98 2 12 C2.639375 12.12375 3.27875 12.2475 3.9375 12.375 C4.618125 12.58125 5.29875 12.7875 6 13 C7.60670684 16.21341369 6.82510855 19.62958968 6.5625 23.125 C6.51029297 23.87910156 6.45808594 24.63320313 6.40429688 25.41015625 C6.27454996 27.2737937 6.13792512 29.13694996 6 31 C5.67 31 5.34 31 5 31 C4.505 24.565 4.505 24.565 4 18 C2.02 21.96 0.04 25.92 -2 30 C-2.33 30 -2.66 30 -3 30 C-3.33 28.35 -3.66 26.7 -4 25 C-6.64 24.67 -9.28 24.34 -12 24 C-11.67 22.68 -11.34 21.36 -11 20 C-10.67 20.33 -10.34 20.66 -10 21 C-6.7 14.07 -3.4 7.14 0 0 Z " fill="#FBCB22" transform="translate(171,35)"/>
<path d="M0 0 C0.33 0 0.66 0 1 0 C1.01981934 0.58491211 1.03963867 1.16982422 1.06005859 1.77246094 C1.15553481 4.43208025 1.26512142 7.09093838 1.375 9.75 C1.4059375 10.67039062 1.436875 11.59078125 1.46875 12.5390625 C1.50742188 13.42851563 1.54609375 14.31796875 1.5859375 15.234375 C1.63306885 16.45979004 1.63306885 16.45979004 1.68115234 17.70996094 C2.02868454 20.20601917 2.67095532 21.86620725 4 24 C4.66 24.33 5.32 24.66 6 25 C6 25.99 6 26.98 6 28 C-1.09588944 28.90106533 -7.95540039 29.70778172 -15 28 C-15 27.01 -15 26.02 -15 25 C-14.01 24.34 -13.02 23.68 -12 23 C-11.67 22.01 -11.34 21.02 -11 20 C-10.01 20 -9.02 20 -8 20 C-8.061875 18.6696875 -8.061875 18.6696875 -8.125 17.3125 C-8.00102754 14.02722987 -7.38612096 11.94550705 -6 9 C-5.01 9.33 -4.02 9.66 -3 10 C-3.33 12.64 -3.66 15.28 -4 18 C-1.30059401 13.38851477 -0.80739204 10.29671902 -1 5 C-0.71479595 3.32442621 -0.40044304 1.65182755 0 0 Z " fill="#FB8203" transform="translate(138,77)"/>
<path d="M0 0 C0.99 0.33 1.98 0.66 3 1 C3.33 2.65 3.66 4.3 4 6 C5.485 6.495 5.485 6.495 7 7 C7 10.3 7 13.6 7 17 C6.34 17 5.68 17 5 17 C6.32 17.66 7.64 18.32 9 19 C9 19.66 9 20.32 9 21 C-2.88 21 -14.76 21 -27 21 C-26.34 19.68 -25.68 18.36 -25 17 C-24.67 17.66 -24.34 18.32 -24 19 C-20.37 19 -16.74 19 -13 19 C-12.67 18.34 -12.34 17.68 -12 17 C-10.35 17.33 -8.7 17.66 -7 18 C-5.18757677 13.9811485 -3.66498383 10.38889325 -3 6 C-2.01 6 -1.02 6 0 6 C0 4.02 0 2.04 0 0 Z M2 7 C2.66 7.66 3.32 8.32 4 9 C4 8.34 4 7.68 4 7 C3.34 7 2.68 7 2 7 Z " fill="#FA8A04" transform="translate(204,83)"/>
<path d="M0 0 C-0.66 0.433125 -1.32 0.86625 -2 1.3125 C-2.66 1.869375 -3.32 2.42625 -4 3 C-4 3.99 -4 4.98 -4 6 C-3.01 6.33 -2.02 6.66 -1 7 C-1 9.64 -1 12.28 -1 15 C-1.66 15 -2.32 15 -3 15 C-2.67 12.69 -2.34 10.38 -2 8 C-6.38351301 10.39076077 -6.38351301 10.39076077 -9 14.4375 C-9 17.39744042 -8.28535369 19.35368359 -7 22 C-8.9375 21.5 -8.9375 21.5 -11 20 C-11.68790422 17.30341548 -11.81946464 14.7982981 -12 12 C-12.66 12 -13.32 12 -14 12 C-14.33 12.66 -14.66 13.32 -15 14 C-15.66 13.67 -16.32 13.34 -17 13 C-17.99 13.66 -18.98 14.32 -20 15 C-20.99 15 -21.98 15 -23 15 C-23 16.65 -23 18.3 -23 20 C-22.34 20.33 -21.68 20.66 -21 21 C-21.99 21 -22.98 21 -24 21 C-24.29632131 16.70334096 -24.35567893 13.88919731 -22.75 9.875 C-17.06784457 3.93456478 -8.26075735 -0.22326371 0 0 Z " fill="#FAAD18" transform="translate(63,66)"/>
<path d="M0 0 C0.99 0.33 1.98 0.66 3 1 C4.34579439 9.97196262 4.34579439 9.97196262 3 13 C1.4375 14.75 1.4375 14.75 0 16 C0.66 16.33 1.32 16.66 2 17 C-0.05233685 19.2477975 -1.00667261 20.0022242 -4 21 C-6.02450921 23.02450921 -7.42933752 25.61867301 -9 28 C-10.65328891 23.90916974 -9.32631445 20.19855123 -8.25 16.125 C-8.07984375 15.43019531 -7.9096875 14.73539063 -7.734375 14.01953125 C-4.99688919 3.33125946 -4.99688919 3.33125946 0 0 Z " fill="#FCBA0B" transform="translate(215,50)"/>
<path d="M0 0 C1.18613892 0.00785522 1.18613892 0.00785522 2.39624023 0.01586914 C3.67724609 0.02070313 3.67724609 0.02070313 4.98413086 0.02563477 C5.88196289 0.03401367 6.77979492 0.04239258 7.70483398 0.05102539 C8.6065332 0.05553711 9.50823242 0.06004883 10.43725586 0.06469727 C12.67234712 0.07652315 14.90730835 0.09300319 17.14233398 0.11352539 C16.14233398 3.11352539 16.14233398 3.11352539 14.59936523 4.30102539 C12.24487195 7.22993929 12.75021018 10.51986185 12.82983398 14.11352539 C12.83966309 14.95713623 12.84949219 15.80074707 12.85961914 16.66992188 C13.02993505 25.84549262 13.52512684 35.01308667 14.01733398 44.17602539 C14.05635834 44.93101318 14.09538269 45.68600098 14.1355896 46.46386719 C14.59337362 55.13083705 15.27403204 63.61217843 17.14233398 72.11352539 C16.48233398 72.11352539 15.82233398 72.11352539 15.14233398 72.11352539 C12.82210248 68.63317814 12.85699849 67.10263481 12.76342773 62.98461914 C12.72926758 61.78514648 12.69510742 60.58567383 12.65991211 59.34985352 C12.63348633 58.09624023 12.60706055 56.84262695 12.57983398 55.55102539 C12.52007654 53.0704559 12.45647408 50.58997509 12.38842773 48.10961914 C12.36449951 47.00803467 12.34057129 45.9064502 12.31591797 44.77148438 C12.31658174 42.13870879 12.31658174 42.13870879 11.14233398 40.11352539 C10.99999643 38.1881165 10.91606049 36.25824918 10.86108398 34.32836914 C10.82370117 33.15725586 10.78631836 31.98614258 10.74780273 30.77954102 C10.71299805 29.54913086 10.67819336 28.3187207 10.64233398 27.05102539 C10.41958876 19.34981554 10.11325103 11.75949711 9.14233398 4.11352539 C9.14233398 3.78352539 9.14233398 3.45352539 9.14233398 3.11352539 C8.15233398 3.60852539 8.15233398 3.60852539 7.14233398 4.11352539 C7.14233398 3.45352539 7.14233398 2.79352539 7.14233398 2.11352539 C3.71002951 2.3774604 3.71002951 2.3774604 0.14233398 3.11352539 C-0.84766602 4.59852539 -0.84766602 4.59852539 -1.85766602 6.11352539 C-2.84766602 6.11352539 -3.83766602 6.11352539 -4.85766602 6.11352539 C-2.56663777 0.15685196 -2.56663777 0.15685196 0 0 Z " fill="#FCE83B" transform="translate(176.857666015625,28.886474609375)"/>
<path d="M0 0 C1.32 0 2.64 0 4 0 C3.34 2.97 2.68 5.94 2 9 C3.11375 8.95875 4.2275 8.9175 5.375 8.875 C9 9 9 9 11 11 C11 11.99 11 12.98 11 14 C7.7 14 4.4 14 1 14 C1 16.31 1 18.62 1 21 C0.67 21 0.34 21 0 21 C0 18.69 0 16.38 0 14 C-1.98 14 -3.96 14 -6 14 C-6 13.34 -6 12.68 -6 12 C-3.36 12 -0.72 12 2 12 C-0.31 11.34 -2.62 10.68 -5 10 C-5 9.01 -5 8.02 -5 7 C-6.65 7.66 -8.3 8.32 -10 9 C-10.33 7.35 -10.66 5.7 -11 4 C-9.35 4 -7.7 4 -6 4 C-6 3.01 -6 2.02 -6 1 C-5.360625 1.33 -4.72125 1.66 -4.0625 2 C-2.23205433 3.07271225 -2.23205433 3.07271225 -1 3 C-0.67 2.01 -0.34 1.02 0 0 Z " fill="#FB8E04" transform="translate(66,84)"/>
<path d="M0 0 C2 2 2 2 2.125 4.4375 C2.08375 5.283125 2.0425 6.12875 2 7 C2 7.99 2 8.98 2 10 C3.65 10.33 5.3 10.66 7 11 C5.35452013 12.98193582 4.44124297 13.90980116 1.87890625 14.43359375 C-1.88642847 14.43994339 -4.29289169 14.4311636 -7.5625 12.4375 C-9.55465386 9.05949997 -9.56014129 6.85097134 -9 3 C-6.33473763 -0.06011605 -3.96110751 -0.52119836 0 0 Z " fill="#FD6E12" transform="translate(28,111)"/>
<path d="M0 0 C0.66 0 1.32 0 2 0 C2.33 0.66 2.66 1.32 3 2 C3.33 1.34 3.66 0.68 4 0 C5.65 0.33 7.3 0.66 9 1 C9.37495921 8.74915697 8.96478109 16.4422627 3.8125 22.625 C2.9153125 23.305625 2.9153125 23.305625 2 24 C1.94577053 22.5629191 1.90710277 21.12524538 1.875 19.6875 C1.85179687 18.88699219 1.82859375 18.08648437 1.8046875 17.26171875 C2 15 2 15 4 12 C2.77992056 9.3094472 2.77992056 9.3094472 1 7 C0.34 6.34 -0.32 5.68 -1 5 C-0.625 2.375 -0.625 2.375 0 0 Z " fill="#FBA403" transform="translate(349,71)"/>
<path d="M0 0 C2.67789836 0.67393775 4.71344291 1.0625 7.5 1.0625 C7.83 2.0525 8.16 3.0425 8.5 4.0625 C6.85 4.3925 5.2 4.7225 3.5 5.0625 C4.49 7.0425 5.48 9.0225 6.5 11.0625 C5.84 11.7225 5.18 12.3825 4.5 13.0625 C3.84 12.4025 3.18 11.7425 2.5 11.0625 C-0.15537372 10.49729997 -2.79144713 10.32461802 -5.5 10.0625 C-5.83 10.7225 -6.16 11.3825 -6.5 12.0625 C-7.16 11.4025 -7.82 10.7425 -8.5 10.0625 C-5.53 9.4025 -2.56 8.7425 0.5 8.0625 C-4.74385089 6.3145497 -8.97322267 5.86857799 -14.5 6.0625 C-14.5 5.4025 -14.5 4.7425 -14.5 4.0625 C-12.19 4.0625 -9.88 4.0625 -7.5 4.0625 C-7.5 2.7425 -7.5 1.4225 -7.5 0.0625 C-4.22445926 -1.02934691 -3.23940625 -0.82604859 0 0 Z " fill="#FCC82C" transform="translate(88.5,66.9375)"/>
<path d="M0 0 C1.32 0 2.64 0 4 0 C3.67 1.65 3.34 3.3 3 5 C1.35 5 -0.3 5 -2 5 C-2.33 5.99 -2.66 6.98 -3 8 C-8.28 8 -13.56 8 -19 8 C-19.33 6.02 -19.66 4.04 -20 2 C-10.1 1.505 -10.1 1.505 0 1 C0 0.67 0 0.34 0 0 Z " fill="#FC7E02" transform="translate(291,95)"/>
<path d="M0 0 C0.75410156 0.04833984 1.50820313 0.09667969 2.28515625 0.14648438 C3.45111328 0.2305957 3.45111328 0.2305957 4.640625 0.31640625 C5.82978516 0.3947168 5.82978516 0.3947168 7.04296875 0.47460938 C8.99256497 0.60379949 10.94165386 0.7406059 12.890625 0.87890625 C12.890625 3.87890625 12.890625 3.87890625 11.515625 5.44140625 C10.979375 5.91578125 10.443125 6.39015625 9.890625 6.87890625 C9.230625 7.53890625 8.570625 8.19890625 7.890625 8.87890625 C7.890625 6.89890625 7.890625 4.91890625 7.890625 2.87890625 C6.240625 3.53890625 4.590625 4.19890625 2.890625 4.87890625 C2.890625 4.21890625 2.890625 3.55890625 2.890625 2.87890625 C1.570625 3.20890625 0.250625 3.53890625 -1.109375 3.87890625 C-0.8309375 5.05453125 -0.8309375 5.05453125 -0.546875 6.25390625 C-0.109375 8.87890625 -0.109375 8.87890625 -1.109375 10.87890625 C-1.25942473 12.25236975 -1.35775506 13.63175885 -1.42578125 15.01171875 C-1.46767578 15.81738281 -1.50957031 16.62304688 -1.55273438 17.453125 C-1.61170898 18.71576172 -1.61170898 18.71576172 -1.671875 20.00390625 C-1.73665039 21.27814453 -1.73665039 21.27814453 -1.80273438 22.578125 C-1.90891736 24.67818848 -2.00965997 26.77852573 -2.109375 28.87890625 C-3.429375 28.54890625 -4.749375 28.21890625 -6.109375 27.87890625 C-5.779375 26.55890625 -5.449375 25.23890625 -5.109375 23.87890625 C-4.779375 24.20890625 -4.449375 24.53890625 -4.109375 24.87890625 C-4.08227377 22.31633445 -4.06248729 19.7540526 -4.046875 17.19140625 C-4.03849609 16.47017578 -4.03011719 15.74894531 -4.02148438 15.00585938 C-4.00393868 11.16335243 -4.17413279 7.61251099 -5.109375 3.87890625 C-6.099375 3.54890625 -7.089375 3.21890625 -8.109375 2.87890625 C-8.109375 2.21890625 -8.109375 1.55890625 -8.109375 0.87890625 C-5.27553392 0.05375841 -2.94002249 -0.20045608 0 0 Z " fill="#FBE430" transform="translate(406.109375,28.12109375)"/>
<path d="M0 0 C2 1.25 2 1.25 3 3 C3 6.79557881 2.49821059 8.62902617 1 12 C-2.12452436 11.62711438 -5.06019275 11.14684788 -8 10 C-9.5 7.0625 -9.5 7.0625 -10 4 C-10.33 3.01 -10.66 2.02 -11 1 C-7.24655441 -0.25114853 -3.92669645 -0.45811459 0 0 Z " fill="#FC9A03" transform="translate(91,77)"/>
<path d="M0 0 C0.66 0.66 1.32 1.32 2 2 C3.32 1.34 4.64 0.68 6 0 C6 2.97 6 5.94 6 9 C4.35 9 2.7 9 1 9 C1.52268466 11.76276177 2.10869587 14.3260876 3 17 C0.0280615 15.87548273 -2.33440687 14.77706209 -5 13 C-5.51171875 10.8359375 -5.51171875 10.8359375 -5.6875 8.375 C-5.75324219 7.55773437 -5.81898437 6.74046875 -5.88671875 5.8984375 C-5.92410156 5.27195312 -5.96148437 4.64546875 -6 4 C-4.02 3.34 -2.04 2.68 0 2 C0 1.34 0 0.68 0 0 Z " fill="#FD9502" transform="translate(46,77)"/>
<path d="M0 0 C6.6 0 13.2 0 20 0 C20.33 1.32 20.66 2.64 21 4 C20.34 4 19.68 4 19 4 C19 3.01 19 2.02 19 1 C13.06 1.495 13.06 1.495 7 2 C7.33 3.32 7.66 4.64 8 6 C7.67 6.99 7.34 7.98 7 9 C6.34 9 5.68 9 5 9 C5 18.57 5 28.14 5 38 C3.00669418 34.01338836 2.76710987 32.6202406 2.83984375 28.3515625 C2.85080078 27.26359375 2.86175781 26.175625 2.87304688 25.0546875 C2.90495117 23.35699219 2.90495117 23.35699219 2.9375 21.625 C2.97213109 19.38808843 3.00222334 17.15110109 3.02734375 14.9140625 C3.04531006 13.9235791 3.06327637 12.9330957 3.08178711 11.91259766 C2.99607586 8.86025367 2.56776118 5.99708917 2 3 C1.34 3 0.68 3 0 3 C0 2.01 0 1.02 0 0 Z " fill="#FCE541" transform="translate(127,29)"/>
<path d="M0 0 C2.15229884 3.22844826 2.60309873 5.18974777 3 9 C2.67 9.99 2.34 10.98 2 12 C2.639375 12.12375 3.27875 12.2475 3.9375 12.375 C4.618125 12.58125 5.29875 12.7875 6 13 C7.60670684 16.21341369 6.82510855 19.62958968 6.5625 23.125 C6.51029297 23.87910156 6.45808594 24.63320313 6.40429688 25.41015625 C6.27454996 27.2737937 6.13792512 29.13694996 6 31 C5.67 31 5.34 31 5 31 C4.67 26.71 4.34 22.42 4 18 C3.01 18.33 2.02 18.66 1 19 C0 18 0 18 -0.0625 15.4375 C-0.041875 14.633125 -0.02125 13.82875 0 13 C-1.65 13 -3.3 13 -5 13 C-3.58192622 8.52761347 -1.88695626 4.28853694 0 0 Z " fill="#FBC905" transform="translate(171,35)"/>
<path d="M0 0 C5.26053037 -0.31563182 8.44573816 0.33409063 13 3 C13 3.66 13 4.32 13 5 C1.12 5 -10.76 5 -23 5 C-22.34 3.68 -21.68 2.36 -21 1 C-20.67 1.66 -20.34 2.32 -20 3 C-16.37 3 -12.74 3 -9 3 C-8.67 2.34 -8.34 1.68 -8 1 C-5.36 1.33 -2.72 1.66 0 2 C0 1.34 0 0.68 0 0 Z " fill="#FA7B05" transform="translate(200,99)"/>
<path d="M0 0 C5.07280803 0.01939234 10.14387441 0.0710197 15.21606445 0.15258789 C16.94155386 0.17578911 18.6671853 0.19016862 20.39282227 0.19555664 C22.87346117 0.20483139 25.35185971 0.2457835 27.83203125 0.29296875 C28.98998955 0.28706978 28.98998955 0.28706978 30.17134094 0.28105164 C32.35473633 0.34057617 32.35473633 0.34057617 36 1 C38.01049805 3.54418945 38.01049805 3.54418945 39 6 C38.01 7.32 37.02 8.64 36 10 C35.505 7.03 35.505 7.03 35 4 C23.12 4 11.24 4 -1 4 C-0.67 2.68 -0.34 1.36 0 0 Z " fill="#FBE74B" transform="translate(263,28)"/>
<path d="M0 0 C0.99 0.99 1.98 1.98 3 3 C2.625 4.9375 2.625 4.9375 2 7 C2.39938767 9.09821215 2.39938767 9.09821215 3 11 C3 11.66 3 12.32 3 13 C1.68 13.33 0.36 13.66 -1 14 C-0.649375 14.94875 -0.29875 15.8975 0.0625 16.875 C1 20 1 20 0 22 C-0.0716735 24.55157655 -0.09308442 27.07472971 -0.0625 29.625 C-0.05573242 30.68460938 -0.05573242 30.68460938 -0.04882812 31.765625 C-0.03703875 33.51045275 -0.01910324 35.255237 0 37 C-3.84948633 31.2257705 -3.13852731 23.74888581 -3.0625 17 C-3.05798828 16.22527344 -3.05347656 15.45054688 -3.04882812 14.65234375 C-3.03719758 12.76819476 -3.01926906 10.88408635 -3 9 C-2.34 9 -1.68 9 -1 9 C-0.67 6.03 -0.34 3.06 0 0 Z " fill="#FABF05" transform="translate(308,48)"/>
<path d="M0 0 C0.83265381 0.00523682 1.66530762 0.01047363 2.52319336 0.01586914 C3.42231445 0.0190918 4.32143555 0.02231445 5.24780273 0.02563477 C6.66609375 0.03820312 6.66609375 0.03820312 8.11303711 0.05102539 C9.06243164 0.05553711 10.01182617 0.06004883 10.98999023 0.06469727 C13.34356776 0.07652429 15.69702188 0.09300514 18.05053711 0.11352539 C19.63830705 3.13307384 20.37450399 5.45181666 20.67553711 8.86352539 C20.75030273 9.66274414 20.82506836 10.46196289 20.90209961 11.28540039 C20.97557617 12.19032227 20.97557617 12.19032227 21.05053711 13.11352539 C20.39053711 12.78352539 19.73053711 12.45352539 19.05053711 12.11352539 C18.41772461 9.82836914 18.41772461 9.82836914 17.92553711 7.05102539 C17.75795898 6.13192383 17.59038086 5.21282227 17.41772461 4.26586914 C17.29655273 3.5555957 17.17538086 2.84532227 17.05053711 2.11352539 C14.92474698 2.1734068 12.79975298 2.26215283 10.67553711 2.36352539 C9.49217773 2.40993164 8.30881836 2.45633789 7.08959961 2.50415039 C3.99098628 2.77650631 3.99098628 2.77650631 2.67553711 4.92602539 C1.80947415 7.95724576 1.41137412 10.98627133 1.05053711 14.11352539 C0.39053711 14.11352539 -0.26946289 14.11352539 -0.94946289 14.11352539 C-0.9146582 13.20860352 -0.9146582 13.20860352 -0.87915039 12.28540039 C-0.86110352 11.48618164 -0.84305664 10.68696289 -0.82446289 9.86352539 C-0.80125977 9.07461914 -0.77805664 8.28571289 -0.75415039 7.47290039 C-0.96662509 4.90620598 -1.66292184 3.3219187 -2.94946289 1.11352539 C-1.94946289 0.11352539 -1.94946289 0.11352539 0 0 Z " fill="#FBE645" transform="translate(214.949462890625,28.886474609375)"/>
<path d="M0 0 C-0.66 0.433125 -1.32 0.86625 -2 1.3125 C-2.66 1.869375 -3.32 2.42625 -4 3 C-4 3.99 -4 4.98 -4 6 C-3.01 6.33 -2.02 6.66 -1 7 C-1 9.64 -1 12.28 -1 15 C-1.66 15 -2.32 15 -3 15 C-2.67 12.69 -2.34 10.38 -2 8 C-6.22104999 10.72190685 -6.22104999 10.72190685 -10 14 C-9.979375 13.05125 -9.95875 12.1025 -9.9375 11.125 C-9.77448174 8.09333717 -9.77448174 8.09333717 -11 6 C-13.01669827 4.86649466 -13.01669827 4.86649466 -15 4 C-13.44219668 3.32243118 -11.87849904 2.65840543 -10.3125 2 C-9.44238281 1.62875 -8.57226562 1.2575 -7.67578125 0.875 C-4.9427998 -0.01870488 -2.85299066 -0.16449676 0 0 Z " fill="#FBC32C" transform="translate(63,66)"/>
<path d="M0 0 C0.33 0 0.66 0 1 0 C1.02705729 1.77074917 1.04642195 3.54161711 1.0625 5.3125 C1.07410156 6.29863281 1.08570313 7.28476563 1.09765625 8.30078125 C1 11 1 11 0 14 C11.55 14.33 23.1 14.66 35 15 C35.33 14.34 35.66 13.68 36 13 C36.495 14.485 36.495 14.485 37 16 C32.13106243 17.00005149 27.48010723 17.05548724 22.5390625 16.87890625 C21.3532106 16.84348976 21.3532106 16.84348976 20.1434021 16.80735779 C17.63706107 16.73124603 15.13107088 16.64699864 12.625 16.5625 C10.91798549 16.50922664 9.21095424 16.45648667 7.50390625 16.40429688 C3.33571851 16.27570269 -0.83217418 16.13981524 -5 16 C-4.03213997 14.03998221 -3.07241945 12.11927909 -1.9375 10.25 C-0.54019308 6.89646338 -0.36096697 3.60966975 0 0 Z " fill="#F2AE5A" transform="translate(178,89)"/>
<path d="M0 0 C0.66 0 1.32 0 2 0 C2.0501123 1.00264893 2.10022461 2.00529785 2.15185547 3.03833008 C2.34223488 6.80906975 2.54210105 10.57926019 2.74462891 14.34936523 C2.8304936 15.97162907 2.91388977 17.59402573 2.99462891 19.21655273 C3.44725264 28.27740925 3.99949763 37.11801495 6 46 C5.34 46 4.68 46 4 46 C1.6797685 42.51965275 1.7146645 40.98910942 1.62109375 36.87109375 C1.58693359 35.67162109 1.55277344 34.47214844 1.51757812 33.23632812 C1.49115234 31.98271484 1.46472656 30.72910156 1.4375 29.4375 C1.37774256 26.95693051 1.31414009 24.4764497 1.24609375 21.99609375 C1.22216553 20.89450928 1.1982373 19.7929248 1.17358398 18.65795898 C1.17424776 16.0251834 1.17424776 16.0251834 0 14 C-0.07116382 11.62597499 -0.08409085 9.24999323 -0.0625 6.875 C-0.05347656 5.59367187 -0.04445312 4.31234375 -0.03515625 2.9921875 C-0.02355469 2.00476562 -0.01195312 1.01734375 0 0 Z " fill="#FACA46" transform="translate(188,55)"/>
<path d="M0 0 C2.3041065 2.80929782 3.58570192 5.21520568 4.60546875 8.6953125 C4.86650391 9.57574219 5.12753906 10.45617187 5.39648438 11.36328125 C5.65751953 12.27464844 5.91855469 13.18601562 6.1875 14.125 C6.46013672 15.04410156 6.73277344 15.96320313 7.01367188 16.91015625 C9 23.69055451 9 23.69055451 9 26 C8.34 26 7.68 26 7 26 C5.38935371 22.34920174 4.55105909 18.9492568 4 15 C3.01 15 2.02 15 1 15 C-0.6875 13 -0.6875 13 -2 11 C-1.34 10.67 -0.68 10.34 0 10 C0.25030977 7.58380177 0.25030977 7.58380177 0 5 C-0.99 4.34 -1.98 3.68 -3 3 C-2 1 -2 1 0 0 Z " fill="#F9A227" transform="translate(113,81)"/>
<path d="M0 0 C1.32 0.33 2.64 0.66 4 1 C4 2.32 4 3.64 4 5 C5.98 4.34 7.96 3.68 10 3 C10.33 3.66 10.66 4.32 11 5 C8.34771188 6.07525194 5.71631546 7.09456151 3 8 C2.67 8.66 2.34 9.32 2 10 C0.35 10 -1.3 10 -3 10 C-2.25 3.375 -2.25 3.375 0 0 Z M-5 10 C-3 11 -3 11 -3 11 Z " fill="#FBC603" transform="translate(283,44)"/>
<path d="M0 0 C0.66 0 1.32 0 2 0 C2.53293837 2.39370625 3.0515817 4.78908438 3.5625 7.1875 C3.71396484 7.86103516 3.86542969 8.53457031 4.02148438 9.22851562 C4.8403763 13.13253525 5.1282845 16.15187736 4 20 C0.13698083 18.53471687 -1.04580842 16.55307561 -3 13 C-3.66 12.34 -4.32 11.68 -5 11 C-3.02 10.67 -1.04 10.34 1 10 C0.67 6.7 0.34 3.4 0 0 Z " fill="#FCE430" transform="translate(109,13)"/>
<path d="M0 0 C1.5631897 0.00785522 1.5631897 0.00785522 3.15795898 0.01586914 C4.28266602 0.0190918 5.40737305 0.02231445 6.56616211 0.02563477 C7.75016602 0.03401367 8.93416992 0.04239258 10.15405273 0.05102539 C11.34192383 0.05553711 12.52979492 0.06004883 13.75366211 0.06469727 C16.69967499 0.07652864 19.64558954 0.09301252 22.59155273 0.11352539 C22.26155273 1.10352539 21.93155273 2.09352539 21.59155273 3.11352539 C21.59155273 2.45352539 21.59155273 1.79352539 21.59155273 1.11352539 C14.99155273 1.44352539 8.39155273 1.77352539 1.59155273 2.11352539 C0.73933278 5.52240522 0.48371519 7.9178717 0.52905273 11.36352539 C0.54258789 12.70157227 0.54258789 12.70157227 0.55639648 14.06665039 C0.56799805 14.74211914 0.57959961 15.41758789 0.59155273 16.11352539 C-1.38844727 15.45352539 -3.36844727 14.79352539 -5.40844727 14.11352539 C-4.41844727 13.78352539 -3.42844727 13.45352539 -2.40844727 13.11352539 C-2.40844727 10.14352539 -2.40844727 7.17352539 -2.40844727 4.11352539 C-4.05844727 3.78352539 -5.70844727 3.45352539 -7.40844727 3.11352539 C-6.76907227 2.80415039 -6.12969727 2.49477539 -5.47094727 2.17602539 C-1.37247982 0.06469368 -1.37247982 0.06469368 0 0 Z M-6.40844727 4.11352539 C-5.74844727 4.11352539 -5.08844727 4.11352539 -4.40844727 4.11352539 C-4.73844727 4.77352539 -5.06844727 5.43352539 -5.40844727 6.11352539 C-5.73844727 5.45352539 -6.06844727 4.79352539 -6.40844727 4.11352539 Z " fill="#FDC53E" transform="translate(212.408447265625,85.886474609375)"/>
<path d="M0 0 C0.66 0 1.32 0 2 0 C2.349746 6.30417167 1.04072396 11.84539417 -0.5 17.9375 C-0.73847656 18.90751953 -0.97695312 19.87753906 -1.22265625 20.87695312 C-1.80793388 23.25318032 -2.40053251 25.62732042 -3 28 C-3.33 28 -3.66 28 -4 28 C-4 23.66666667 -4 19.33333333 -4 15 C-3.34 14.67 -2.68 14.34 -2 14 C-2.02320313 13.15695313 -2.04640625 12.31390625 -2.0703125 11.4453125 C-2.08835938 10.34960938 -2.10640625 9.25390625 -2.125 8.125 C-2.14820313 7.03445312 -2.17140625 5.94390625 -2.1953125 4.8203125 C-2 2 -2 2 0 0 Z " fill="#FCCE28" transform="translate(220,48)"/>
<path d="M0 0 C3.64478912 0 5.09303401 0.85802506 8 3 C8.8125 5.1875 8.8125 5.1875 9 7 C7.02 7.99 7.02 7.99 5 9 C4.896875 8.360625 4.79375 7.72125 4.6875 7.0625 C4.3471875 6.0415625 4.3471875 6.0415625 4 5 C3.01 4.67 2.02 4.34 1 4 C0.67 4.99 0.34 5.98 0 7 C0.66 7.33 1.32 7.66 2 8 C1.67 9.65 1.34 11.3 1 13 C-1.0625 11.3125 -1.0625 11.3125 -3 9 C-2.82919705 5.58394108 -1.64784469 2.96612043 0 0 Z " fill="#FACC1A" transform="translate(391,45)"/>
<path d="M0 0 C0.99 0.66 1.98 1.32 3 2 C3.2578125 4.56640625 3.2578125 4.56640625 3.125 7.5625 C3.05432637 9.37410084 3.00582013 11.18703048 3 13 C3.98407311 14.20495909 3.98407311 14.20495909 5.85766602 14.11352539 C6.64842529 14.10828857 7.43918457 14.10305176 8.25390625 14.09765625 C9.10791016 14.09443359 9.96191406 14.09121094 10.84179688 14.08789062 C12.18854492 14.07532227 12.18854492 14.07532227 13.5625 14.0625 C14.46419922 14.05798828 15.36589844 14.05347656 16.29492188 14.04882812 C18.53001314 14.03700225 20.76497437 14.0205222 23 14 C22.67 14.66 22.34 15.32 22 16 C14.08 16 6.16 16 -2 16 C-1.34 14.02 -0.68 12.04 0 10 C0.23830229 7.25709721 0.23830229 7.25709721 0.125 4.625 C0.10695312 3.75101562 0.08890625 2.87703125 0.0703125 1.9765625 C0.04710937 1.32429688 0.02390625 0.67203125 0 0 Z " fill="#F8AB46" transform="translate(235,89)"/>
<path d="M0 0 C0.33 0 0.66 0 1 0 C1 3.3 1 6.6 1 10 C1.99 9.01 2.98 8.02 4 7 C6.26171875 6.70703125 6.26171875 6.70703125 8.6875 6.8125 C9.49574219 6.83957031 10.30398437 6.86664062 11.13671875 6.89453125 C11.75160156 6.92933594 12.36648437 6.96414062 13 7 C13 7.33 13 7.66 13 8 C11.906875 8.309375 10.81375 8.61875 9.6875 8.9375 C7.44592006 9.58337897 5.2130649 10.2623117 3 11 C1.77479736 14.00847418 1.77479736 14.00847418 1 17 C0.01 17 -0.98 17 -2 17 C-1.85848172 14.9163691 -1.71162064 12.83310062 -1.5625 10.75 C-1.48128906 9.58984375 -1.40007813 8.4296875 -1.31640625 7.234375 C-1.06752213 4.69022624 -0.71885058 2.44046752 0 0 Z " fill="#FBE743" transform="translate(61,16)"/>
<path d="M0 0 C1.69898948 4.99294868 -0.05773169 9.28530031 -2 14 C-4.1875 16.625 -4.1875 16.625 -6 18 C-6.05422947 16.5629191 -6.09289723 15.12524538 -6.125 13.6875 C-6.14820313 12.88699219 -6.17140625 12.08648437 -6.1953125 11.26171875 C-6 9 -6 9 -4 6 C-4.33 5.34 -4.66 4.68 -5 4 C-3.68 4 -2.36 4 -1 4 C-0.67 2.68 -0.34 1.36 0 0 Z " fill="#FAB12C" transform="translate(357,77)"/>
<path d="M0 0 C1.65322266 0.01740234 1.65322266 0.01740234 3.33984375 0.03515625 C4.99693359 0.04869141 4.99693359 0.04869141 6.6875 0.0625 C7.54214844 0.07410156 8.39679688 0.08570312 9.27734375 0.09765625 C9.27734375 2.40765625 9.27734375 4.71765625 9.27734375 7.09765625 C6.90234375 6.84765625 6.90234375 6.84765625 4.27734375 6.09765625 C2.96484375 4.03515625 2.96484375 4.03515625 2.27734375 2.09765625 C1.67921875 2.42765625 1.08109375 2.75765625 0.46484375 3.09765625 C-1.72265625 4.09765625 -1.72265625 4.09765625 -4.72265625 4.09765625 C-3.39739004 0.12185761 -3.39739004 0.12185761 0 0 Z " fill="#FA7F03" transform="translate(331.72265625,96.90234375)"/>
<path d="M0 0 C4.29 0 8.58 0 13 0 C13 0.99 13 1.98 13 3 C13.99 3 14.98 3 16 3 C19 8.75 19 8.75 19 11 C18.34 11 17.68 11 17 11 C17 10.01 17 9.02 17 8 C15.35 8 13.7 8 12 8 C11.855625 7.38125 11.71125 6.7625 11.5625 6.125 C11.06847775 3.96741678 11.06847775 3.96741678 10 2 C9.01 1.67 8.02 1.34 7 1 C6.67 1.99 6.34 2.98 6 4 C5.34 4 4.68 4 4 4 C4 3.01 4 2.02 4 1 C2.68 0.67 1.36 0.34 0 0 Z " fill="#FBD60B" transform="translate(133,30)"/>
<path d="M0 0 C0.75410156 0.04833984 1.50820313 0.09667969 2.28515625 0.14648438 C3.45111328 0.2305957 3.45111328 0.2305957 4.640625 0.31640625 C5.82978516 0.3947168 5.82978516 0.3947168 7.04296875 0.47460938 C8.99256497 0.60379949 10.94165386 0.7406059 12.890625 0.87890625 C12.890625 3.87890625 12.890625 3.87890625 11.515625 5.44140625 C10.979375 5.91578125 10.443125 6.39015625 9.890625 6.87890625 C9.230625 7.53890625 8.570625 8.19890625 7.890625 8.87890625 C7.890625 6.89890625 7.890625 4.91890625 7.890625 2.87890625 C4.260625 2.54890625 0.630625 2.21890625 -3.109375 1.87890625 C-3.439375 3.19890625 -3.769375 4.51890625 -4.109375 5.87890625 C-4.439375 5.21890625 -4.769375 4.55890625 -5.109375 3.87890625 C-6.099375 3.54890625 -7.089375 3.21890625 -8.109375 2.87890625 C-8.109375 2.21890625 -8.109375 1.55890625 -8.109375 0.87890625 C-5.27553392 0.05375841 -2.94002249 -0.20045608 0 0 Z " fill="#FDF35D" transform="translate(406.109375,28.12109375)"/>
<path d="M0 0 C0.93423645 3.01031744 1.04449911 3.86650268 0 7 C2.31309705 6.88658363 4.62550185 6.75896193 6.9375 6.625 C8.22527344 6.55539063 9.51304687 6.48578125 10.83984375 6.4140625 C11.88269531 6.27742188 12.92554688 6.14078125 14 6 C14.33 5.34 14.66 4.68 15 4 C15.66 4.33 16.32 4.66 17 5 C17 5.99 17 6.98 17 8 C9.90411056 8.90106533 3.04459961 9.70778172 -4 8 C-4 7.01 -4 6.02 -4 5 C-3.01 4.34 -2.02 3.68 -1 3 C-0.67 2.01 -0.34 1.02 0 0 Z " fill="#F9B444" transform="translate(127,97)"/>
<path d="M0 0 C0.66 0.66 1.32 1.32 2 2 C3.32 1.34 4.64 0.68 6 0 C6 2.97 6 5.94 6 9 C4.02 9 2.04 9 0 9 C-0.33 7.68 -0.66 6.36 -1 5 C-1.66 5 -2.32 5 -3 5 C-2.67 4.01 -2.34 3.02 -2 2 C-1.34 2 -0.68 2 0 2 C0 1.34 0 0.68 0 0 Z " fill="#FD9C02" transform="translate(46,77)"/>
<path d="M0 0 C0.95465783 2.16967689 1.14401212 3.56328793 0.3984375 5.82421875 C-0.35870385 7.5684743 -1.17609198 9.28627131 -2 11 C-4.27120764 10.99399945 -6.54233286 10.94400204 -8.8125 10.875 C-10.07707031 10.85179688 -11.34164063 10.82859375 -12.64453125 10.8046875 C-16 10 -16 10 -18.01171875 7.0703125 C-19 4 -19 4 -18 2 C-16 4 -14 6 -12 8 C-8.62642666 8.50070321 -8.62642666 8.50070321 -5 8 C-2.33429191 5.40444213 -1.174396 3.523188 0 0 Z " fill="#FAB138" transform="translate(344,87)"/>
<path d="M0 0 C1.32 0.33 2.64 0.66 4 1 C4.84611197 3.6440999 4.98877428 5.61741467 4.9375 8.4375 C4.99795458 11.88341083 5.51465904 13.93648428 7 17 C5.0625 16.5 5.0625 16.5 3 15 C2.31209578 12.30341548 2.18053536 9.7982981 2 7 C1.01 6.67 0.02 6.34 -1 6 C-1.33 5.34 -1.66 4.68 -2 4 C-1.0625 1.875 -1.0625 1.875 0 0 Z " fill="#FBAA15" transform="translate(49,71)"/>
<path d="M0 0 C0.33 0 0.66 0 1 0 C1.14420386 12.36948647 0.71511973 24.65141462 0 37 C-0.33 37 -0.66 37 -1 37 C-1.02505615 36.25314941 -1.0501123 35.50629883 -1.07592773 34.73681641 C-1.19168213 31.36602733 -1.31450128 27.99553217 -1.4375 24.625 C-1.47681641 23.449375 -1.51613281 22.27375 -1.55664062 21.0625 C-1.59853516 19.94101563 -1.64042969 18.81953125 -1.68359375 17.6640625 C-1.72025146 16.62717285 -1.75690918 15.5902832 -1.79467773 14.52197266 C-1.84164223 12.00574834 -1.84164223 12.00574834 -3 10 C-2.01 10 -1.02 10 0 10 C0 6.7 0 3.4 0 0 Z " fill="#FEDD53" transform="translate(140,60)"/>
<path d="M0 0 C2.33944736 0.28730055 4.6739143 0.61936779 7 1 C4.34345343 4.73884332 2.41889613 6.64978174 -2 8 C-2 6.68 -2 5.36 -2 4 C-3.32 3.67 -4.64 3.34 -6 3 C-5.195625 2.690625 -4.39125 2.38125 -3.5625 2.0625 C-1.10919595 1.23664655 -1.10919595 1.23664655 0 0 Z " fill="#FA8B14" transform="translate(343,96)"/>
<path d="M0 0 C2.89681439 4.34522159 3.83582559 9.05335365 5.1875 14.0625 C5.47302734 15.08150391 5.75855469 16.10050781 6.05273438 17.15039062 C6.31763672 18.12298828 6.58253906 19.09558594 6.85546875 20.09765625 C7.09934326 20.98976807 7.34321777 21.88187988 7.59448242 22.80102539 C8 25 8 25 7 27 C3.99382731 23.99382731 4.40414684 21.17618402 4 17 C2.68 17.33 1.36 17.66 0 18 C0 17.34 0 16.68 0 16 C0.66 16 1.32 16 2 16 C1.34 10.72 0.68 5.44 0 0 Z " fill="#FCD141" transform="translate(105,49)"/>
<path d="M0 0 C-0.11487748 1.58409994 -0.24234508 3.16728963 -0.375 4.75 C-0.44460938 5.63171875 -0.51421875 6.5134375 -0.5859375 7.421875 C-0.99850055 9.99066382 -1.71160957 11.75841015 -3 14 C-4.4606285 11.35261084 -5 10.10551666 -5 7 C-5.66 6.34 -6.32 5.68 -7 5 C-2.25 0 -2.25 0 0 0 Z " fill="#FCA125" transform="translate(302,87)"/>
<path d="M0 0 C1.32 0.33 2.64 0.66 4 1 C4.33 3.31 4.66 5.62 5 8 C2.36 8 -0.28 8 -3 8 C-2.37240135 5.07120629 -1.41377341 2.63904371 0 0 Z " fill="#FB8803" transform="translate(345,89)"/>
<path d="M0 0 C0.33 0 0.66 0 1 0 C1.06058594 1.09699219 1.12117187 2.19398437 1.18359375 3.32421875 C1.26804498 4.77865654 1.35269066 6.23308305 1.4375 7.6875 C1.47681641 8.40873047 1.51613281 9.12996094 1.55664062 9.87304688 C1.73700542 12.91149995 1.9500371 15.76859289 2.59375 18.75 C3.26541862 22.47001083 2.03539896 25.40655653 1 29 C0.34 29 -0.32 29 -1 29 C-0.67 19.43 -0.34 9.86 0 0 Z " fill="#FDCE48" transform="translate(129,68)"/>
<path d="M0 0 C3 1 3 1 5 4 C5.125 7.1875 5.125 7.1875 5 10 C4.01 10.495 4.01 10.495 3 11 C3 9.35 3 7.7 3 6 C0.69 6 -1.62 6 -4 6 C-2.84826645 3.53199953 -1.95216435 1.95216435 0 0 Z " fill="#FAAB1F" transform="translate(78,78)"/>
<path d="M0 0 C0.33 0 0.66 0 1 0 C1.1953125 1.98567708 1.390625 3.97135417 1.5859375 5.95703125 C1.92665391 8.29988142 1.92665391 8.29988142 4 11 C3.67 11.66 3.34 12.32 3 13 C2.9283265 15.55157655 2.90691558 18.07472971 2.9375 20.625 C2.94426758 21.68460938 2.94426758 21.68460938 2.95117188 22.765625 C2.96296125 24.51045275 2.98089676 26.255237 3 28 C-0.84948633 22.2257705 -0.13852731 14.74888581 -0.0625 8 C-0.05798828 7.22527344 -0.05347656 6.45054688 -0.04882812 5.65234375 C-0.03719758 3.76819476 -0.01926906 1.88408635 0 0 Z " fill="#FDDB51" transform="translate(305,57)"/>
<path d="M0 0 C1.32 0.66 2.64 1.32 4 2 C3.34 2 2.68 2 2 2 C2 2.66 2 3.32 2 4 C2.66 4.66 3.32 5.32 4 6 C3.67 6.33 3.34 6.66 3 7 C2.76924918 8.34747084 2.58846937 9.70377565 2.4375 11.0625 C2.293125 12.361875 2.14875 13.66125 2 15 C1.67 15 1.34 15 1 15 C0.67 12.69 0.34 10.38 0 8 C-1.65 8 -3.3 8 -5 8 C-4.0409375 7.13375 -4.0409375 7.13375 -3.0625 6.25 C-1.01776132 4.01937599 -0.41794801 2.92563609 0 0 Z " fill="#FCD810" transform="translate(318,33)"/>
<path d="M0 0 C0.66 0.66 1.32 1.32 2 2 C4.66949409 2.24315656 4.66949409 2.24315656 7.625 2.125 C8.62789062 2.10695313 9.63078125 2.08890625 10.6640625 2.0703125 C11.82035156 2.03550781 11.82035156 2.03550781 13 2 C13.33 1.34 13.66 0.68 14 0 C16.97 0.495 16.97 0.495 20 1 C20 1.66 20 2.32 20 3 C20.99 3.33 21.98 3.66 23 4 C15.08 4 7.16 4 -1 4 C-0.67 2.68 -0.34 1.36 0 0 Z " fill="#F58312" transform="translate(178,100)"/>
<path d="M0 0 C4 5 4 5 4.171875 7.45703125 C4.03265625 8.23433594 3.8934375 9.01164062 3.75 9.8125 C3.62109375 10.60269531 3.4921875 11.39289063 3.359375 12.20703125 C3.18148438 13.09455078 3.18148438 13.09455078 3 14 C2.34 14 1.68 14 1 14 C1 16.31 1 18.62 1 21 C0.67 21 0.34 21 0 21 C0 14.07 0 7.14 0 0 Z " fill="#FDCC33" transform="translate(345,65)"/>
<path d="M0 0 C1.32 0.33 2.64 0.66 4 1 C4.33 2.32 4.66 3.64 5 5 C4.34 5 3.68 5 3 5 C2.67 6.32 2.34 7.64 2 9 C0.35 8.67 -1.3 8.34 -3 8 C-2.01 5.36 -1.02 2.72 0 0 Z " fill="#FC7F02" transform="translate(258,94)"/>
<path d="M0 0 C1.32 0.33 2.64 0.66 4 1 C4.66 4.3 5.32 7.6 6 11 C3 9 3 9 2 6 C1.01 6.495 1.01 6.495 0 7 C-0.66 6.67 -1.32 6.34 -2 6 C-1.125 1.125 -1.125 1.125 0 0 Z " fill="#FBCD1F" transform="translate(235,48)"/>
<path d="M0 0 C5.65253308 1.37031105 8.5113541 5.67689413 12 10 C11.67 10.66 11.34 11.32 11 12 C10.4225 11.360625 9.845 10.72125 9.25 10.0625 C7.01937599 8.01776132 5.92563609 7.41794801 3 7 C3 6.01 3 5.02 3 4 C1.54166642 2.37485532 1.54166642 2.37485532 0 1 C0 0.67 0 0.34 0 0 Z " fill="#FBE339" transform="translate(341,30)"/>
<path d="M0 0 C1.65 0.33 3.3 0.66 5 1 C4.67 2.98 4.34 4.96 4 7 C2.35 7 0.7 7 -1 7 C-2 4 -2 4 -1.0625 1.8125 C-0.5365625 0.9153125 -0.5365625 0.9153125 0 0 Z " fill="#FE6802" transform="translate(61,110)"/>
<path d="M0 0 C0.33 0.66 0.66 1.32 1 2 C1.99 2.33 2.98 2.66 4 3 C3.67 4.32 3.34 5.64 3 7 C2.67 6.34 2.34 5.68 2 5 C0.02 5.99 0.02 5.99 -2 7 C-2 6.34 -2 5.68 -2 5 C-4.31 4.67 -6.62 4.34 -9 4 C-9 3.34 -9 2.68 -9 2 C-6.94921875 1.77213542 -4.8984375 1.54427083 -2.84765625 1.31640625 C-0.98859771 1.18113386 -0.98859771 1.18113386 0 0 Z " fill="#FC8503" transform="translate(114,93)"/>
<path d="M0 0 C1 3 1 3 0 6 C3.96 5.01 7.92 4.02 12 3 C11.67 4.32 11.34 5.64 11 7 C10.01 7 9.02 7 8 7 C7.67 7.66 7.34 8.32 7 9 C6.67 8.67 6.34 8.34 6 8 C3.67182036 7.63239269 1.3381615 7.29758419 -1 7 C-1.04254356 5.00045254 -1.04080783 2.99958364 -1 1 C-0.67 0.67 -0.34 0.34 0 0 Z " fill="#FCB333" transform="translate(69,86)"/>
<path d="M0 0 C0.99 0.33 1.98 0.66 3 1 C3.33 3.64 3.66 6.28 4 9 C1.28368454 8.09456151 -1.34771188 7.07525194 -4 6 C-3.34 5.67 -2.68 5.34 -2 5 C-2 3.68 -2 2.36 -2 1 C-1.34 0.67 -0.68 0.34 0 0 Z " fill="#FDC205" transform="translate(168,47)"/>
<path d="M0 0 C0.99 0.33 1.98 0.66 3 1 C3 1.99 3 2.98 3 4 C3.66 4 4.32 4 5 4 C5 4.66 5 5.32 5 6 C5.66 6.33 6.32 6.66 7 7 C0.73 7 -5.54 7 -12 7 C-10 5 -10 5 -7.3984375 4.8046875 C-6.40070313 4.82789062 -5.40296875 4.85109375 -4.375 4.875 C-2.87066406 4.90207031 -2.87066406 4.90207031 -1.3359375 4.9296875 C-0.56507813 4.95289062 0.20578125 4.97609375 1 5 C0.67 3.35 0.34 1.7 0 0 Z " fill="#F37E0B" transform="translate(376,97)"/>
<path d="M0 0 C3.375 4.5 3.375 4.5 3 9 C3.99 9.33 4.98 9.66 6 10 C3.69 10 1.38 10 -1 10 C-1 10.66 -1 11.32 -1 12 C-1.66 12 -2.32 12 -3 12 C-2.01 8.04 -1.02 4.08 0 0 Z " fill="#FA9E1A" transform="translate(201,89)"/>
<path d="M0 0 C2 2 2 2 2 6 C2.99 6.33 3.98 6.66 5 7 C4.67 9.31 4.34 11.62 4 14 C4.66 14 5.32 14 6 14 C6 16.31 6 18.62 6 21 C3.74982247 17.62473371 2.86995001 14.36925005 1.875 10.5 C1.60236328 9.48486328 1.60236328 9.48486328 1.32421875 8.44921875 C0.56317822 5.54810937 0 3.0122546 0 0 Z " fill="#FDE048" transform="translate(224,48)"/>
<path d="M0 0 C0.33 0 0.66 0 1 0 C1.33 3.63 1.66 7.26 2 11 C1.34 11 0.68 11 0 11 C0 11.99 0 12.98 0 14 C-0.66 14 -1.32 14 -2 14 C-2.33 14.99 -2.66 15.98 -3 17 C-2.36934845 11.2190275 -1.34844868 5.6556294 0 0 Z " fill="#FDE746" transform="translate(74,25)"/>
<path d="M0 0 C0.33 0 0.66 0 1 0 C1.02505615 0.58491211 1.0501123 1.16982422 1.07592773 1.77246094 C1.19222962 4.43184471 1.31480067 7.09090403 1.4375 9.75 C1.47681641 10.67039062 1.51613281 11.59078125 1.55664062 12.5390625 C1.59853516 13.42851563 1.64042969 14.31796875 1.68359375 15.234375 C1.72025146 16.05131836 1.75690918 16.86826172 1.79467773 17.70996094 C1.99134275 19.9034423 2.40300594 21.88396413 3 24 C2.01 23.67 1.02 23.34 0 23 C-0.1954384 20.10450497 -0.38161395 17.20891002 -0.5625 14.3125 C-0.61857422 13.49587891 -0.67464844 12.67925781 -0.73242188 11.83789062 C-0.98341571 7.70485877 -1.11127743 4.04175718 0 0 Z " fill="#F79619" transform="translate(138,77)"/>
<path d="M0 0 C1.974667 2.96200051 2.71955354 5.09771632 3.625 8.5 C3.88539063 9.4590625 4.14578125 10.418125 4.4140625 11.40625 C5 14 5 14 5 17 C4.34 17 3.68 17 3 17 C3 15.35 3 13.7 3 12 C2.01 11.67 1.02 11.34 0 11 C0 7.37 0 3.74 0 0 Z M-2 9 C-1.01 10.485 -1.01 10.485 0 12 C-0.66 12 -1.32 12 -2 12 C-2 11.01 -2 10.02 -2 9 Z " fill="#FBBF45" transform="translate(243,69)"/>
<path d="M0 0 C0.66 0 1.32 0 2 0 C3.60670684 3.21341369 2.82510855 6.62958968 2.5625 10.125 C2.51029297 10.87910156 2.45808594 11.63320313 2.40429688 12.41015625 C2.27454996 14.2737937 2.13792512 16.13694996 2 18 C1.67 18 1.34 18 1 18 C0.92652344 16.64455078 0.92652344 16.64455078 0.8515625 15.26171875 C0.77679688 14.08222656 0.70203125 12.90273438 0.625 11.6875 C0.55539063 10.51574219 0.48578125 9.34398437 0.4140625 8.13671875 C0.21386253 4.84300113 0.21386253 4.84300113 -2 2 C-1.34 2 -0.68 2 0 2 C0 1.34 0 0.68 0 0 Z " fill="#FDE55D" transform="translate(175,48)"/>
<path d="M0 0 C0.99 0.33 1.98 0.66 3 1 C1.83445193 7.0509304 0.54656904 13.03466226 -1 19 C-1.33 19 -1.66 19 -2 19 C-2 16.03 -2 13.06 -2 10 C-1.34 10 -0.68 10 0 10 C0.33 7.69 0.66 5.38 1 3 C0.34 2.67 -0.32 2.34 -1 2 C-0.67 1.34 -0.34 0.68 0 0 Z " fill="#FDE33E" transform="translate(80,38)"/>
<path d="M0 0 C4.95 0 9.9 0 15 0 C15.33 1.65 15.66 3.3 16 5 C14.35 6.32 12.7 7.64 11 9 C11.54723683 5.62537285 12.0549 3.91765 14 1 C9.38 1 4.76 1 0 1 C0 0.67 0 0.34 0 0 Z " fill="#FCEF64" transform="translate(270,38)"/>
<path d="M0 0 C5.61 0.33 11.22 0.66 17 1 C17 1.33 17 1.66 17 2 C13.7 2 10.4 2 7 2 C7 4.31 7 6.62 7 9 C6.67 9 6.34 9 6 9 C6 6.69 6 4.38 6 2 C4.02 2 2.04 2 0 2 C0 1.34 0 0.68 0 0 Z " fill="#FEB02E" transform="translate(60,96)"/>
<path d="M0 0 C2.31 0.33 4.62 0.66 7 1 C8.125 6.625 8.125 6.625 7 10 C7.66 10.33 8.32 10.66 9 11 C8.01 12.485 8.01 12.485 7 14 C6.74605469 13.32453125 6.49210937 12.6490625 6.23046875 11.953125 C5.88628906 11.06109375 5.54210937 10.1690625 5.1875 9.25 C4.85105469 8.36828125 4.51460938 7.4865625 4.16796875 6.578125 C3.03153178 4.06960192 1.73457073 2.12720995 0 0 Z " fill="#FBC143" transform="translate(95,78)"/>
<path d="M0 0 C2 1 2 1 3 3 C2.34 4.65 1.68 6.3 1 8 C-4.28 7.67 -9.56 7.34 -15 7 C-15 6.67 -15 6.34 -15 6 C-10.05 6 -5.1 6 0 6 C0 4.02 0 2.04 0 0 Z " fill="#FDD043" transform="translate(232,71)"/>
<path d="M0 0 C1.65 0 3.3 0 5 0 C5.66 1.98 6.32 3.96 7 6 C8.65 6.33 10.3 6.66 12 7 C12 7.33 12 7.66 12 8 C9.69 8 7.38 8 5 8 C4.67 6.35 4.34 4.7 4 3 C2.35 3.33 0.7 3.66 -1 4 C-0.67 2.68 -0.34 1.36 0 0 Z " fill="#FED620" transform="translate(71,58)"/>
<path d="M0 0 C0.33 0.66 0.66 1.32 1 2 C1.66 2 2.32 2 3 2 C3 4.31 3 6.62 3 9 C1 6 1 6 1 4 C0.34 4 -0.32 4 -1 4 C-1 5.65 -1 7.3 -1 9 C-1.66 8.67 -2.32 8.34 -3 8 C-3.1875 5.125 -3.1875 5.125 -3 2 C-2.01 1.34 -1.02 0.68 0 0 Z " fill="#FCEC47" transform="translate(85,30)"/>
<path d="M0 0 C0.33 0 0.66 0 1 0 C1.125 7.75 1.125 7.75 0 10 C0.99 10.33 1.98 10.66 3 11 C1.68 12.32 0.36 13.64 -1 15 C-1.97798721 11.20431539 -1.92653069 8.4994001 -1.0625 4.6875 C-0.86785156 3.80449219 -0.67320312 2.92148437 -0.47265625 2.01171875 C-0.31667969 1.34785156 -0.16070312 0.68398438 0 0 Z " fill="#FEED74" transform="translate(261,32)"/>
<path d="M0 0 C0.66 0 1.32 0 2 0 C1.40895235 4.84659077 0.02055843 8.60748167 -2 13 C-2.12375 12.360625 -2.2475 11.72125 -2.375 11.0625 C-2.58125 10.381875 -2.7875 9.70125 -3 9 C-3.66 8.67 -4.32 8.34 -5 8 C-4.01 7.67 -3.02 7.34 -2 7 C-2 6.01 -2 5.02 -2 4 C-1.34 4 -0.68 4 0 4 C0 2.68 0 1.36 0 0 Z " fill="#FBC331" transform="translate(165,65)"/>
<path d="M0 0 C2 3 2 3 1.625 5.1875 C1.41875 5.785625 1.2125 6.38375 1 7 C0.34 7 -0.32 7 -1 7 C-1.66 8.98 -2.32 10.96 -3 13 C-3.66 13 -4.32 13 -5 13 C-3.58192622 8.52761347 -1.88695626 4.28853694 0 0 Z " fill="#FCDE3E" transform="translate(171,35)"/>
<path d="M0 0 C1.134375 0.020625 2.26875 0.04125 3.4375 0.0625 C3.4375 1.0525 3.4375 2.0425 3.4375 3.0625 C1.1275 3.3925 -1.1825 3.7225 -3.5625 4.0625 C-3.8925 3.0725 -4.2225 2.0825 -4.5625 1.0625 C-3.5625 0.0625 -3.5625 0.0625 0 0 Z " fill="#FF5C03" transform="translate(30.5625,120.9375)"/>
<path d="M0 0 C1.1875 1.625 1.1875 1.625 2 4 C0.505375 7.93322367 -0.46597843 9.64398562 -4 12 C-4.33 10.35 -4.66 8.7 -5 7 C-4.67 7.66 -4.34 8.32 -4 9 C-3.34 9 -2.68 9 -2 9 C-0.99782936 5.41672247 -0.99782936 5.41672247 -2 2 C-1.34 2 -0.68 2 0 2 C0 1.34 0 0.68 0 0 Z " fill="#F7B437" transform="translate(94,80)"/>
<path d="M0 0 C0.66 0 1.32 0 2 0 C2 1.32 2 2.64 2 4 C3.98 4 5.96 4 8 4 C7.34 5.32 6.68 6.64 6 8 C5.01 8 4.02 8 3 8 C0 2.25 0 2.25 0 0 Z " fill="#FBCA51" transform="translate(154,74)"/>
<path d="M0 0 C0.33 0 0.66 0 1 0 C1.05429959 1.74965358 1.09292823 3.49979787 1.125 5.25 C1.14820313 6.22453125 1.17140625 7.1990625 1.1953125 8.203125 C0.99862781 11.0196498 0.44568916 12.60949036 -1 15 C-1.99 15 -2.98 15 -4 15 C-3.69320312 14.45859375 -3.38640625 13.9171875 -3.0703125 13.359375 C-1.84371789 10.65549492 -1.36256224 8.17537342 -0.875 5.25 C-0.70742187 4.26515625 -0.53984375 3.2803125 -0.3671875 2.265625 C-0.24601563 1.51796875 -0.12484375 0.7703125 0 0 Z " fill="#F6AC38" transform="translate(178,89)"/>
<path d="M0 0 C0.66 0.99 1.32 1.98 2 3 C1.125 6.1875 1.125 6.1875 0 9 C0.66 9 1.32 9 2 9 C2 9.99 2 10.98 2 12 C1.01 12.33 0.02 12.66 -1 13 C-1.33 9.04 -1.66 5.08 -2 1 C-1.34 0.67 -0.68 0.34 0 0 Z " fill="#F98908" transform="translate(180,87)"/>
<path d="M0 0 C1.625 1.6875 1.625 1.6875 3 4 C2.5 6.6875 2.5 6.6875 1 9 C-1.625 9.8125 -1.625 9.8125 -4 10 C-2.66666667 6.66666667 -1.33333333 3.33333333 0 0 Z " fill="#FCB52E" transform="translate(266,75)"/>
<path d="M0 0 C0 1.32 0 2.64 0 4 C-1.98 4 -3.96 4 -6 4 C-6 2.68 -6 1.36 -6 0 C-3.50907189 -1.24546405 -2.58919267 -0.7767578 0 0 Z " fill="#FCA201" transform="translate(162,74)"/>
<path d="M0 0 C1.1875 1.625 1.1875 1.625 2 4 C0.625 7.25 0.625 7.25 -1 10 C-1.99 10 -2.98 10 -4 10 C-2.8905928 6.51329166 -1.73662334 3.22515763 0 0 Z " fill="#FBC133" transform="translate(271,65)"/>
<path d="M0 0 C0.66 0.99 1.32 1.98 2 3 C2.66 3.33 3.32 3.66 4 4 C3.01 4.99 2.02 5.98 1 7 C1.99 8.485 1.99 8.485 3 10 C1.02 10 -0.96 10 -3 10 C-2.01 6.7 -1.02 3.4 0 0 Z " fill="#FECF33" transform="translate(66,56)"/>
<path d="M0 0 C0.99 0 1.98 0 3 0 C6 5.75 6 5.75 6 8 C5.34 8 4.68 8 4 8 C4 7.01 4 6.02 4 5 C2.35 5 0.7 5 -1 5 C-1.33 4.34 -1.66 3.68 -2 3 C-1.34 3 -0.68 3 0 3 C0 2.01 0 1.02 0 0 Z " fill="#FBDD2C" transform="translate(146,33)"/>
<path d="M0 0 C0.33 0 0.66 0 1 0 C1 2.97 1 5.94 1 9 C1.66 9 2.32 9 3 9 C2.34 10.65 1.68 12.3 1 14 C0.34 13.67 -0.32 13.34 -1 13 C-0.67 8.71 -0.34 4.42 0 0 Z " fill="#FEF06D" transform="translate(60,20)"/>
<path d="M0 0 C0.66 0 1.32 0 2 0 C2.56561146 5.65611463 0.71391278 9.22642128 -2 14 C-2.33 14 -2.66 14 -3 14 C-3.20086443 10.28400809 -3.1519437 9.22791555 -1 6 C-0.9603287 4.33380554 -0.95615553 2.66608987 -1 1 C-0.67 0.67 -0.34 0.34 0 0 Z " fill="#F9C632" transform="translate(285,60)"/>
<path d="M0 0 C3.96 0.33 7.92 0.66 12 1 C11.67 1.66 11.34 2.32 11 3 C8.03 3 5.06 3 2 3 C1.67 3.99 1.34 4.98 1 6 C-0.0625 4.125 -0.0625 4.125 -1 2 C-0.67 1.34 -0.34 0.68 0 0 Z " fill="#FDE949" transform="translate(321,36)"/>
<path d="M0 0 C0 2 0 4 0 6 C-1.65 6.66 -3.3 7.32 -5 8 C-5 4.86248779 -4.64820195 3.60242414 -3 1 C-2.01 0.67 -1.02 0.34 0 0 Z " fill="#F9831A" transform="translate(54,104)"/>
<path d="M0 0 C0.33 0 0.66 0 1 0 C1.66 2.64 2.32 5.28 3 8 C1.02 8 -0.96 8 -3 8 C-2.25 2.25 -2.25 2.25 0 0 Z " fill="#F99720" transform="translate(250,93)"/>
<path d="M0 0 C1.2065625 0.0309375 1.2065625 0.0309375 2.4375 0.0625 C2.1075 2.0425 1.7775 4.0225 1.4375 6.0625 C2.4275 6.3925 3.4175 6.7225 4.4375 7.0625 C3.4475 7.5575 3.4475 7.5575 2.4375 8.0625 C0.4375 6.75 0.4375 6.75 -1.5625 5.0625 C-1.5625 4.0725 -1.5625 3.0825 -1.5625 2.0625 C-2.2225 1.7325 -2.8825 1.4025 -3.5625 1.0625 C-2.5625 0.0625 -2.5625 0.0625 0 0 Z " fill="#FAA409" transform="translate(94.5625,70.9375)"/>
<path d="M0 0 C0.33 0 0.66 0 1 0 C1.33 3.3 1.66 6.6 2 10 C0.68 10 -0.64 10 -2 10 C-2.33 8.68 -2.66 7.36 -3 6 C-2.01 6.495 -2.01 6.495 -1 7 C-0.67 4.69 -0.34 2.38 0 0 Z " fill="#FDF572" transform="translate(112,22)"/>
<path d="M0 0 C0 3 0 3 -1.3125 4.5 C-1.869375 4.995 -2.42625 5.49 -3 6 C-3.556875 6.556875 -4.11375 7.11375 -4.6875 7.6875 C-5.120625 8.120625 -5.55375 8.55375 -6 9 C-6 5 -6 5 -4.125 2.8125 C-2 1 -2 1 0 0 Z " fill="#F9BD36" transform="translate(47,71)"/>
<path d="M0 0 C2 1.3125 2 1.3125 4 3 C4 3.99 4 4.98 4 6 C0.37 6 -3.26 6 -7 6 C-7 5.34 -7 4.68 -7 4 C-4.69 4 -2.38 4 0 4 C0 2.68 0 1.36 0 0 Z " fill="#FDD13F" transform="translate(81,67)"/>
<path d="M0 0 C3.3 0 6.6 0 10 0 C10 0.33 10 0.66 10 1 C8.02 1 6.04 1 4 1 C4.33 2.98 4.66 4.96 5 7 C3.29115995 5.37660195 1.62553283 3.70680947 0 2 C0 1.34 0 0.68 0 0 Z " fill="#FCF374" transform="translate(362,29)"/>
<path d="M0 0 C2.64 0.33 5.28 0.66 8 1 C8 1.33 8 1.66 8 2 C6.35 2 4.7 2 3 2 C3.33 4.31 3.66 6.62 4 9 C3.34 8.34 2.68 7.68 2 7 C2 6.01 2 5.02 2 4 C1.34 4 0.68 4 0 4 C0 2.68 0 1.36 0 0 Z " fill="#FEEE42" transform="translate(96,22)"/>
<path d="M0 0 C-0.33 1.65 -0.66 3.3 -1 5 C-1.99 5.33 -2.98 5.66 -4 6 C-4.33 5.01 -4.66 4.02 -5 3 C-5.66 2.34 -6.32 1.68 -7 1 C-4.53721199 -0.231394 -2.7204945 -0.07159196 0 0 Z " fill="#FB9919" transform="translate(298,93)"/>
<path d="M0 0 C2.67710191 1.33855096 2.95129094 2.72058088 4.125 5.4375 C4.47820312 6.24058594 4.83140625 7.04367188 5.1953125 7.87109375 C6 10 6 10 6 12 C5.01 11.67 4.02 11.34 3 11 C3 9.68 3 8.36 3 7 C2.34 7 1.68 7 1 7 C0.67 4.69 0.34 2.38 0 0 Z " fill="#FADA46" transform="translate(153,43)"/>
<path d="M0 0 C3.3 0.99 6.6 1.98 10 3 C7.38058783 4.74627478 5.96175123 5.38722388 3 6 C3 4.68 3 3.36 3 2 C2.01 2 1.02 2 0 2 C0 1.34 0 0.68 0 0 Z " fill="#FDE536" transform="translate(372,29)"/>
<path d="M0 0 C0.99 0.33 1.98 0.66 3 1 C1.07423885 3.43929746 -0.80090595 5.80090595 -3 8 C-3.1875 5.125 -3.1875 5.125 -3 2 C-2.01 1.34 -1.02 0.68 0 0 Z " fill="#F9E63D" transform="translate(417,29)"/>
<path d="M0 0 C0.99 0.33 1.98 0.66 3 1 C3.6875 3.0625 3.6875 3.0625 4 5 C3.01 5 2.02 5 1 5 C1 4.34 1 3.68 1 3 C0.34 3 -0.32 3 -1 3 C-1.33 3.99 -1.66 4.98 -2 6 C-2.66 5.34 -3.32 4.68 -4 4 C-2.68 3.34 -1.36 2.68 0 2 C0 1.34 0 0.68 0 0 Z " fill="#FB8B04" transform="translate(322,88)"/>
<path d="M0 0 C0.66 0 1.32 0 2 0 C1.67 3.3 1.34 6.6 1 10 C0.67 10 0.34 10 0 10 C0 8.02 0 6.04 0 4 C-0.66 4 -1.32 4 -2 4 C-1.34 2.68 -0.68 1.36 0 0 Z " fill="#FACF44" transform="translate(300,87)"/>
<path d="M0 0 C2.97 0 5.94 0 9 0 C9 1.98 9 3.96 9 6 C8.01 6.495 8.01 6.495 7 7 C7 5.35 7 3.7 7 2 C4.69 2 2.38 2 0 2 C0 1.34 0 0.68 0 0 Z " fill="#FBD154" transform="translate(74,82)"/>
<path d="M0 0 C0.33 0.66 0.66 1.32 1 2 C1.66 2 2.32 2 3 2 C3.33 3.32 3.66 4.64 4 6 C1.69 5.67 -0.62 5.34 -3 5 C-2.34 4.67 -1.68 4.34 -1 4 C-0.34786708 1.97536745 -0.34786708 1.97536745 0 0 Z " fill="#FEBF04" transform="translate(392,48)"/>
<path d="M0 0 C0 0.99 0 1.98 0 3 C-2.31 3.33 -4.62 3.66 -7 4 C-6.6875 2.0625 -6.6875 2.0625 -6 0 C-3 -1 -3 -1 0 0 Z " fill="#FC8700" transform="translate(84,91)"/>
<path d="M0 0 C1.32 0 2.64 0 4 0 C3.34 2.31 2.68 4.62 2 7 C0.4375 5.75 0.4375 5.75 -1 4 C-0.6875 1.8125 -0.6875 1.8125 0 0 Z " fill="#F7950A" transform="translate(66,84)"/>
<path d="M0 0 C0.66 0 1.32 0 2 0 C2 1.32 2 2.64 2 4 C2.33 4.99 2.66 5.98 3 7 C2.34 7 1.68 7 1 7 C0.67 7.66 0.34 8.32 0 9 C-1.125 2.25 -1.125 2.25 0 0 Z " fill="#FB9B02" transform="translate(403,76)"/>
<path d="M0 0 C0.33 0.99 0.66 1.98 1 3 C1.66 3 2.32 3 3 3 C3.66 4.65 4.32 6.3 5 8 C4.34 8.66 3.68 9.32 3 10 C0.70366176 6.55549263 0.45983515 4.06187717 0 0 Z " fill="#FECC19" transform="translate(90,70)"/>
<path d="M0 0 C2.97 0.495 2.97 0.495 6 1 C4.35 2.65 2.7 4.3 1 6 C0.67 4.02 0.34 2.04 0 0 Z " fill="#F7A32A" transform="translate(344,96)"/>
<path d="M0 0 C0.33 0 0.66 0 1 0 C1.08131463 1.43655854 1.13933559 2.8744483 1.1875 4.3125 C1.23970703 5.51326172 1.23970703 5.51326172 1.29296875 6.73828125 C0.93801608 9.47851584 0.10633718 10.29171079 -2 12 C-1.44687265 7.97007218 -0.8441938 3.97977076 0 0 Z " fill="#FDCD35" transform="translate(207,66)"/>
<path d="M0 0 C1.9375 0.6875 1.9375 0.6875 4 2 C4.75 4.625 4.75 4.625 5 7 C4.01 7.495 4.01 7.495 3 8 C0 3.375 0 3.375 0 0 Z " fill="#FDE03A" transform="translate(143,52)"/>
<path d="M0 0 C0.66 0.33 1.32 0.66 2 1 C1.67 1.99 1.34 2.98 1 4 C-1.5625 5.1875 -1.5625 5.1875 -4 6 C-2.25 1.125 -2.25 1.125 0 0 Z " fill="#FB6803" transform="translate(50,110)"/>
<path d="M0 0 C0 1.65 0 3.3 0 5 C-1.32 5 -2.64 5 -4 5 C-4 4.34 -4 3.68 -4 3 C-4.66 2.67 -5.32 2.34 -6 2 C-1.125 0 -1.125 0 0 0 Z " fill="#FA9725" transform="translate(299,101)"/>
<path d="M0 0 C0.66 0 1.32 0 2 0 C2.33 0.99 2.66 1.98 3 3 C3.99 3.33 4.98 3.66 6 4 C6 4.99 6 5.98 6 7 C3.53199953 5.84826645 1.95216435 4.95216435 0 3 C0 2.01 0 1.02 0 0 Z " fill="#F7A537" transform="translate(313,94)"/>
<path d="M0 0 C3 2 3 2 3.75 3.8125 C4.04654743 6.40729 3.63034051 8.47863795 3 11 C2.67 11 2.34 11 2 11 C1.34 7.37 0.68 3.74 0 0 Z " fill="#FCC14B" transform="translate(103,93)"/>
<path d="M0 0 C0.598125 0.309375 1.19625 0.61875 1.8125 0.9375 C4.08956772 2.10209704 4.08956772 2.10209704 7 3 C7.33 3.99 7.66 4.98 8 6 C5.0280615 4.87548273 2.66559313 3.77706209 0 2 C0 1.34 0 0.68 0 0 Z " fill="#FBB93D" transform="translate(41,88)"/>
<path d="M0 0 C0.99 0.33 1.98 0.66 3 1 C3 1.66 3 2.32 3 3 C1.68 3.33 0.36 3.66 -1 4 C-1 5.65 -1 7.3 -1 9 C-1.33 9 -1.66 9 -2 9 C-2.25 3.375 -2.25 3.375 0 0 Z " fill="#FEB700" transform="translate(308,58)"/>
<path d="M0 0 C1.485 0.99 1.485 0.99 3 2 C3.1875 4.625 3.1875 4.625 3 7 C2.01 6.67 1.02 6.34 0 6 C0 4.02 0 2.04 0 0 Z " fill="#FDB302" transform="translate(104,58)"/>
<path d="M0 0 C3.65316671 1.24976756 4.78065836 1.67098753 7 5 C4.0625 4.1875 4.0625 4.1875 1 3 C0.67 2.01 0.34 1.02 0 0 Z " fill="#FAE43D" transform="translate(382,33)"/>
<path d="M0 0 C1.65 0 3.3 0 5 0 C3.1875 2.5 3.1875 2.5 1 5 C0.01 5 -0.98 5 -2 5 C-1.34 3.35 -0.68 1.7 0 0 Z " fill="#F9E238" transform="translate(174,30)"/>
<path d="" fill="#FFFFFD" transform="translate(0,0)"/>
<path d="" fill="#F8F8FB" transform="translate(0,0)"/>
</svg>
