<?xml version="1.0" encoding="UTF-8"?>
<!DOCTYPE svg PUBLIC "-//W3C//DTD SVG 1.1//EN" "http://www.w3.org/Graphics/SVG/1.1/DTD/svg11.dtd">
<svg xmlns="http://www.w3.org/2000/svg" version="1.1" width="2000px" height="2000px" style="shape-rendering:geometricPrecision; text-rendering:geometricPrecision; image-rendering:optimizeQuality; fill-rule:evenodd; clip-rule:evenodd" xmlns:xlink="http://www.w3.org/1999/xlink">
<g><path style="opacity:1" fill="#000000" d="M 906.5,668.5 C 901.5,668.5 896.5,668.5 891.5,668.5C 896.513,665.94 901.513,665.94 906.5,668.5 Z"/></g>
<g><path style="opacity:1" fill="#130500" d="M 883.5,668.5 C 872.657,669.965 861.657,671.299 850.5,672.5C 850.611,671.883 850.944,671.383 851.5,671C 862.136,669.703 872.802,668.87 883.5,668.5 Z"/></g>
<g><path style="opacity:1" fill="#f8ee10" d="M 883.5,668.5 C 886.167,668.5 888.833,668.5 891.5,668.5C 896.5,668.5 901.5,668.5 906.5,668.5C 908.5,668.5 910.5,668.5 912.5,668.5C 954.436,671.428 994.436,682.095 1032.5,700.5C 1036.83,703.669 1041.5,706.336 1046.5,708.5C 1052.32,713.247 1058.65,717.247 1065.5,720.5C 1066.58,722.543 1068.25,723.876 1070.5,724.5C 1074.13,727.984 1078.13,730.984 1082.5,733.5C 1084.55,736.55 1087.22,738.883 1090.5,740.5C 1098.83,748.167 1106.83,756.167 1114.5,764.5C 1115.5,766.167 1116.83,767.5 1118.5,768.5C 1119.08,770.749 1120.41,772.415 1122.5,773.5C 1127.6,780.718 1132.94,787.718 1138.5,794.5C 1139.34,796.853 1140.67,798.853 1142.5,800.5C 1144.42,805.343 1147.08,809.677 1150.5,813.5C 1152.41,818.984 1155.07,823.984 1158.5,828.5C 1159.5,831.172 1160.5,833.838 1161.5,836.5C 1161.5,837.5 1161.5,838.5 1161.5,839.5C 1160.18,839.67 1159.01,839.337 1158,838.5C 1151.01,822.813 1142.84,808.146 1133.5,794.5C 1132.5,794.5 1131.5,794.5 1130.5,794.5C 1130.66,792.801 1130.49,791.134 1130,789.5C 1065.68,707.074 980.845,668.574 875.5,674C 790.32,682.664 721.82,720.83 670,788.5C 644.553,823.87 627.886,862.87 620,905.5C 617.273,926.089 615.44,946.756 614.5,967.5C 578.501,980.303 548.001,1001.3 523,1030.5C 506.601,1051.18 493.268,1073.51 483,1097.5C 451.725,1185.57 471.892,1259.07 543.5,1318C 551.291,1324.55 559.624,1330.05 568.5,1334.5C 566.621,1334.39 566.288,1334.89 567.5,1336C 573.04,1339.27 578.707,1342.27 584.5,1345C 586.063,1345.76 587.063,1346.93 587.5,1348.5C 585.167,1347.83 582.833,1347.17 580.5,1346.5C 575.498,1343 570.165,1340 564.5,1337.5C 561.106,1334.78 557.439,1332.45 553.5,1330.5C 548.455,1326.12 543.122,1322.12 537.5,1318.5C 536.415,1316.41 534.749,1315.08 532.5,1314.5C 531.5,1312.83 530.167,1311.5 528.5,1310.5C 523.5,1304.83 518.167,1299.5 512.5,1294.5C 511.5,1292.83 510.167,1291.5 508.5,1290.5C 507.92,1288.25 506.587,1286.58 504.5,1285.5C 499.134,1277.81 493.801,1270.14 488.5,1262.5C 484.481,1254.46 480.481,1246.46 476.5,1238.5C 475.733,1234.85 474.4,1231.52 472.5,1228.5C 469.61,1217.99 467.444,1207.33 466,1196.5C 464.766,1174.06 465.599,1151.73 468.5,1129.5C 470.278,1124.73 471.611,1119.73 472.5,1114.5C 474.405,1110.78 475.739,1106.78 476.5,1102.5C 478.403,1099.47 479.737,1096.14 480.5,1092.5C 484.737,1084.36 488.737,1076.02 492.5,1067.5C 496.747,1061.34 500.747,1055.01 504.5,1048.5C 506.326,1046.85 507.66,1044.85 508.5,1042.5C 511.516,1039.48 514.183,1036.15 516.5,1032.5C 519.54,1029.46 522.206,1026.13 524.5,1022.5C 533.559,1013.44 542.892,1004.77 552.5,996.5C 554.754,995.876 556.421,994.543 557.5,992.5C 561.777,990.218 565.777,987.551 569.5,984.5C 572.004,983.416 574.337,982.083 576.5,980.5C 581.693,978.072 586.693,975.405 591.5,972.5C 591.833,972.5 592.167,972.5 592.5,972.5C 595.744,971.537 598.744,970.204 601.5,968.5C 604.833,967.833 608.167,967.167 611.5,966.5C 611.349,952.484 611.682,938.484 612.5,924.5C 612.5,923.833 612.5,923.167 612.5,922.5C 614.283,914.705 615.617,906.705 616.5,898.5C 616.216,896.585 616.549,894.919 617.5,893.5C 619.245,889.8 620.245,885.8 620.5,881.5C 622.589,877.499 623.922,873.165 624.5,868.5C 626.405,864.784 627.739,860.784 628.5,856.5C 630.403,853.47 631.737,850.137 632.5,846.5C 632.328,845.508 632.662,844.842 633.5,844.5C 635.065,842.491 636.065,840.157 636.5,837.5C 638.341,835.151 639.674,832.485 640.5,829.5C 642.341,827.151 643.674,824.485 644.5,821.5C 646.56,818.76 648.226,815.76 649.5,812.5C 660.176,795.829 671.843,779.829 684.5,764.5C 691.554,758.113 698.221,751.446 704.5,744.5C 706.167,743.5 707.5,742.167 708.5,740.5C 715.461,735.54 722.127,730.206 728.5,724.5C 734.189,721.324 739.523,717.658 744.5,713.5C 747.511,712.331 750.178,710.664 752.5,708.5C 762.998,703.418 773.331,698.085 783.5,692.5C 787.137,691.737 790.47,690.403 793.5,688.5C 797.137,687.737 800.47,686.403 803.5,684.5C 803.833,684.5 804.167,684.5 804.5,684.5C 808.785,683.738 812.785,682.405 816.5,680.5C 821.437,679.739 826.103,678.405 830.5,676.5C 835.412,676.102 840.079,675.102 844.5,673.5C 846.265,672.539 848.265,672.205 850.5,672.5C 861.657,671.299 872.657,669.965 883.5,668.5 Z"/></g>
<g><path style="opacity:1" fill="#251203" d="M 912.5,668.5 C 951.056,669.977 987.889,678.644 1023,694.5C 1026.4,696.427 1029.57,698.427 1032.5,700.5C 994.436,682.095 954.436,671.428 912.5,668.5 Z"/></g>
<g><path style="opacity:1" fill="#160600" d="M 844.5,673.5 C 840.079,675.102 835.412,676.102 830.5,676.5C 830.611,675.883 830.944,675.383 831.5,675C 835.813,674.265 840.147,673.765 844.5,673.5 Z"/></g>
<g><path style="opacity:1" fill="#fad305" d="M 1161.5,836.5 C 1161.83,836.5 1162.17,836.5 1162.5,836.5C 1162.5,836.833 1162.5,837.167 1162.5,837.5C 1162.5,838.833 1163.17,839.5 1164.5,839.5C 1163.72,840.156 1163.06,840.989 1162.5,842C 1162.83,842.5 1163.17,843 1163.5,843.5C 1201.37,818.469 1242.37,811.969 1286.5,824C 1304.59,830.13 1321.26,838.796 1336.5,850C 1368.54,877.585 1385.54,912.752 1387.5,955.5C 1388.5,955.5 1389.5,955.5 1390.5,955.5C 1390.33,948.49 1390,941.49 1389.5,934.5C 1389.83,934.5 1390.17,934.5 1390.5,934.5C 1390.5,934.833 1390.5,935.167 1390.5,935.5C 1390.6,942.78 1391.6,949.78 1393.5,956.5C 1391.35,957.077 1391.02,958.244 1392.5,960C 1441.14,965.328 1483.14,984.661 1518.5,1018C 1542.77,1041.26 1561.94,1068.09 1576,1098.5C 1589.85,1134.74 1593.52,1172.08 1587,1210.5C 1571.14,1268.24 1536.64,1310.91 1483.5,1338.5C 1451.81,1355.22 1417.81,1365.05 1381.5,1368C 1145.5,1368.67 909.5,1368.67 673.5,1368C 644.981,1365.04 617.647,1358.04 591.5,1347C 583.728,1342.78 576.061,1338.62 568.5,1334.5C 559.624,1330.05 551.291,1324.55 543.5,1318C 471.892,1259.07 451.725,1185.57 483,1097.5C 493.268,1073.51 506.601,1051.18 523,1030.5C 548.001,1001.3 578.501,980.303 614.5,967.5C 615.44,946.756 617.273,926.089 620,905.5C 627.886,862.87 644.553,823.87 670,788.5C 721.82,720.83 790.32,682.664 875.5,674C 980.845,668.574 1065.68,707.074 1130,789.5C 1130.49,791.134 1130.66,792.801 1130.5,794.5C 1131.5,794.5 1132.5,794.5 1133.5,794.5C 1142.84,808.146 1151.01,822.813 1158,838.5C 1159.01,839.337 1160.18,839.67 1161.5,839.5C 1161.5,838.5 1161.5,837.5 1161.5,836.5 Z"/></g>
<g><path style="opacity:1" fill="#100400" d="M 830.5,676.5 C 826.103,678.405 821.437,679.739 816.5,680.5C 820.597,677.968 825.264,676.634 830.5,676.5 Z"/></g>
<g><path style="opacity:1" fill="#1e0c00" d="M 816.5,680.5 C 812.785,682.405 808.785,683.738 804.5,684.5C 804.62,683.414 805.287,682.747 806.5,682.5C 809.782,681.512 813.115,680.846 816.5,680.5 Z"/></g>
<g><path style="opacity:1" fill="#1c0b00" d="M 803.5,684.5 C 800.47,686.403 797.137,687.737 793.5,688.5C 796.262,686.234 799.595,684.901 803.5,684.5 Z"/></g>
<g><path style="opacity:1" fill="#1b0a01" d="M 793.5,688.5 C 790.47,690.403 787.137,691.737 783.5,692.5C 786.192,689.819 789.525,688.486 793.5,688.5 Z"/></g>
<g><path style="opacity:1" fill="#210f02" d="M 1032.5,700.5 C 1037.96,702.007 1042.63,704.674 1046.5,708.5C 1041.5,706.336 1036.83,703.669 1032.5,700.5 Z"/></g>
<g><path style="opacity:1" fill="#1f0e01" d="M 783.5,692.5 C 773.331,698.085 762.998,703.418 752.5,708.5C 754.48,706.409 756.814,704.576 759.5,703C 765.5,700 771.5,697 777.5,694C 779.436,693.187 781.436,692.687 783.5,692.5 Z"/></g>
<g><path style="opacity:1" fill="#1f0c01" d="M 752.5,708.5 C 750.178,710.664 747.511,712.331 744.5,713.5C 746.431,710.736 749.098,709.069 752.5,708.5 Z"/></g>
<g><path style="opacity:1" fill="#200e02" d="M 744.5,713.5 C 739.523,717.658 734.189,721.324 728.5,724.5C 728.414,723.504 728.748,722.671 729.5,722C 733.004,719.996 736.337,717.663 739.5,715C 741.025,713.991 742.692,713.491 744.5,713.5 Z"/></g>
<g><path style="opacity:1" fill="#210f02" d="M 1046.5,708.5 C 1053.91,710.928 1060.24,714.928 1065.5,720.5C 1058.65,717.247 1052.32,713.247 1046.5,708.5 Z"/></g>
<g><path style="opacity:1" fill="#170800" d="M 1065.5,720.5 C 1068.37,720.369 1070.03,721.703 1070.5,724.5C 1068.25,723.876 1066.58,722.543 1065.5,720.5 Z"/></g>
<g><path style="opacity:1" fill="#200f02" d="M 1070.5,724.5 C 1071.55,724.351 1072.55,724.517 1073.5,725C 1075.55,727.055 1077.89,728.721 1080.5,730C 1081.31,731.113 1081.97,732.279 1082.5,733.5C 1078.13,730.984 1074.13,727.984 1070.5,724.5 Z"/></g>
<g><path style="opacity:1" fill="#1f0e01" d="M 728.5,724.5 C 722.127,730.206 715.461,735.54 708.5,740.5C 708.369,739.761 708.536,739.094 709,738.5C 712.114,735.704 715.281,733.038 718.5,730.5C 721.321,727.685 724.655,725.685 728.5,724.5 Z"/></g>
<g><path style="opacity:1" fill="#221002" d="M 1082.5,733.5 C 1084.85,734.013 1086.85,735.179 1088.5,737C 1089.82,737.816 1090.49,738.983 1090.5,740.5C 1087.22,738.883 1084.55,736.55 1082.5,733.5 Z"/></g>
<g><path style="opacity:1" fill="#1a0800" d="M 708.5,740.5 C 707.5,742.167 706.167,743.5 704.5,744.5C 704.833,742.167 706.167,740.833 708.5,740.5 Z"/></g>
<g><path style="opacity:1" fill="#170800" d="M 1090.5,740.5 C 1092.26,741.072 1093.92,741.906 1095.5,743C 1101.33,748.833 1107.17,754.667 1113,760.5C 1113.79,761.745 1114.29,763.078 1114.5,764.5C 1106.83,756.167 1098.83,748.167 1090.5,740.5 Z"/></g>
<g><path style="opacity:1" fill="#291303" d="M 704.5,744.5 C 698.221,751.446 691.554,758.113 684.5,764.5C 689.5,756.167 696.167,749.5 704.5,744.5 Z"/></g>
<g><path style="opacity:1" fill="#170600" d="M 1114.5,764.5 C 1116.83,764.833 1118.17,766.167 1118.5,768.5C 1116.83,767.5 1115.5,766.167 1114.5,764.5 Z"/></g>
<g><path style="opacity:1" fill="#1d0c01" d="M 1118.5,768.5 C 1121.3,768.967 1122.63,770.633 1122.5,773.5C 1120.41,772.415 1119.08,770.749 1118.5,768.5 Z"/></g>
<g><path style="opacity:1" fill="#1f0d01" d="M 1122.5,773.5 C 1124.57,774.263 1126.23,775.596 1127.5,777.5C 1130.49,781.494 1133.49,785.494 1136.5,789.5C 1137.46,791.075 1138.12,792.742 1138.5,794.5C 1132.94,787.718 1127.6,780.718 1122.5,773.5 Z"/></g>
<g><path style="opacity:1" fill="#1d0c01" d="M 684.5,764.5 C 671.843,779.829 660.176,795.829 649.5,812.5C 650.686,808.637 652.353,804.971 654.5,801.5C 658.913,795.674 663.08,789.674 667,783.5C 671.449,777.57 676.116,771.903 681,766.5C 681.816,765.177 682.983,764.511 684.5,764.5 Z"/></g>
<g><path style="opacity:1" fill="#190700" d="M 1138.5,794.5 C 1140.8,795.733 1142.13,797.733 1142.5,800.5C 1140.67,798.853 1139.34,796.853 1138.5,794.5 Z"/></g>
<g><path style="opacity:1" fill="#1b0b01" d="M 1142.5,800.5 C 1144.82,802.578 1146.82,805.078 1148.5,808C 1149.86,809.567 1150.52,811.4 1150.5,813.5C 1147.08,809.677 1144.42,805.343 1142.5,800.5 Z"/></g>
<g><path style="opacity:1" fill="#1e0d01" d="M 649.5,812.5 C 648.226,815.76 646.56,818.76 644.5,821.5C 644.871,817.665 646.538,814.665 649.5,812.5 Z"/></g>
<g><path style="opacity:1" fill="#f9f010" d="M 1276.5,816.5 C 1280.87,818.45 1285.53,819.783 1290.5,820.5C 1297.01,823.342 1303.68,826.009 1310.5,828.5C 1312.85,830.341 1315.52,831.674 1318.5,832.5C 1320.82,834.664 1323.49,836.331 1326.5,837.5C 1327.44,838.974 1328.77,839.974 1330.5,840.5C 1335.48,844.47 1340.48,848.47 1345.5,852.5C 1347.83,855.5 1350.5,858.167 1353.5,860.5C 1357.84,865.842 1362.17,871.175 1366.5,876.5C 1367.34,878.853 1368.67,880.853 1370.5,882.5C 1371.08,885.331 1372.41,887.664 1374.5,889.5C 1375.33,892.485 1376.66,895.151 1378.5,897.5C 1379.07,900.912 1380.41,903.912 1382.5,906.5C 1385.65,915.624 1387.99,924.957 1389.5,934.5C 1390,941.49 1390.33,948.49 1390.5,955.5C 1389.5,955.5 1388.5,955.5 1387.5,955.5C 1385.54,912.752 1368.54,877.585 1336.5,850C 1321.26,838.796 1304.59,830.13 1286.5,824C 1242.37,811.969 1201.37,818.469 1163.5,843.5C 1163.17,843 1162.83,842.5 1162.5,842C 1163.06,840.989 1163.72,840.156 1164.5,839.5C 1165.17,838.5 1165.83,837.5 1166.5,836.5C 1169.33,835.921 1171.66,834.588 1173.5,832.5C 1179.15,830.341 1184.48,827.674 1189.5,824.5C 1193.54,823.935 1197.2,822.601 1200.5,820.5C 1205.73,819.611 1210.73,818.278 1215.5,816.5C 1235.83,813.852 1256.17,813.852 1276.5,816.5 Z"/></g>
<g><path style="opacity:1" fill="#2c1405" d="M 1276.5,816.5 C 1256.17,813.852 1235.83,813.852 1215.5,816.5C 1215.61,815.883 1215.94,815.383 1216.5,815C 1236.17,811.667 1255.83,811.667 1275.5,815C 1276.06,815.383 1276.39,815.883 1276.5,816.5 Z"/></g>
<g><path style="opacity:1" fill="#130600" d="M 1215.5,816.5 C 1210.73,818.278 1205.73,819.611 1200.5,820.5C 1200.79,819.351 1201.62,818.684 1203,818.5C 1207.12,817.508 1211.29,816.841 1215.5,816.5 Z"/></g>
<g><path style="opacity:1" fill="#2a1404" d="M 1276.5,816.5 C 1281.74,816.634 1286.4,817.968 1290.5,820.5C 1285.53,819.783 1280.87,818.45 1276.5,816.5 Z"/></g>
<g><path style="opacity:1" fill="#1c0c01" d="M 1150.5,813.5 C 1154.35,817.729 1157.01,822.729 1158.5,828.5C 1155.07,823.984 1152.41,818.984 1150.5,813.5 Z"/></g>
<g><path style="opacity:1" fill="#1d0c00" d="M 1200.5,820.5 C 1197.2,822.601 1193.54,823.935 1189.5,824.5C 1192.55,822.032 1196.22,820.699 1200.5,820.5 Z"/></g>
<g><path style="opacity:1" fill="#210f02" d="M 1290.5,820.5 C 1297.24,821.301 1303.57,823.301 1309.5,826.5C 1310.3,826.957 1310.63,827.624 1310.5,828.5C 1303.68,826.009 1297.01,823.342 1290.5,820.5 Z"/></g>
<g><path style="opacity:1" fill="#210e01" d="M 1189.5,824.5 C 1184.48,827.674 1179.15,830.341 1173.5,832.5C 1177.89,828.303 1183.23,825.637 1189.5,824.5 Z"/></g>
<g><path style="opacity:1" fill="#1e0d00" d="M 644.5,821.5 C 643.674,824.485 642.341,827.151 640.5,829.5C 640.829,826.173 642.163,823.507 644.5,821.5 Z"/></g>
<g><path style="opacity:1" fill="#180700" d="M 640.5,829.5 C 639.674,832.485 638.341,835.151 636.5,837.5C 636.829,834.173 638.163,831.507 640.5,829.5 Z"/></g>
<g><path style="opacity:1" fill="#150700" d="M 1310.5,828.5 C 1313.99,828.532 1316.66,829.865 1318.5,832.5C 1315.52,831.674 1312.85,830.341 1310.5,828.5 Z"/></g>
<g><path style="opacity:1" fill="#180900" d="M 1158.5,828.5 C 1160.84,830.507 1162.17,833.173 1162.5,836.5C 1162.17,836.5 1161.83,836.5 1161.5,836.5C 1160.5,833.838 1159.5,831.172 1158.5,828.5 Z"/></g>
<g><path style="opacity:1" fill="#170700" d="M 1173.5,832.5 C 1171.66,834.588 1169.33,835.921 1166.5,836.5C 1167.98,833.917 1170.32,832.584 1173.5,832.5 Z"/></g>
<g><path style="opacity:1" fill="#170900" d="M 1318.5,832.5 C 1321.9,833.069 1324.57,834.736 1326.5,837.5C 1323.49,836.331 1320.82,834.664 1318.5,832.5 Z"/></g>
<g><path style="opacity:1" fill="#160700" d="M 636.5,837.5 C 636.065,840.157 635.065,842.491 633.5,844.5C 633.179,841.423 634.179,839.09 636.5,837.5 Z"/></g>
<g><path style="opacity:1" fill="#190900" d="M 1166.5,836.5 C 1165.83,837.5 1165.17,838.5 1164.5,839.5C 1163.17,839.5 1162.5,838.833 1162.5,837.5C 1163.83,837.167 1165.17,836.833 1166.5,836.5 Z"/></g>
<g><path style="opacity:1" fill="#160700" d="M 1326.5,837.5 C 1328.97,837.088 1330.31,838.088 1330.5,840.5C 1328.77,839.974 1327.44,838.974 1326.5,837.5 Z"/></g>
<g><path style="opacity:1" fill="#1d0d02" d="M 1330.5,840.5 C 1331.55,840.351 1332.55,840.517 1333.5,841C 1335.55,843.055 1337.89,844.721 1340.5,846C 1342.29,848.184 1343.95,850.351 1345.5,852.5C 1340.48,848.47 1335.48,844.47 1330.5,840.5 Z"/></g>
<g><path style="opacity:1" fill="#160800" d="M 632.5,846.5 C 631.737,850.137 630.403,853.47 628.5,856.5C 628.882,852.668 630.215,849.335 632.5,846.5 Z"/></g>
<g><path style="opacity:1" fill="#110400" d="M 1345.5,852.5 C 1349.17,854.167 1351.83,856.833 1353.5,860.5C 1350.5,858.167 1347.83,855.5 1345.5,852.5 Z"/></g>
<g><path style="opacity:1" fill="#160700" d="M 628.5,856.5 C 627.739,860.784 626.405,864.784 624.5,868.5C 625.017,864.778 625.85,861.112 627,857.5C 627.383,856.944 627.883,856.611 628.5,856.5 Z"/></g>
<g><path style="opacity:1" fill="#231102" d="M 1353.5,860.5 C 1356.25,861.974 1358.58,863.974 1360.5,866.5C 1363.31,869.321 1365.31,872.655 1366.5,876.5C 1362.17,871.175 1357.84,865.842 1353.5,860.5 Z"/></g>
<g><path style="opacity:1" fill="#190900" d="M 1366.5,876.5 C 1368.8,877.733 1370.13,879.733 1370.5,882.5C 1368.67,880.853 1367.34,878.853 1366.5,876.5 Z"/></g>
<g><path style="opacity:1" fill="#1b0800" d="M 624.5,868.5 C 623.922,873.165 622.589,877.499 620.5,881.5C 620.791,876.621 622.124,872.288 624.5,868.5 Z"/></g>
<g><path style="opacity:1" fill="#170800" d="M 620.5,881.5 C 620.245,885.8 619.245,889.8 617.5,893.5C 617.781,889.812 618.281,886.145 619,882.5C 619.383,881.944 619.883,881.611 620.5,881.5 Z"/></g>
<g><path style="opacity:1" fill="#200e02" d="M 1370.5,882.5 C 1373.08,883.985 1374.42,886.318 1374.5,889.5C 1372.41,887.664 1371.08,885.331 1370.5,882.5 Z"/></g>
<g><path style="opacity:1" fill="#190800" d="M 1374.5,889.5 C 1376.84,891.507 1378.17,894.173 1378.5,897.5C 1376.66,895.151 1375.33,892.485 1374.5,889.5 Z"/></g>
<g><path style="opacity:1" fill="#1d0c01" d="M 1378.5,897.5 C 1381.13,899.764 1382.46,902.764 1382.5,906.5C 1380.41,903.912 1379.07,900.912 1378.5,897.5 Z"/></g>
<g><path style="opacity:1" fill="#170800" d="M 616.5,898.5 C 615.617,906.705 614.283,914.705 612.5,922.5C 613.004,914.805 613.837,907.139 615,899.5C 615.383,898.944 615.883,898.611 616.5,898.5 Z"/></g>
<g><path style="opacity:1" fill="#1a0900" d="M 1382.5,906.5 C 1384.8,910.198 1386.63,914.198 1388,918.5C 1389.03,923.814 1389.86,929.147 1390.5,934.5C 1390.17,934.5 1389.83,934.5 1389.5,934.5C 1387.99,924.957 1385.65,915.624 1382.5,906.5 Z"/></g>
<g><path style="opacity:1" fill="#150600" d="M 612.5,924.5 C 611.682,938.484 611.349,952.484 611.5,966.5C 608.167,967.167 604.833,967.833 601.5,968.5C 604.44,966.945 607.44,965.279 610.5,963.5C 609.875,960.388 609.541,957.221 609.5,954C 609.566,943.774 610.566,933.94 612.5,924.5 Z"/></g>
<g><path style="opacity:1" fill="#1a0b00" d="M 601.5,968.5 C 598.744,970.204 595.744,971.537 592.5,972.5C 592.577,971.25 593.244,970.417 594.5,970C 596.813,969.338 599.146,968.838 601.5,968.5 Z"/></g>
<g><path style="opacity:1" fill="#1e0e02" d="M 1390.5,935.5 C 1391.12,935.611 1391.62,935.944 1392,936.5C 1392.42,942.515 1392.92,948.515 1393.5,954.5C 1418.22,956.767 1441.89,963.267 1464.5,974C 1465.76,974.417 1466.42,975.25 1466.5,976.5C 1443.43,965.315 1419.09,958.648 1393.5,956.5C 1391.6,949.78 1390.6,942.78 1390.5,935.5 Z"/></g>
<g><path style="opacity:1" fill="#130500" d="M 591.5,972.5 C 586.693,975.405 581.693,978.072 576.5,980.5C 580.496,976.22 585.496,973.553 591.5,972.5 Z"/></g>
<g><path style="opacity:1" fill="#f98d0f" d="M 1295.5,989.5 C 1291.6,987.966 1287.77,986.299 1284,984.5C 1283.24,984.57 1282.74,984.903 1282.5,985.5C 1262.26,979.985 1241.93,979.319 1221.5,983.5C 1221.03,982.307 1220.03,981.64 1218.5,981.5C 1216.18,981.997 1213.85,982.33 1211.5,982.5C 1232.43,975.433 1253.76,974.599 1275.5,980C 1282.93,981.883 1289.59,985.05 1295.5,989.5 Z"/></g>
<g><path style="opacity:1" fill="#1f0e02" d="M 1466.5,976.5 C 1471.37,977.635 1475.87,979.635 1480,982.5C 1484.12,985.142 1488.29,987.642 1492.5,990C 1493.25,990.671 1493.59,991.504 1493.5,992.5C 1484.47,987.127 1475.47,981.793 1466.5,976.5 Z"/></g>
<g><path style="opacity:1" fill="#1f0e01" d="M 576.5,980.5 C 574.337,982.083 572.004,983.416 569.5,984.5C 569.414,983.504 569.748,982.671 570.5,982C 572.436,981.187 574.436,980.687 576.5,980.5 Z"/></g>
<g><path style="opacity:1" fill="#faaa04" d="M 1031.5,1000.5 C 1030.08,996.732 1029.08,992.732 1028.5,988.5C 1028.12,986.197 1027.12,985.863 1025.5,987.5C 1018.53,986.169 1011.2,985.503 1003.5,985.5C 996.167,985.667 988.833,985.833 981.5,986C 980.748,986.671 980.414,987.504 980.5,988.5C 979.528,986.507 978.195,986.174 976.5,987.5C 977.105,985.974 978.271,984.974 980,984.5C 980.483,983.552 980.649,982.552 980.5,981.5C 995.504,981.333 1010.5,981.5 1025.5,982C 1026.33,983.5 1027.5,984.667 1029,985.5C 1030.27,990.435 1031.1,995.435 1031.5,1000.5 Z"/></g>
<g><path style="opacity:1" fill="#faf9f8" d="M 1282.5,985.5 C 1297.33,991.327 1308.33,1001.33 1315.5,1015.5C 1318.7,1024.54 1320.7,1033.88 1321.5,1043.5C 1321.5,1047.83 1321.5,1052.17 1321.5,1056.5C 1307.5,1056.5 1293.5,1056.5 1279.5,1056.5C 1279.5,1056.17 1279.5,1055.83 1279.5,1055.5C 1279.92,1047.84 1278.92,1040.5 1276.5,1033.5C 1272.96,1023.29 1265.96,1016.96 1255.5,1014.5C 1251.61,1012.99 1247.44,1012.33 1243,1012.5C 1238.24,1012.37 1233.74,1013.03 1229.5,1014.5C 1219.56,1017.44 1212.89,1023.77 1209.5,1033.5C 1207.99,1035.48 1207.16,1037.81 1207,1040.5C 1206.83,1043.67 1206.67,1046.83 1206.5,1050C 1206.34,1055.09 1207.01,1059.92 1208.5,1064.5C 1211.01,1072.51 1215.68,1079.01 1222.5,1084C 1238.95,1093.27 1256.28,1100.6 1274.5,1106C 1290.36,1110.88 1303.86,1119.38 1315,1131.5C 1317.79,1135.43 1320.29,1139.43 1322.5,1143.5C 1330.43,1166.79 1330.43,1190.12 1322.5,1213.5C 1315.08,1229.92 1303.08,1241.59 1286.5,1248.5C 1257.47,1259.09 1228.47,1259.09 1199.5,1248.5C 1177.91,1237.05 1165.41,1219.05 1162,1194.5C 1160.88,1186.2 1160.38,1177.87 1160.5,1169.5C 1174.5,1169.5 1188.5,1169.5 1202.5,1169.5C 1202.18,1174.36 1202.51,1179.03 1203.5,1183.5C 1203.05,1189.23 1204.05,1194.56 1206.5,1199.5C 1211.44,1213.77 1221.44,1221.77 1236.5,1223.5C 1242.49,1224.78 1248.49,1224.78 1254.5,1223.5C 1269.47,1221.19 1279.13,1212.86 1283.5,1198.5C 1288.99,1181.49 1285.99,1165.99 1274.5,1152C 1269.7,1147.88 1264.37,1144.54 1258.5,1142C 1244.18,1137 1229.84,1132 1215.5,1127C 1202.69,1121.84 1191.19,1114.68 1181,1105.5C 1176.65,1100.11 1172.82,1094.45 1169.5,1088.5C 1163.27,1067.93 1162.94,1047.27 1168.5,1026.5C 1178.22,1002.46 1195.89,988.128 1221.5,983.5C 1241.93,979.319 1262.26,979.985 1282.5,985.5 Z"/></g>
<g><path style="opacity:1" fill="#fa8000" d="M 981.5,982.5 C 995.849,982.167 1010.18,982.501 1024.5,983.5C 1017.33,983.833 1010.17,984.167 1003,984.5C 995.467,984.497 988.301,983.831 981.5,982.5 Z"/></g>
<g><path style="opacity:1" fill="#faa806" d="M 914.5,990.5 C 913.839,989.282 913.172,987.949 912.5,986.5C 911.817,986.863 911.15,987.196 910.5,987.5C 896.873,985.518 882.873,984.851 868.5,985.5C 868.5,985.167 868.5,984.833 868.5,984.5C 867.596,983.791 867.263,982.791 867.5,981.5C 881.833,981.5 896.167,981.5 910.5,981.5C 910.167,984.5 911.5,985.833 914.5,985.5C 914.5,987.167 914.5,988.833 914.5,990.5 Z"/></g>
<g><path style="opacity:1" fill="#fa8000" d="M 868.5,984.5 C 874.966,983.17 881.799,982.503 889,982.5C 895.833,982.833 902.667,983.167 909.5,983.5C 895.85,984.499 882.183,984.833 868.5,984.5 Z"/></g>
<g><path style="opacity:1" fill="#fa9200" d="M 1211.5,982.5 C 1205.37,986.21 1199.04,989.543 1192.5,992.5C 1197.55,986.914 1203.88,983.581 1211.5,982.5 Z"/></g>
<g><path style="opacity:1" fill="#faf9f8" d="M 803.5,987.5 C 825.855,1074.26 848.522,1160.92 871.5,1247.5C 871.5,1248.5 871.5,1249.5 871.5,1250.5C 857.167,1250.5 842.833,1250.5 828.5,1250.5C 828.167,1250.5 827.833,1250.5 827.5,1250.5C 822.653,1229.1 817.487,1207.77 812,1186.5C 799.073,1185.84 786.073,1185.5 773,1185.5C 759.927,1185.5 746.927,1185.84 734,1186.5C 727.869,1207.69 722.369,1229.03 717.5,1250.5C 717.167,1250.5 716.833,1250.5 716.5,1250.5C 702.167,1250.5 687.833,1250.5 673.5,1250.5C 673.5,1249.5 673.5,1248.5 673.5,1247.5C 698.948,1160.71 723.615,1073.71 747.5,986.5C 766.326,984.842 784.993,985.175 803.5,987.5 Z"/></g>
<g><path style="opacity:1" fill="#faf9f8" d="M 868.5,985.5 C 882.873,984.851 896.873,985.518 910.5,987.5C 921.138,1051.34 932.138,1115.01 943.5,1178.5C 944.573,1194.86 945.906,1195.2 947.5,1179.5C 958.619,1115.99 969.619,1052.32 980.5,988.5C 980.414,987.504 980.748,986.671 981.5,986C 988.833,985.833 996.167,985.667 1003.5,985.5C 1011.2,985.503 1018.53,986.169 1025.5,987.5C 1036.39,1052.03 1047.73,1116.37 1059.5,1180.5C 1059.33,1184.64 1060,1188.64 1061.5,1192.5C 1062.47,1190.6 1062.8,1188.6 1062.5,1186.5C 1074.06,1120.37 1085.23,1054.04 1096,987.5C 1109.59,985.528 1123.42,984.862 1137.5,985.5C 1137.5,987.167 1137.5,988.833 1137.5,990.5C 1119.97,1077.01 1102.63,1163.68 1085.5,1250.5C 1069.5,1250.5 1053.5,1250.5 1037.5,1250.5C 1036.83,1250.5 1036.5,1250.17 1036.5,1249.5C 1025.49,1186.04 1014.49,1122.71 1003.5,1059.5C 1003.5,1057.83 1003.5,1056.17 1003.5,1054.5C 1003.46,1052.25 1002.63,1051.59 1001,1052.5C 989.999,1117.84 978.999,1183.17 968,1248.5C 952.073,1250.48 935.907,1251.14 919.5,1250.5C 918.833,1248.83 918.167,1247.17 917.5,1245.5C 901.585,1159.01 884.919,1072.68 867.5,986.5C 867.5,985.833 867.833,985.5 868.5,985.5 Z"/></g>
<g><path style="opacity:1" fill="#1e0e01" d="M 569.5,984.5 C 565.777,987.551 561.777,990.218 557.5,992.5C 557.414,991.504 557.748,990.671 558.5,990C 561.921,987.623 565.588,985.79 569.5,984.5 Z"/></g>
<g><path style="opacity:1" fill="#f9630f" d="M 1221.5,983.5 C 1195.89,988.128 1178.22,1002.46 1168.5,1026.5C 1167.88,1026.08 1167.54,1025.42 1167.5,1024.5C 1168.65,1021.03 1169.98,1017.7 1171.5,1014.5C 1176.45,1005.22 1183.45,997.884 1192.5,992.5C 1199.04,989.543 1205.37,986.21 1211.5,982.5C 1213.85,982.33 1216.18,981.997 1218.5,981.5C 1220.03,981.64 1221.03,982.307 1221.5,983.5 Z"/></g>
<g><path style="opacity:1" fill="#190800" d="M 557.5,992.5 C 556.421,994.543 554.754,995.876 552.5,996.5C 553.129,994.003 554.796,992.67 557.5,992.5 Z"/></g>
<g><path style="opacity:1" fill="#fa630f" d="M 1295.5,989.5 C 1303.85,994.521 1310.52,1001.19 1315.5,1009.5C 1315.95,1011.74 1315.95,1013.74 1315.5,1015.5C 1308.33,1001.33 1297.33,991.327 1282.5,985.5C 1282.74,984.903 1283.24,984.57 1284,984.5C 1287.77,986.299 1291.6,987.966 1295.5,989.5 Z"/></g>
<g><path style="opacity:1" fill="#210f02" d="M 1493.5,992.5 C 1498.74,995.128 1503.74,998.295 1508.5,1002C 1509.25,1002.67 1509.59,1003.5 1509.5,1004.5C 1503.88,1000.88 1498.55,996.878 1493.5,992.5 Z"/></g>
<g><path style="opacity:1" fill="#1f0e02" d="M 1509.5,1004.5 C 1510.92,1004.71 1512.26,1005.21 1513.5,1006C 1515.74,1007.77 1517.41,1009.94 1518.5,1012.5C 1514.89,1010.53 1511.89,1007.86 1509.5,1004.5 Z"/></g>
<g><path style="opacity:1" fill="#180900" d="M 552.5,996.5 C 542.892,1004.77 533.559,1013.44 524.5,1022.5C 527.467,1018.08 530.8,1013.91 534.5,1010C 539.755,1006.75 544.422,1002.75 548.5,998C 549.745,997.209 551.078,996.709 552.5,996.5 Z"/></g>
<g><path style="opacity:1" fill="#fa900d" d="M 1255.5,1014.5 C 1254.13,1014.34 1252.79,1014.51 1251.5,1015C 1254.31,1016.09 1256.98,1017.26 1259.5,1018.5C 1250.95,1016.75 1242.28,1016.08 1233.5,1016.5C 1233.61,1015.88 1233.94,1015.38 1234.5,1015C 1232.87,1014.51 1231.2,1014.34 1229.5,1014.5C 1233.74,1013.03 1238.24,1012.37 1243,1012.5C 1247.44,1012.33 1251.61,1012.99 1255.5,1014.5 Z"/></g>
<g><path style="opacity:1" fill="#fac802" d="M 836.5,1098.5 C 825.928,1061.43 815.928,1024.1 806.5,986.5C 805.074,985.659 803.74,984.659 802.5,983.5C 802.5,983.167 802.5,982.833 802.5,982.5C 784.671,981.338 766.671,981.171 748.5,982C 747.663,983.011 747.33,984.178 747.5,985.5C 746.209,985.263 745.209,985.596 744.5,986.5C 734.169,1021.83 723.836,1057.16 713.5,1092.5C 713.392,1088.75 713.892,1085.09 715,1081.5C 724.521,1048.07 734.021,1014.74 743.5,981.5C 763.802,980.369 784.136,980.202 804.5,981C 805.416,981.374 806.25,981.874 807,982.5C 816.981,1018.42 826.647,1054.42 836,1090.5C 836.497,1093.15 836.664,1095.81 836.5,1098.5 Z"/></g>
<g><path style="opacity:1" fill="#faa708" d="M 802.5,982.5 C 784.347,982.014 766.347,982.514 748.5,984C 766.671,984.829 784.671,984.662 802.5,983.5C 803.74,984.659 805.074,985.659 806.5,986.5C 805.209,986.263 804.209,986.596 803.5,987.5C 784.993,985.175 766.326,984.842 747.5,986.5C 746.5,986.5 745.5,986.5 744.5,986.5C 745.209,985.596 746.209,985.263 747.5,985.5C 747.33,984.178 747.663,983.011 748.5,982C 766.671,981.171 784.671,981.338 802.5,982.5 Z"/></g>
<g><path style="opacity:1" fill="#fa8000" d="M 802.5,982.5 C 802.5,982.833 802.5,983.167 802.5,983.5C 784.671,984.662 766.671,984.829 748.5,984C 766.347,982.514 784.347,982.014 802.5,982.5 Z"/></g>
<g><path style="opacity:1" fill="#2a1403" d="M 1518.5,1012.5 C 1526.83,1017.5 1533.5,1024.17 1538.5,1032.5C 1531.5,1026.17 1524.83,1019.5 1518.5,1012.5 Z"/></g>
<g><path style="opacity:1" fill="#fa6606" d="M 1255.5,1014.5 C 1265.96,1016.96 1272.96,1023.29 1276.5,1033.5C 1276.66,1034.87 1276.49,1036.21 1276,1037.5C 1275.27,1034.81 1274.1,1032.48 1272.5,1030.5C 1271.09,1026.99 1268.75,1024.33 1265.5,1022.5C 1263.85,1020.67 1261.85,1019.34 1259.5,1018.5C 1256.98,1017.26 1254.31,1016.09 1251.5,1015C 1252.79,1014.51 1254.13,1014.34 1255.5,1014.5 Z"/></g>
<g><path style="opacity:1" fill="#fa6907" d="M 1229.5,1014.5 C 1231.2,1014.34 1232.87,1014.51 1234.5,1015C 1233.94,1015.38 1233.61,1015.88 1233.5,1016.5C 1224.35,1017.65 1217.69,1022.31 1213.5,1030.5C 1212.2,1031.99 1211.03,1033.65 1210,1035.5C 1209.54,1034.91 1209.37,1034.24 1209.5,1033.5C 1212.89,1023.77 1219.56,1017.44 1229.5,1014.5 Z"/></g>
<g><path style="opacity:1" fill="#fa3c04" d="M 775.5,1028.5 C 775.628,1030.65 775.128,1032.65 774,1034.5C 772.625,1032.06 772.125,1029.4 772.5,1026.5C 772.231,1024.57 772.731,1022.9 774,1021.5C 775.202,1023.68 775.702,1026.01 775.5,1028.5 Z"/></g>
<g><path style="opacity:1" fill="#1d0c01" d="M 524.5,1022.5 C 522.206,1026.13 519.54,1029.46 516.5,1032.5C 518.088,1028.25 520.755,1024.92 524.5,1022.5 Z"/></g>
<g><path style="opacity:1" fill="#fa8a0c" d="M 1315.5,1009.5 C 1321.74,1019.46 1324.74,1030.46 1324.5,1042.5C 1324.83,1046.88 1324.49,1051.22 1323.5,1055.5C 1322.83,1051.35 1322.17,1047.35 1321.5,1043.5C 1320.7,1033.88 1318.7,1024.54 1315.5,1015.5C 1315.95,1013.74 1315.95,1011.74 1315.5,1009.5 Z"/></g>
<g><path style="opacity:1" fill="#231002" d="M 1538.5,1032.5 C 1540.02,1032.51 1541.18,1033.18 1542,1034.5C 1543.82,1036.15 1544.99,1038.15 1545.5,1040.5C 1542.45,1038.45 1540.12,1035.78 1538.5,1032.5 Z"/></g>
<g><path style="opacity:1" fill="#1b0a00" d="M 516.5,1032.5 C 514.183,1036.15 511.516,1039.48 508.5,1042.5C 509.343,1039.48 510.843,1036.82 513,1034.5C 513.816,1033.18 514.983,1032.51 516.5,1032.5 Z"/></g>
<g><path style="opacity:1" fill="#fa8a14" d="M 1171.5,1014.5 C 1169.98,1017.7 1168.65,1021.03 1167.5,1024.5C 1167.54,1025.42 1167.88,1026.08 1168.5,1026.5C 1162.94,1047.27 1163.27,1067.93 1169.5,1088.5C 1168.6,1089.21 1168.26,1090.21 1168.5,1091.5C 1164.17,1084.23 1161.67,1076.23 1161,1067.5C 1160.27,1057.47 1160.44,1047.47 1161.5,1037.5C 1163.23,1030.25 1165.73,1023.25 1169,1016.5C 1169.71,1015.62 1170.54,1014.95 1171.5,1014.5 Z"/></g>
<g><path style="opacity:1" fill="#f98b1b" d="M 1272.5,1030.5 C 1274.1,1032.48 1275.27,1034.81 1276,1037.5C 1276.49,1036.21 1276.66,1034.87 1276.5,1033.5C 1278.92,1040.5 1279.92,1047.84 1279.5,1055.5C 1278.17,1055.5 1276.83,1055.5 1275.5,1055.5C 1275.87,1046.98 1274.87,1038.65 1272.5,1030.5 Z"/></g>
<g><path style="opacity:1" fill="#1e0e01" d="M 508.5,1042.5 C 507.66,1044.85 506.326,1046.85 504.5,1048.5C 504.684,1045.66 506.018,1043.66 508.5,1042.5 Z"/></g>
<g><path style="opacity:1" fill="#1e0c00" d="M 1545.5,1040.5 C 1546.72,1041.03 1547.89,1041.69 1549,1042.5C 1551.49,1045.49 1553.33,1048.82 1554.5,1052.5C 1551.02,1048.87 1548.02,1044.87 1545.5,1040.5 Z"/></g>
<g><path style="opacity:1" fill="#100300" d="M 1554.5,1052.5 C 1556.91,1052.69 1557.91,1054.03 1557.5,1056.5C 1556.03,1055.56 1555.03,1054.23 1554.5,1052.5 Z"/></g>
<g><path style="opacity:1" fill="#1d0d01" d="M 504.5,1048.5 C 500.747,1055.01 496.747,1061.34 492.5,1067.5C 492.961,1065.45 493.628,1063.45 494.5,1061.5C 497.178,1056.51 500.511,1052.18 504.5,1048.5 Z"/></g>
<g><path style="opacity:1" fill="#fa820e" d="M 744.5,986.5 C 745.5,986.5 746.5,986.5 747.5,986.5C 723.615,1073.71 698.948,1160.71 673.5,1247.5C 672.596,1248.21 672.263,1249.21 672.5,1250.5C 671.5,1250.5 670.5,1250.5 669.5,1250.5C 684.275,1198.01 698.941,1145.35 713.5,1092.5C 723.836,1057.16 734.169,1021.83 744.5,986.5 Z"/></g>
<g><path style="opacity:1" fill="#fa8c0b" d="M 1213.5,1030.5 C 1210.33,1041.92 1209.66,1053.58 1211.5,1065.5C 1210.44,1064.4 1209.61,1063.07 1209,1061.5C 1208.52,1062.45 1208.35,1063.45 1208.5,1064.5C 1207.01,1059.92 1206.34,1055.09 1206.5,1050C 1206.67,1046.83 1206.83,1043.67 1207,1040.5C 1207.16,1037.81 1207.99,1035.48 1209.5,1033.5C 1209.37,1034.24 1209.54,1034.91 1210,1035.5C 1211.03,1033.65 1212.2,1031.99 1213.5,1030.5 Z"/></g>
<g><path style="opacity:1" fill="#faac0c" d="M 1324.5,1042.5 C 1325.65,1046.98 1325.82,1051.65 1325,1056.5C 1323.5,1057.33 1322.33,1058.5 1321.5,1060C 1307.33,1060.83 1293.33,1060.66 1279.5,1059.5C 1334.17,1058.83 1334.17,1058.17 1279.5,1057.5C 1279.5,1057.17 1279.5,1056.83 1279.5,1056.5C 1293.5,1056.5 1307.5,1056.5 1321.5,1056.5C 1321.5,1052.17 1321.5,1047.83 1321.5,1043.5C 1322.17,1047.35 1322.83,1051.35 1323.5,1055.5C 1324.49,1051.22 1324.83,1046.88 1324.5,1042.5 Z"/></g>
<g><path style="opacity:1" fill="#fa880c" d="M 1137.5,985.5 C 1123.42,984.862 1109.59,985.528 1096,987.5C 1085.23,1054.04 1074.06,1120.37 1062.5,1186.5C 1062.82,1183.1 1062.49,1179.77 1061.5,1176.5C 1060.64,1177.77 1059.97,1179.1 1059.5,1180.5C 1047.73,1116.37 1036.39,1052.03 1025.5,987.5C 1027.12,985.863 1028.12,986.197 1028.5,988.5C 1029.08,992.732 1030.08,996.732 1031.5,1000.5C 1041.47,1056.77 1051.3,1113.1 1061,1169.5C 1072.24,1108.37 1082.74,1047.04 1092.5,985.5C 1094.35,985.778 1095.68,985.111 1096.5,983.5C 1110.15,982.501 1123.82,982.167 1137.5,982.5C 1137.5,983.5 1137.5,984.5 1137.5,985.5 Z"/></g>
<g><path style="opacity:1" fill="#1f0d00" d="M 1557.5,1056.5 C 1560.26,1058.43 1561.93,1061.1 1562.5,1064.5C 1560.34,1062.18 1558.67,1059.51 1557.5,1056.5 Z"/></g>
<g><path style="opacity:1" fill="#fa8600" d="M 1279.5,1057.5 C 1334.17,1058.17 1334.17,1058.83 1279.5,1059.5C 1279.5,1058.83 1279.5,1058.17 1279.5,1057.5 Z"/></g>
<g><path style="opacity:1" fill="#f93600" d="M 1003.5,1054.5 C 1003.5,1056.17 1003.5,1057.83 1003.5,1059.5C 1003.75,1062.32 1003.25,1064.99 1002,1067.5C 1000.42,1062.9 1000.42,1058.24 1002,1053.5C 1002.38,1054.06 1002.88,1054.39 1003.5,1054.5 Z"/></g>
<g><path style="opacity:1" fill="#fa8613" d="M 772.5,1026.5 C 772.125,1029.4 772.625,1032.06 774,1034.5C 775.128,1032.65 775.628,1030.65 775.5,1028.5C 785.766,1069.57 795.433,1110.9 804.5,1152.5C 783.833,1152.5 763.167,1152.5 742.5,1152.5C 751.881,1110.24 761.881,1068.24 772.5,1026.5 Z"/></g>
<g><path style="opacity:1" fill="#fad205" d="M 773.5,1038.5 C 774.117,1038.61 774.617,1038.94 775,1039.5C 783.33,1075.82 791.496,1112.15 799.5,1148.5C 781.833,1148.5 764.167,1148.5 746.5,1148.5C 755.528,1111.72 764.528,1075.06 773.5,1038.5 Z"/></g>
<g><path style="opacity:1" fill="#1c0c01" d="M 1562.5,1064.5 C 1565.09,1065.49 1566.42,1067.49 1566.5,1070.5C 1564.68,1068.88 1563.35,1066.88 1562.5,1064.5 Z"/></g>
<g><path style="opacity:1" fill="#fa8a0d" d="M 914.5,990.5 C 924.828,1049.8 935.162,1109.13 945.5,1168.5C 956.479,1108.27 966.813,1047.94 976.5,987.5C 978.195,986.174 979.528,986.507 980.5,988.5C 969.619,1052.32 958.619,1115.99 947.5,1179.5C 946.733,1173.66 945.4,1173.33 943.5,1178.5C 932.138,1115.01 921.138,1051.34 910.5,987.5C 911.15,987.196 911.817,986.863 912.5,986.5C 913.172,987.949 913.839,989.282 914.5,990.5 Z"/></g>
<g><path style="opacity:1" fill="#200e01" d="M 1566.5,1070.5 C 1569.08,1071.98 1570.42,1074.32 1570.5,1077.5C 1568.41,1075.66 1567.08,1073.33 1566.5,1070.5 Z"/></g>
<g><path style="opacity:1" fill="#190900" d="M 492.5,1067.5 C 488.737,1076.02 484.737,1084.36 480.5,1092.5C 482.979,1083.38 486.979,1075.04 492.5,1067.5 Z"/></g>
<g><path style="opacity:1" fill="#fa8b15" d="M 1003.5,1054.5 C 1002.88,1054.39 1002.38,1054.06 1002,1053.5C 1000.42,1058.24 1000.42,1062.9 1002,1067.5C 1003.25,1064.99 1003.75,1062.32 1003.5,1059.5C 1014.49,1122.71 1025.49,1186.04 1036.5,1249.5C 1035.29,1250.23 1033.96,1250.57 1032.5,1250.5C 1022.87,1191.07 1012.71,1131.73 1002,1072.5C 991.51,1131.77 981.344,1191.1 971.5,1250.5C 969.41,1250.45 968.077,1251.45 967.5,1253.5C 951.18,1254.5 934.847,1254.83 918.5,1254.5C 918.433,1253.04 918.766,1251.71 919.5,1250.5C 935.907,1251.14 952.073,1250.48 968,1248.5C 978.999,1183.17 989.999,1117.84 1001,1052.5C 1002.63,1051.59 1003.46,1052.25 1003.5,1054.5 Z"/></g>
<g><path style="opacity:1" fill="#160700" d="M 1570.5,1077.5 C 1574.38,1082.09 1577.04,1087.43 1578.5,1093.5C 1575.33,1088.48 1572.66,1083.15 1570.5,1077.5 Z"/></g>
<g><path style="opacity:1" fill="#fa9400" d="M 1237.5,1088.5 C 1244.93,1091.51 1252.26,1094.51 1259.5,1097.5C 1253.5,1095.73 1247.5,1093.9 1241.5,1092C 1239.68,1091.34 1238.34,1090.17 1237.5,1088.5 Z"/></g>
<g><path style="opacity:1" fill="#200e01" d="M 480.5,1092.5 C 479.737,1096.14 478.403,1099.47 476.5,1102.5C 476.809,1098.58 478.142,1095.24 480.5,1092.5 Z"/></g>
<g><path style="opacity:1" fill="#fa8910" d="M 867.5,986.5 C 884.919,1072.68 901.585,1159.01 917.5,1245.5C 917.762,1246.98 917.429,1248.31 916.5,1249.5C 915.573,1247.89 914.739,1246.22 914,1244.5C 902.476,1184.55 890.809,1124.55 879,1064.5C 874.274,1039.15 869.441,1013.81 864.5,988.5C 864.547,985.761 865.547,985.095 867.5,986.5 Z"/></g>
<g><path style="opacity:1" fill="#f9ee10" d="M 1393.5,956.5 C 1419.09,958.648 1443.43,965.315 1466.5,976.5C 1475.47,981.793 1484.47,987.127 1493.5,992.5C 1498.55,996.878 1503.88,1000.88 1509.5,1004.5C 1511.89,1007.86 1514.89,1010.53 1518.5,1012.5C 1524.83,1019.5 1531.5,1026.17 1538.5,1032.5C 1540.12,1035.78 1542.45,1038.45 1545.5,1040.5C 1548.02,1044.87 1551.02,1048.87 1554.5,1052.5C 1555.03,1054.23 1556.03,1055.56 1557.5,1056.5C 1558.67,1059.51 1560.34,1062.18 1562.5,1064.5C 1563.35,1066.88 1564.68,1068.88 1566.5,1070.5C 1567.08,1073.33 1568.41,1075.66 1570.5,1077.5C 1572.66,1083.15 1575.33,1088.48 1578.5,1093.5C 1578.93,1096.16 1579.93,1098.49 1581.5,1100.5C 1583.99,1108.65 1586.66,1116.65 1589.5,1124.5C 1590.43,1125.57 1590.77,1126.9 1590.5,1128.5C 1591.76,1136.64 1593.09,1144.64 1594.5,1152.5C 1594.5,1152.83 1594.5,1153.17 1594.5,1153.5C 1594.5,1166.17 1594.5,1178.83 1594.5,1191.5C 1594.5,1191.83 1594.5,1192.17 1594.5,1192.5C 1591.53,1215.68 1584.53,1237.68 1573.5,1258.5C 1568.17,1266.49 1562.84,1274.49 1557.5,1282.5C 1547.87,1293.8 1537.53,1304.47 1526.5,1314.5C 1515.64,1322.76 1504.64,1330.76 1493.5,1338.5C 1490.67,1339.08 1488.34,1340.41 1486.5,1342.5C 1483.52,1343.33 1480.85,1344.66 1478.5,1346.5C 1475.52,1347.33 1472.85,1348.66 1470.5,1350.5C 1469.5,1350.5 1468.5,1350.5 1467.5,1350.5C 1467.37,1349.62 1467.7,1348.96 1468.5,1348.5C 1474.66,1345.59 1480.66,1342.42 1486.5,1339C 1485.55,1338.52 1484.55,1338.35 1483.5,1338.5C 1536.64,1310.91 1571.14,1268.24 1587,1210.5C 1593.52,1172.08 1589.85,1134.74 1576,1098.5C 1561.94,1068.09 1542.77,1041.26 1518.5,1018C 1483.14,984.661 1441.14,965.328 1392.5,960C 1391.02,958.244 1391.35,957.077 1393.5,956.5 Z"/></g>
<g><path style="opacity:1" fill="#140600" d="M 1578.5,1093.5 C 1580.54,1095.21 1581.54,1097.54 1581.5,1100.5C 1579.93,1098.49 1578.93,1096.16 1578.5,1093.5 Z"/></g>
<g><path style="opacity:1" fill="#180900" d="M 1581.5,1100.5 C 1582.31,1101.43 1583.15,1102.43 1584,1103.5C 1586.68,1110.32 1588.52,1117.32 1589.5,1124.5C 1586.66,1116.65 1583.99,1108.65 1581.5,1100.5 Z"/></g>
<g><path style="opacity:1" fill="#180700" d="M 476.5,1102.5 C 475.739,1106.78 474.405,1110.78 472.5,1114.5C 472.678,1111.78 473.178,1109.12 474,1106.5C 474.2,1104.68 475.034,1103.35 476.5,1102.5 Z"/></g>
<g><path style="opacity:1" fill="#fa6c0e" d="M 1211.5,1065.5 C 1216.47,1077.32 1225.14,1084.99 1237.5,1088.5C 1238.34,1090.17 1239.68,1091.34 1241.5,1092C 1247.5,1093.9 1253.5,1095.73 1259.5,1097.5C 1284.16,1103.08 1304.66,1115.41 1321,1134.5C 1321.79,1135.74 1322.29,1137.08 1322.5,1138.5C 1323.49,1140.33 1323.49,1142 1322.5,1143.5C 1320.29,1139.43 1317.79,1135.43 1315,1131.5C 1303.86,1119.38 1290.36,1110.88 1274.5,1106C 1256.28,1100.6 1238.95,1093.27 1222.5,1084C 1215.68,1079.01 1211.01,1072.51 1208.5,1064.5C 1208.35,1063.45 1208.52,1062.45 1209,1061.5C 1209.61,1063.07 1210.44,1064.4 1211.5,1065.5 Z"/></g>
<g><path style="opacity:1" fill="#fa850c" d="M 806.5,986.5 C 815.928,1024.1 825.928,1061.43 836.5,1098.5C 849.497,1149.16 862.497,1199.83 875.5,1250.5C 874.5,1250.5 873.5,1250.5 872.5,1250.5C 872.737,1249.21 872.404,1248.21 871.5,1247.5C 848.522,1160.92 825.855,1074.26 803.5,987.5C 804.209,986.596 805.209,986.263 806.5,986.5 Z"/></g>
<g><path style="opacity:1" fill="#fac602" d="M 1233.5,1016.5 C 1242.28,1016.08 1250.95,1016.75 1259.5,1018.5C 1261.85,1019.34 1263.85,1020.67 1265.5,1022.5C 1257.35,1020.2 1248.85,1018.54 1240,1017.5C 1221.53,1020.89 1212.03,1032.06 1211.5,1051C 1212.35,1065.55 1219.35,1076.22 1232.5,1083C 1250.9,1090.86 1269.57,1098.2 1288.5,1105C 1307.63,1112.46 1321.13,1125.63 1329,1144.5C 1329.5,1146.81 1329.66,1149.14 1329.5,1151.5C 1327.73,1146.86 1325.4,1142.53 1322.5,1138.5C 1322.29,1137.08 1321.79,1135.74 1321,1134.5C 1304.66,1115.41 1284.16,1103.08 1259.5,1097.5C 1252.26,1094.51 1244.93,1091.51 1237.5,1088.5C 1225.14,1084.99 1216.47,1077.32 1211.5,1065.5C 1209.66,1053.58 1210.33,1041.92 1213.5,1030.5C 1217.69,1022.31 1224.35,1017.65 1233.5,1016.5 Z"/></g>
<g><path style="opacity:1" fill="#160700" d="M 472.5,1114.5 C 471.611,1119.73 470.278,1124.73 468.5,1129.5C 469.01,1124.79 469.844,1120.12 471,1115.5C 471.383,1114.94 471.883,1114.61 472.5,1114.5 Z"/></g>
<g><path style="opacity:1" fill="#fa770b" d="M 1169.5,1088.5 C 1172.82,1094.45 1176.65,1100.11 1181,1105.5C 1191.19,1114.68 1202.69,1121.84 1215.5,1127C 1229.84,1132 1244.18,1137 1258.5,1142C 1264.37,1144.54 1269.7,1147.88 1274.5,1152C 1285.99,1165.99 1288.99,1181.49 1283.5,1198.5C 1283.19,1197.26 1282.69,1197.26 1282,1198.5C 1281.31,1201.46 1279.81,1203.79 1277.5,1205.5C 1283.85,1190.71 1284.01,1175.71 1278,1160.5C 1276.29,1159.12 1274.95,1157.46 1274,1155.5C 1270.12,1151.95 1265.95,1148.78 1261.5,1146C 1238.08,1139.86 1215.74,1131.2 1194.5,1120C 1183.5,1112.51 1174.84,1103.01 1168.5,1091.5C 1168.26,1090.21 1168.6,1089.21 1169.5,1088.5 Z"/></g>
<g><path style="opacity:1" fill="#fac603" d="M 1161.5,1037.5 C 1160.44,1047.47 1160.27,1057.47 1161,1067.5C 1161.67,1076.23 1164.17,1084.23 1168.5,1091.5C 1174.84,1103.01 1183.5,1112.51 1194.5,1120C 1215.74,1131.2 1238.08,1139.86 1261.5,1146C 1265.95,1148.78 1270.12,1151.95 1274,1155.5C 1274.95,1157.46 1276.29,1159.12 1278,1160.5C 1284.01,1175.71 1283.85,1190.71 1277.5,1205.5C 1274.8,1210.53 1270.8,1214.2 1265.5,1216.5C 1251.58,1221.76 1237.58,1221.76 1223.5,1216.5C 1216.62,1212.63 1211.96,1206.96 1209.5,1199.5C 1206.95,1189.68 1205.95,1179.68 1206.5,1169.5C 1205.5,1169.5 1204.5,1169.5 1203.5,1169.5C 1203.5,1174.17 1203.5,1178.83 1203.5,1183.5C 1202.51,1179.03 1202.18,1174.36 1202.5,1169.5C 1202.5,1168.17 1202.5,1166.83 1202.5,1165.5C 1188.5,1165.5 1174.5,1165.5 1160.5,1165.5C 1173.85,1164.79 1187.35,1164.12 1201,1163.5C 1202.89,1163.8 1204.72,1164.3 1206.5,1165C 1208.05,1174.39 1209.22,1183.89 1210,1193.5C 1216.14,1210.24 1228.14,1218.91 1246,1219.5C 1273.88,1215.08 1284.88,1199.08 1279,1171.5C 1274.26,1158.86 1265.43,1150.36 1252.5,1146C 1233.36,1140.09 1214.69,1133.09 1196.5,1125C 1166.39,1106.27 1153.89,1079.1 1159,1043.5C 1159.04,1041.03 1159.87,1039.03 1161.5,1037.5 Z"/></g>
<g><path style="opacity:1" fill="#1a0800" d="M 1590.5,1128.5 C 1591.75,1129.33 1592.41,1130.67 1592.5,1132.5C 1593.64,1139.13 1594.3,1145.79 1594.5,1152.5C 1593.09,1144.64 1591.76,1136.64 1590.5,1128.5 Z"/></g>
<g><path style="opacity:1" fill="#020000" d="M 1594.5,1153.5 C 1595.22,1153.92 1595.72,1154.58 1596,1155.5C 1596.67,1167.17 1596.67,1178.83 1596,1190.5C 1595.62,1191.06 1595.12,1191.39 1594.5,1191.5C 1594.5,1178.83 1594.5,1166.17 1594.5,1153.5 Z"/></g>
<g><path style="opacity:1" fill="#fa8b14" d="M 1037.5,1250.5 C 1053.5,1250.5 1069.5,1250.5 1085.5,1250.5C 1102.63,1163.68 1119.97,1077.01 1137.5,990.5C 1138.16,989.282 1138.83,987.949 1139.5,986.5C 1140.65,989.446 1140.82,992.446 1140,995.5C 1123.58,1080.25 1106.42,1164.75 1088.5,1249C 1086.42,1250.24 1085.42,1252.08 1085.5,1254.5C 1069.17,1254.5 1052.83,1254.5 1036.5,1254.5C 1036.43,1253.04 1036.77,1251.71 1037.5,1250.5 Z"/></g>
<g><path style="opacity:1" fill="#fa9228" d="M 1160.5,1165.5 C 1174.5,1165.5 1188.5,1165.5 1202.5,1165.5C 1202.5,1166.83 1202.5,1168.17 1202.5,1169.5C 1188.5,1169.5 1174.5,1169.5 1160.5,1169.5C 1160.5,1169.17 1160.5,1168.83 1160.5,1168.5C 1160.5,1167.5 1160.5,1166.5 1160.5,1165.5 Z"/></g>
<g><path style="opacity:1" fill="#f83f04" d="M 947.5,1179.5 C 945.906,1195.2 944.573,1194.86 943.5,1178.5C 945.4,1173.33 946.733,1173.66 947.5,1179.5 Z"/></g>
<g><path style="opacity:1" fill="#f83a05" d="M 1062.5,1186.5 C 1062.8,1188.6 1062.47,1190.6 1061.5,1192.5C 1060,1188.64 1059.33,1184.64 1059.5,1180.5C 1059.97,1179.1 1060.64,1177.77 1061.5,1176.5C 1062.49,1179.77 1062.82,1183.1 1062.5,1186.5 Z"/></g>
<g><path style="opacity:1" fill="#291101" d="M 468.5,1129.5 C 465.599,1151.73 464.766,1174.06 466,1196.5C 467.444,1207.33 469.61,1217.99 472.5,1228.5C 471.351,1228.21 470.684,1227.38 470.5,1226C 467.47,1217.15 465.637,1207.99 465,1198.5C 463.873,1175.77 464.54,1153.1 467,1130.5C 467.383,1129.94 467.883,1129.61 468.5,1129.5 Z"/></g>
<g><path style="opacity:1" fill="#fa8908" d="M 1322.5,1138.5 C 1325.4,1142.53 1327.73,1146.86 1329.5,1151.5C 1329.79,1154.94 1330.45,1158.27 1331.5,1161.5C 1333.62,1177.84 1332.12,1193.84 1327,1209.5C 1325.65,1213.54 1323.81,1217.2 1321.5,1220.5C 1321.96,1218.45 1322.63,1216.45 1323.5,1214.5C 1323.38,1213.89 1323.04,1213.56 1322.5,1213.5C 1330.43,1190.12 1330.43,1166.79 1322.5,1143.5C 1323.49,1142 1323.49,1140.33 1322.5,1138.5 Z"/></g>
<g><path style="opacity:1" fill="#fa7e0f" d="M 1160.5,1168.5 C 1160.5,1168.83 1160.5,1169.17 1160.5,1169.5C 1160.38,1177.87 1160.88,1186.2 1162,1194.5C 1165.41,1219.05 1177.91,1237.05 1199.5,1248.5C 1199.63,1249.38 1199.3,1250.04 1198.5,1250.5C 1196.47,1249.44 1194.47,1248.44 1192.5,1247.5C 1172.72,1234.97 1161.22,1216.97 1158,1193.5C 1156.98,1185.53 1156.48,1177.53 1156.5,1169.5C 1157.96,1169.57 1159.29,1169.23 1160.5,1168.5 Z"/></g>
<g><path style="opacity:1" fill="#fa8818" d="M 827.5,1250.5 C 826.178,1250.67 825.011,1250.34 824,1249.5C 818.92,1229.68 814.086,1209.85 809.5,1190C 785.169,1189.5 760.836,1189.33 736.5,1189.5C 731.644,1209.59 726.477,1229.59 721,1249.5C 719.989,1250.34 718.822,1250.67 717.5,1250.5C 722.369,1229.03 727.869,1207.69 734,1186.5C 746.927,1185.84 759.927,1185.5 773,1185.5C 786.073,1185.5 799.073,1185.84 812,1186.5C 817.487,1207.77 822.653,1229.1 827.5,1250.5 Z"/></g>
<g><path style="opacity:1" fill="#251203" d="M 1594.5,1192.5 C 1593.37,1211.87 1588.7,1230.37 1580.5,1248C 1578.76,1251.99 1576.43,1255.49 1573.5,1258.5C 1584.53,1237.68 1591.53,1215.68 1594.5,1192.5 Z"/></g>
<g><path style="opacity:1" fill="#221002" d="M 472.5,1228.5 C 474.4,1231.52 475.733,1234.85 476.5,1238.5C 473.84,1235.89 472.507,1232.55 472.5,1228.5 Z"/></g>
<g><path style="opacity:1" fill="#251203" d="M 476.5,1238.5 C 480.481,1246.46 484.481,1254.46 488.5,1262.5C 486.224,1260.67 484.391,1258.34 483,1255.5C 481.861,1251.89 480.194,1248.55 478,1245.5C 477.023,1243.26 476.523,1240.93 476.5,1238.5 Z"/></g>
<g><path style="opacity:1" fill="#f9b560" d="M 673.5,1247.5 C 673.5,1248.5 673.5,1249.5 673.5,1250.5C 687.833,1250.5 702.167,1250.5 716.5,1250.5C 702.343,1251.5 688.01,1251.83 673.5,1251.5C 672.833,1251.5 672.5,1251.17 672.5,1250.5C 672.263,1249.21 672.596,1248.21 673.5,1247.5 Z"/></g>
<g><path style="opacity:1" fill="#f9b561" d="M 871.5,1247.5 C 872.404,1248.21 872.737,1249.21 872.5,1250.5C 872.5,1251.17 872.167,1251.5 871.5,1251.5C 856.99,1251.83 842.657,1251.5 828.5,1250.5C 842.833,1250.5 857.167,1250.5 871.5,1250.5C 871.5,1249.5 871.5,1248.5 871.5,1247.5 Z"/></g>
<g><path style="opacity:1" fill="#fa8600" d="M 716.5,1250.5 C 716.833,1250.5 717.167,1250.5 717.5,1250.5C 717.67,1251.82 717.337,1252.99 716.5,1254C 702.171,1254.5 687.837,1254.67 673.5,1254.5C 673.5,1253.5 673.5,1252.5 673.5,1251.5C 688.01,1251.83 702.343,1251.5 716.5,1250.5 Z"/></g>
<g><path style="opacity:1" fill="#fa8600" d="M 827.5,1250.5 C 827.833,1250.5 828.167,1250.5 828.5,1250.5C 842.657,1251.5 856.99,1251.83 871.5,1251.5C 871.5,1252.5 871.5,1253.5 871.5,1254.5C 857.163,1254.67 842.829,1254.5 828.5,1254C 827.663,1252.99 827.33,1251.82 827.5,1250.5 Z"/></g>
<g><path style="opacity:1" fill="#fac702" d="M 1331.5,1161.5 C 1336.69,1186.32 1332.52,1209.65 1319,1231.5C 1311.6,1240.9 1302.43,1248.06 1291.5,1253C 1284.53,1254.07 1277.87,1256.07 1271.5,1259C 1252.16,1262.29 1232.82,1262.29 1213.5,1259C 1186.26,1253.65 1168.43,1237.82 1160,1211.5C 1156.44,1198.04 1154.78,1184.37 1155,1170.5C 1155.38,1169.94 1155.88,1169.61 1156.5,1169.5C 1156.48,1177.53 1156.98,1185.53 1158,1193.5C 1161.22,1216.97 1172.72,1234.97 1192.5,1247.5C 1192.95,1248.46 1193.62,1249.29 1194.5,1250C 1216.98,1259.52 1240.31,1262.19 1264.5,1258C 1271.6,1256.74 1278.6,1255.08 1285.5,1253C 1286.57,1252.15 1287.57,1251.31 1288.5,1250.5C 1302.71,1243.95 1313.71,1233.95 1321.5,1220.5C 1323.81,1217.2 1325.65,1213.54 1327,1209.5C 1332.12,1193.84 1333.62,1177.84 1331.5,1161.5 Z"/></g>
<g><path style="opacity:1" fill="#fa8d0a" d="M 1192.5,1247.5 C 1194.47,1248.44 1196.47,1249.44 1198.5,1250.5C 1199.3,1250.04 1199.63,1249.38 1199.5,1248.5C 1228.47,1259.09 1257.47,1259.09 1286.5,1248.5C 1285.34,1250.2 1286.01,1250.87 1288.5,1250.5C 1287.57,1251.31 1286.57,1252.15 1285.5,1253C 1278.6,1255.08 1271.6,1256.74 1264.5,1258C 1240.31,1262.19 1216.98,1259.52 1194.5,1250C 1193.62,1249.29 1192.95,1248.46 1192.5,1247.5 Z"/></g>
<g><path style="opacity:1" fill="#fa6d08" d="M 1322.5,1213.5 C 1323.04,1213.56 1323.38,1213.89 1323.5,1214.5C 1322.63,1216.45 1321.96,1218.45 1321.5,1220.5C 1313.71,1233.95 1302.71,1243.95 1288.5,1250.5C 1286.01,1250.87 1285.34,1250.2 1286.5,1248.5C 1303.08,1241.59 1315.08,1229.92 1322.5,1213.5 Z"/></g>
<g><path style="opacity:1" fill="#f88911" d="M 1223.5,1216.5 C 1237.58,1221.76 1251.58,1221.76 1265.5,1216.5C 1262.66,1218.91 1259.32,1220.57 1255.5,1221.5C 1254.7,1221.96 1254.37,1222.62 1254.5,1223.5C 1248.49,1224.78 1242.49,1224.78 1236.5,1223.5C 1236.53,1222.5 1236.03,1221.84 1235,1221.5C 1232.14,1220.74 1229.31,1219.91 1226.5,1219C 1225.06,1218.62 1224.06,1217.79 1223.5,1216.5 Z"/></g>
<g><path style="opacity:1" fill="#f9610f" d="M 1283.5,1198.5 C 1279.13,1212.86 1269.47,1221.19 1254.5,1223.5C 1254.37,1222.62 1254.7,1221.96 1255.5,1221.5C 1259.32,1220.57 1262.66,1218.91 1265.5,1216.5C 1270.8,1214.2 1274.8,1210.53 1277.5,1205.5C 1279.81,1203.79 1281.31,1201.46 1282,1198.5C 1282.69,1197.26 1283.19,1197.26 1283.5,1198.5 Z"/></g>
<g><path style="opacity:1" fill="#f9620a" d="M 1209.5,1199.5 C 1211.96,1206.96 1216.62,1212.63 1223.5,1216.5C 1224.06,1217.79 1225.06,1218.62 1226.5,1219C 1229.31,1219.91 1232.14,1220.74 1235,1221.5C 1236.03,1221.84 1236.53,1222.5 1236.5,1223.5C 1221.44,1221.77 1211.44,1213.77 1206.5,1199.5C 1206.37,1198.76 1206.54,1198.09 1207,1197.5C 1207.71,1198.38 1208.54,1199.05 1209.5,1199.5 Z"/></g>
<g><path style="opacity:1" fill="#fa8305" d="M 1209.5,1199.5 C 1208.54,1199.05 1207.71,1198.38 1207,1197.5C 1206.54,1198.09 1206.37,1198.76 1206.5,1199.5C 1204.05,1194.56 1203.05,1189.23 1203.5,1183.5C 1203.5,1178.83 1203.5,1174.17 1203.5,1169.5C 1204.5,1169.5 1205.5,1169.5 1206.5,1169.5C 1205.95,1179.68 1206.95,1189.68 1209.5,1199.5 Z"/></g>
<g><path style="opacity:1" fill="#1c0c01" d="M 1573.5,1258.5 C 1572.35,1262.34 1570.68,1266.01 1568.5,1269.5C 1565.72,1273.03 1563.22,1276.7 1561,1280.5C 1559.89,1281.31 1558.72,1281.97 1557.5,1282.5C 1562.84,1274.49 1568.17,1266.49 1573.5,1258.5 Z"/></g>
<g><path style="opacity:1" fill="#200f01" d="M 488.5,1262.5 C 493.801,1270.14 499.134,1277.81 504.5,1285.5C 503.504,1285.59 502.671,1285.25 502,1284.5C 499.578,1280.66 496.911,1276.99 494,1273.5C 491.376,1270.16 489.543,1266.49 488.5,1262.5 Z"/></g>
<g><path style="opacity:1" fill="#1c0c01" d="M 504.5,1285.5 C 506.587,1286.58 507.92,1288.25 508.5,1290.5C 505.703,1290.03 504.369,1288.37 504.5,1285.5 Z"/></g>
<g><path style="opacity:1" fill="#190700" d="M 508.5,1290.5 C 510.167,1291.5 511.5,1292.83 512.5,1294.5C 510.167,1294.17 508.833,1292.83 508.5,1290.5 Z"/></g>
<g><path style="opacity:1" fill="#2f1605" d="M 512.5,1294.5 C 518.167,1299.5 523.5,1304.83 528.5,1310.5C 521.5,1306.83 516.167,1301.5 512.5,1294.5 Z"/></g>
<g><path style="opacity:1" fill="#170801" d="M 1557.5,1282.5 C 1557.65,1283.55 1557.48,1284.55 1557,1285.5C 1548.84,1295.33 1540.01,1304.49 1530.5,1313C 1529.26,1313.79 1527.92,1314.29 1526.5,1314.5C 1537.53,1304.47 1547.87,1293.8 1557.5,1282.5 Z"/></g>
<g><path style="opacity:1" fill="#120300" d="M 528.5,1310.5 C 530.167,1311.5 531.5,1312.83 532.5,1314.5C 530.167,1314.17 528.833,1312.83 528.5,1310.5 Z"/></g>
<g><path style="opacity:1" fill="#1b0a00" d="M 532.5,1314.5 C 534.749,1315.08 536.415,1316.41 537.5,1318.5C 534.796,1318.33 533.129,1317 532.5,1314.5 Z"/></g>
<g><path style="opacity:1" fill="#1f0d01" d="M 537.5,1318.5 C 543.122,1322.12 548.455,1326.12 553.5,1330.5C 548.263,1327.87 543.263,1324.71 538.5,1321C 537.748,1320.33 537.414,1319.5 537.5,1318.5 Z"/></g>
<g><path style="opacity:1" fill="#1d0d02" d="M 1526.5,1314.5 C 1526.49,1316.02 1525.82,1317.18 1524.5,1318C 1515.57,1325.14 1506.23,1331.81 1496.5,1338C 1495.55,1338.48 1494.55,1338.65 1493.5,1338.5C 1504.64,1330.76 1515.64,1322.76 1526.5,1314.5 Z"/></g>
<g><path style="opacity:1" fill="#150600" d="M 553.5,1330.5 C 557.439,1332.45 561.106,1334.78 564.5,1337.5C 562.692,1337.51 561.025,1337.01 559.5,1336C 557.163,1334.37 555.163,1332.53 553.5,1330.5 Z"/></g>
<g><path style="opacity:1" fill="#130600" d="M 1493.5,1338.5 C 1492.65,1340.09 1491.32,1341.26 1489.5,1342C 1488.55,1342.48 1487.55,1342.65 1486.5,1342.5C 1488.34,1340.41 1490.67,1339.08 1493.5,1338.5 Z"/></g>
<g><path style="opacity:1" fill="#130500" d="M 1486.5,1342.5 C 1484.66,1345.13 1481.99,1346.47 1478.5,1346.5C 1480.85,1344.66 1483.52,1343.33 1486.5,1342.5 Z"/></g>
<g><path style="opacity:1" fill="#1f0d01" d="M 564.5,1337.5 C 570.165,1340 575.498,1343 580.5,1346.5C 578.099,1345.95 575.765,1345.12 573.5,1344C 570.079,1342.3 567.079,1340.13 564.5,1337.5 Z"/></g>
<g><path style="opacity:1" fill="#120500" d="M 1478.5,1346.5 C 1476.66,1349.13 1473.99,1350.47 1470.5,1350.5C 1472.85,1348.66 1475.52,1347.33 1478.5,1346.5 Z"/></g>
<g><path style="opacity:1" fill="#f9f60f" d="M 568.5,1334.5 C 576.061,1338.62 583.728,1342.78 591.5,1347C 617.647,1358.04 644.981,1365.04 673.5,1368C 909.5,1368.67 1145.5,1368.67 1381.5,1368C 1417.81,1365.05 1451.81,1355.22 1483.5,1338.5C 1484.55,1338.35 1485.55,1338.52 1486.5,1339C 1480.66,1342.42 1474.66,1345.59 1468.5,1348.5C 1467.7,1348.96 1467.37,1349.62 1467.5,1350.5C 1461.95,1353.44 1456.29,1356.11 1450.5,1358.5C 1446.22,1359.26 1442.22,1360.59 1438.5,1362.5C 1422.08,1366.85 1405.41,1370.01 1388.5,1372C 1148.83,1372.67 909.167,1372.67 669.5,1372C 664.863,1371.17 660.196,1370.67 655.5,1370.5C 655.167,1370.5 654.833,1370.5 654.5,1370.5C 648.077,1368.55 641.411,1367.22 634.5,1366.5C 630.112,1364.57 625.445,1363.23 620.5,1362.5C 616.784,1360.59 612.784,1359.26 608.5,1358.5C 601.328,1355.55 594.328,1352.22 587.5,1348.5C 587.063,1346.93 586.063,1345.76 584.5,1345C 578.707,1342.27 573.04,1339.27 567.5,1336C 566.288,1334.89 566.621,1334.39 568.5,1334.5 Z"/></g>
<g><path style="opacity:1" fill="#200f02" d="M 1467.5,1350.5 C 1468.5,1350.5 1469.5,1350.5 1470.5,1350.5C 1464.65,1354.74 1457.98,1357.41 1450.5,1358.5C 1456.29,1356.11 1461.95,1353.44 1467.5,1350.5 Z"/></g>
<g><path style="opacity:1" fill="#190a00" d="M 580.5,1346.5 C 582.833,1347.17 585.167,1347.83 587.5,1348.5C 594.328,1352.22 601.328,1355.55 608.5,1358.5C 599.37,1356.07 590.537,1352.73 582,1348.5C 580.97,1348.16 580.47,1347.5 580.5,1346.5 Z"/></g>
<g><path style="opacity:1" fill="#221003" d="M 1450.5,1358.5 C 1450.38,1359.59 1449.71,1360.25 1448.5,1360.5C 1445.22,1361.49 1441.89,1362.15 1438.5,1362.5C 1442.22,1360.59 1446.22,1359.26 1450.5,1358.5 Z"/></g>
<g><path style="opacity:1" fill="#1b0b00" d="M 608.5,1358.5 C 612.784,1359.26 616.784,1360.59 620.5,1362.5C 617.115,1362.15 613.782,1361.49 610.5,1360.5C 609.287,1360.25 608.62,1359.59 608.5,1358.5 Z"/></g>
<g><path style="opacity:1" fill="#1a0900" d="M 620.5,1362.5 C 625.445,1363.23 630.112,1364.57 634.5,1366.5C 629.264,1366.37 624.597,1365.03 620.5,1362.5 Z"/></g>
<g><path style="opacity:1" fill="#1d0a00" d="M 634.5,1366.5 C 641.411,1367.22 648.077,1368.55 654.5,1370.5C 648.147,1369.89 641.814,1369.05 635.5,1368C 634.944,1367.62 634.611,1367.12 634.5,1366.5 Z"/></g>
<g><path style="opacity:1" fill="#331604" d="M 1438.5,1362.5 C 1438.21,1363.65 1437.38,1364.32 1436,1364.5C 1414.96,1370.5 1393.46,1373.67 1371.5,1374C 1143.5,1374.67 915.5,1374.67 687.5,1374C 677.15,1373.58 666.817,1372.91 656.5,1372C 655.944,1371.62 655.611,1371.12 655.5,1370.5C 660.196,1370.67 664.863,1371.17 669.5,1372C 909.167,1372.67 1148.83,1372.67 1388.5,1372C 1405.41,1370.01 1422.08,1366.85 1438.5,1362.5 Z"/></g>
</svg>
