<?xml version="1.0" encoding="UTF-8"?>
<svg version="1.1" xmlns="http://www.w3.org/2000/svg" width="512" height="512">
<path d="M0 0 C0.87749405 -0.01004562 1.7549881 -0.02009125 2.65907288 -0.03044128 C4.09913948 -0.03918777 4.09913948 -0.03918777 5.56829834 -0.04811096 C6.58161728 -0.05789474 7.59493622 -0.06767853 8.63896179 -0.07775879 C11.99788091 -0.1077133 15.35676023 -0.12909795 18.71575928 -0.14796448 C20.43615543 -0.15782222 20.43615543 -0.15782222 22.19130707 -0.1678791 C28.2617825 -0.20047229 34.33224037 -0.22492381 40.402771 -0.24440002 C45.42744455 -0.2622183 50.45155747 -0.29704809 55.47601318 -0.34693909 C61.54198694 -0.4071029 67.6074405 -0.4378707 73.67369843 -0.44757271 C75.98457642 -0.45613451 78.29544025 -0.47497023 80.60614777 -0.50431633 C83.84284604 -0.54321058 87.07751575 -0.54426751 90.31439209 -0.53639221 C91.26633957 -0.55639282 92.21828705 -0.57639343 93.19908142 -0.59700012 C98.98025446 -0.53394945 102.24279319 0.45502748 106.38920784 4.58039188 C107.9691018 6.4848523 108.89878166 8.08664738 109.53729248 10.48362732 C109.74866852 11.25467804 109.96004456 12.02572876 110.17782593 12.82014465 C111.00626863 16.53242955 111.72561216 20.23325299 112.30560303 23.99266052 C112.43453445 24.79169296 112.56346588 25.5907254 112.69630432 26.41397095 C112.96440439 28.0847346 113.22891484 29.756078 113.4899292 31.42796326 C113.8895569 33.98543336 114.3007563 36.54084284 114.71380615 39.09617615 C114.97424387 40.7282305 115.23403277 42.36038855 115.49310303 43.99266052 C115.61493454 44.75311172 115.73676605 45.51356293 115.86228943 46.29705811 C116.38230314 49.64676389 116.70013428 52.75997659 116.70013428 56.16062927 C117.29294189 56.31845886 117.88574951 56.47628845 118.496521 56.63890076 C125.28001489 58.54638702 131.49157329 61.15268588 137.82513428 64.22312927 C139.33345825 64.95221497 139.33345825 64.95221497 140.87225342 65.69602966 C154.38904203 72.34166717 166.44027655 80.43924056 178.37200928 89.59422302 C178.95740479 90.04023865 179.54280029 90.48625427 180.14593506 90.94578552 C181.42019574 91.94181461 182.64946655 92.9951506 183.86419678 94.06297302 C185.65417006 95.36525996 185.65417006 95.36525996 187.86419678 95.04344177 C196.23669053 92.46524528 204.33610247 89.2540221 212.47845459 86.03611755 C215.77241428 84.73808025 219.07152588 83.46401845 222.38763428 82.22312927 C223.44337646 81.82223083 224.49911865 81.4213324 225.58685303 81.00828552 C230.24984548 79.73868783 234.19036683 79.6368324 238.76263428 81.22312927 C245.0710378 85.38399117 248.73896063 91.53012243 252.20013428 98.09812927 C253.07007841 99.70492783 253.94261425 101.31032508 254.81732178 102.91453552 C255.28106201 103.76547791 255.74480225 104.61642029 256.22259521 105.4931488 C258.84166109 110.22148881 261.58756673 114.87522811 264.32513428 119.53562927 C270.36071359 129.82773063 276.29950268 140.17203888 282.19476318 150.54490662 C285.56472954 156.4645129 288.97945497 162.34256356 292.5536499 168.1415863 C294.89333039 172.26193503 295.38322149 176.51726265 294.70013428 181.16062927 C291.16612167 189.6688477 283.67331401 194.66753311 276.60150146 200.20310974 C275.4110669 201.13798372 274.22812813 202.08247724 273.05267334 203.03611755 C270.14555117 205.37251145 267.33311497 207.4229089 264.03216553 209.16844177 C260.10382204 211.54624232 258.01201664 213.1661343 255.70013428 217.16062927 C255.25842722 222.11180995 256.1721388 226.91864737 257.04217529 231.78367615 C258.30616656 238.96773379 258.80754686 245.49707008 258.48919678 252.77000427 C258.45906494 253.59296494 258.42893311 254.4159256 258.39788818 255.26382446 C258.27204314 258.56429219 258.14196733 261.85811516 257.88751221 265.15150452 C257.48945294 270.39779917 257.34854078 275.04302896 258.70013428 280.16062927 C261.67222123 283.31615822 264.57362919 285.25403301 268.34124756 287.31858826 C272.75953638 289.74161407 275.97143737 292.81808589 279.45013428 296.41062927 C280.07863281 297.05266296 280.70713135 297.69469666 281.35467529 298.35618591 C301.14311166 319.02105103 311.13896726 346.00986063 311.01263428 374.41062927 C311.00844482 375.69316589 311.00425537 376.97570251 310.99993896 378.29710388 C310.89255447 387.29055557 310.25927987 395.49720134 307.70013428 404.16062927 C307.43329834 405.14805115 307.1664624 406.13547302 306.89154053 407.15281677 C303.13735413 419.73351252 296.75300612 431.82156076 288.70013428 442.16062927 C287.63279053 443.54894958 287.63279053 443.54894958 286.54388428 444.96531677 C269.87317363 466.03207098 244.78933174 480.42549756 218.25872803 484.72703552 C187.26384353 488.19613566 158.14163228 481.77559455 133.05560303 463.06297302 C130.91667937 461.33551726 128.9809365 459.51335369 127.01263428 457.59812927 C125.03149069 455.81413833 124.18195565 455.19223812 121.49700928 455.01609802 C119.01990646 455.26938135 119.01990646 455.26938135 115.70013428 456.16062927 C115.53360352 457.38072693 115.53360352 457.38072693 115.3637085 458.62547302 C114.13521206 467.44188739 112.75468795 476.22083551 111.20550537 484.98631287 C110.94959766 486.44915886 110.69970026 487.91306768 110.45550537 489.37791443 C110.09505364 491.53728289 109.71603987 493.69267679 109.33294678 495.84812927 C109.11525635 497.11012146 108.89756592 498.37211365 108.67327881 499.67234802 C107.36357837 504.36702938 105.48722375 507.69073751 101.69966125 510.80603027 C97.31036729 512.78825389 93.26169384 512.58693598 88.49725342 512.56468201 C87.47228256 512.57154526 86.44731171 512.57840851 85.39128113 512.58547974 C82.0058097 512.60376915 78.62080073 512.59990705 75.23529053 512.59422302 C72.88026275 512.59878378 70.5252363 512.60408904 68.17021179 512.61010742 C63.23489983 512.61904276 58.29974964 512.61661047 53.36444092 512.60667419 C47.04138772 512.5951842 40.71889295 512.61539492 34.39591312 512.64459133 C29.53257197 512.66294154 24.66936493 512.66266317 19.80599785 512.65695381 C17.47480931 512.65680045 15.14361176 512.66285672 12.81245613 512.67524529 C9.55208476 512.69013057 6.29274874 512.67949533 3.03240967 512.66233826 C2.07065826 512.67200623 1.10890686 512.68167419 0.11801147 512.69163513 C-5.51444623 512.62960247 -8.87183739 511.99673312 -13.29986572 508.16062927 C-16.47073794 503.37402599 -17.21172448 498.31199922 -18.08892822 492.74656677 C-18.23768402 491.85450531 -18.38643982 490.96244385 -18.53970337 490.04335022 C-19.01055217 487.20885969 -19.46812633 484.37242414 -19.92486572 481.53562927 C-20.39155096 478.69221716 -20.86093867 475.84926606 -21.33145142 473.00648499 C-21.62256179 471.24179429 -21.91094188 469.47665048 -22.19625854 467.71101379 C-22.39183853 466.50923996 -22.39183853 466.50923996 -22.59136963 465.28318787 C-22.70445465 464.58180695 -22.81753967 463.88042603 -22.93405151 463.15779114 C-23.48377025 460.12666745 -23.48377025 460.12666745 -24.29986572 457.16062927 C-26.50133896 455.73034363 -26.50133896 455.73034363 -29.30377197 454.68016052 C-30.34702637 454.24292664 -31.39028076 453.80569275 -32.46514893 453.35520935 C-33.58623047 452.89912292 -34.70731201 452.4430365 -35.86236572 451.97312927 C-53.6523064 444.44501622 -70.03047211 435.42589818 -84.94830322 423.02000427 C-86.11232666 422.09961365 -86.11232666 422.09961365 -87.29986572 421.16062927 C-88.14782715 420.40266052 -88.99578857 419.64469177 -89.8694458 418.86375427 C-93.56904812 417.02698637 -93.92065577 416.95071557 -97.60186768 418.08348083 C-99.25776119 418.71251322 -100.90287996 419.37039683 -102.53814697 420.05125427 C-103.85845161 420.55915497 -103.85845161 420.55915497 -105.20542908 421.07731628 C-108.01850694 422.16291429 -110.81556614 423.283823 -113.61236572 424.41062927 C-116.39975844 425.51883197 -119.18968119 426.61861286 -121.98716736 427.70109558 C-123.72538362 428.37511985 -125.45782462 429.06430355 -127.18299866 429.77104187 C-133.73452069 432.33356507 -139.57300517 433.20415023 -146.42486572 431.28562927 C-154.160664 425.56786533 -158.58378919 415.37747339 -163.11236572 407.09812927 C-164.33879879 404.88119091 -165.56666889 402.66504693 -166.79595947 400.44969177 C-167.39134521 399.37622498 -167.98673096 398.30275818 -168.60015869 397.19676208 C-170.90067268 393.08742684 -173.27174873 389.02310775 -175.67486572 384.97312927 C-179.2241042 378.98884904 -182.70832412 372.9747413 -186.14752197 366.92625427 C-189.26882275 361.4486039 -192.44588379 356.0028532 -195.61993408 350.5556488 C-196.0686084 349.78333923 -196.51728271 349.01102966 -196.97955322 348.21531677 C-197.37900146 347.52937439 -197.77844971 346.84343201 -198.19000244 346.13670349 C-201.26796113 340.65650164 -202.47653198 336.49221438 -201.29986572 330.16062927 C-197.40183333 322.44200883 -189.96503383 317.35263354 -183.29986572 312.16062927 C-180.51135979 309.87912442 -177.73406278 307.58469043 -174.96002197 305.28562927 C-173.21996305 303.89562625 -171.43582087 302.55868221 -169.60845947 301.28562927 C-167.31905549 299.68053853 -165.23698484 298.17710026 -163.29986572 296.16062927 C-162.67891519 292.55911615 -163.04371058 290.30197643 -163.83084106 286.79476929 C-164.32483024 284.02042335 -164.42689586 281.4563273 -164.42926025 278.63938904 C-164.43241241 277.55799149 -164.43556458 276.47659393 -164.43881226 275.36242676 C-164.43678802 274.20399765 -164.43476379 273.04556854 -164.43267822 271.85203552 C-164.43363495 270.65255783 -164.43459167 269.45308014 -164.43557739 268.21725464 C-164.43625727 265.68299812 -164.43441636 263.14873985 -164.43023682 260.61448669 C-164.4248906 256.74115574 -164.43018594 252.86794098 -164.43658447 248.99461365 C-164.43592357 246.53042068 -164.43464214 244.06622779 -164.43267822 241.60203552 C-164.43470245 240.44563065 -164.43672668 239.28922577 -164.43881226 238.09777832 C-164.43408401 236.47095375 -164.43408401 236.47095375 -164.42926025 234.81126404 C-164.42846466 233.86259964 -164.42766907 232.91393524 -164.42684937 231.93652344 C-164.28997837 228.94448919 -163.84190861 226.10417726 -163.29986572 223.16062927 C-162.77265718 219.65141 -162.30979928 216.56573428 -164.43902588 213.54393005 C-166.08433845 211.966584 -167.7912965 210.59362708 -169.61236572 209.22312927 C-170.56707764 208.4568219 -170.56707764 208.4568219 -171.54107666 207.67503357 C-172.83562685 206.63864794 -174.13820932 205.61221242 -175.4487915 204.59617615 C-178.0207687 202.6015539 -180.53397564 200.53781955 -183.04986572 198.47312927 C-183.92127197 197.76027771 -184.79267822 197.04742615 -185.69049072 196.31297302 C-199.71471923 184.74508394 -199.71471923 184.74508394 -201.29986572 178.16062927 C-200.91265362 172.8158327 -199.51084663 169.07594993 -196.92486572 164.41062927 C-196.39856567 163.45398376 -196.39856567 163.45398376 -195.8616333 162.47801208 C-194.68981876 160.36311634 -193.49827825 158.26056095 -192.29986572 156.16062927 C-191.87850342 155.42199646 -191.45714111 154.68336365 -191.02301025 153.92234802 C-188.27940906 149.13099391 -185.50399351 144.35856886 -182.71881104 139.59129333 C-180.42452818 135.66116944 -178.14305273 131.72365383 -175.86236572 127.78562927 C-175.41361084 127.01170837 -174.96485596 126.23778748 -174.50250244 125.44041443 C-171.5320251 120.31093296 -168.59154971 115.16506284 -165.66314697 110.01145935 C-157.70668347 96.02627121 -157.70668347 96.02627121 -153.86236572 89.59812927 C-153.28615479 88.62746521 -152.70994385 87.65680115 -152.11627197 86.65672302 C-149.41551696 82.94536291 -146.0261491 79.68461856 -141.39703369 78.79490662 C-130.98451103 78.06711659 -121.82058455 82.87333621 -112.42486572 86.78562927 C-108.93519151 88.23522524 -105.43711446 89.66122494 -101.93267822 91.07469177 C-101.13991486 91.41312103 -100.34715149 91.75155029 -99.53036499 92.10023499 C-95.10726554 93.92797439 -95.10726554 93.92797439 -90.44439697 93.48704529 C-87.52225949 91.67967132 -84.84240074 89.62889543 -82.17486572 87.47312927 C-76.43657246 82.96163795 -70.58220376 78.89385109 -64.29986572 75.16062927 C-63.43651611 74.64484314 -63.43651611 74.64484314 -62.5557251 74.11863708 C-53.43075132 68.70575997 -44.10001239 64.08527646 -34.35845947 59.88719177 C-33.67880127 59.58764587 -32.99914307 59.28809998 -32.29888916 58.97947693 C-30.29986572 58.16062927 -30.29986572 58.16062927 -28.29302979 57.57225037 C-26.11920791 56.95822433 -26.11920791 56.95822433 -23.29986572 55.16062927 C-21.93762477 52.39175663 -21.58722144 49.57351279 -21.17486572 46.53562927 C-20.87117763 44.73858509 -20.56643802 42.94171839 -20.26080322 41.14500427 C-20.03215576 39.70351013 -20.03215576 39.70351013 -19.79888916 38.2328949 C-18.9050932 32.73019022 -17.85475201 27.25930807 -16.79986572 21.78562927 C-16.6102124 20.72263611 -16.42055908 19.65964294 -16.22515869 18.56443787 C-14.87177455 11.4611597 -13.0678009 5.92544529 -7.29986572 1.16062927 C-4.53640436 0.23947548 -2.85324421 0.02571317 0 0 Z " fill="#363636" transform="translate(201.29986572265625,-0.1606292724609375)"/>
<path d="M0 0 C10.82034583 9.59844476 20.13908189 20.05216169 27.87109375 32.3046875 C28.43376953 33.19534912 28.43376953 33.19534912 29.0078125 34.10400391 C44.99208244 59.87386572 51.75604862 89.16705762 50.87109375 119.3046875 C45.20174352 121.59435682 39.8083753 123.020633 33.80859375 124.1171875 C7.29040968 129.37381175 -17.01566908 144.48767507 -32.81640625 166.5546875 C-48.96167259 190.98920507 -57.1427223 218.97927419 -52.12890625 248.3046875 C-51.94328125 249.1709375 -51.75765625 250.0371875 -51.56640625 250.9296875 C-51.10459798 253.43664669 -51.05623803 255.76129978 -51.12890625 258.3046875 C-51.45890625 256.9846875 -51.78890625 255.6646875 -52.12890625 254.3046875 C-53.31484375 254.64242188 -54.50078125 254.98015625 -55.72265625 255.328125 C-92.51913786 265.5751011 -132.00113978 263.36108049 -166.12890625 245.3046875 C-166.77666016 244.97098145 -167.42441406 244.63727539 -168.09179688 244.29345703 C-178.33321412 238.98721549 -187.32975434 232.74531402 -196.12890625 225.3046875 C-196.99515625 224.58023437 -197.86140625 223.85578125 -198.75390625 223.109375 C-203.68146391 218.86435066 -208.02873843 214.34840858 -212.12890625 209.3046875 C-212.88945312 208.38171875 -213.65 207.45875 -214.43359375 206.5078125 C-236.13802781 179.61179089 -247.59592447 147.10406533 -247.44140625 112.5546875 C-247.4364917 111.24209961 -247.43157715 109.92951172 -247.42651367 108.57714844 C-247.3056787 98.52615746 -246.47350758 89.06959115 -244.12890625 79.3046875 C-243.96793457 78.59022461 -243.80696289 77.87576172 -243.64111328 77.13964844 C-238.2673814 53.69345228 -226.9439115 32.35847752 -211.12890625 14.3046875 C-210.44957031 13.50417969 -209.77023438 12.70367187 -209.0703125 11.87890625 C-204.76400775 6.88426428 -200.24079537 2.46573035 -195.12890625 -1.6953125 C-193.77925781 -2.81873047 -193.77925781 -2.81873047 -192.40234375 -3.96484375 C-136.16731282 -49.16641925 -54.25891461 -47.1683576 0 0 Z " fill="#FED600" transform="translate(346.12890625,143.6953125)"/>
<path d="M0 0 C0 0.66 0 1.32 0 2 C0.71285156 2.08894531 1.42570313 2.17789062 2.16015625 2.26953125 C17.34115526 6.17440995 32.4384991 26.28558439 40 39 C50.31047439 56.99860438 55.40494892 75.4666671 55.3125 96.25 C55.30831055 97.53253662 55.30412109 98.81507324 55.29980469 100.13647461 C55.19242019 109.1299263 54.55914559 117.33657207 52 126 C51.73316406 126.98742187 51.46632813 127.97484375 51.19140625 128.9921875 C47.43721985 141.57288325 41.05287184 153.66093149 33 164 C32.2884375 164.92554688 31.576875 165.85109375 30.84375 166.8046875 C14.17303935 187.87144171 -10.91080253 202.26486829 -37.44140625 206.56640625 C-68.43629075 210.03550639 -97.558502 203.61496527 -122.64453125 184.90234375 C-124.78345491 183.17488799 -126.71919777 181.35272441 -128.6875 179.4375 C-130.66864359 177.65350905 -131.51817862 177.03160885 -134.203125 176.85546875 C-136.68022782 177.10875208 -136.68022782 177.10875208 -140 178 C-138 176 -138 176 -135 174 C-135.52207031 173.48695313 -136.04414063 172.97390625 -136.58203125 172.4453125 C-152.26946216 156.12598858 -160.8882692 136.20746012 -164 114 C-164.18433594 112.88367188 -164.36867188 111.76734375 -164.55859375 110.6171875 C-168.0327596 82.14747441 -160.60057191 53.21209778 -143.25 30.3125 C-125.85884707 8.27498388 -103.60741335 -5.43839644 -76.17529297 -11.51269531 C-74.72116243 -11.83844666 -73.27195182 -12.18696448 -71.82861328 -12.55761719 C-48.15541866 -18.44313112 -20.68590687 -12.30546255 0 0 Z " fill="#02FE01" transform="translate(457,278)"/>
<path d="M0 0 C10.82034583 9.59844476 20.13908189 20.05216169 27.87109375 32.3046875 C28.43376953 33.19534912 28.43376953 33.19534912 29.0078125 34.10400391 C44.99208244 59.87386572 51.75604862 89.16705762 50.87109375 119.3046875 C45.03562071 121.64827794 39.34047525 123.2433173 33.18359375 124.4921875 C32.35537109 124.66943359 31.52714844 124.84667969 30.67382812 125.02929688 C26.64731272 125.86425884 22.99987367 126.39384344 18.87109375 126.3046875 C18.8868042 125.60609619 18.90251465 124.90750488 18.91870117 124.18774414 C19.57678496 90.37556572 12.8868537 61.73870459 -9.12890625 35.3046875 C-9.68449219 34.60859375 -10.24007812 33.9125 -10.8125 33.1953125 C-28.71753326 11.26285984 -58.36710419 -2.04523593 -86.10351562 -4.8984375 C-117.11503035 -7.84921292 -148.09667641 0.39980158 -172.48046875 20.17578125 C-197.76512043 41.53187535 -213.16510536 70.16336786 -216.12890625 103.3046875 C-218.11657617 133.28373549 -209.39102659 164.56641545 -189.42578125 187.46484375 C-186.7274076 190.47772614 -183.93513909 193.39231878 -181.12890625 196.3046875 C-180.53464844 196.96210938 -179.94039063 197.61953125 -179.328125 198.296875 C-160.91538287 218.12598191 -130.83651799 228.6986134 -104.53149414 230.23217773 C-87.45653578 230.84046161 -69.75943194 228.32043497 -54.12890625 221.3046875 C-54.05542969 223.26148438 -54.05542969 223.26148438 -53.98046875 225.2578125 C-53.62194464 233.90793126 -53.24836203 242.3841731 -51.53125 250.89453125 C-51.11181832 253.40704919 -51.06068219 255.76220409 -51.12890625 258.3046875 C-51.45890625 256.9846875 -51.78890625 255.6646875 -52.12890625 254.3046875 C-53.31484375 254.64242188 -54.50078125 254.98015625 -55.72265625 255.328125 C-92.51913786 265.5751011 -132.00113978 263.36108049 -166.12890625 245.3046875 C-166.77666016 244.97098145 -167.42441406 244.63727539 -168.09179688 244.29345703 C-178.33321412 238.98721549 -187.32975434 232.74531402 -196.12890625 225.3046875 C-196.99515625 224.58023437 -197.86140625 223.85578125 -198.75390625 223.109375 C-203.68146391 218.86435066 -208.02873843 214.34840858 -212.12890625 209.3046875 C-212.88945312 208.38171875 -213.65 207.45875 -214.43359375 206.5078125 C-236.13802781 179.61179089 -247.59592447 147.10406533 -247.44140625 112.5546875 C-247.4364917 111.24209961 -247.43157715 109.92951172 -247.42651367 108.57714844 C-247.3056787 98.52615746 -246.47350758 89.06959115 -244.12890625 79.3046875 C-243.96793457 78.59022461 -243.80696289 77.87576172 -243.64111328 77.13964844 C-238.2673814 53.69345228 -226.9439115 32.35847752 -211.12890625 14.3046875 C-210.44957031 13.50417969 -209.77023438 12.70367187 -209.0703125 11.87890625 C-204.76400775 6.88426428 -200.24079537 2.46573035 -195.12890625 -1.6953125 C-193.77925781 -2.81873047 -193.77925781 -2.81873047 -192.40234375 -3.96484375 C-136.16731282 -49.16641925 -54.25891461 -47.1683576 0 0 Z " fill="#FEAA04" transform="translate(346.12890625,143.6953125)"/>
<path d="M0 0 C3.68609532 2.10970136 6.70766697 4.88803126 8 9 C8.01933594 10.28777344 8.03867187 11.57554687 8.05859375 12.90234375 C8.43462674 16.016198 8.43462674 16.016198 10.49926758 18.2434082 C12.55101474 19.23423924 14.59276142 20.01699464 16.75 20.75 C27.86705689 24.84891486 27.86705689 24.84891486 31.29296875 29.91015625 C33.01657128 35.00478251 32.74995742 40.9265883 30.9375 45.9375 C27.19053064 49.92620932 23.72439221 51.69747505 18.4375 52.625 C12.99022887 52.37885612 8.04205277 49.65915755 3.171875 47.41015625 C-2.23851915 45.00479629 -7.10473771 44.39050764 -13 45 C-16.76398568 46.7119187 -16.76398568 46.7119187 -19 50 C-19.49598294 54.29851878 -19.4210619 56.36387518 -17.00390625 60.015625 C-13.7870266 63.65338353 -10.07067552 64.95865784 -5.5625 66.5 C-3.94866949 67.09356084 -2.33539343 67.68863117 -0.72265625 68.28515625 C0.47399658 68.71852295 0.47399658 68.71852295 1.69482422 69.16064453 C17.06161277 74.75596534 29.0044157 81.51068196 36.31640625 96.7421875 C40.61975525 107.80794208 40.61975525 120.19205792 36.31640625 131.2578125 C31.37782662 141.54529886 23.88812929 150.05516243 12.9375 153.9375 C10.71005741 154.71457156 10.71005741 154.71457156 9 156 C8.26625972 158.32201956 8.18822065 160.3202308 8.15625 162.75 C7.85674758 167.06283484 5.13850053 169.7771661 2.3125 172.8125 C-2.00823191 175.03125423 -6.49709435 175.66421574 -11.22265625 174.41015625 C-15.5799218 172.51250602 -18.05991666 170.23880906 -20.30859375 166.07421875 C-21.29905689 163.10282934 -21.61846869 160.10040492 -22 157 C-22.95519531 156.72027344 -23.91039062 156.44054687 -24.89453125 156.15234375 C-45.68730284 149.81495949 -45.68730284 149.81495949 -50.75 141.0625 C-52.40078473 136.87889361 -52.37627464 133.26115801 -51 129 C-48.71184255 124.66884483 -46.59372255 121.83748902 -42 120 C-34.79793216 118.5052312 -29.44532346 121.39207308 -23.078125 124.53125 C-15.56204338 128.11760367 -7.76089644 129.42345884 0.25 126.8125 C3.97145119 125.22594812 6.02323054 123.63725581 8 120 C9.36214607 115.26364897 9.3229727 111.92277914 7.6875 107.25 C2.61955561 99.859954 -8.45774573 97.64792635 -16.45336914 94.58374023 C-29.81378122 89.4175274 -40.78501671 82.44587731 -47 69 C-50.9898033 58.43608899 -51.32932461 48.4968942 -47 38 C-45.51955912 35.18222753 -43.87737191 32.56875534 -42 30 C-41.39929688 29.175 -40.79859375 28.35 -40.1796875 27.5 C-37.83948417 24.81589582 -35.58572582 23.17842994 -32.5625 21.3125 C-31.63566406 20.73113281 -30.70882812 20.14976562 -29.75390625 19.55078125 C-27 18 -27 18 -24.21875 17.02734375 C-23.4865625 16.68832031 -22.754375 16.34929687 -22 16 C-21.44679447 14.04750991 -20.90510582 12.08773462 -20.5078125 10.09765625 C-19.69539851 6.74176155 -18.23708507 4.59985562 -16 2 C-10.64716468 -1.25368421 -5.92901829 -1.77870549 0 0 Z " fill="#FFFE00" transform="translate(254,169)"/>
<path d="M0 0 C4.52118198 2.58947992 7.25873068 4.95592234 8.80859375 10.08984375 C9.48999957 14.2696011 10.09080794 18.0537755 7.73921204 21.78794861 C3.56604384 27.37497266 -1.09813856 32.30299399 -6.02734375 37.2265625 C-6.86552643 38.0690303 -7.70370911 38.91149811 -8.56729126 39.77949524 C-10.33138213 41.54929975 -12.09805972 43.3165293 -13.8671875 45.08129883 C-16.56007588 47.77102083 -19.23934391 50.47381632 -21.91796875 53.17773438 C-23.64111588 54.90315426 -25.3650482 56.62779043 -27.08984375 58.3515625 C-27.88280853 59.15373703 -28.67577332 59.95591156 -29.49276733 60.78239441 C-41.09857513 72.29318847 -41.09857513 72.29318847 -48.37890625 72.52734375 C-54.08835437 71.87216118 -56.5867172 70.96218163 -60.26171875 66.57421875 C-65.16825486 60.87242584 -70.57335178 55.69346243 -75.95898438 50.44921875 C-76.73306641 49.68609375 -77.50714844 48.92296875 -78.3046875 48.13671875 C-79.35329956 47.11336426 -79.35329956 47.11336426 -80.4230957 46.06933594 C-83.98831869 42.07833387 -84.69961663 38.63875712 -84.5703125 33.40625 C-83.72395161 28.23210562 -80.62938671 25.12652734 -76.50390625 22.15234375 C-71.84426904 20.65774313 -68.00401171 19.84788105 -63.19140625 21.08984375 C-59.41252713 23.68849988 -56.33102289 26.76295173 -53.19140625 30.08984375 C-51.86034628 31.42544658 -50.52778719 32.75956501 -49.19140625 34.08984375 C-46.25595102 32.7673242 -44.2051845 31.34341991 -41.95507812 29.04882812 C-41.34764771 28.43479126 -40.74021729 27.82075439 -40.11437988 27.18811035 C-39.46948608 26.52661987 -38.82459229 25.86512939 -38.16015625 25.18359375 C-37.48722534 24.5030896 -36.81429443 23.82258545 -36.12097168 23.12145996 C-33.97291536 20.9489925 -31.83141408 18.77023815 -29.69140625 16.58984375 C-26.87424269 13.71951422 -24.05056748 10.85583062 -21.22265625 7.99609375 C-20.25531555 7.00385803 -20.25531555 7.00385803 -19.26843262 5.99157715 C-18.6610022 5.37754028 -18.05357178 4.76350342 -17.42773438 4.13085938 C-16.89796997 3.59062134 -16.36820557 3.0503833 -15.8223877 2.49377441 C-11.18012806 -1.50223098 -5.65319476 -2.34794007 0 0 Z " fill="#FCFEFB" transform="translate(439.19140625,338.91015625)"/>
<path d="M0 0 C0 3 0 3 -1.28515625 4.62573242 C-2.16494141 5.4819519 -2.16494141 5.4819519 -3.0625 6.35546875 C-3.69414062 6.97744141 -4.32578125 7.59941406 -4.9765625 8.24023438 C-5.64429688 8.88283203 -6.31203125 9.52542969 -7 10.1875 C-8.00160156 11.16879883 -8.00160156 11.16879883 -9.0234375 12.16992188 C-10.67578441 13.78686135 -12.33471601 15.39640491 -14 17 C-14.66 16.67 -15.32 16.34 -16 16 C-11.03093773 10.1719243 -5.90436923 4.8836671 0 0 Z " fill="#F5C951" transform="translate(151,142)"/>
</svg>
