<?xml version="1.0" encoding="UTF-8"?>
<svg version="1.1" xmlns="http://www.w3.org/2000/svg" width="512" height="512">
<path d="M0 0 C1.02955811 0.24065186 2.05911621 0.48130371 3.11987305 0.72924805 C8.77039459 2.14930155 13.35229534 3.89540886 18.25 7.0625 C18.25 7.7225 18.25 8.3825 18.25 9.0625 C18.91 9.0625 19.57 9.0625 20.25 9.0625 C20.25 9.7225 20.25 10.3825 20.25 11.0625 C21.24 11.3925 22.23 11.7225 23.25 12.0625 C25.05162669 14.58477736 25.29839136 15.70763 24.875 18.8125 C24.66875 19.555 24.4625 20.2975 24.25 21.0625 C22.6 21.3925 20.95 21.7225 19.25 22.0625 C19.25 26.0225 19.25 29.9825 19.25 34.0625 C20.29744385 33.99321289 21.3448877 33.92392578 22.42407227 33.85253906 C35.79242207 33.02844135 49.14331342 32.84397146 62.53491211 32.82226562 C66.23377496 32.81237628 69.9321218 32.78115341 73.63085938 32.75 C75.99218426 32.74348454 78.35351303 32.73822839 80.71484375 32.734375 C81.81577866 32.7220282 82.91671356 32.7096814 84.05101013 32.69696045 C85.07050247 32.69996155 86.08999481 32.70296265 87.14038086 32.70605469 C88.48005165 32.70058624 88.48005165 32.70058624 89.8467865 32.69500732 C92.78022502 33.14358052 94.14226418 33.9928708 96.25 36.0625 C97.63707777 43.9164834 93.90680345 50.5623409 90.8125 57.625 C89.98765263 59.55109193 89.16810964 61.47938397 88.34890747 63.40788269 C87.79537512 64.71032432 87.24025605 66.01209273 86.68356323 67.31318665 C83.99197478 73.61638321 81.47580193 79.98414216 79 86.375 C78.4268103 87.85045288 78.4268103 87.85045288 77.84204102 89.35571289 C76.97544261 91.59032624 76.11188903 93.82606818 75.25 96.0625 C76.50135742 96.05202637 77.75271484 96.04155273 79.04199219 96.03076172 C83.6861688 95.99455235 88.33033293 95.97159604 92.97460938 95.95263672 C94.98439635 95.9425813 96.9941687 95.92893515 99.00390625 95.91162109 C101.89326588 95.88735276 104.78243202 95.87601229 107.671875 95.8671875 C108.56992859 95.85686493 109.46798218 95.84654236 110.39324951 95.83590698 C111.23381897 95.83575592 112.07438843 95.83560486 112.94042969 95.83544922 C113.67767273 95.831008 114.41491577 95.82656677 115.17449951 95.82199097 C117.62766344 96.10626365 119.18458518 96.71087595 121.25 98.0625 C122.4375 101.1875 122.4375 101.1875 122.25 105.0625 C120.93554687 106.93603516 120.93554687 106.93603516 119.15625 108.8515625 C118.51389404 109.55200684 117.87153809 110.25245117 117.2097168 110.97412109 C116.56301025 111.66328613 115.91630371 112.35245117 115.25 113.0625 C114.7135083 113.65240723 114.1770166 114.24231445 113.62426758 114.85009766 C111.95257658 116.6859749 110.26122701 118.50161242 108.5625 120.3125 C107.90967041 121.00851318 107.25684082 121.70452637 106.58422852 122.42163086 C98.25139655 131.2235511 89.62519506 139.73947807 81.01098633 148.26464844 C75.79298671 153.4390047 70.65631675 158.59277792 65.89379883 164.19604492 C62.57943742 167.95934404 58.94997328 171.42416419 55.375 174.9375 C53.85449184 176.43258161 52.33614589 177.92986644 50.8203125 179.4296875 C49.82668701 180.40591064 49.82668701 180.40591064 48.81298828 181.40185547 C45.39908455 185.02906153 46.13796854 188.99344202 46.1875 193.6875 C46.19426758 194.89019531 46.19426758 194.89019531 46.20117188 196.1171875 C46.21296832 198.09899006 46.23090395 200.08075433 46.25 202.0625 C47.673125 202.2790625 47.673125 202.2790625 49.125 202.5 C52.25 203.0625 52.25 203.0625 54.25 204.0625 C55.11140345 215.89244076 55.11140345 215.89244076 51.75 219.8125 C50.925 220.555 50.1 221.2975 49.25 222.0625 C50.31966068 225.36872393 51.49576796 227.35742156 53.75 230.0625 C60.70005942 238.40257131 59.40415313 250.12930947 59.3828125 260.43359375 C59.38376923 261.47717545 59.38472595 262.52075714 59.38571167 263.59596252 C59.38638733 265.78671327 59.38457629 267.97746608 59.38037109 270.16821289 C59.3750196 273.48783956 59.38033439 276.80733062 59.38671875 280.12695312 C59.38605775 282.27083363 59.38477615 284.41471405 59.3828125 286.55859375 C59.38483673 287.53396591 59.38686096 288.50933807 59.38894653 289.51426697 C59.31891555 310.50040449 59.31891555 310.50040449 54.25 318.0625 C53.88519531 318.63226563 53.52039063 319.20203125 53.14453125 319.7890625 C36.86694083 341.72624589 -0.08074276 346.9084844 -24.76074219 350.67700195 C-32.99201597 351.73851627 -41.11465596 352.24910891 -49.4140625 352.3359375 C-50.51249985 352.34846558 -51.61093719 352.36099365 -52.74266052 352.37390137 C-76.8498777 352.59558962 -100.16601724 352.56326366 -123.75 347.0625 C-124.7615918 346.82724609 -125.77318359 346.59199219 -126.81542969 346.34960938 C-142.6157327 342.52210854 -158.98827386 337.44886836 -171.75 327.0625 C-172.47703125 326.50820313 -173.2040625 325.95390625 -173.953125 325.3828125 C-180.36229904 320.23173559 -184.4055828 314.2370998 -185.75 306.0625 C-185.84920761 303.96422231 -185.89807855 301.86327643 -185.91113281 299.76269531 C-185.92074036 298.51079407 -185.9303479 297.25889282 -185.94024658 295.96905518 C-185.9450959 294.60958032 -185.9493744 293.25010333 -185.953125 291.890625 C-185.95595238 291.20035973 -185.95877975 290.51009445 -185.96169281 289.79891205 C-185.97664985 286.14458335 -185.98590076 282.49029376 -185.99023438 278.8359375 C-185.99570783 275.08256972 -186.01972166 271.32956674 -186.04820633 267.57631302 C-186.06693625 264.67131544 -186.07204382 261.76640384 -186.07357025 258.86135101 C-186.076575 257.47880819 -186.08452891 256.09626608 -186.09775543 254.71378326 C-186.18234664 245.19090386 -186.08875857 236.21832586 -179.5 228.75 C-177.83921457 226.97318013 -177.83921457 226.97318013 -176.75 225.0625 C-177.05996726 220.8569982 -179.86927269 217.86978528 -182.27734375 214.57421875 C-186.65498293 207.10784742 -186.06052102 199.10197695 -186.05078125 190.6953125 C-186.05467531 189.29198074 -186.05901143 187.88865015 -186.06376648 186.48532104 C-186.07120222 183.55186127 -186.07095696 180.61852191 -186.06567383 177.68505859 C-186.05988579 173.94740908 -186.07680651 170.21025619 -186.1000185 166.47268867 C-186.11483443 163.57625503 -186.11561689 160.6799388 -186.11250877 157.78347397 C-186.11301815 156.40652357 -186.11818293 155.02956592 -186.12832069 153.65265274 C-186.18964218 144.15952013 -186.06622522 135.19278442 -179.5 127.75 C-177.83921457 125.97318013 -177.83921457 125.97318013 -176.75 124.0625 C-177.05996726 119.8569982 -179.86927269 116.86978528 -182.27734375 113.57421875 C-186.64941645 106.11734144 -186.06053065 98.12659429 -186.05078125 89.73046875 C-186.05467572 88.32953262 -186.05901192 86.92859766 -186.06376648 85.52766418 C-186.07120298 82.59840053 -186.07095678 79.66925744 -186.06567383 76.73999023 C-186.05989119 73.01140651 -186.07679305 69.28332148 -186.1000185 65.55482006 C-186.11485134 62.66263509 -186.11561453 59.77056749 -186.11250877 56.87835121 C-186.11301749 55.50501839 -186.11816944 54.1316782 -186.12832069 52.7583828 C-186.20845595 40.39982132 -185.11852724 31.46028425 -176.33984375 22.3828125 C-172.15314461 18.63183318 -167.64905967 15.7904656 -162.75 13.0625 C-162.02941406 12.63582031 -161.30882812 12.20914063 -160.56640625 11.76953125 C-115.32859822 -13.14755018 -48.53866737 -11.39877186 0 0 Z " fill="#FFAE01" transform="translate(287.75,82.9375)"/>
<path d="M0 0 C1.02955811 0.24065186 2.05911621 0.48130371 3.11987305 0.72924805 C8.77039459 2.14930155 13.35229534 3.89540886 18.25 7.0625 C18.25 7.7225 18.25 8.3825 18.25 9.0625 C18.91 9.0625 19.57 9.0625 20.25 9.0625 C20.25 9.7225 20.25 10.3825 20.25 11.0625 C21.24 11.3925 22.23 11.7225 23.25 12.0625 C25.05162669 14.58477736 25.29839136 15.70763 24.875 18.8125 C24.66875 19.555 24.4625 20.2975 24.25 21.0625 C22.6 21.3925 20.95 21.7225 19.25 22.0625 C18.92 23.0525 18.59 24.0425 18.25 25.0625 C17.22712891 23.65871094 17.22712891 23.65871094 16.18359375 22.2265625 C13.31438157 18.80600363 10.63344636 17.69796494 6.3125 16.4375 C5.63517822 16.23930664 4.95785645 16.04111328 4.26000977 15.83691406 C-44.44799273 2.26014896 -111.15394126 1.23235487 -156.640625 25.75 C-165.25715478 30.98840867 -165.25715478 30.98840867 -170.75 39.0625 C-171.2696112 43.73900077 -171.28872125 45.9850575 -169.1875 50.1875 C-151.43550244 71.12575353 -116.60382384 75.69941941 -90.71337891 77.8359375 C-79.73230584 78.67548568 -68.74190719 79.38186622 -57.75 80.0625 C-57.55533668 81.85340253 -57.36948787 83.64526505 -57.1875 85.4375 C-57.08308594 86.43523437 -56.97867188 87.43296875 -56.87109375 88.4609375 C-56.75 91.0625 -56.75 91.0625 -57.75 93.0625 C-93.96662998 93.40273974 -132.33138259 90.93123158 -164.3828125 72.359375 C-166.7818269 71.04506348 -169.1927949 70.02713965 -171.75 69.0625 C-171.8248726 73.39679165 -171.80519671 77.72820058 -171.75 82.0625 C-171.73888184 82.97870117 -171.72776367 83.89490234 -171.71630859 84.83886719 C-171.6670397 87.89353843 -171.58661792 90.94617549 -171.5 94 C-171.48590088 94.99459229 -171.47180176 95.98918457 -171.45727539 97.01391602 C-171.20047003 104.59063472 -169.58291188 108.40713831 -163.9453125 113.69140625 C-143.97656632 128.50929003 -117.49113461 132.31174032 -93.4375 135.1875 C-91.34730508 135.43976075 -89.25736823 135.69371825 -87.16792297 135.95211792 C-85.30735344 136.18195459 -83.44605377 136.40585808 -81.5847168 136.62939453 C-78.75 137.0625 -78.75 137.0625 -76.75 138.0625 C-77.08 142.0225 -77.41 145.9825 -77.75 150.0625 C-86.95283409 150.23517305 -95.70693397 149.68210416 -104.8125 148.375 C-106.07747314 148.19493408 -107.34244629 148.01486816 -108.64575195 147.8293457 C-125.83831637 145.27474124 -145.99531775 141.89895484 -160.75 132.0625 C-163.58238487 131.98796356 -165.10943507 132.45858865 -167.18359375 134.4140625 C-169.66770822 137.49633485 -171.0975426 140.13293393 -171.3125 144.125 C-170.42368014 150.34673903 -167.6007875 153.54060495 -162.9375 157.5 C-141.98924084 172.98052431 -112.96147388 176.68405907 -87.75 179.0625 C-86.62722656 179.17464844 -85.50445312 179.28679687 -84.34765625 179.40234375 C-71.18666815 180.50286166 -57.94470585 180.1522787 -44.75 180.0625 C-43.42770811 182.70708379 -43.65322806 184.74011301 -43.6875 187.6875 C-43.69652344 188.69039062 -43.70554688 189.69328125 -43.71484375 190.7265625 C-43.73224609 191.88285156 -43.73224609 191.88285156 -43.75 193.0625 C-82.65369083 200.35100825 -133.97599834 191.96774069 -167.5859375 171.3203125 C-169.6210151 169.89499601 -169.6210151 169.89499601 -171.75 170.0625 C-171.70565413 174.91951941 -171.63562213 179.77526258 -171.54248047 184.6315918 C-171.51437544 186.28122766 -171.49310909 187.93099558 -171.47900391 189.58081055 C-171.45742767 191.96210825 -171.41070755 194.34183588 -171.359375 196.72265625 C-171.35814636 197.45210953 -171.35691772 198.18156281 -171.35565186 198.93312073 C-171.18482112 204.99922584 -169.33945615 209.31350389 -165.1015625 213.8125 C-140.53923643 231.59517951 -107.28935739 236.26813874 -77.67578125 237.296875 C-76.66700928 237.33272705 -75.6582373 237.3685791 -74.61889648 237.40551758 C-72.65658975 237.46744473 -70.69375234 237.51468944 -68.73071289 237.5456543 C-67.84762451 237.57054932 -66.96453613 237.59544434 -66.0546875 237.62109375 C-65.27077637 237.63454834 -64.48686523 237.64800293 -63.67919922 237.66186523 C-61.75 238.0625 -61.75 238.0625 -59.75 241.0625 C-59.484375 243.25390625 -59.484375 243.25390625 -59.5 245.625 C-59.49226563 246.80255859 -59.49226563 246.80255859 -59.484375 248.00390625 C-59.75 250.0625 -59.75 250.0625 -61.75 252.0625 C-92.49885463 254.89189393 -130.4227183 248.42838666 -158.0390625 234.390625 C-160.63145157 232.89889401 -160.63145157 232.89889401 -163.3125 232.9375 C-167.09744885 234.68439947 -168.99638743 237.32529288 -170.75 241.0625 C-171.66128519 245.14757156 -171.10078395 248.31517767 -169.3125 252.125 C-157.82710652 265.29118277 -139.64329713 271.08919224 -123 274.625 C-122.14535156 274.82029297 -121.29070312 275.01558594 -120.41015625 275.21679688 C-101.42148381 279.32788463 -82.44414684 280.61396594 -63.0625 280.5 C-61.97459167 280.49729095 -60.88668335 280.49458191 -59.76580811 280.49179077 C-42.76616213 280.42777459 -26.42477712 279.59359514 -9.75 276.0625 C-8.83814941 275.88058105 -7.92629883 275.69866211 -6.98681641 275.51123047 C9.61705234 272.133712 30.35295531 266.65903721 41.796875 253.25 C44.40366149 249.25054676 44.99754013 245.71386083 44.25 241.0625 C42.43895129 237.33648995 40.57219682 234.65748857 36.75 232.9375 C34.12242865 232.87212429 34.12242865 232.87212429 31.75 234.5625 C29.25 236.0625 29.25 236.0625 26.625 236.25 C23.31419598 234.59459799 22.83867366 232.55072664 21.6328125 229.16796875 C21.16550955 226.5978025 21.09081409 225.42818554 22.25 223.0625 C24.98046875 221.31640625 24.98046875 221.31640625 28.4375 219.625 C37.26355496 215.09875653 41.73352878 211.5569723 45.25 202.0625 C52 202.9375 52 202.9375 54.25 204.0625 C55.11140345 215.89244076 55.11140345 215.89244076 51.75 219.8125 C50.925 220.555 50.1 221.2975 49.25 222.0625 C50.31966068 225.36872393 51.49576796 227.35742156 53.75 230.0625 C60.70005942 238.40257131 59.40415313 250.12930947 59.3828125 260.43359375 C59.38376923 261.47717545 59.38472595 262.52075714 59.38571167 263.59596252 C59.38638733 265.78671327 59.38457629 267.97746608 59.38037109 270.16821289 C59.3750196 273.48783956 59.38033439 276.80733062 59.38671875 280.12695312 C59.38605775 282.27083363 59.38477615 284.41471405 59.3828125 286.55859375 C59.38483673 287.53396591 59.38686096 288.50933807 59.38894653 289.51426697 C59.31891555 310.50040449 59.31891555 310.50040449 54.25 318.0625 C53.88519531 318.63226563 53.52039063 319.20203125 53.14453125 319.7890625 C36.86694083 341.72624589 -0.08074276 346.9084844 -24.76074219 350.67700195 C-32.99201597 351.73851627 -41.11465596 352.24910891 -49.4140625 352.3359375 C-50.51249985 352.34846558 -51.61093719 352.36099365 -52.74266052 352.37390137 C-76.8498777 352.59558962 -100.16601724 352.56326366 -123.75 347.0625 C-124.7615918 346.82724609 -125.77318359 346.59199219 -126.81542969 346.34960938 C-142.6157327 342.52210854 -158.98827386 337.44886836 -171.75 327.0625 C-172.47703125 326.50820313 -173.2040625 325.95390625 -173.953125 325.3828125 C-180.36229904 320.23173559 -184.4055828 314.2370998 -185.75 306.0625 C-185.84920761 303.96422231 -185.89807855 301.86327643 -185.91113281 299.76269531 C-185.92074036 298.51079407 -185.9303479 297.25889282 -185.94024658 295.96905518 C-185.9450959 294.60958032 -185.9493744 293.25010333 -185.953125 291.890625 C-185.95595238 291.20035973 -185.95877975 290.51009445 -185.96169281 289.79891205 C-185.97664985 286.14458335 -185.98590076 282.49029376 -185.99023438 278.8359375 C-185.99570783 275.08256972 -186.01972166 271.32956674 -186.04820633 267.57631302 C-186.06693625 264.67131544 -186.07204382 261.76640384 -186.07357025 258.86135101 C-186.076575 257.47880819 -186.08452891 256.09626608 -186.09775543 254.71378326 C-186.18234664 245.19090386 -186.08875857 236.21832586 -179.5 228.75 C-177.83921457 226.97318013 -177.83921457 226.97318013 -176.75 225.0625 C-177.05996726 220.8569982 -179.86927269 217.86978528 -182.27734375 214.57421875 C-186.65498293 207.10784742 -186.06052102 199.10197695 -186.05078125 190.6953125 C-186.05467531 189.29198074 -186.05901143 187.88865015 -186.06376648 186.48532104 C-186.07120222 183.55186127 -186.07095696 180.61852191 -186.06567383 177.68505859 C-186.05988579 173.94740908 -186.07680651 170.21025619 -186.1000185 166.47268867 C-186.11483443 163.57625503 -186.11561689 160.6799388 -186.11250877 157.78347397 C-186.11301815 156.40652357 -186.11818293 155.02956592 -186.12832069 153.65265274 C-186.18964218 144.15952013 -186.06622522 135.19278442 -179.5 127.75 C-177.83921457 125.97318013 -177.83921457 125.97318013 -176.75 124.0625 C-177.05996726 119.8569982 -179.86927269 116.86978528 -182.27734375 113.57421875 C-186.64941645 106.11734144 -186.06053065 98.12659429 -186.05078125 89.73046875 C-186.05467572 88.32953262 -186.05901192 86.92859766 -186.06376648 85.52766418 C-186.07120298 82.59840053 -186.07095678 79.66925744 -186.06567383 76.73999023 C-186.05989119 73.01140651 -186.07679305 69.28332148 -186.1000185 65.55482006 C-186.11485134 62.66263509 -186.11561453 59.77056749 -186.11250877 56.87835121 C-186.11301749 55.50501839 -186.11816944 54.1316782 -186.12832069 52.7583828 C-186.20845595 40.39982132 -185.11852724 31.46028425 -176.33984375 22.3828125 C-172.15314461 18.63183318 -167.64905967 15.7904656 -162.75 13.0625 C-162.02941406 12.63582031 -161.30882812 12.20914063 -160.56640625 11.76953125 C-115.32859822 -13.14755018 -48.53866737 -11.39877186 0 0 Z " fill="#F3F4FC" transform="translate(287.75,82.9375)"/>
<path d="M0 0 C0.84817291 -0.00708481 1.69634583 -0.01416962 2.57022095 -0.02146912 C3.49757553 -0.0189917 4.42493011 -0.01651428 5.38038635 -0.01396179 C6.84907166 -0.02162819 6.84907166 -0.02162819 8.34742737 -0.02944946 C11.59097876 -0.04337403 14.83431835 -0.04238654 18.07789612 -0.04008484 C20.32847167 -0.04397016 22.5790465 -0.04830449 24.82962036 -0.05307007 C29.54985428 -0.06053843 34.27001342 -0.0602365 38.99024963 -0.05497742 C45.04442492 -0.04918171 51.09829438 -0.06611345 57.15241909 -0.08932209 C61.80120641 -0.10404118 66.44991978 -0.10493361 71.09872627 -0.10181236 C73.33108692 -0.10232648 75.56345161 -0.10758115 77.79578972 -0.11762428 C80.91533763 -0.12993598 84.03428582 -0.12322847 87.15382385 -0.11161804 C88.07915421 -0.11926178 89.00448456 -0.12690552 89.95785522 -0.13478088 C96.15906806 -0.08366735 96.15906806 -0.08366735 99.39981079 1.57522583 C101.33488425 3.85282958 101.46335514 5.81451312 101.30787659 8.74458313 C100.23918072 14.39277779 97.68939733 19.58470781 95.39430237 24.82319641 C94.569455 26.74928834 93.74991201 28.67758038 92.93070984 30.6060791 C92.37717749 31.90852073 91.82205841 33.21028914 91.2653656 34.51138306 C88.57377714 40.81457962 86.0576043 47.18233857 83.58180237 53.57319641 C83.1996759 54.55683167 82.81754944 55.54046692 82.42384338 56.5539093 C81.55724498 58.78852265 80.6936914 61.02426459 79.83180237 63.26069641 C81.08315979 63.25022278 82.33451721 63.23974915 83.62379456 63.22895813 C88.26797117 63.19274876 92.9121353 63.16979246 97.55641174 63.15083313 C99.56619872 63.14077771 101.57597107 63.12713156 103.58570862 63.1098175 C106.47506825 63.08554917 109.36423439 63.0742087 112.25367737 63.06538391 C113.15173096 63.05506134 114.04978455 63.04473877 114.97505188 63.03410339 C115.81562134 63.03395233 116.6561908 63.03380127 117.52223206 63.03364563 C118.2594751 63.02920441 118.99671814 63.02476318 119.75630188 63.02018738 C122.2094658 63.30446006 123.76638755 63.90907236 125.83180237 65.26069641 C127.01930237 68.38569641 127.01930237 68.38569641 126.83180237 72.26069641 C125.51734924 74.13423157 125.51734924 74.13423157 123.73805237 76.04975891 C123.09569641 76.75020325 122.45334045 77.45064758 121.79151917 78.1723175 C121.14481262 78.86148254 120.49810608 79.55064758 119.83180237 80.26069641 C119.29531067 80.85060364 118.75881897 81.44051086 118.20606995 82.04829407 C116.53437895 83.88417131 114.84302938 85.69980883 113.14430237 87.51069641 C112.49147278 88.20670959 111.83864319 88.90272278 111.16603088 89.61982727 C102.83319892 98.42174751 94.20699743 106.93767448 85.5927887 115.46284485 C80.37223977 120.63977425 75.23547001 125.79649088 70.47120667 131.4030304 C66.47785938 135.92803107 62.03384332 140.05235144 57.70875549 144.25679016 C56.97979065 144.97479797 56.25082581 145.69280579 55.49977112 146.43257141 C54.84259094 147.07291321 54.18541077 147.713255 53.50831604 148.3730011 C51.76657455 150.16604668 51.76657455 150.16604668 50.82887268 152.29658508 C49.63014464 154.65793844 48.25067842 155.83712469 46.21070862 157.51460266 C41.84744474 161.21023103 37.79921053 165.14483582 33.76930237 169.19819641 C33.10092346 169.86270813 32.43254456 170.52721985 31.74391174 171.21186829 C28.61351903 174.34834534 25.57983319 177.51188914 22.71070862 180.88960266 C16.54978176 188.02922978 9.63803732 194.50651455 2.93824768 201.13374329 C-6.03113423 209.97794028 -6.03113423 209.97794028 -14.47679138 219.31587219 C-18.20460295 223.6022098 -22.19596122 227.63999369 -26.16819763 231.69819641 C-27.03186951 232.60763 -27.89554138 233.5170636 -28.78538513 234.45405579 C-35.93599673 241.72964008 -35.93599673 241.72964008 -40.17210388 242.41694641 C-43.16819763 242.26069641 -43.16819763 242.26069641 -45.10569763 241.32319641 C-47.88976779 235.91882493 -45.97931431 230.10412068 -44.31077576 224.62837219 C-43.46097873 221.9805449 -42.58145008 219.34325036 -41.69944763 216.70600891 C-41.22594248 215.26111705 -40.75353016 213.81586666 -40.28213501 212.37028503 C-39.27807802 209.29846119 -38.26690164 206.22911512 -37.24983215 203.16157532 C-35.66002302 198.36635451 -34.08602997 193.56604343 -32.51512146 188.76460266 C-30.92877614 183.91813709 -29.34165673 179.07193776 -27.7489624 174.22755432 C-23.3972226 160.98975797 -19.11439308 147.73108048 -14.87620544 134.45643616 C-13.87518675 131.32172697 -12.87152991 128.18787245 -11.86741638 125.05415344 C-11.26309876 123.16471604 -10.65892289 121.27523329 -10.05491638 119.38569641 C-9.78825668 118.55351593 -9.52159698 117.72133545 -9.24685669 116.86393738 C-7.8074099 112.34949437 -6.44477024 107.82395865 -5.16819763 103.26069641 C-6.34325867 103.27640686 -7.5183197 103.29211731 -8.72898865 103.30830383 C-13.11042867 103.36281917 -17.491839 103.39712482 -21.8735199 103.42549133 C-23.76582388 103.44052887 -25.6580933 103.46096426 -27.55027771 103.48701477 C-30.27847349 103.5236204 -33.00620635 103.54047331 -35.73460388 103.55366516 C-36.57342606 103.56914902 -37.41224823 103.58463287 -38.27648926 103.60058594 C-43.65269027 103.60210813 -47.42684939 102.86584133 -52.16819763 100.26069641 C-53.65795641 97.1526693 -53.5207209 95.29624784 -52.41770935 92.05610657 C-51.24222271 89.3395101 -49.94683165 86.71199134 -48.60569763 84.07319641 C-48.10538025 83.05910706 -47.60506287 82.0450177 -47.08958435 81.00019836 C-42.8729293 72.50924121 -38.49561211 64.09805135 -34.09056091 55.7035675 C-30.20365592 48.27281228 -26.42892674 40.79321673 -22.71116638 33.27632141 C-22.23868469 32.32284317 -21.766203 31.36936493 -21.27940369 30.38699341 C-19.37046596 26.53363877 -17.46191729 22.68021215 -15.56962585 18.81864929 C-14.24083936 16.10709234 -12.90258836 13.4003885 -11.56272888 10.69429016 C-11.16329575 9.87160645 -10.76386261 9.04892273 -10.35232544 8.2013092 C-9.97679031 7.44674438 -9.60125519 6.69217957 -9.21434021 5.91474915 C-8.89016617 5.25450241 -8.56599213 4.59425568 -8.23199463 3.91400146 C-6.08038079 0.5700608 -3.70196551 0.01031373 0 0 Z " fill="#FFC90E" transform="translate(283.16819763183594,115.73930358886719)"/>
<path d="M0 0 C0.84817291 -0.00708481 1.69634583 -0.01416962 2.57022095 -0.02146912 C3.49757553 -0.0189917 4.42493011 -0.01651428 5.38038635 -0.01396179 C6.84907166 -0.02162819 6.84907166 -0.02162819 8.34742737 -0.02944946 C11.59097876 -0.04337403 14.83431835 -0.04238654 18.07789612 -0.04008484 C20.32847167 -0.04397016 22.5790465 -0.04830449 24.82962036 -0.05307007 C29.54985428 -0.06053843 34.27001342 -0.0602365 38.99024963 -0.05497742 C45.04442492 -0.04918171 51.09829438 -0.06611345 57.15241909 -0.08932209 C61.80120641 -0.10404118 66.44991978 -0.10493361 71.09872627 -0.10181236 C73.33108692 -0.10232648 75.56345161 -0.10758115 77.79578972 -0.11762428 C80.91533763 -0.12993598 84.03428582 -0.12322847 87.15382385 -0.11161804 C88.07915421 -0.11926178 89.00448456 -0.12690552 89.95785522 -0.13478088 C96.15906806 -0.08366735 96.15906806 -0.08366735 99.39981079 1.57522583 C101.33488425 3.85282958 101.46335514 5.81451312 101.30787659 8.74458313 C100.23918072 14.39277779 97.68939733 19.58470781 95.39430237 24.82319641 C94.569455 26.74928834 93.74991201 28.67758038 92.93070984 30.6060791 C92.37717749 31.90852073 91.82205841 33.21028914 91.2653656 34.51138306 C88.57377714 40.81457962 86.0576043 47.18233857 83.58180237 53.57319641 C83.1996759 54.55683167 82.81754944 55.54046692 82.42384338 56.5539093 C81.55724498 58.78852265 80.6936914 61.02426459 79.83180237 63.26069641 C81.08315979 63.25022278 82.33451721 63.23974915 83.62379456 63.22895813 C88.26797117 63.19274876 92.9121353 63.16979246 97.55641174 63.15083313 C99.56619872 63.14077771 101.57597107 63.12713156 103.58570862 63.1098175 C106.47506825 63.08554917 109.36423439 63.0742087 112.25367737 63.06538391 C113.15173096 63.05506134 114.04978455 63.04473877 114.97505188 63.03410339 C115.81562134 63.03395233 116.6561908 63.03380127 117.52223206 63.03364563 C118.2594751 63.02920441 118.99671814 63.02476318 119.75630188 63.02018738 C122.2094658 63.30446006 123.76638755 63.90907236 125.83180237 65.26069641 C127.01930237 68.38569641 127.01930237 68.38569641 126.83180237 72.26069641 C125.51734924 74.13423157 125.51734924 74.13423157 123.73805237 76.04975891 C123.09569641 76.75020325 122.45334045 77.45064758 121.79151917 78.1723175 C121.14481262 78.86148254 120.49810608 79.55064758 119.83180237 80.26069641 C119.29531067 80.85060364 118.75881897 81.44051086 118.20606995 82.04829407 C116.53437895 83.88417131 114.84302938 85.69980883 113.14430237 87.51069641 C112.49147278 88.20670959 111.83864319 88.90272278 111.16603088 89.61982727 C102.83319892 98.42174751 94.20699743 106.93767448 85.5927887 115.46284485 C80.37223977 120.63977425 75.23547001 125.79649088 70.47120667 131.4030304 C66.47785938 135.92803107 62.03384332 140.05235144 57.70875549 144.25679016 C56.97979065 144.97479797 56.25082581 145.69280579 55.49977112 146.43257141 C54.84259094 147.07291321 54.18541077 147.713255 53.50831604 148.3730011 C51.76657455 150.16604668 51.76657455 150.16604668 50.82887268 152.29658508 C49.63014464 154.65793844 48.25067842 155.83712469 46.21070862 157.51460266 C41.84744474 161.21023103 37.79921053 165.14483582 33.76930237 169.19819641 C33.10092346 169.86270813 32.43254456 170.52721985 31.74391174 171.21186829 C28.61351903 174.34834534 25.57983319 177.51188914 22.71070862 180.88960266 C16.54978176 188.02922978 9.63803732 194.50651455 2.93824768 201.13374329 C-6.03113423 209.97794028 -6.03113423 209.97794028 -14.47679138 219.31587219 C-18.20460295 223.6022098 -22.19596122 227.63999369 -26.16819763 231.69819641 C-27.03186951 232.60763 -27.89554138 233.5170636 -28.78538513 234.45405579 C-35.93599673 241.72964008 -35.93599673 241.72964008 -40.17210388 242.41694641 C-43.16819763 242.26069641 -43.16819763 242.26069641 -45.10569763 241.32319641 C-47.88976779 235.91882493 -45.97931431 230.10412068 -44.31077576 224.62837219 C-43.46097873 221.9805449 -42.58145008 219.34325036 -41.69944763 216.70600891 C-41.22594248 215.26111705 -40.75353016 213.81586666 -40.28213501 212.37028503 C-39.27807802 209.29846119 -38.26690164 206.22911512 -37.24983215 203.16157532 C-35.66002302 198.36635451 -34.08602997 193.56604343 -32.51512146 188.76460266 C-30.92877614 183.91813709 -29.34165673 179.07193776 -27.7489624 174.22755432 C-23.3972226 160.98975797 -19.11439308 147.73108048 -14.87620544 134.45643616 C-13.87518675 131.32172697 -12.87152991 128.18787245 -11.86741638 125.05415344 C-11.26309876 123.16471604 -10.65892289 121.27523329 -10.05491638 119.38569641 C-9.78825668 118.55351593 -9.52159698 117.72133545 -9.24685669 116.86393738 C-7.8074099 112.34949437 -6.44477024 107.82395865 -5.16819763 103.26069641 C-6.34325867 103.27640686 -7.5183197 103.29211731 -8.72898865 103.30830383 C-13.11042867 103.36281917 -17.491839 103.39712482 -21.8735199 103.42549133 C-23.76582388 103.44052887 -25.6580933 103.46096426 -27.55027771 103.48701477 C-30.27847349 103.5236204 -33.00620635 103.54047331 -35.73460388 103.55366516 C-36.57342606 103.56914902 -37.41224823 103.58463287 -38.27648926 103.60058594 C-43.65269027 103.60210813 -47.42684939 102.86584133 -52.16819763 100.26069641 C-53.65795641 97.1526693 -53.5207209 95.29624784 -52.41770935 92.05610657 C-51.24222271 89.3395101 -49.94683165 86.71199134 -48.60569763 84.07319641 C-48.10538025 83.05910706 -47.60506287 82.0450177 -47.08958435 81.00019836 C-42.8729293 72.50924121 -38.49561211 64.09805135 -34.09056091 55.7035675 C-30.20365592 48.27281228 -26.42892674 40.79321673 -22.71116638 33.27632141 C-22.23868469 32.32284317 -21.766203 31.36936493 -21.27940369 30.38699341 C-19.37046596 26.53363877 -17.46191729 22.68021215 -15.56962585 18.81864929 C-14.24083936 16.10709234 -12.90258836 13.4003885 -11.56272888 10.69429016 C-11.16329575 9.87160645 -10.76386261 9.04892273 -10.35232544 8.2013092 C-9.97679031 7.44674438 -9.60125519 6.69217957 -9.21434021 5.91474915 C-8.89016617 5.25450241 -8.56599213 4.59425568 -8.23199463 3.91400146 C-6.08038079 0.5700608 -3.70196551 0.01031373 0 0 Z M1.9347229 14.6638031 C0.66729041 16.4988895 -0.35906351 18.32251603 -1.33226013 20.33100891 C-1.72751892 21.13635071 -2.12277771 21.9416925 -2.53001404 22.7714386 C-2.94686462 23.63414368 -3.36371521 24.49684875 -3.79319763 25.38569641 C-4.68734882 27.20683578 -5.58321184 29.02713557 -6.48069763 30.84663391 C-7.15552185 32.21513489 -7.15552185 32.21513489 -7.84397888 33.61128235 C-9.7610633 37.44686497 -11.7684726 41.23112106 -13.79319763 45.01069641 C-17.36736178 51.70220014 -20.81067281 58.44829679 -24.17210388 65.24897766 C-25.56934611 68.07348781 -26.99790511 70.87965644 -28.44554138 73.67866516 C-28.81735535 74.40368225 -29.18916931 75.12869934 -29.57225037 75.87568665 C-30.28550468 77.26517405 -31.00476952 78.65159794 -31.73094177 80.03437805 C-33.4769829 83.45647781 -34.16819763 85.33041616 -34.16819763 89.26069641 C-12.38819763 89.75569641 -12.38819763 89.75569641 9.83180237 90.26069641 C10.95677573 98.13550996 10.95677573 98.13550996 9.4834137 102.68476868 C9.16127899 103.70408981 8.83914429 104.72341095 8.50724792 105.77362061 C8.1464212 106.86376968 7.78559448 107.95391876 7.41383362 109.07710266 C7.04511139 110.23037552 6.67638916 111.38364838 6.29649353 112.5718689 C5.29887596 115.68354141 4.28866153 118.79076072 3.27259445 121.89644623 C2.22151464 125.11973723 1.18700424 128.34833058 0.15138245 131.57661438 C-1.3020705 136.102935 -2.76021444 140.62768504 -4.22524357 145.15027237 C-6.46823387 152.07485605 -8.68208643 159.00789016 -10.86351013 165.95210266 C-11.27211021 167.25272392 -11.27211021 167.25272392 -11.68896484 168.57962036 C-12.20838392 170.23437317 -12.72756435 171.88920091 -13.24647522 173.54411316 C-16.78207558 184.8198553 -20.39576026 196.06162034 -24.16819763 207.26069641 C-21.2165076 207.58193465 -21.2165076 207.58193465 -19.62864685 205.96992493 C-19.08224548 205.36591858 -18.53584412 204.76191223 -17.97288513 204.13960266 C-17.03497131 203.11951111 -17.03497131 203.11951111 -16.07810974 202.07881165 C-15.07082825 200.9622821 -15.07082825 200.9622821 -14.04319763 199.82319641 C-7.53790128 192.74824628 -0.87517967 185.88125459 5.98268127 179.1476593 C9.1712964 175.99817542 12.25503341 172.82514156 15.17164612 169.42085266 C20.45610205 163.28645451 26.33177819 157.71828743 32.09352112 152.03804016 C37.75599879 146.43166492 37.75599879 146.43166492 43.08180237 140.51069641 C49.35033776 133.19123773 56.45342365 126.58819558 63.29811096 119.81489563 C72.50310198 110.73985782 72.50310198 110.73985782 81.15846252 101.14790344 C85.61293275 96.12411371 90.59332522 91.55041162 95.41969299 86.88764954 C96.24533752 86.07618469 97.07098206 85.26471985 97.92164612 84.42866516 C98.67308899 83.69929749 99.42453186 82.96992981 100.19874573 82.21846008 C102.15207821 80.30164778 102.15207821 80.30164778 101.83180237 77.26069641 C100.37157654 77.22311218 100.37157654 77.22311218 98.8818512 77.18476868 C95.2568889 77.09032363 91.63210171 76.99019474 88.00733948 76.88838196 C86.44097501 76.84517302 84.8745677 76.8034885 83.30812073 76.76338196 C81.05156057 76.7053377 78.79521329 76.64174339 76.53883362 76.57710266 C75.84280533 76.56039017 75.14677704 76.54367767 74.42965698 76.52645874 C70.7930744 76.41661222 67.3738781 76.1034765 63.83180237 75.26069641 C63.51810203 69.11818605 64.36716415 64.75594196 66.68336487 59.09663391 C66.97987946 58.3420993 67.27639404 57.5875647 67.58189392 56.81016541 C68.52756906 54.41343897 69.49197581 52.02476769 70.45680237 49.63569641 C71.08170275 48.0567447 71.70541022 46.47732032 72.32789612 44.89741516 C75.64714694 36.512662 79.10358037 28.2054042 82.77857971 19.97016907 C84.0129566 17.27916359 84.0129566 17.27916359 83.83180237 14.26069641 C80.84125802 12.76542424 77.7723499 13.10467437 74.49220276 13.0995636 C73.35782524 13.09211624 73.35782524 13.09211624 72.20053101 13.08451843 C69.6934977 13.06988767 67.18652764 13.06309385 64.67945862 13.05757141 C62.94072467 13.05182138 61.20199074 13.04606363 59.46325684 13.04029846 C55.8156759 13.02978633 52.16811703 13.02394484 48.52052307 13.02046204 C43.84168277 13.01497223 39.16313274 12.99093484 34.48438358 12.96249008 C30.89249818 12.94388821 27.3006831 12.93865945 23.70875359 12.93712616 C21.98353422 12.93409431 20.25831624 12.92604791 18.533144 12.91294098 C16.12213508 12.89592885 13.71184071 12.8977484 11.30079651 12.9042511 C10.58536682 12.89503632 9.86993713 12.88582153 9.13282776 12.87632751 C5.27118483 12.90197659 5.27118483 12.90197659 1.9347229 14.6638031 Z " fill="#F5F6FD" transform="translate(283.16819763183594,115.73930358886719)"/>
<path d="M0 0 C3.55116672 1.32576891 6.86201061 2.94461075 10.2109375 4.71557617 C50.54152364 25.82238119 100.69754294 27.21157402 145 22 C146.26650391 21.85522217 146.26650391 21.85522217 147.55859375 21.70751953 C169.23277268 19.13349945 194.58550641 14.60906583 212.3359375 1.06640625 C214 0 214 0 217 0 C217.09935536 4.99872122 217.17169622 9.99685955 217.21972656 14.99633789 C217.23976221 16.69468202 217.26699885 18.39295785 217.30175781 20.09106445 C217.35063415 22.5413504 217.37304872 24.9907194 217.390625 27.44140625 C217.41127014 28.19273331 217.43191528 28.94406036 217.45318604 29.71815491 C217.45551116 35.26091045 216.13016365 38.41465132 213 43 C199.02425481 56.47059778 178.14001828 61.53109751 159.6875 65.1875 C158.91970215 65.3424292 158.1519043 65.4973584 157.36083984 65.65698242 C141.15444379 68.67086677 124.7583081 69.38144289 108.3125 69.3125 C107.40101196 69.31067719 106.48952393 69.30885437 105.55041504 69.30697632 C74.52925375 69.20301256 29.80419887 67.30292617 5.6171875 44.78125 C0.92592631 39.53919296 -0.1658526 36.22616598 -0.3515625 29.21875 C-0.37471527 28.44946167 -0.39786804 27.68017334 -0.42172241 26.88757324 C-0.46936065 25.26023934 -0.5145949 23.63283357 -0.55761719 22.00537109 C-0.62473603 19.50981457 -0.70249007 17.01474436 -0.78125 14.51953125 C-0.82616372 12.94012232 -0.87045551 11.36069555 -0.9140625 9.78125 C-0.93796051 9.0322644 -0.96185852 8.28327881 -0.98648071 7.51159668 C-1.11484242 2.22968484 -1.11484242 2.22968484 0 0 Z " fill="#FFAE01" transform="translate(116,353)"/>
<path d="M0 0 C4.03882584 0.31885467 6.98688935 1.42260879 10.5 3.3125 C15.82670295 6.12201101 21.2766195 7.61957129 27.09375 9.10546875 C30 10 30 10 32 12 C31.7578125 14.6015625 31.7578125 14.6015625 31.125 17.625 C30.92132813 18.62789063 30.71765625 19.63078125 30.5078125 20.6640625 C30.34023437 21.43492187 30.17265625 22.20578125 30 23 C26.62344418 24.14803863 24.67989492 23.84743832 21.33203125 22.70703125 C20.43806641 22.40603516 19.54410156 22.10503906 18.62304688 21.79492188 C17.69556641 21.47072266 16.76808594 21.14652344 15.8125 20.8125 C14.90435547 20.50763672 13.99621094 20.20277344 13.06054688 19.88867188 C8.62775116 18.3751117 4.22925942 16.76816512 -0.11328125 15.01171875 C-0.83942627 14.72127686 -1.56557129 14.43083496 -2.3137207 14.1315918 C-4 13 -4 13 -4.80517578 11.02172852 C-5.0819488 8.14960151 -4.03480541 6.69187239 -2.5625 4.25 C-2.08941406 3.45078125 -1.61632812 2.6515625 -1.12890625 1.828125 C-0.75636719 1.22484375 -0.38382813 0.6215625 0 0 Z " fill="#EBECFA" transform="translate(130,276)"/>
<path d="M0 0 C4.34611163 0.59029277 8.06412274 1.66881159 12.125 3.3125 C17.58952679 5.49831072 23.07415121 7.30247488 28.734375 8.91015625 C31 10 31 10 31.91796875 11.82421875 C32.01711119 14.45385387 31.46901258 16.28428577 30.5625 18.75 C30.27503906 19.54921875 29.98757812 20.3484375 29.69140625 21.171875 C29.34916016 22.07679688 29.34916016 22.07679688 29 23 C17.11886923 22.27258383 5.57542732 17.16678882 -5 12 C-4.52389341 7.00088076 -2.96837781 4.02167317 0 0 Z " fill="#ECEDF9" transform="translate(130,378)"/>
<path d="M0 0 C2.38981081 0.66692395 4.1008232 1.44954038 6.265625 2.609375 C11.49070627 5.26569125 16.97550145 6.84230604 22.59179688 8.4609375 C23.75098633 8.82058594 23.75098633 8.82058594 24.93359375 9.1875 C25.63154053 9.39246094 26.3294873 9.59742188 27.04858398 9.80859375 C28.6875 10.75 28.6875 10.75 29.45703125 12.70019531 C29.7519364 15.32310167 29.15704741 17.03283104 28.25 19.5 C27.96253906 20.29921875 27.67507812 21.0984375 27.37890625 21.921875 C27.03666016 22.82679688 27.03666016 22.82679688 26.6875 23.75 C20.34292043 23.21034611 14.99098068 21.65228941 9.0625 19.375 C8.24265625 19.07078125 7.4228125 18.7665625 6.578125 18.453125 C-5.75487427 13.81337929 -5.75487427 13.81337929 -7.3203125 10.828125 C-7.30343959 6.33993191 -4.29461293 1.39284744 0 0 Z " fill="#EEEFFB" transform="translate(132.3125,174.25)"/>
</svg>
