<?xml version="1.0" encoding="UTF-8"?>
<svg version="1.1" xmlns="http://www.w3.org/2000/svg" width="512" height="512">
<path d="M0 0 C38.56410325 -0.64717646 77.09964675 10.78939947 107.39453125 35.12109375 C108.22452637 35.78407471 108.22452637 35.78407471 109.07128906 36.46044922 C143.46185553 64.18747433 166.64977046 104.10765457 171.890625 148.23046875 C173.67647623 166.51103404 173.25233087 185.14207683 169.39453125 203.12109375 C169.22824219 203.90597168 169.06195313 204.69084961 168.890625 205.49951172 C166.14814117 217.97527383 161.82210626 229.57520614 156.39453125 241.12109375 C155.87632812 242.22348389 155.87632812 242.22348389 155.34765625 243.34814453 C147.15280264 260.4373192 135.69109933 275.06711986 122.15234375 288.2734375 C113.53561242 296.69303064 105.4761322 304.6268551 99.39453125 315.12109375 C99.05276855 315.7047168 98.71100586 316.28833984 98.35888672 316.88964844 C91.97145708 328.00818114 88.5288101 339.74285885 85.39453125 352.12109375 C86.76351562 352.28351563 86.76351562 352.28351563 88.16015625 352.44921875 C92.78109257 353.4091234 95.2509528 355.71209442 98.39453125 359.12109375 C100.71649396 363.05833486 100.7906809 366.60498778 100.39453125 371.12109375 C98.54965791 376.24574191 95.89850128 379.08957546 91.39453125 382.12109375 C89.07159581 382.52050143 86.73737367 382.86293694 84.39453125 383.12109375 C84.41809692 384.04051758 84.41809692 384.04051758 84.44213867 384.97851562 C85.02181767 411.13989333 81.36683428 435.08350826 62.64282227 454.89379883 C51.81613719 465.97316148 37.85861579 475.09756602 22.39453125 478.12109375 C21.40453125 478.12109375 20.41453125 478.12109375 19.39453125 478.12109375 C19.47703125 479.31734375 19.55953125 480.51359375 19.64453125 481.74609375 C19.6365709 486.24369414 18.36407238 488.67000541 15.39453125 492.12109375 C9.97772662 496.03012802 4.85920444 495.90946853 -1.60546875 495.12109375 C-6.06407617 493.00912182 -8.72701408 490.71287183 -10.60546875 486.12109375 C-10.8335233 483.39964274 -10.7448156 480.86158175 -10.60546875 478.12109375 C-11.16492188 478.04632813 -11.724375 477.9715625 -12.30078125 477.89453125 C-31.19558547 474.79602638 -48.85747454 463.36271425 -60.01171875 447.8671875 C-74.07949431 427.37174377 -76.23091031 407.31445617 -75.60546875 383.12109375 C-77.22001953 382.95867187 -77.22001953 382.95867187 -78.8671875 382.79296875 C-83.88077461 381.89188517 -86.26673986 379.82978989 -89.60546875 376.12109375 C-91.92743146 372.18385264 -92.0016184 368.63719972 -91.60546875 364.12109375 C-89.76017802 358.99528617 -87.07849229 356.19081579 -82.60546875 353.12109375 C-80.61688295 352.72531904 -78.6162125 352.38190152 -76.60546875 352.12109375 C-83.31467168 325.93739026 -94.324609 306.82103212 -113.91796875 287.93359375 C-127.05508552 274.99980591 -137.21300566 261.51481091 -145.60546875 245.12109375 C-146.08258301 244.19562744 -146.08258301 244.19562744 -146.56933594 243.25146484 C-166.19708466 204.66253148 -169.2635698 158.60148777 -156.39453125 117.38671875 C-141.944751 73.63011249 -111.51363399 38.46651115 -70.61035156 17.35766602 C-48.56427076 6.45227711 -24.53736763 0.82411527 0 0 Z " fill="#FFDA0C" transform="translate(251.60546875,16.87890625)"/>
<path d="M0 0 C0.68436668 -0.00297112 1.36873335 -0.00594224 2.07383841 -0.0090034 C4.37221054 -0.01769058 6.67053059 -0.01919866 8.96891785 -0.02069092 C10.61477774 -0.02531908 12.26063657 -0.03034374 13.90649414 -0.03573608 C18.38178283 -0.04886228 22.85705652 -0.05530547 27.33236146 -0.05974674 C30.12799612 -0.06267711 32.92362667 -0.06678185 35.71925926 -0.07125092 C44.46513246 -0.08492643 53.21099628 -0.09459282 61.95687944 -0.09845281 C72.05460883 -0.10293384 82.15220287 -0.12048358 92.2498911 -0.1494534 C100.05380526 -0.17106574 107.85768132 -0.18115685 115.66162509 -0.18249393 C120.3231636 -0.18354228 124.9845749 -0.18945645 129.64608192 -0.20731354 C134.03161332 -0.22378647 138.41692177 -0.22595353 142.80247307 -0.21717453 C144.41090619 -0.21640374 146.01935125 -0.22075246 147.62775421 -0.23063278 C149.82623878 -0.24334448 152.02393277 -0.23748038 154.22241211 -0.22705078 C155.45187467 -0.22851734 156.68133722 -0.2299839 157.94805622 -0.2314949 C162.3164401 0.2529846 165.68500972 1.66585289 168.94621277 4.64044189 C172.81160381 9.60468992 173.72758006 12.85843848 173.30168152 19.14044189 C171.45680818 24.26509005 168.80565155 27.1089236 164.30168152 30.14044189 C161.97874608 30.53984957 159.64452394 30.88228509 157.30168152 31.14044189 C157.32524719 32.05986572 157.32524719 32.05986572 157.34928894 32.99786377 C157.92896793 59.15924148 154.27398454 83.1028564 135.54997253 102.91314697 C124.72328746 113.99250963 110.76576606 123.11691416 95.30168152 126.14044189 C94.31168152 126.14044189 93.32168152 126.14044189 92.30168152 126.14044189 C92.38418152 127.33669189 92.46668152 128.53294189 92.55168152 129.76544189 C92.54372116 134.26304229 91.27122265 136.68935356 88.30168152 140.14044189 C82.88487689 144.04947616 77.76635471 143.92881667 71.30168152 143.14044189 C66.8430741 141.02846996 64.18013619 138.73221998 62.30168152 134.14044189 C62.07362696 131.41899089 62.16233467 128.88092989 62.30168152 126.14044189 C61.74222839 126.06567627 61.18277527 125.99091064 60.60636902 125.91387939 C41.7115648 122.81537452 24.04967572 111.3820624 12.89543152 95.88653564 C-1.17234404 75.39109191 -3.32376004 55.33380432 -2.69831848 31.14044189 C-4.31286926 30.97802002 -4.31286926 30.97802002 -5.96003723 30.81231689 C-10.97362434 29.91123332 -13.3595896 27.84913804 -16.69831848 24.14044189 C-19.02028119 20.20320078 -19.09446813 16.65654787 -18.69831848 12.14044189 C-16.80504353 6.88134479 -14.10048633 4.35035595 -9.69831848 1.14044189 C-6.26560122 -0.00379719 -3.62187798 0.00877114 0 0 Z " fill="#262238" transform="translate(178.6983184814453,368.85955810546875)"/>
<path d="M0 0 C9.97978806 7.55954006 18.44954125 17.47407832 21 30 C22.50086169 43.6818158 20.77691238 56.78446901 12.5 68.14453125 C10.48290684 70.63963347 8.38313938 72.84936202 6 75 C5.51144531 75.48082031 5.02289063 75.96164063 4.51953125 76.45703125 C-4.38882886 84.81523135 -14.51574606 87.18504884 -26.3125 87.25 C-27.23740234 87.270625 -28.16230469 87.29125 -29.11523438 87.3125 C-33.41893135 87.3369702 -36.92774779 87.28948345 -40.85546875 85.421875 C-44.40770528 83.81564631 -45.37685024 83.87526974 -49 85 C-50.88258542 86.33087651 -50.88258542 86.33087651 -52.51757812 88.11108398 C-53.48383118 89.09231483 -53.48383118 89.09231483 -54.46960449 90.09336853 C-55.14994751 90.80376785 -55.83029053 91.51416718 -56.53125 92.24609375 C-57.60155457 93.33556053 -57.60155457 93.33556053 -58.69348145 94.44703674 C-60.97209051 96.76787054 -63.23713418 99.1013206 -65.5 101.4375 C-67.76368732 103.76923741 -70.03025828 106.09778319 -72.30651855 108.41725159 C-73.72204063 109.86001445 -75.13032271 111.30992515 -76.53039551 112.76768494 C-77.49664856 113.75364403 -77.49664856 113.75364403 -78.48242188 114.75952148 C-79.04247925 115.33830551 -79.60253662 115.91708954 -80.17956543 116.51341248 C-85.34396322 120.7307183 -90.85603116 120.27442524 -97.20629883 120.22705078 C-98.74358139 120.22748886 -98.74358139 120.22748886 -100.31192017 120.22793579 C-103.69371049 120.22654434 -107.07527949 120.21099157 -110.45703125 120.1953125 C-112.8040098 120.19158172 -115.15098991 120.18873506 -117.49797058 120.18673706 C-123.67113556 120.17910574 -129.84420623 120.15946144 -136.01733398 120.1373291 C-142.31818364 120.11685995 -148.61904855 120.10773305 -154.91992188 120.09765625 C-167.27998932 120.07621517 -179.63998681 120.04208517 -192 120 C-191.855625 120.86882812 -191.71125 121.73765625 -191.5625 122.6328125 C-191.376875 123.78523437 -191.19125 124.93765625 -191 126.125 C-190.814375 127.26195312 -190.62875 128.39890625 -190.4375 129.5703125 C-190.03043951 132.76137602 -189.92190098 135.78817791 -190 139 C-190.33 139 -190.66 139 -191 139 C-195.08279985 118.12425554 -196.05745564 95.97559658 -192 75 C-191.67 75 -191.34 75 -191 75 C-191.33 79.62 -191.66 84.24 -192 89 C-180.08117901 89.50016429 -168.16802026 89.84598135 -156.23954296 90.00777721 C-150.69621263 90.08754538 -145.16377856 90.21557674 -139.62524414 90.46411133 C-110.7708867 92.39994384 -110.7708867 92.39994384 -85.8954401 80.03876591 C-79.92215419 74.24712547 -74.74091284 67.82342602 -70 61 C-70.31791 60.00861778 -70.31791 60.00861778 -70.64224243 58.99720764 C-73.378744 50.22823971 -73.378744 50.22823971 -73.3984375 45.74609375 C-73.40230469 44.87146484 -73.40617187 43.99683594 -73.41015625 43.09570312 C-73.39855469 42.21849609 -73.38695312 41.34128906 -73.375 40.4375 C-73.38660156 39.55642578 -73.39820313 38.67535156 -73.41015625 37.76757812 C-73.35518634 25.35354063 -68.4105899 15.23381676 -59.8125 6.4375 C-55.30745814 2 -55.30745814 2 -53 2 C-53 1.34 -53 0.68 -53 0 C-50.35177981 -1.39633428 -47.70644178 -2.72449788 -45 -4 C-44.360625 -4.30808594 -43.72125 -4.61617188 -43.0625 -4.93359375 C-29.56077992 -10.44503808 -12.04334842 -7.57327124 0 0 Z " fill="#FFFEEF" transform="translate(282,81)"/>
<path d="M0 0 C0.33 0 0.66 0 1 0 C2.12014799 8.03507735 2.11441805 15.95929077 2.0625 24.0625 C2.05747314 25.41861813 2.05291234 26.77473808 2.04882812 28.13085938 C2.03712079 31.42061994 2.02072211 34.71028594 2 38 C0.83220505 37.95257156 -0.3355899 37.90514313 -1.53877258 37.85627747 C-12.66940013 37.42263611 -23.79570536 37.13856568 -34.93391132 36.99222279 C-40.65867308 36.91242715 -46.37289376 36.78428846 -52.09301758 36.53588867 C-81.64942509 34.50259704 -81.64942509 34.50259704 -107.20487881 46.96123409 C-113.16839339 52.73779407 -118.3144503 59.16037093 -123 66 C-122.71741333 66.80892197 -122.43482666 67.61784393 -122.14367676 68.45127869 C-121.77722046 69.52044022 -121.41076416 70.58960175 -121.03320312 71.69116211 C-120.66811646 72.74758408 -120.30302979 73.80400604 -119.92687988 74.8924408 C-118.64837564 79.17889442 -118.39195582 83.11718663 -118.5 87.5625 C-118.51208496 88.37968506 -118.52416992 89.19687012 -118.53662109 90.03881836 C-118.75196752 96.61732533 -119.93403744 102.12436277 -123 108 C-123.44730469 108.87011719 -123.89460938 109.74023438 -124.35546875 110.63671875 C-131.03253559 122.61247671 -140.98542201 129.87871697 -154 134 C-166.76923492 136.53953972 -178.62878232 135.52045755 -190.125 129.3125 C-202.56435644 119.30693069 -202.56435644 119.30693069 -204 115 C-204.66 115 -205.32 115 -206 115 C-206.98838433 112.9627797 -207.96532252 110.92000393 -208.9375 108.875 C-209.48277344 107.73804688 -210.02804688 106.60109375 -210.58984375 105.4296875 C-214.94849381 94.82887102 -214.74375734 80.28333385 -210.6875 69.625 C-209.05847478 65.91688854 -207.27591671 62.35590936 -205 59 C-204.34 59 -203.68 59 -203 59 C-202.7525 58.4225 -202.505 57.845 -202.25 57.25 C-200.81700012 54.67060021 -199.21575324 52.93878408 -197 51 C-196.34 51 -195.68 51 -195 51 C-195 50.34 -195 49.68 -195 49 C-182.58022785 42.39261055 -170.87602622 37.11181082 -156.484375 40.93359375 C-154.24763112 41.65827871 -152.02191503 42.41849416 -149.8125 43.22265625 C-146.81070914 44.05231789 -145.85226539 44.03391112 -143 43 C-141.27607009 41.69360929 -141.27607009 41.69360929 -139.68774414 39.99658203 C-139.06352066 39.36567657 -138.43929718 38.73477112 -137.79615784 38.08474731 C-137.13252731 37.39935883 -136.46889679 36.71397034 -135.78515625 36.0078125 C-134.74602333 34.9551973 -134.74602333 34.9551973 -133.68589783 33.88131714 C-131.47083799 31.63621979 -129.26591455 29.38152336 -127.0625 27.125 C-124.86184335 24.87646638 -122.65899981 22.6302617 -120.44981384 20.3901062 C-119.07562021 18.9962124 -117.70638211 17.59741107 -116.3427887 16.19314575 C-115.71541306 15.55593597 -115.08803741 14.9187262 -114.44165039 14.26220703 C-113.89634171 13.70340851 -113.35103302 13.14460999 -112.78919983 12.56887817 C-107.21472884 7.68084626 -102.87057974 7.57997464 -95.7019043 7.65942383 C-94.66729568 7.65898575 -93.63268707 7.65854767 -92.56672668 7.65809631 C-89.15236437 7.6601837 -85.73849513 7.68351302 -82.32421875 7.70703125 C-79.95482145 7.71262737 -77.58542069 7.71689739 -75.21601868 7.71989441 C-68.98361608 7.73134187 -62.75142364 7.76080852 -56.519104 7.79400635 C-50.15794721 7.82470916 -43.79675642 7.83840022 -37.43554688 7.85351562 C-24.95693898 7.88567806 -12.47848698 7.93687347 0 8 C0 5.36 0 2.72 0 0 Z " fill="#FEFEEF" transform="translate(422,162)"/>
<path d="M0 0 C26.4 0 52.8 0 80 0 C80 31.68 80 63.36 80 96 C53.23225425 94.51290301 36.62455252 87.46838724 18.7578125 68.63671875 C1.40319951 48.54723484 0 25.78085484 0 0 Z " fill="#423448" transform="translate(176,400)"/>
<path d="M0 0 C0.68436668 -0.00297112 1.36873335 -0.00594224 2.07383841 -0.0090034 C4.37221054 -0.01769058 6.67053059 -0.01919866 8.96891785 -0.02069092 C10.61477774 -0.02531908 12.26063657 -0.03034374 13.90649414 -0.03573608 C18.38178283 -0.04886228 22.85705652 -0.05530547 27.33236146 -0.05974674 C30.12799612 -0.06267711 32.92362667 -0.06678185 35.71925926 -0.07125092 C44.46513246 -0.08492643 53.21099628 -0.09459282 61.95687944 -0.09845281 C72.05460883 -0.10293384 82.15220287 -0.12048358 92.2498911 -0.1494534 C100.05380526 -0.17106574 107.85768132 -0.18115685 115.66162509 -0.18249393 C120.3231636 -0.18354228 124.9845749 -0.18945645 129.64608192 -0.20731354 C134.03161332 -0.22378647 138.41692177 -0.22595353 142.80247307 -0.21717453 C144.41090619 -0.21640374 146.01935125 -0.22075246 147.62775421 -0.23063278 C149.82623878 -0.24334448 152.02393277 -0.23748038 154.22241211 -0.22705078 C155.45187467 -0.22851734 156.68133722 -0.2299839 157.94805622 -0.2314949 C162.3164401 0.2529846 165.68500972 1.66585289 168.94621277 4.64044189 C172.81160381 9.60468992 173.72758006 12.85843848 173.30168152 19.14044189 C171.40840656 24.39953899 168.70384937 26.93052784 164.30168152 30.14044189 C160.86896426 31.28468098 158.22524102 31.27211265 154.60336304 31.28088379 C153.91899636 31.28385491 153.23462968 31.28682603 152.52952462 31.28988719 C150.23115249 31.29857437 147.93283245 31.30008245 145.63444519 31.30157471 C143.98858529 31.30620287 142.34272647 31.31122753 140.6968689 31.31661987 C136.2215802 31.32974607 131.74630651 31.33618926 127.27100158 31.34063053 C124.47536692 31.3435609 121.67973637 31.34766564 118.88410378 31.3521347 C110.13823057 31.36581022 101.39236675 31.37547661 92.6464836 31.3793366 C82.54875421 31.38381763 72.45116017 31.40136737 62.35347193 31.43033719 C54.54955778 31.45194953 46.74568172 31.46204064 38.94173795 31.46337771 C34.28019943 31.46442606 29.61878814 31.47034024 24.95728111 31.48819733 C20.57174971 31.50467026 16.18644127 31.50683732 11.80088997 31.49805832 C10.19245685 31.49728753 8.58401178 31.50163625 6.97560883 31.51151657 C4.77712425 31.52422826 2.57943027 31.51836417 0.38095093 31.50793457 C-1.46324291 31.51013441 -1.46324291 31.51013441 -3.34469318 31.51237869 C-7.71307706 31.02789919 -11.08164668 29.6150309 -14.34284973 26.64044189 C-18.20824077 21.67619387 -19.12421702 18.42244531 -18.69831848 12.14044189 C-16.80504353 6.88134479 -14.10048633 4.35035595 -9.69831848 1.14044189 C-6.26560122 -0.00379719 -3.62187798 0.00877114 0 0 Z " fill="#101229" transform="translate(178.6983184814453,368.85955810546875)"/>
<path d="M0 0 C0.81973801 -0.00014603 1.63947601 -0.00029205 2.48405457 -0.0004425 C5.19488161 0.00025443 7.90564003 0.00803661 10.61645508 0.01586914 C12.49546776 0.0177341 14.37448092 0.01915763 16.25349426 0.02015686 C21.20023947 0.02397592 26.14695535 0.03380101 31.09368896 0.04486084 C36.14098717 0.05508809 41.18829012 0.0596573 46.2355957 0.06469727 C56.13990754 0.0754238 66.04418991 0.09301568 75.94848633 0.11352539 C75.94848633 10.34352539 75.94848633 20.57352539 75.94848633 31.11352539 C65.09987835 31.18134223 54.2514115 31.23636527 43.40263939 31.26896191 C38.36494436 31.28460781 33.32740206 31.30582657 28.28979492 31.33984375 C23.42686082 31.37247537 18.56407351 31.3903865 13.70103836 31.39815712 C11.84711014 31.40369379 9.99318981 31.41450558 8.13932419 31.43071556 C5.53956587 31.4525404 2.94041159 31.45549021 0.34057617 31.45410156 C-0.42331421 31.46488739 -1.18720459 31.47567322 -1.97424316 31.48678589 C-7.4490927 31.45520956 -11.6005804 30.34905598 -15.69604492 26.61352539 C-19.56143596 21.64927736 -20.47741221 18.3955288 -20.05151367 12.11352539 C-18.15823872 6.85442829 -15.45368152 4.32343945 -11.05151367 1.11352539 C-7.3265296 -0.12813597 -3.87848402 -0.01800006 0 0 Z " fill="#282339" transform="translate(180.051513671875,368.886474609375)"/>
<path d="M0 0 C1.91943359 1.34326172 1.91943359 1.34326172 3.7734375 3.0546875 C4.46179688 3.68600586 5.15015625 4.31732422 5.859375 4.96777344 C6.56578125 5.6384082 7.2721875 6.30904297 8 7 C8.69609375 7.65774414 9.3921875 8.31548828 10.109375 8.99316406 C12.21961698 11.01613303 14.30018474 13.06575559 16.375 15.125 C17.44041016 16.15947266 17.44041016 16.15947266 18.52734375 17.21484375 C19.54634766 18.22611328 19.54634766 18.22611328 20.5859375 19.2578125 C21.1948584 19.8573877 21.8037793 20.45696289 22.43115234 21.07470703 C25.55346784 24.90641882 26.51891704 28.94662005 26.37890625 33.875 C25.44894828 39.09043439 22.48199749 42.89711814 18.3125 46 C12.7754113 47.67157395 7.52843618 48.3446019 2.296875 45.5625 C-2.5070602 42.1048661 -6.58589181 37.74245335 -10.75 33.5625 C-12.04357422 32.2930957 -12.04357422 32.2930957 -13.36328125 30.99804688 C-14.18699219 30.17498047 -15.01070313 29.35191406 -15.859375 28.50390625 C-16.60670898 27.75955322 -17.35404297 27.0152002 -18.12402344 26.24829102 C-21.74738118 21.90582597 -22.45338362 17.70829594 -22.31640625 12.2109375 C-21.64606285 7.52680957 -18.847982 4.78438335 -15.5 1.6875 C-10.57696233 -1.63555043 -5.61268171 -1.54905143 0 0 Z " fill="#FFD00D" transform="translate(416,324)"/>
<path d="M0 0 C4.12683729 2.54019341 7.18655115 5.45782387 9 10 C9.30078125 12.1484375 9.30078125 12.1484375 9.3125 14.375 C9.32925781 15.10460937 9.34601563 15.83421875 9.36328125 16.5859375 C8.52599938 22.1498106 5.3551066 26.02270096 1.47265625 29.890625 C0.59802734 30.76460938 -0.27660156 31.63859375 -1.17773438 32.5390625 C-2.08845703 33.43367188 -2.99917969 34.32828125 -3.9375 35.25 C-4.84435547 36.16007812 -5.75121094 37.07015625 -6.68554688 38.0078125 C-16.03393437 47.2805324 -16.03393437 47.2805324 -22.875 47.3125 C-27.33306045 47.18811946 -30.33262433 46.7292098 -34 44 C-37.16435781 40.34881791 -39.29312641 36.77414267 -39.5 31.875 C-38.39503621 23.31153061 -33.01832649 18.51913512 -27.13110352 12.68505859 C-25.68934122 11.25183033 -24.2672733 9.80088231 -22.84570312 8.34765625 C-21.93111328 7.43371094 -21.01652344 6.51976562 -20.07421875 5.578125 C-19.24494873 4.74700195 -18.41567871 3.91587891 -17.5612793 3.05957031 C-12.21169164 -1.24212843 -6.44943025 -1.93706846 0 0 Z " fill="#FFDA13" transform="translate(109,324)"/>
<path d="M0 0 C2.20794073 0.00315941 4.41453912 -0.0203228 6.62231445 -0.0456543 C8.0383284 -0.04792777 9.45434592 -0.04863056 10.87036133 -0.04760742 C12.1477417 -0.05058838 13.42512207 -0.05356934 14.74121094 -0.05664062 C19.89058523 0.48504357 23.13159019 2.04253808 26.59301758 5.87817383 C30.022415 10.83174788 29.89015819 15.40299506 29.28051758 21.31567383 C27.27812108 25.32046683 25.1005288 27.97437663 21.28051758 30.31567383 C15.98147862 32.08202015 10.26143153 31.54128015 4.71191406 31.5559082 C2.48635196 31.56559404 0.26172166 31.59661915 -1.96362305 31.62817383 C-3.3887478 31.63470655 -4.81387913 31.63995596 -6.23901367 31.64379883 C-7.52912354 31.65314453 -8.8192334 31.66249023 -10.1484375 31.67211914 C-15.17899407 31.16999207 -18.45376515 29.61654992 -21.96948242 26.00317383 C-25.10004825 21.19551916 -26.32387223 17.12682968 -25.39135742 11.34301758 C-24.15355035 7.60800671 -21.73799477 4.78657996 -18.71948242 2.31567383 C-12.79650758 -0.6287068 -6.450919 -0.01934631 0 0 Z " fill="#FFD20D" transform="translate(482.719482421875,169.684326171875)"/>
<path d="M0 0 C2.22556211 -0.00968583 4.4501924 -0.04071094 6.67553711 -0.07226562 C8.10066186 -0.07879834 9.52579319 -0.08404776 10.95092773 -0.08789062 C12.2410376 -0.09723633 13.53114746 -0.10658203 14.86035156 -0.11621094 C20.22129326 0.41889366 23.38524538 2.24057888 27.24389648 5.92773438 C30.23803682 10.46171831 31.05948811 14.00406707 30.02124023 19.35351562 C28.37654467 24.5830566 25.91237147 27.15956407 21.43139648 30.24023438 C16.14538164 32.00223932 10.45329246 31.50552783 4.91772461 31.53540039 C3.4339035 31.54690162 1.95012317 31.56732437 0.46655273 31.59692383 C-1.68607472 31.63985167 -3.83747476 31.65580389 -5.99047852 31.66601562 C-7.91778809 31.6878894 -7.91778809 31.6878894 -9.8840332 31.71020508 C-15.45997062 30.99898857 -19.09537961 28.78900822 -23.00610352 24.67773438 C-25.21993163 19.80731252 -25.35220487 15.50603549 -24.56860352 10.24023438 C-19.14473861 -0.60749544 -10.80055192 0.02846933 0 0 Z " fill="#FFDB12" transform="translate(24.568603515625,169.759765625)"/>
<path d="M0 0 C4.004793 2.0023965 6.6587028 4.17998877 9 8 C10.63425951 12.90277852 10.82139245 17.1342795 8.75146484 21.8359375 C5.84185599 27.09221443 1.59265784 30.96066003 -2.625 35.1875 C-3.48996094 36.08919922 -4.35492188 36.99089844 -5.24609375 37.91992188 C-10.26317485 42.97085135 -14.73020548 47.05214929 -22 48 C-28.02291599 47.57639 -31.82535523 45.27404108 -36 41 C-38.3628252 37.02615761 -38.76172239 32.52938154 -38 28 C-36.06765645 23.59000997 -33.87486535 20.49885463 -30.47265625 17.109375 C-29.59802734 16.23539063 -28.72339844 15.36140625 -27.82226562 14.4609375 C-26.91154297 13.56632813 -26.00082031 12.67171875 -25.0625 11.75 C-23.7022168 10.38488281 -23.7022168 10.38488281 -22.31445312 8.9921875 C-14.92632404 1.66385931 -10.6421768 -1.26472246 0 0 Z " fill="#FFD00D" transform="translate(432,0)"/>
<path d="M0 0 C0.93328125 -0.03738281 1.8665625 -0.07476563 2.828125 -0.11328125 C10.64922502 1.0264245 16.19814069 8.42796619 21.5 13.75 C22.36238281 14.59626953 23.22476563 15.44253906 24.11328125 16.31445312 C24.93699219 17.13751953 25.76070312 17.96058594 26.609375 18.80859375 C27.35670898 19.55294678 28.10404297 20.2972998 28.87402344 21.06420898 C32.30334073 25.17412347 33.16102026 28.98035877 33 34.32421875 C32.4542611 38.66454842 30.5535635 41.48597754 27.5625 44.5625 C23.4456577 47.12409077 19.67266266 48.65833711 14.75073242 48.07592773 C7.62898246 46.09325792 3.24378094 41.62902492 -1.79125977 36.38867188 C-3.19340363 34.93136411 -4.61849545 33.4999113 -6.04882812 32.0703125 C-14.9582373 22.98871002 -14.9582373 22.98871002 -15.5625 15.375 C-15.44249212 11.39223842 -14.46924002 8.67962279 -12.25 5.3125 C-8.08838627 1.55689736 -5.56167876 0.14436051 0 0 Z " fill="#FFDA13" transform="translate(85.25,-0.3125)"/>
<path d="M0 0 C9.9 0 19.8 0 30 0 C30 9.35135135 30 9.35135135 26 14 C20.58319537 17.90903427 15.46467319 17.78837478 9 17 C4.54139258 14.88802807 1.87845467 12.59177808 0 8 C0 5.36 0 2.72 0 0 Z " fill="#10122A" transform="translate(241,495)"/>
<path d="M0 0 C3.0916909 2.52956528 3.90931332 5.22454612 5 9 C4.01 8.67 3.02 8.34 2 8 C1.26953125 6.15234375 1.26953125 6.15234375 0.8125 3.9375 C0.65394531 3.20402344 0.49539063 2.47054687 0.33203125 1.71484375 C0.22246094 1.14894531 0.11289062 0.58304687 0 0 Z " fill="#FFE25F" transform="translate(402,103)"/>
</svg>
