<?xml version="1.0" encoding="UTF-8"?>
<svg version="1.1" xmlns="http://www.w3.org/2000/svg" width="512" height="512">
<path d="M0 0 C1.4215464 -0.00639748 1.4215464 -0.00639748 2.87181091 -0.01292419 C4.42879951 -0.01224442 4.42879951 -0.01224442 6.01724243 -0.0115509 C7.11180252 -0.01490952 8.20636261 -0.01826813 9.33409119 -0.02172852 C12.96237311 -0.03124886 16.59060894 -0.03318218 20.21890259 -0.03425598 C22.73612487 -0.03746783 25.25334696 -0.04083185 27.77056885 -0.04434204 C33.0515269 -0.05033604 38.33247321 -0.05222442 43.61343384 -0.05158997 C49.71358574 -0.05098937 55.81364915 -0.06153789 61.91377866 -0.07733363 C67.78546784 -0.09199509 73.65712203 -0.09557775 79.52882767 -0.09498024 C82.02551256 -0.09616169 84.52219807 -0.10059264 87.01887131 -0.10831261 C90.50928873 -0.11809447 93.99947769 -0.11524143 97.48989868 -0.10920715 C98.52384262 -0.11482666 99.55778656 -0.12044617 100.62306213 -0.12623596 C101.57639938 -0.12204147 102.52973663 -0.11784698 103.51196289 -0.11352539 C104.33675833 -0.11407016 105.16155376 -0.11461493 106.011343 -0.1151762 C109.46123429 0.24687132 112.43008713 1.06628937 114.77822876 3.69670105 C115.13634644 4.31786804 115.49446411 4.93903503 115.86343384 5.57902527 C116.48484253 6.65652039 116.48484253 6.65652039 117.11880493 7.75578308 C119.43689464 12.1161913 121.58987733 16.54225964 123.69546509 21.00871277 C124.45718018 22.61057434 124.45718018 22.61057434 125.23428345 24.24479675 C126.64881835 27.22422302 128.05838257 30.20589692 129.46524048 33.18894958 C130.41624502 35.20423673 131.3691122 37.21863445 132.32241821 39.23283386 C139.09142323 53.53749317 145.82776796 67.8545296 152.38296509 82.25871277 C155.59559143 89.3159383 158.90162399 96.30324253 162.40762329 103.21916199 C169.85292532 117.9218957 176.69387491 132.9267766 183.62246704 147.87736511 C191.99605176 165.9736849 191.99605176 165.9736849 200.75796509 183.88371277 C205.45942972 193.22282124 209.93117806 202.67106364 214.42172241 212.11296082 C215.49447385 214.3681297 216.56784971 216.62300083 217.64126587 218.87785339 C219.73665472 223.27989145 221.83087732 227.68248286 223.92434692 232.08543396 C224.76197202 233.84703683 225.59977692 235.60855422 226.43777466 237.36997986 C229.09397409 242.95421976 231.74214631 248.54218401 234.38296509 254.13371277 C234.70666077 254.81703674 235.03035645 255.50036072 235.36386108 256.20439148 C236.23244445 258.04085756 237.09503155 259.88015628 237.95718384 261.71965027 C238.43115601 262.72818054 238.90512817 263.73671082 239.39346313 264.77580261 C240.38296509 267.13371277 240.38296509 267.13371277 240.38296509 269.13371277 C241.45780151 269.1535321 242.53263794 269.17335144 243.64004517 269.19377136 C247.62661223 269.26982535 251.61281418 269.35854286 255.59902954 269.45109558 C257.32454217 269.48938622 259.05013465 269.52423898 260.77578735 269.55558777 C263.25581404 269.60123681 265.735291 269.65923057 268.21499634 269.71965027 C268.98696854 269.73120148 269.75894073 269.74275269 270.55430603 269.75465393 C274.33543183 269.85892549 276.16315344 269.98717167 279.38296509 272.13371277 C280.57818856 275.71938319 280.55403048 279.00496917 280.57583618 282.73869324 C280.58401367 283.5113855 280.59219116 284.28407776 280.60061646 285.08018494 C280.62542839 287.6370822 280.64197387 290.19392419 280.65640259 292.75090027 C280.66172626 293.62451328 280.66704994 294.4981263 280.67253494 295.39821243 C280.6992457 300.02048617 280.71862896 304.64273306 280.73306274 309.26506042 C280.74641449 313.0908238 280.77429229 316.91605538 280.81509399 320.74162292 C280.8643684 325.36168635 280.88917696 329.98126658 280.89628983 334.60158157 C280.90300753 336.36146952 280.91824315 338.12134647 280.94218063 339.88108444 C280.97378519 342.34461031 280.97387708 344.80626804 280.96646118 347.26994324 C280.98286652 347.99531281 280.99927185 348.72068237 281.01617432 349.46803284 C280.9715634 353.0915628 280.43725976 355.05224085 278.4163208 358.08476257 C274.27152914 360.88445786 271.16478694 360.83880456 266.26577759 360.78068542 C264.90147614 360.79382782 264.90147614 360.79382782 263.50961304 360.80723572 C260.50857583 360.82920964 257.50901679 360.81468393 254.50796509 360.79777527 C252.41958331 360.80114397 250.33120344 360.80599705 248.24282837 360.81227112 C243.86812658 360.81963974 239.49393558 360.80893695 235.11929321 360.78556824 C229.51338036 360.75708084 223.90866436 360.77348481 218.30279541 360.80343056 C213.99102775 360.82150358 209.67954356 360.8157454 205.36776733 360.8027916 C203.30091205 360.79945761 201.23403098 360.80354436 199.16720581 360.81518936 C196.27749525 360.82789786 193.38971914 360.80852079 190.50015259 360.78068542 C189.64701477 360.79080658 188.79387695 360.80092773 187.91488647 360.81135559 C183.62728237 360.73489071 181.9065877 360.54706623 178.4352417 357.80674744 C176.01479702 354.65418384 174.23501296 351.38171013 172.56265259 347.79777527 C172.22256165 347.09110214 171.8824707 346.38442902 171.53207397 345.65634155 C170.43069358 343.36176773 169.34427841 341.06045263 168.25796509 338.75871277 C167.48987294 337.15108041 166.72082171 335.54390594 165.95083618 333.93717957 C164.07640731 330.0206942 162.21308297 326.09905005 160.35293579 322.17576599 C159.07457382 319.48446493 157.78472778 316.79877162 156.49234009 314.11418152 C152.27750478 305.35364797 148.11399837 296.56868543 143.94546509 287.78605652 C142.71783899 285.19964411 141.49020712 282.61323444 140.26254272 280.02684021 C139.42724983 278.26705626 138.59200393 276.50725001 137.75680542 274.74742126 C132.6596288 264.00868028 127.54656919 253.27819064 122.38296509 242.57121277 C121.86637329 241.49992126 121.34978149 240.42862976 120.8175354 239.32487488 C119.82027932 237.25750602 118.82288816 235.19020233 117.8253479 233.12297058 C111.66876802 220.36380266 105.56465387 207.590612 99.69546509 194.69621277 C96.48586808 187.65024002 93.21391682 180.65861313 89.71109009 173.7540741 C79.29414617 153.17494848 69.48016519 132.28298675 59.85513306 111.32414246 C58.80551599 109.04944994 57.74793241 106.77979247 56.68032837 104.51359558 C56.12973755 103.33893738 55.57914673 102.16427917 55.01187134 100.95402527 C54.508573 99.88684265 54.00527466 98.81966003 53.48672485 97.72013855 C52.38296509 95.13371277 52.38296509 95.13371277 52.38296509 93.13371277 C51.6799678 93.14481583 50.97697052 93.15591888 50.25267029 93.1673584 C43.61737015 93.26767452 36.98228258 93.34373481 30.34639454 93.39277363 C26.93499635 93.41883337 23.52422635 93.45416167 20.1131897 93.51091003 C16.18886924 93.5757868 12.26480035 93.59992347 8.33999634 93.62199402 C7.11899734 93.64780045 5.89799835 93.67360687 4.63999939 93.70019531 C-4.79826707 93.70331978 -4.79826707 93.70331978 -7.86434937 90.79069519 C-10.76809027 86.38877121 -10.77037363 82.60956883 -10.77816772 77.51286316 C-10.78313263 76.73856461 -10.78809753 75.96426605 -10.79321289 75.16650391 C-10.80781961 72.60478325 -10.81463331 70.04312448 -10.82015991 67.48136902 C-10.82591171 65.70161945 -10.83166944 63.9218699 -10.83743286 62.14212036 C-10.84793799 58.41055513 -10.85378414 54.67901141 -10.85726929 50.94743347 C-10.86275912 46.16446997 -10.88679955 41.38179041 -10.91524124 36.59891605 C-10.93385633 32.92292445 -10.93907257 29.24700148 -10.94060516 25.57096672 C-10.94363377 23.807499 -10.95166929 22.04403255 -10.96479034 20.28061104 C-10.9818307 17.81483894 -10.97997597 15.34976388 -10.97348022 12.88395691 C-10.98269501 12.15499207 -10.99190979 11.42602722 -11.00140381 10.67497253 C-10.9758952 7.58647101 -10.78599308 5.44027924 -9.28225708 2.71182251 C-6.45697587 0.03433966 -3.70460057 0.00753401 0 0 Z " fill="#FEA610" transform="translate(149.61703491210938,75.86628723144531)"/>
<path d="M0 0 C7.03046931 2.92936221 10.06314338 13.26771841 13.125 19.8125 C14.09236561 21.85680979 15.05981599 23.90107945 16.02734375 25.9453125 C16.51831543 26.98719727 17.00928711 28.02908203 17.51513672 29.10253906 C19.89074457 34.13810901 22.28730508 39.16361192 24.6875 44.1875 C25.14995117 45.15598877 25.61240234 46.12447754 26.08886719 47.12231445 C28.92538335 53.04792021 31.82028262 58.93901516 34.78613281 64.80078125 C37.02323584 69.24312623 39.1956257 73.71513399 41.34765625 78.19921875 C41.64240845 78.81324554 41.93716064 79.42727234 42.24084473 80.05990601 C43.72964923 83.16360517 45.21498565 86.26892356 46.69677734 89.37597656 C47.23898926 90.50874023 47.78120117 91.64150391 48.33984375 92.80859375 C48.82831787 93.83267334 49.31679199 94.85675293 49.82006836 95.91186523 C50.79753971 98.15177493 50.79753971 98.15177493 52 99.25 C53.16265464 108.2245408 49.30669459 115.05052002 45.4375 122.875 C44.82064187 124.15156039 44.20539702 125.42890166 43.59179688 126.70703125 C42.35736606 129.27374147 41.11479574 131.83626852 39.86645508 134.39624023 C34.19422565 146.06295337 28.84874233 157.8903305 23.45117188 169.68554688 C20.57411521 175.94248352 17.58586644 182.12620562 14.48413086 188.2746582 C11.51115498 194.2347926 8.70431579 200.27648905 5.88085938 206.30859375 C5.42130859 207.27925781 4.96175781 208.24992188 4.48828125 209.25 C4.08134033 210.11625 3.67439941 210.9825 3.25512695 211.875 C0.07557293 217.89147569 0.07557293 217.89147569 -4 219.25 C-5.33637402 219.34178699 -6.67682348 219.3805392 -8.01634216 219.38371277 C-9.23811661 219.39011024 -9.23811661 219.39011024 -10.48457336 219.39663696 C-11.81950081 219.39595718 -11.81950081 219.39595718 -13.18139648 219.39526367 C-14.59156036 219.40030159 -14.59156036 219.40030159 -16.0302124 219.40544128 C-19.14385289 219.41495522 -22.25743963 219.41689456 -25.37109375 219.41796875 C-27.53198774 219.42118081 -29.6928815 219.42454485 -31.85377502 219.42805481 C-36.38567611 219.43404704 -40.91755812 219.43589459 -45.44946289 219.43530273 C-51.26143306 219.43520106 -57.07328121 219.44885846 -62.88522243 219.46607494 C-67.34870467 219.47718335 -71.81215729 219.47922231 -76.27565193 219.47869301 C-78.41869592 219.47987468 -80.56174063 219.48430687 -82.70477104 219.49202538 C-85.69967114 219.50180262 -88.69430476 219.49895623 -91.68920898 219.49291992 C-93.02110008 219.50134918 -93.02110008 219.50134918 -94.37989807 219.50994873 C-95.19723419 219.50575424 -96.01457031 219.50155975 -96.85667419 219.49723816 C-97.56440192 219.49778293 -98.27212965 219.49832769 -99.00130367 219.49888897 C-101.37573431 219.20321144 -102.96761208 218.50033462 -105 217.25 C-106.44137649 214.36724702 -106.27919526 212.47377462 -106 209.25 C-105.00706668 206.42238117 -103.66605835 203.79534771 -102.3125 201.125 C-101.47359731 199.41487734 -100.63646335 197.70388627 -99.80078125 195.9921875 C-99.34654785 195.06760742 -98.89231445 194.14302734 -98.42431641 193.19042969 C-96.41915013 189.05086461 -94.50268494 184.8722782 -92.58227539 180.69287109 C-86.81836753 168.15119102 -80.859975 155.71358462 -74.80599976 143.30975342 C-68.89740997 131.20104753 -63.08076036 119.05115045 -57.3125 106.875 C-51.65780217 94.94237995 -45.98962771 83.01704302 -40.25 71.125 C-39.71415283 70.01334473 -39.17830566 68.90168945 -38.6262207 67.75634766 C-35.94024812 62.2014124 -33.21666328 56.66711463 -30.44921875 51.15234375 C-27.420398 45.11140378 -24.46830496 39.03839751 -21.5625 32.9375 C-21.09440918 31.96127686 -20.62631836 30.98505371 -20.14404297 29.97924805 C-17.94543604 25.38410699 -15.77464486 20.78151243 -13.69140625 16.1328125 C-13.33941162 15.35591064 -12.98741699 14.57900879 -12.62475586 13.77856445 C-11.98019777 12.34983338 -11.34606081 10.91633249 -10.72485352 9.47729492 C-8.41447333 4.38050709 -5.86679841 0.48889987 0 0 Z " fill="#FEA610" transform="translate(189,216.75)"/>
<path d="M0 0 C1.4215464 -0.00639748 1.4215464 -0.00639748 2.87181091 -0.01292419 C4.42879951 -0.01224442 4.42879951 -0.01224442 6.01724243 -0.0115509 C7.11180252 -0.01490952 8.20636261 -0.01826813 9.33409119 -0.02172852 C12.96237311 -0.03124886 16.59060894 -0.03318218 20.21890259 -0.03425598 C22.73612487 -0.03746783 25.25334696 -0.04083185 27.77056885 -0.04434204 C33.0515269 -0.05033604 38.33247321 -0.05222442 43.61343384 -0.05158997 C49.71358574 -0.05098937 55.81364915 -0.06153789 61.91377866 -0.07733363 C67.78546784 -0.09199509 73.65712203 -0.09557775 79.52882767 -0.09498024 C82.02551256 -0.09616169 84.52219807 -0.10059264 87.01887131 -0.10831261 C90.50928873 -0.11809447 93.99947769 -0.11524143 97.48989868 -0.10920715 C98.52384262 -0.11482666 99.55778656 -0.12044617 100.62306213 -0.12623596 C101.57639938 -0.12204147 102.52973663 -0.11784698 103.51196289 -0.11352539 C104.33675833 -0.11407016 105.16155376 -0.11461493 106.011343 -0.1151762 C109.46123429 0.24687132 112.43008713 1.06628937 114.77822876 3.69670105 C115.13634644 4.31786804 115.49446411 4.93903503 115.86343384 5.57902527 C116.48484253 6.65652039 116.48484253 6.65652039 117.11880493 7.75578308 C119.43689464 12.1161913 121.58987733 16.54225964 123.69546509 21.00871277 C124.45718018 22.61057434 124.45718018 22.61057434 125.23428345 24.24479675 C126.64881835 27.22422302 128.05838257 30.20589692 129.46524048 33.18894958 C130.41624502 35.20423673 131.3691122 37.21863445 132.32241821 39.23283386 C139.09142323 53.53749317 145.82776796 67.8545296 152.38296509 82.25871277 C155.59559143 89.3159383 158.90162399 96.30324253 162.40762329 103.21916199 C169.85292532 117.9218957 176.69387491 132.9267766 183.62246704 147.87736511 C191.99605176 165.9736849 191.99605176 165.9736849 200.75796509 183.88371277 C205.45942972 193.22282124 209.93117806 202.67106364 214.42172241 212.11296082 C215.49447385 214.3681297 216.56784971 216.62300083 217.64126587 218.87785339 C219.73665472 223.27989145 221.83087732 227.68248286 223.92434692 232.08543396 C224.76197202 233.84703683 225.59977692 235.60855422 226.43777466 237.36997986 C229.09397409 242.95421976 231.74214631 248.54218401 234.38296509 254.13371277 C234.70666077 254.81703674 235.03035645 255.50036072 235.36386108 256.20439148 C236.23244445 258.04085756 237.09503155 259.88015628 237.95718384 261.71965027 C238.43115601 262.72818054 238.90512817 263.73671082 239.39346313 264.77580261 C240.38296509 267.13371277 240.38296509 267.13371277 240.38296509 269.13371277 C241.45780151 269.1535321 242.53263794 269.17335144 243.64004517 269.19377136 C247.62661223 269.26982535 251.61281418 269.35854286 255.59902954 269.45109558 C257.32454217 269.48938622 259.05013465 269.52423898 260.77578735 269.55558777 C263.25581404 269.60123681 265.735291 269.65923057 268.21499634 269.71965027 C268.98696854 269.73120148 269.75894073 269.74275269 270.55430603 269.75465393 C274.33543183 269.85892549 276.16315344 269.98717167 279.38296509 272.13371277 C280.57818856 275.71938319 280.55403048 279.00496917 280.57583618 282.73869324 C280.58401367 283.5113855 280.59219116 284.28407776 280.60061646 285.08018494 C280.62542839 287.6370822 280.64197387 290.19392419 280.65640259 292.75090027 C280.66172626 293.62451328 280.66704994 294.4981263 280.67253494 295.39821243 C280.6992457 300.02048617 280.71862896 304.64273306 280.73306274 309.26506042 C280.74641449 313.0908238 280.77429229 316.91605538 280.81509399 320.74162292 C280.8643684 325.36168635 280.88917696 329.98126658 280.89628983 334.60158157 C280.90300753 336.36146952 280.91824315 338.12134647 280.94218063 339.88108444 C280.97378519 342.34461031 280.97387708 344.80626804 280.96646118 347.26994324 C280.98286652 347.99531281 280.99927185 348.72068237 281.01617432 349.46803284 C280.9715634 353.0915628 280.43725976 355.05224085 278.4163208 358.08476257 C274.27152914 360.88445786 271.16478694 360.83880456 266.26577759 360.78068542 C264.90147614 360.79382782 264.90147614 360.79382782 263.50961304 360.80723572 C260.50857583 360.82920964 257.50901679 360.81468393 254.50796509 360.79777527 C252.41958331 360.80114397 250.33120344 360.80599705 248.24282837 360.81227112 C243.86812658 360.81963974 239.49393558 360.80893695 235.11929321 360.78556824 C229.51338036 360.75708084 223.90866436 360.77348481 218.30279541 360.80343056 C213.99102775 360.82150358 209.67954356 360.8157454 205.36776733 360.8027916 C203.30091205 360.79945761 201.23403098 360.80354436 199.16720581 360.81518936 C196.27749525 360.82789786 193.38971914 360.80852079 190.50015259 360.78068542 C189.64701477 360.79080658 188.79387695 360.80092773 187.91488647 360.81135559 C183.62728237 360.73489071 181.9065877 360.54706623 178.4352417 357.80674744 C176.01479702 354.65418384 174.23501296 351.38171013 172.56265259 347.79777527 C172.22256165 347.09110214 171.8824707 346.38442902 171.53207397 345.65634155 C170.43069358 343.36176773 169.34427841 341.06045263 168.25796509 338.75871277 C167.48987294 337.15108041 166.72082171 335.54390594 165.95083618 333.93717957 C164.07640731 330.0206942 162.21308297 326.09905005 160.35293579 322.17576599 C159.07457382 319.48446493 157.78472778 316.79877162 156.49234009 314.11418152 C152.27750478 305.35364797 148.11399837 296.56868543 143.94546509 287.78605652 C142.71783899 285.19964411 141.49020712 282.61323444 140.26254272 280.02684021 C139.42724983 278.26705626 138.59200393 276.50725001 137.75680542 274.74742126 C132.6596288 264.00868028 127.54656919 253.27819064 122.38296509 242.57121277 C121.86637329 241.49992126 121.34978149 240.42862976 120.8175354 239.32487488 C119.82027932 237.25750602 118.82288816 235.19020233 117.8253479 233.12297058 C111.66876802 220.36380266 105.56465387 207.590612 99.69546509 194.69621277 C96.48586808 187.65024002 93.21391682 180.65861313 89.71109009 173.7540741 C79.29414617 153.17494848 69.48016519 132.28298675 59.85513306 111.32414246 C58.80551599 109.04944994 57.74793241 106.77979247 56.68032837 104.51359558 C56.12973755 103.33893738 55.57914673 102.16427917 55.01187134 100.95402527 C54.508573 99.88684265 54.00527466 98.81966003 53.48672485 97.72013855 C52.38296509 95.13371277 52.38296509 95.13371277 52.38296509 93.13371277 C51.6799678 93.14481583 50.97697052 93.15591888 50.25267029 93.1673584 C43.61737015 93.26767452 36.98228258 93.34373481 30.34639454 93.39277363 C26.93499635 93.41883337 23.52422635 93.45416167 20.1131897 93.51091003 C16.18886924 93.5757868 12.26480035 93.59992347 8.33999634 93.62199402 C7.11899734 93.64780045 5.89799835 93.67360687 4.63999939 93.70019531 C-4.79826707 93.70331978 -4.79826707 93.70331978 -7.86434937 90.79069519 C-10.76809027 86.38877121 -10.77037363 82.60956883 -10.77816772 77.51286316 C-10.78313263 76.73856461 -10.78809753 75.96426605 -10.79321289 75.16650391 C-10.80781961 72.60478325 -10.81463331 70.04312448 -10.82015991 67.48136902 C-10.82591171 65.70161945 -10.83166944 63.9218699 -10.83743286 62.14212036 C-10.84793799 58.41055513 -10.85378414 54.67901141 -10.85726929 50.94743347 C-10.86275912 46.16446997 -10.88679955 41.38179041 -10.91524124 36.59891605 C-10.93385633 32.92292445 -10.93907257 29.24700148 -10.94060516 25.57096672 C-10.94363377 23.807499 -10.95166929 22.04403255 -10.96479034 20.28061104 C-10.9818307 17.81483894 -10.97997597 15.34976388 -10.97348022 12.88395691 C-10.98269501 12.15499207 -10.99190979 11.42602722 -11.00140381 10.67497253 C-10.9758952 7.58647101 -10.78599308 5.44027924 -9.28225708 2.71182251 C-6.45697587 0.03433966 -3.70460057 0.00753401 0 0 Z M6.38296509 17.13371277 C6.38296509 36.93371277 6.38296509 56.73371277 6.38296509 77.13371277 C22.61268585 77.26457748 22.61268585 77.26457748 38.84268188 77.34147644 C40.88087547 77.36792598 42.91904651 77.39620391 44.95718384 77.42668152 C46.01119385 77.42269348 47.06520386 77.41870544 48.15115356 77.41459656 C55.60309201 77.55928577 55.60309201 77.55928577 59.44033813 80.38566589 C61.16933067 82.83150477 62.63054735 85.09774362 63.89077759 87.80949402 C64.31350952 88.70587585 64.73624146 89.60225769 65.17178345 90.52580261 C65.61272339 91.48953796 66.05366333 92.45327332 66.50796509 93.44621277 C66.98822144 94.47182312 67.46847778 95.49743347 67.96328735 96.55412292 C70.28843516 101.53576825 72.56970103 106.5370323 74.83999634 111.54386902 C75.66654577 113.36560771 76.49337555 115.18721923 77.32046509 117.00871277 C77.75052856 117.95722107 78.18059204 118.90572937 78.62368774 119.88298035 C83.77111417 131.13841313 89.2594682 142.22746632 94.70968628 153.33839417 C100.28605388 164.71122535 105.7622527 176.10852408 110.97427368 187.65397644 C113.87050896 194.0637064 116.92474723 200.36689191 120.14077759 206.62199402 C121.38296509 209.13371277 121.38296509 209.13371277 122.38296509 212.13371277 C123.04296509 212.13371277 123.70296509 212.13371277 124.38296509 212.13371277 C124.49817505 212.84479187 124.61338501 213.55587097 124.73208618 214.28849792 C125.42762895 217.32895383 126.47663687 219.83280816 127.79702759 222.65715027 C128.55620483 224.28862 128.55620483 224.28862 129.33071899 225.95304871 C129.88421021 227.12641785 130.43770142 228.29978699 131.00796509 229.50871277 C131.58943542 230.75110747 132.17064759 231.99362302 132.75161743 233.23625183 C137.39926891 243.15073749 142.17206693 253.0043094 146.96484375 262.84925842 C151.19545439 271.54094992 155.32467609 280.26821043 159.32046509 289.07121277 C162.47955097 296.03018544 165.7086659 302.92813293 169.17007446 309.74162292 C172.3341371 315.98436362 175.3839991 322.28158431 178.42330933 328.58570862 C179.0180883 329.81914967 179.61358008 331.05224727 180.20980835 332.2849884 C181.04939806 334.02139517 181.88615694 335.75916982 182.72280884 337.49699402 C183.21128296 338.51059998 183.69975708 339.52420593 184.20303345 340.56852722 C185.38296509 343.13371277 185.38296509 343.13371277 186.38296509 346.13371277 C212.78296509 346.13371277 239.18296509 346.13371277 266.38296509 346.13371277 C266.38296509 325.34371277 266.38296509 304.55371277 266.38296509 283.13371277 C263.44946724 281.66696384 260.81892922 282.00561259 257.54702759 281.99308777 C256.15899034 281.97476016 254.77096904 281.95518988 253.38296509 281.93449402 C251.19486577 281.90552233 249.00779214 281.88371273 246.81948853 281.88322449 C244.70690959 281.87988633 242.59669528 281.84532569 240.48452759 281.80558777 C238.58694702 281.79156921 238.58694702 281.79156921 236.65103149 281.77726746 C233.38296509 281.13371277 233.38296509 281.13371277 231.00064087 278.72380066 C229.55539058 276.40978612 228.52593316 274.38621801 227.63296509 271.82121277 C225.9877181 267.49062012 224.05474528 263.37795008 221.94546509 259.25871277 C218.11458688 251.73938882 214.54565962 244.10709201 211.00796509 236.44621277 C206.99512023 227.76587139 202.97785102 219.08826266 198.88296509 210.44621277 C198.49834106 209.62870544 198.11371704 208.81119812 197.71743774 207.96891785 C195.88755477 204.11975701 193.97386246 200.37345576 191.85171509 196.67668152 C189.69442881 192.85584096 188.07967833 188.98171241 186.50454712 184.89299011 C184.22459043 179.28391948 181.47855903 173.88339 178.82046509 168.44621277 C177.88236298 166.51769114 176.94546523 164.5885874 176.00862122 162.65945435 C175.37849446 161.36211183 174.74797137 160.06496173 174.11705017 158.76800537 C171.19516708 152.75898285 168.3173388 146.72927938 165.44546509 140.69621277 C162.51178788 134.53580802 159.53701805 128.40391073 156.44546509 122.32121277 C154.60424934 118.67786368 152.90262385 115.07119282 151.44546509 111.25871277 C149.81710379 107.02360503 147.86995841 102.98987567 145.82046509 98.94621277 C137.665567 82.84863301 130.03271032 66.49959633 122.53042603 50.08927917 C119.60296469 43.70218227 116.5538714 37.40367706 113.38296509 31.13371277 C111.07296509 26.51371277 108.76296509 21.89371277 106.38296509 17.13371277 C73.38296509 17.13371277 40.38296509 17.13371277 6.38296509 17.13371277 Z " fill="#FEFBF6" transform="translate(149.61703491210938,75.86628723144531)"/>
<path d="M0 0 C7.03046931 2.92936221 10.06314338 13.26771841 13.125 19.8125 C14.09236561 21.85680979 15.05981599 23.90107945 16.02734375 25.9453125 C16.51831543 26.98719727 17.00928711 28.02908203 17.51513672 29.10253906 C19.89074457 34.13810901 22.28730508 39.16361192 24.6875 44.1875 C25.14995117 45.15598877 25.61240234 46.12447754 26.08886719 47.12231445 C28.92538335 53.04792021 31.82028262 58.93901516 34.78613281 64.80078125 C37.02323584 69.24312623 39.1956257 73.71513399 41.34765625 78.19921875 C41.64240845 78.81324554 41.93716064 79.42727234 42.24084473 80.05990601 C43.72964923 83.16360517 45.21498565 86.26892356 46.69677734 89.37597656 C47.23898926 90.50874023 47.78120117 91.64150391 48.33984375 92.80859375 C48.82831787 93.83267334 49.31679199 94.85675293 49.82006836 95.91186523 C50.79753971 98.15177493 50.79753971 98.15177493 52 99.25 C53.16265464 108.2245408 49.30669459 115.05052002 45.4375 122.875 C44.82064187 124.15156039 44.20539702 125.42890166 43.59179688 126.70703125 C42.35736606 129.27374147 41.11479574 131.83626852 39.86645508 134.39624023 C34.19422565 146.06295337 28.84874233 157.8903305 23.45117188 169.68554688 C20.57411521 175.94248352 17.58586644 182.12620562 14.48413086 188.2746582 C11.51115498 194.2347926 8.70431579 200.27648905 5.88085938 206.30859375 C5.42130859 207.27925781 4.96175781 208.24992188 4.48828125 209.25 C4.08134033 210.11625 3.67439941 210.9825 3.25512695 211.875 C0.07557293 217.89147569 0.07557293 217.89147569 -4 219.25 C-5.33637402 219.34178699 -6.67682348 219.3805392 -8.01634216 219.38371277 C-9.23811661 219.39011024 -9.23811661 219.39011024 -10.48457336 219.39663696 C-11.81950081 219.39595718 -11.81950081 219.39595718 -13.18139648 219.39526367 C-14.59156036 219.40030159 -14.59156036 219.40030159 -16.0302124 219.40544128 C-19.14385289 219.41495522 -22.25743963 219.41689456 -25.37109375 219.41796875 C-27.53198774 219.42118081 -29.6928815 219.42454485 -31.85377502 219.42805481 C-36.38567611 219.43404704 -40.91755812 219.43589459 -45.44946289 219.43530273 C-51.26143306 219.43520106 -57.07328121 219.44885846 -62.88522243 219.46607494 C-67.34870467 219.47718335 -71.81215729 219.47922231 -76.27565193 219.47869301 C-78.41869592 219.47987468 -80.56174063 219.48430687 -82.70477104 219.49202538 C-85.69967114 219.50180262 -88.69430476 219.49895623 -91.68920898 219.49291992 C-93.02110008 219.50134918 -93.02110008 219.50134918 -94.37989807 219.50994873 C-95.19723419 219.50575424 -96.01457031 219.50155975 -96.85667419 219.49723816 C-97.56440192 219.49778293 -98.27212965 219.49832769 -99.00130367 219.49888897 C-101.37573431 219.20321144 -102.96761208 218.50033462 -105 217.25 C-106.44137649 214.36724702 -106.27919526 212.47377462 -106 209.25 C-105.00706668 206.42238117 -103.66605835 203.79534771 -102.3125 201.125 C-101.47359731 199.41487734 -100.63646335 197.70388627 -99.80078125 195.9921875 C-99.34654785 195.06760742 -98.89231445 194.14302734 -98.42431641 193.19042969 C-96.41915013 189.05086461 -94.50268494 184.8722782 -92.58227539 180.69287109 C-86.81836753 168.15119102 -80.859975 155.71358462 -74.80599976 143.30975342 C-68.89740997 131.20104753 -63.08076036 119.05115045 -57.3125 106.875 C-51.65780217 94.94237995 -45.98962771 83.01704302 -40.25 71.125 C-39.71415283 70.01334473 -39.17830566 68.90168945 -38.6262207 67.75634766 C-35.94024812 62.2014124 -33.21666328 56.66711463 -30.44921875 51.15234375 C-27.420398 45.11140378 -24.46830496 39.03839751 -21.5625 32.9375 C-21.09440918 31.96127686 -20.62631836 30.98505371 -20.14404297 29.97924805 C-17.94543604 25.38410699 -15.77464486 20.78151243 -13.69140625 16.1328125 C-13.33941162 15.35591064 -12.98741699 14.57900879 -12.62475586 13.77856445 C-11.98019777 12.34983338 -11.34606081 10.91633249 -10.72485352 9.47729492 C-8.41447333 4.38050709 -5.86679841 0.48889987 0 0 Z M-3 24.25 C-3.70576172 25.87808594 -3.70576172 25.87808594 -4.42578125 27.5390625 C-5.05460219 28.98441212 -5.68351323 30.42972254 -6.3125 31.875 C-6.62123047 32.58785156 -6.92996094 33.30070312 -7.24804688 34.03515625 C-8.66089284 37.27726595 -10.10063956 40.44400945 -11.73046875 43.5859375 C-13.21509523 46.20952056 -13.21509523 46.20952056 -13 49.25 C-13.66 49.58 -14.32 49.91 -15 50.25 C-15.91637864 52.25898395 -16.82152537 54.2734676 -17.6875 56.3046875 C-19.21948086 59.74252551 -20.91686331 63.08529746 -22.625 66.4375 C-26.25993505 73.62466105 -29.62143251 80.91783854 -32.93164062 88.25927734 C-38.03456295 99.5710125 -43.27501487 110.8178791 -48.51953125 122.06445312 C-49.85582862 124.93978428 -51.18063803 127.81999466 -52.5 130.703125 C-53.20832023 132.23958937 -53.91665242 133.77604823 -54.625 135.3125 C-54.93131348 135.99030518 -55.23762695 136.66811035 -55.55322266 137.36645508 C-57.67594005 141.94360209 -57.67594005 141.94360209 -59.6484375 143.80859375 C-61.67801769 145.97308823 -61.52613503 148.35146827 -62 151.25 C-63.1229266 153.77588478 -64.27958754 156.18505143 -65.5625 158.625 C-66.29585415 160.05324105 -67.02891925 161.48163055 -67.76171875 162.91015625 C-68.13603027 163.63348145 -68.5103418 164.35680664 -68.89599609 165.10205078 C-69.93375509 167.12111396 -70.95063186 169.14874954 -71.95703125 171.18359375 C-72.43172852 172.14338135 -72.43172852 172.14338135 -72.91601562 173.12255859 C-73.23248047 173.76273926 -73.54894531 174.40291992 -73.875 175.0625 C-76.08685036 179.53667397 -78.37012873 183.95868761 -80.76171875 188.33984375 C-81.22658691 189.19795654 -81.69145508 190.05606934 -82.17041016 190.94018555 C-83.08281718 192.61794557 -84.00534235 194.29025131 -84.93896484 195.95629883 C-85.55892334 197.09941528 -85.55892334 197.09941528 -86.19140625 198.265625 C-86.75130249 199.27544434 -86.75130249 199.27544434 -87.32250977 200.30566406 C-88.15345191 202.69039316 -87.68704179 203.87033762 -87 206.25 C-77.14245794 206.18883825 -67.28518172 206.11176802 -57.42792797 206.01428509 C-52.85097698 205.96952361 -48.2741162 205.9302804 -43.69702148 205.90356445 C-39.28131581 205.87758887 -34.86595619 205.83722773 -30.45046425 205.78681374 C-28.76437999 205.770106 -27.07823583 205.7586161 -25.39208031 205.75238609 C-23.03339582 205.74278715 -20.6756045 205.71478016 -18.31713867 205.68237305 C-17.26733322 205.68452568 -17.26733322 205.68452568 -16.19631958 205.6867218 C-13.38016767 205.63185955 -11.46772492 205.5878973 -9.14485168 203.90979004 C-7.33084248 201.27986474 -5.96144036 198.45897168 -4.59375 195.58203125 C-4.11198303 194.58697067 -4.11198303 194.58697067 -3.6204834 193.57180786 C-2.57388534 191.40507297 -1.53674172 189.233966 -0.5 187.0625 C0.22235187 185.56113281 0.94501035 184.05991311 1.66796875 182.55883789 C6.33903436 172.8364169 10.882423 163.06096083 15.33789062 153.23779297 C17.79402594 147.83448164 20.3196929 142.48314121 23 137.1875 C23.45717407 136.27979858 23.45717407 136.27979858 23.92358398 135.35375977 C25.42147634 132.3799745 26.92049035 129.40681449 28.42626953 126.43701172 C29.98791698 123.34083732 31.52660572 120.23401795 33.0625 117.125 C33.56458984 116.14007568 34.06667969 115.15515137 34.58398438 114.14038086 C37.24977529 108.78270644 37.24977529 108.78270644 37.98828125 102.94140625 C36.88129553 99.92672972 35.6237136 97.15575332 34.125 94.3125 C33.48480768 93.07403675 32.84695624 91.83436178 32.2109375 90.59375 C31.68258301 89.56507813 31.68258301 89.56507813 31.14355469 88.515625 C28.93991306 84.14974235 26.85201515 79.72795586 24.75 75.3125 C24.28376221 74.33539063 23.81752441 73.35828125 23.3371582 72.3515625 C21.40902281 68.30959755 19.48372007 64.26628751 17.55908203 60.22265625 C11.82161443 48.17181954 6.03123072 36.15692827 0 24.25 C-0.99 24.25 -1.98 24.25 -3 24.25 Z " fill="#FEFCF9" transform="translate(189,216.75)"/>
</svg>
