<?xml version="1.0" encoding="UTF-8"?>
<svg version="1.1" xmlns="http://www.w3.org/2000/svg" width="512" height="512">
<path d="M0 0 C2.61858091 2.09823506 3.70677976 4.2481927 4.90234375 7.34375 C5.40217773 8.59478516 5.40217773 8.59478516 5.91210938 9.87109375 C6.5951886 11.62237877 7.27488375 13.37498754 7.95117188 15.12890625 C8.28568359 15.96292969 8.62019531 16.79695313 8.96484375 17.65625 C9.2599585 18.41744141 9.55507324 19.17863281 9.85913086 19.96289062 C11.23017168 22.41098919 12.60072701 23.56863687 15 25 C17.64860848 24.88333482 17.64860848 24.88333482 20 23 C21.70925992 20.3707784 22.90626098 17.57056443 24.125 14.6875 C24.79192404 13.16953968 25.46114276 11.65258516 26.1328125 10.13671875 C26.60509277 9.06429932 26.60509277 9.06429932 27.08691406 7.97021484 C28.39929851 5.13841203 29.77407739 2.22592261 32 0 C47.03887556 0.23871231 67.19858257 7.19858257 78 18 C78.34950659 22.63096229 77.82969472 25.78153718 76 30 C76.85335937 29.9278125 77.70671875 29.855625 78.5859375 29.78125 C105.68662417 27.76965264 132.72696005 28.52872308 159 36 C159.68094727 36.18868652 160.36189453 36.37737305 161.06347656 36.57177734 C180.48223618 42.08323841 199.62356671 51.18886397 216 63 C216.53979492 63.38865234 217.07958984 63.77730469 217.63574219 64.17773438 C225.95036522 70.22031004 233.57742421 76.90189465 241 84 C241.92683594 84.87398438 242.85367187 85.74796875 243.80859375 86.6484375 C276.6027017 118.37266675 297.69373973 165.60944156 299.06738281 211.23828125 C299.06976868 212.82567795 299.03967257 214.41309733 299 216 C299.79664063 215.6390625 300.59328125 215.278125 301.4140625 214.90625 C302.47367187 214.4421875 303.53328125 213.978125 304.625 213.5 C305.66914063 213.0359375 306.71328125 212.571875 307.7890625 212.09375 C311.19216494 210.93454236 313.44156927 210.49304548 317 211 C320.89516295 213.86175237 323.01456674 218.08285987 325.3125 222.25 C325.70276367 222.95600342 326.09302734 223.66200684 326.49511719 224.3894043 C332.2134634 234.9076603 336.81005279 245.42325546 339.9375 257 C340.14922852 257.77706299 340.36095703 258.55412598 340.57910156 259.35473633 C341.84229833 264.35749047 342.45042435 268.83958274 342 274 C339.71591403 277.09130927 336.73030753 278.12633432 333.23046875 279.5234375 C331.52600586 280.21953125 331.52600586 280.21953125 329.78710938 280.9296875 C327.40016143 281.88809308 325.01214911 282.8438523 322.62304688 283.796875 C314.03493468 287.22067468 314.03493468 287.22067468 307 293 C306.10769618 295.23158188 306.10769618 295.23158188 306.3125 297.5 C306.30863281 298.2321875 306.30476563 298.964375 306.30078125 299.71875 C307.66977411 304.18518482 311.24179987 306.58830033 315.21386719 308.74511719 C316.39625977 309.25719727 317.57865234 309.76927734 318.796875 310.296875 C319.43111389 310.57597717 320.06535278 310.85507935 320.71881104 311.14263916 C322.72458255 312.02284937 324.73680367 312.8869259 326.75 313.75 C328.77591471 314.63060272 330.80036641 315.51445773 332.82403564 316.40020752 C334.64809735 317.19670106 336.47582088 317.98479286 338.30371094 318.77246094 C341 320 341 320 342 321 C342.57682714 327.07764526 341.69428208 332.62215103 340 338.4375 C339.77997314 339.20610352 339.55994629 339.97470703 339.33325195 340.76660156 C335.15399195 354.70597131 327.90150011 375.95761569 316 385 C308.56388103 385.22476934 301.34918359 381.06629076 294.625 378.23828125 C288.65516073 375.80466603 283.48208305 374.11506656 277 374 C273.95524698 376.20913543 273.95524698 376.20913543 272 379 C271.67 379.33 271.34 379.66 271 380 C270.69508887 389.47996419 274.86684598 397.59801857 278.58203125 406.07421875 C279.25685547 407.66943359 279.25685547 407.66943359 279.9453125 409.296875 C280.36312988 410.24916992 280.78094727 411.20146484 281.21142578 412.18261719 C282.15399511 415.55018686 281.94816845 417.65058761 281 421 C278.97460537 422.79692024 277.29657171 424.03032347 275 425.375 C274.37697998 425.75438721 273.75395996 426.13377441 273.11206055 426.5246582 C257.65936501 435.71300553 236.47107691 446.78752357 218 445 C215.57127704 441.68125744 214.04222874 437.99262217 212.44140625 434.21875 C211.97283203 433.12949219 211.50425781 432.04023438 211.02148438 430.91796875 C210.04942915 428.64073094 209.08067302 426.36208204 208.11523438 424.08203125 C207.41043945 422.44814453 207.41043945 422.44814453 206.69140625 420.78125 C206.27060791 419.79189453 205.84980957 418.80253906 205.41625977 417.78320312 C203.90455786 414.81243918 202.24322863 412.46238989 200 410 C197.56823438 409.25349029 197.56823438 409.25349029 195 409.4375 C194.154375 409.43621094 193.30875 409.43492187 192.4375 409.43359375 C189.22399811 410.18032095 188.16598428 411.53920707 186 414 C184.64296343 416.34583749 184.64296343 416.34583749 183.5625 418.921875 C182.93214844 420.33726562 182.93214844 420.33726562 182.2890625 421.78125 C181.86367188 422.7609375 181.43828125 423.740625 181 424.75 C180.14724362 426.68291447 179.29309855 428.61521693 178.4375 430.546875 C178.02886719 431.47048828 177.62023437 432.39410156 177.19921875 433.34570312 C172.7033557 443.2966443 172.7033557 443.2966443 171 445 C164.59968594 445.40636915 159.24437532 444.3086065 153.125 442.5 C152.21097412 442.23227783 151.29694824 441.96455566 150.35522461 441.6887207 C135.8102549 437.27020294 118.97899725 430.97899725 108 420 C108 418.68 108 417.36 108 416 C106.72769531 416.03480469 105.45539063 416.06960938 104.14453125 416.10546875 C71.58220745 416.7212086 40.59130213 408.49779431 12 393 C10.95457031 392.43539063 9.90914063 391.87078125 8.83203125 391.2890625 C-5.62511972 383.15333421 -19.83028928 372.88672061 -31.09375 360.64453125 C-33.66604422 357.82185228 -33.66604422 357.82185228 -36.5 357.58984375 C-37.325 357.70457031 -38.15 357.81929688 -39 357.9375 C-49.1348894 358.50284757 -61.32898504 353.69770338 -69 347 C-70.5891017 343.24394143 -70.45682639 341.28507249 -69.1015625 337.47265625 C-68.38391785 335.73962077 -67.62246112 334.02389082 -66.8125 332.33203125 C-65.9025635 329.72033851 -66.0600574 328.55546895 -67 326 C-67.86882812 326.37253906 -68.73765625 326.74507813 -69.6328125 327.12890625 C-70.78523438 327.60199219 -71.93765625 328.07507813 -73.125 328.5625 C-74.26195313 329.03816406 -75.39890625 329.51382812 -76.5703125 330.00390625 C-80.32439514 331.09421499 -82.30587459 331.24702821 -86 330 C-87.7578125 328.03125 -87.7578125 328.03125 -89.125 325.5 C-89.86363281 324.14261719 -89.86363281 324.14261719 -90.6171875 322.7578125 C-91.07351562 321.84773438 -91.52984375 320.93765625 -92 320 C-92.59167969 318.82050781 -92.59167969 318.82050781 -93.1953125 317.6171875 C-96.47507165 310.6446625 -99.23283815 303.70329163 -97 296 C-94.7075239 294.12669165 -92.18028771 293.13011199 -89.4375 292.0625 C-88.72658203 291.76021484 -88.01566406 291.45792969 -87.28320312 291.14648438 C-85.53240548 290.40621423 -83.76739246 289.69972578 -82 289 C-82 288.34 -82 287.68 -82 287 C-83.07121094 286.51789063 -84.14242187 286.03578125 -85.24609375 285.5390625 C-86.64338104 284.90137434 -88.04050824 284.26333531 -89.4375 283.625 C-90.14455078 283.30789063 -90.85160156 282.99078125 -91.58007812 282.6640625 C-96.88671875 280.2265625 -96.88671875 280.2265625 -98 278 C-98.42921144 269.13585064 -94.72171753 257.98634547 -89.41357422 250.87451172 C-87.38415544 246.74767636 -87.68339533 243.12185099 -87.8125 238.58984375 C-87.82385986 237.66772598 -87.83521973 236.74560822 -87.84692383 235.79554749 C-87.89546822 231.87416333 -87.97847413 227.95374295 -88.06152344 224.03295898 C-88.39731812 206.66736635 -87.04283569 190.12124887 -82.4375 173.3125 C-81.81696452 170.9629183 -81.19946268 168.61313486 -80.60009766 166.25805664 C-80.19817957 164.74571312 -79.75441344 163.2439125 -79.27099609 161.75561523 C-77.37163597 155.28693328 -78.84637001 151.36494334 -81.75 145.4375 C-85.64396708 137.11918066 -88.95317023 129.37284057 -88 120 C-85.50216082 117.71870037 -82.82715769 116.33284889 -79.7421875 114.9921875 C-78.95199219 114.64542969 -78.16179687 114.29867187 -77.34765625 113.94140625 C-76.12369141 113.41353516 -76.12369141 113.41353516 -74.875 112.875 C-73.24728821 112.16430894 -71.61967909 111.45338268 -69.9921875 110.7421875 C-69.27401855 110.4313623 -68.55584961 110.12053711 -67.81591797 109.80029297 C-66.52893292 109.23310596 -65.25794487 108.62897244 -64 108 C-64 105.69 -64 103.38 -64 101 C-65.73636719 100.18595703 -65.73636719 100.18595703 -67.5078125 99.35546875 C-69.04689333 98.63285153 -70.5859548 97.9101931 -72.125 97.1875 C-72.88554688 96.83107422 -73.64609375 96.47464844 -74.4296875 96.10742188 C-86.61985518 90.38014482 -86.61985518 90.38014482 -88 89 C-88.29017824 83.36313333 -87.69292651 78.48263623 -86.0625 73.0625 C-85.84722656 72.34030273 -85.63195312 71.61810547 -85.41015625 70.87402344 C-83.61499165 65.22754782 -81.25107805 59.99175658 -78.5 54.75 C-78.13269775 54.0475415 -77.76539551 53.34508301 -77.38696289 52.62133789 C-75.1116124 48.48109426 -72.83065624 44.8845303 -69 42 C-62.98533117 41.91432096 -56.93060139 45.33167598 -51.45703125 47.6484375 C-50.29880859 48.12023438 -50.29880859 48.12023438 -49.1171875 48.6015625 C-48.42222168 48.89369629 -47.72725586 49.18583008 -47.01123047 49.48681641 C-44.59919077 50.10227009 -43.31193623 49.88186012 -41 49 C-40.34 48.34 -39.68 47.68 -39 47 C-39.34895071 41.00101758 -41.48767143 35.99561489 -43.91601562 30.60546875 C-45.78429153 26.23560307 -46.63201579 22.73727153 -46 18 C-37.77387685 8.03373541 -12.53590525 -1.28168219 0 0 Z " fill="#0143DC" transform="translate(170,14)"/>
<path d="M0 0 C3.03999569 3.34128366 4.91840602 6.63258668 6.65625 10.78125 C7.12160156 11.87050781 7.58695313 12.95976562 8.06640625 14.08203125 C9.02213542 16.36067708 9.97786458 18.63932292 10.93359375 20.91796875 C11.39894531 22.00722656 11.86429688 23.09648437 12.34375 24.21875 C12.75818359 25.20810547 13.17261719 26.19746094 13.59960938 27.21679688 C15.40481817 30.80455494 17.32815726 34.16407863 21 36 C26.67552742 36.73964976 26.67552742 36.73964976 31.4765625 34.0859375 C34.73249336 30.10422639 36.56603325 25.96068594 38.5625 21.25 C38.93568359 20.3940625 39.30886719 19.538125 39.69335938 18.65625 C41.17634558 15.2518295 42.64213102 11.84028336 44.09716797 8.42382812 C44.61947998 7.21629883 44.61947998 7.21629883 45.15234375 5.984375 C45.46034912 5.26475586 45.76835449 4.54513672 46.08569336 3.80371094 C47 2 47 2 49 0 C68.77796937 -1.68783546 93.22089263 12.37582014 109 23 C109.65097656 23.43699219 110.30195313 23.87398437 110.97265625 24.32421875 C112.34722415 26.56638465 112.13306495 28.24081543 111.64501953 30.77001953 C109.85503947 36.95839119 107.05588823 42.84827104 104.50585938 48.75195312 C101.99441349 54.77145041 100.18015391 59.45627432 101 66 C102.79363911 68.8100346 104.01880935 70.50940468 107 72 C112.07244526 72.3085429 115.87948537 71.64206517 120.625 69.875 C121.83414063 69.42511719 123.04328125 68.97523438 124.2890625 68.51171875 C129.00166541 66.64523114 133.54214217 64.42572648 138.0625 62.13671875 C141.36997916 60.85682987 143.4885458 60.48950326 147 61 C150.89516295 63.86175237 153.01456674 68.08285987 155.3125 72.25 C155.70276367 72.95600342 156.09302734 73.66200684 156.49511719 74.3894043 C162.2134634 84.9076603 166.81005279 95.42325546 169.9375 107 C170.25509277 108.16559448 170.25509277 108.16559448 170.57910156 109.35473633 C171.84229833 114.35749047 172.45042435 118.83958274 172 124 C169.71591403 127.09130927 166.73030753 128.12633432 163.23046875 129.5234375 C162.09416016 129.9875 160.95785156 130.4515625 159.78710938 130.9296875 C157.40016143 131.88809308 155.01214911 132.8438523 152.62304688 133.796875 C144.03493468 137.22067468 144.03493468 137.22067468 137 143 C136.10769618 145.23158188 136.10769618 145.23158188 136.3125 147.5 C136.30863281 148.2321875 136.30476563 148.964375 136.30078125 149.71875 C137.66977411 154.18518482 141.24179987 156.58830033 145.21386719 158.74511719 C146.39625977 159.25719727 147.57865234 159.76927734 148.796875 160.296875 C149.74823334 160.71552826 149.74823334 160.71552826 150.71881104 161.14263916 C152.72458255 162.02284937 154.73680367 162.8869259 156.75 163.75 C158.77591471 164.63060272 160.80036641 165.51445773 162.82403564 166.40020752 C164.64809735 167.19670106 166.47582088 167.98479286 168.30371094 168.77246094 C171 170 171 170 172 171 C172.57682714 177.07764526 171.69428208 182.62215103 170 188.4375 C169.66995972 189.59040527 169.66995972 189.59040527 169.33325195 190.76660156 C165.15399195 204.70597131 157.90150011 225.95761569 146 235 C138.56388103 235.22476934 131.34918359 231.06629076 124.625 228.23828125 C118.65516073 225.80466603 113.48208305 224.11506656 107 224 C103.95524698 226.20913543 103.95524698 226.20913543 102 229 C101.67 229.33 101.34 229.66 101 230 C100.69508887 239.47996419 104.86684598 247.59801857 108.58203125 256.07421875 C109.25685547 257.66943359 109.25685547 257.66943359 109.9453125 259.296875 C110.36312988 260.24916992 110.78094727 261.20146484 111.21142578 262.18261719 C112.15399511 265.55018686 111.94816845 267.65058761 111 271 C108.97460537 272.79692024 107.29657171 274.03032347 105 275.375 C104.06546997 275.94408081 104.06546997 275.94408081 103.11206055 276.5246582 C87.65936501 285.71300553 66.47107691 296.78752357 48 295 C45.57127704 291.68125744 44.04222874 287.99262217 42.44140625 284.21875 C41.97283203 283.12949219 41.50425781 282.04023438 41.02148438 280.91796875 C40.04942915 278.64073094 39.08067302 276.36208204 38.11523438 274.08203125 C37.64537109 272.99277344 37.17550781 271.90351563 36.69140625 270.78125 C36.06020874 269.2972168 36.06020874 269.2972168 35.41625977 267.78320312 C33.90455786 264.81243918 32.24322863 262.46238989 30 260 C27.56823438 259.25349029 27.56823438 259.25349029 25 259.4375 C24.154375 259.43621094 23.30875 259.43492187 22.4375 259.43359375 C19.22399811 260.18032095 18.16598428 261.53920707 16 264 C14.64296343 266.34583749 14.64296343 266.34583749 13.5625 268.921875 C12.93214844 270.33726562 12.93214844 270.33726562 12.2890625 271.78125 C11.65097656 273.25078125 11.65097656 273.25078125 11 274.75 C10.14724362 276.68291447 9.29309855 278.61521693 8.4375 280.546875 C8.02886719 281.47048828 7.62023437 282.39410156 7.19921875 283.34570312 C2.7033557 293.2966443 2.7033557 293.2966443 1 295 C-5.40031406 295.40636915 -10.75562468 294.3086065 -16.875 292.5 C-17.78902588 292.23227783 -18.70305176 291.96455566 -19.64477539 291.6887207 C-34.1897451 287.27020294 -51.02100275 280.97899725 -62 270 C-61.83406607 261.9356109 -57.64766241 254.52177096 -54.50585938 247.24804688 C-51.99441349 241.22854959 -50.18015391 236.54372568 -51 230 C-52.79363911 227.1899654 -54.01880935 225.49059532 -57 224 C-65.1644026 222.96590799 -71.80582837 226.41685268 -79.1875 229.5625 C-81.67534355 230.62073099 -84.16842581 231.66046118 -86.66796875 232.69140625 C-87.76391357 233.15748291 -88.8598584 233.62355957 -89.98901367 234.10375977 C-93.23110524 235.06879002 -94.83817651 235.13537581 -98 234 C-99.69908787 231.99891985 -100.97816295 230.22500176 -102.3125 228 C-102.69639893 227.37770508 -103.08029785 226.75541016 -103.47583008 226.11425781 C-113.24459105 209.88852046 -121.93208416 191.22018228 -122 172 C-114.76491849 167.16218832 -107.16888713 163.95257735 -99.13671875 160.66210938 C-98.14800781 160.24638672 -97.15929687 159.83066406 -96.140625 159.40234375 C-94.80306152 158.85308228 -94.80306152 158.85308228 -93.43847656 158.29272461 C-90.72977812 156.85674561 -88.98973569 155.32300303 -87 153 C-86.18717017 150.41184533 -86.18717017 150.41184533 -86.1875 147.625 C-86.11917969 146.70976562 -86.05085938 145.79453125 -85.98046875 144.8515625 C-87.692828 140.06220522 -91.65166833 138.31649098 -96 136 C-100.08783417 134.09461638 -104.24201849 132.40268816 -108.4375 130.75 C-110.58379665 129.89504366 -112.72842242 129.03587688 -114.87109375 128.171875 C-115.80880615 127.8015918 -116.74651855 127.43130859 -117.71264648 127.04980469 C-120 126 -120 126 -122 124 C-123.07910442 106.2610379 -114.13675109 88.35183338 -105.8125 73.1875 C-105.39661621 72.42840332 -104.98073242 71.66930664 -104.55224609 70.88720703 C-100.20466777 63.20283189 -100.20466777 63.20283189 -97 61 C-92.88200268 61.41981337 -89.3173094 62.49869272 -85.48828125 64.03125 C-84.48345703 64.42957031 -83.47863281 64.82789063 -82.44335938 65.23828125 C-81.41017578 65.65464844 -80.37699219 66.07101563 -79.3125 66.5 C-77.24629534 67.32342271 -75.17989783 68.14636169 -73.11328125 68.96875 C-71.74876831 69.51692383 -71.74876831 69.51692383 -70.35668945 70.07617188 C-65.86104813 71.83847445 -61.82242864 72.70503343 -57 72 C-54.1899654 70.20636089 -52.49059532 68.98119065 -51 66 C-49.89177374 57.23973532 -54.00218706 49.85341912 -57.37573242 41.97607422 C-58.15966103 40.1323505 -58.92575698 38.28107682 -59.69140625 36.4296875 C-60.15748291 35.33897949 -60.62355957 34.24827148 -61.10375977 33.12451172 C-62.12383921 29.56826635 -62.08654567 27.52370412 -61 24 C-59.56396484 22.51196289 -59.56396484 22.51196289 -57.7109375 21.47265625 C-56.68105713 20.87843872 -56.68105713 20.87843872 -55.63037109 20.2722168 C-54.88609863 19.87301025 -54.14182617 19.47380371 -53.375 19.0625 C-52.60881348 18.63428955 -51.84262695 18.2060791 -51.05322266 17.76489258 C-13.81143744 -2.76228749 -13.81143744 -2.76228749 0 0 Z " fill="#CCCED4" transform="translate(340,164)"/>
<path d="M0 0 C2.61858091 2.09823506 3.70677976 4.2481927 4.90234375 7.34375 C5.40217773 8.59478516 5.40217773 8.59478516 5.91210938 9.87109375 C6.5951886 11.62237877 7.27488375 13.37498754 7.95117188 15.12890625 C8.28568359 15.96292969 8.62019531 16.79695313 8.96484375 17.65625 C9.2599585 18.41744141 9.55507324 19.17863281 9.85913086 19.96289062 C11.23017168 22.41098919 12.60072701 23.56863687 15 25 C17.64860848 24.88333482 17.64860848 24.88333482 20 23 C21.70925992 20.3707784 22.90626098 17.57056443 24.125 14.6875 C24.79192404 13.16953968 25.46114276 11.65258516 26.1328125 10.13671875 C26.60509277 9.06429932 26.60509277 9.06429932 27.08691406 7.97021484 C28.39929851 5.13841203 29.77407739 2.22592261 32 0 C47.03887556 0.23871231 67.19858257 7.19858257 78 18 C78.67265796 24.0462778 76.96271645 28.21393629 74.5 33.5625 C71.26415874 40.46571514 71.26415874 40.46571514 71 48 C71.66 48.66 72.32 49.32 73 50 C80.38557292 50 86.11760259 47.40181695 92.66796875 44.27734375 C96.15278998 42.94142752 98.31712487 42.41280033 102 43 C110.38447511 50.61131655 114.48982631 63.90773862 117.875 74.4375 C118.09043457 75.09959473 118.30586914 75.76168945 118.52783203 76.44384766 C119.7343904 80.38940349 120.48585336 83.88209653 120 88 C117.84592567 90.67934365 115.48666511 91.86922314 112.3671875 93.2265625 C111.47902344 93.6184375 110.59085938 94.0103125 109.67578125 94.4140625 C108.28939453 95.01347656 108.28939453 95.01347656 106.875 95.625 C105.03823277 96.42779176 103.20225049 97.2323827 101.3671875 98.0390625 C100.55362793 98.39178223 99.74006836 98.74450195 98.90185547 99.10791016 C97.03417508 99.85252663 97.03417508 99.85252663 96 101 C95.41585298 104.37306618 95.41585298 104.37306618 96 108 C100.77286577 111.82122076 106.03763908 113.72528176 111.69726562 115.79882812 C117.78108464 118.10859627 117.78108464 118.10859627 120 121 C120.48533338 126.87004878 118.35627489 133.05530463 116.5 138.5625 C116.24444336 139.32755859 115.98888672 140.09261719 115.72558594 140.88085938 C112.72022892 149.42240037 108.478029 159.521971 102 166 C94.93837589 166 89.0897697 163.7117236 82.67333984 160.99609375 C78.72891453 159.38714544 76.09075496 158.53901608 72 160 C70.66374867 161.12369158 70.66374867 161.12369158 70.71484375 164.02734375 C71.11261979 169.56896336 73.26418628 173.79716514 75.59960938 178.77148438 C77.56293111 183.17805094 78.77275324 186.23572566 77 191 C66.82344425 200.80798834 48.70031622 206.27897616 35.125 208.6875 C31.61148685 207.91452711 31.29028923 207.59337691 29.375 204.75 C26.93519027 200.2407807 25.00615749 195.49431133 23.11328125 190.734375 C22.17149516 188.42121619 21.15383981 186.21284346 20 184 C16.66857722 183.49874717 16.66857722 183.49874717 13 184 C9.52915511 188.3351798 7.48689926 193.14780091 5.375 198.25 C2.26150307 205.73849693 2.26150307 205.73849693 0 208 C-6.0561039 208.47447169 -10.86674603 207.48420997 -16.5625 205.5 C-17.33682373 205.23517822 -18.11114746 204.97035645 -18.90893555 204.69750977 C-24.23700078 202.80128289 -29.30942504 200.57195424 -34.3125 197.9375 C-34.91586182 197.62167969 -35.51922363 197.30585938 -36.14086914 196.98046875 C-40.04460896 194.82027027 -43.23292242 192.51638292 -46 189 C-46.0936758 183.60427417 -42.44862226 177.52424165 -40.3515625 172.59375 C-37.94506091 166.91888631 -37.94506091 166.91888631 -39 161 C-39.99 160.01 -39.99 160.01 -41 159 C-47.22167761 159.36598104 -52.45142721 161.56955884 -58.12695312 163.91601562 C-62.18245493 165.52497071 -65.57270389 166.73053535 -70 166 C-80.20651861 157.36520764 -86.54899829 138.47758213 -88.3359375 125.57421875 C-88.375 123.6875 -88.375 123.6875 -88 120 C-85.50216082 117.71870037 -82.82715769 116.33284889 -79.7421875 114.9921875 C-78.95199219 114.64542969 -78.16179687 114.29867187 -77.34765625 113.94140625 C-76.53167969 113.58949219 -75.71570313 113.23757812 -74.875 112.875 C-73.24728821 112.16430894 -71.61967909 111.45338268 -69.9921875 110.7421875 C-69.27401855 110.4313623 -68.55584961 110.12053711 -67.81591797 109.80029297 C-66.52893292 109.23310596 -65.25794487 108.62897244 -64 108 C-64 105.69 -64 103.38 -64 101 C-65.73636719 100.18595703 -65.73636719 100.18595703 -67.5078125 99.35546875 C-69.04689333 98.63285153 -70.5859548 97.9101931 -72.125 97.1875 C-72.88554688 96.83107422 -73.64609375 96.47464844 -74.4296875 96.10742188 C-86.61985518 90.38014482 -86.61985518 90.38014482 -88 89 C-88.29017824 83.36313333 -87.69292651 78.48263623 -86.0625 73.0625 C-85.73958984 71.9792041 -85.73958984 71.9792041 -85.41015625 70.87402344 C-83.61499165 65.22754782 -81.25107805 59.99175658 -78.5 54.75 C-78.13269775 54.0475415 -77.76539551 53.34508301 -77.38696289 52.62133789 C-75.1116124 48.48109426 -72.83065624 44.8845303 -69 42 C-62.98533117 41.91432096 -56.93060139 45.33167598 -51.45703125 47.6484375 C-50.29880859 48.12023438 -50.29880859 48.12023438 -49.1171875 48.6015625 C-48.42222168 48.89369629 -47.72725586 49.18583008 -47.01123047 49.48681641 C-44.59919077 50.10227009 -43.31193623 49.88186012 -41 49 C-40.34 48.34 -39.68 47.68 -39 47 C-39.34895071 41.00101758 -41.48767143 35.99561489 -43.91601562 30.60546875 C-45.78429153 26.23560307 -46.63201579 22.73727153 -46 18 C-37.77387685 8.03373541 -12.53590525 -1.28168219 0 0 Z " fill="#CCCED4" transform="translate(170,14)"/>
<path d="M0 0 C15.07555751 12.64835075 25.39295339 29.55275585 29 49 C29.39183548 53.53124273 29.42135899 58.01674383 29.375 62.5625 C29.38660156 63.70396484 29.39820313 64.84542969 29.41015625 66.02148438 C29.34030768 86.40562514 20.11072063 104.65983675 6 119 C5.23816406 119.77472656 4.47632813 120.54945313 3.69140625 121.34765625 C-13.49002338 137.79556015 -34.25575785 142.60772919 -57.44921875 142.26953125 C-75.4528069 141.64998075 -91.93994584 133.02494026 -105 121 C-105.63035156 120.46117187 -106.26070313 119.92234375 -106.91015625 119.3671875 C-119.18002295 108.24325368 -128.50591838 89.16675951 -129.87109375 72.7265625 C-130.99616526 48.92959536 -126.24856028 27.05124369 -109.8125 8.8125 C-80.99125939 -21.85524057 -33.4427047 -26.08792969 0 0 Z " fill="#CC00FE" transform="translate(415,249)"/>
<path d="M0 0 C3.42554585 3.81703681 5.09269685 8.39437509 6.875 13.14453125 C7.85462578 15.19968566 7.85462578 15.19968566 10.125 15.76171875 C10.74375 15.84035156 11.3625 15.91898438 12 16 C12.18175781 15.41992188 12.36351562 14.83984375 12.55078125 14.2421875 C16.24817518 2.75182482 16.24817518 2.75182482 19 0 C30.54310858 0.39129182 43.66629028 4.66629028 52 13 C51.60998619 17.77766917 50.49513419 21.70281871 48.62109375 26.10546875 C47.79231889 28.30120241 47.79231889 28.30120241 48 32 C51.52833137 31.56971569 54.23246628 30.89622041 57.5 29.4375 C61.10647627 27.95626867 63.16806237 27.31876664 67 28 C73.76580494 35.43173063 78.59944483 46.03874806 80 56 C79.69140625 58.71875 79.69140625 58.71875 79 61 C75.07493975 64.06645332 68.10014764 68 63 68 C63 69.32 63 70.64 63 72 C63.58007812 72.18175781 64.16015625 72.36351562 64.7578125 72.55078125 C76.99159664 76.48739496 76.99159664 76.48739496 80 81 C80.19201631 91.50329242 73.75401996 101.73671407 68.515625 110.4765625 C67 112 67 112 64.94921875 112.27734375 C60.06537643 111.54350216 56.40027069 110.35363316 52 108 C50.68 108 49.36 108 48 108 C48.39914318 111.91160319 48.99807316 114.99552972 50.5625 118.625 C52.71706937 123.68355417 52.71706937 123.68355417 52 127 C45.30776951 134.13837919 33.36041435 138.17068044 24 140 C20.8515625 140.07421875 20.8515625 140.07421875 18 139 C16.37386035 136.40477713 15.24660069 134.23385444 14.125 131.4375 C13.81820312 130.72658203 13.51140625 130.01566406 13.1953125 129.28320312 C12.44266877 127.53095444 11.71851186 125.76651882 11 124 C10.01 124 9.02 124 8 124 C7.50628906 125.07121094 7.01257813 126.14242187 6.50390625 127.24609375 C5.85688596 128.64328249 5.20974427 130.04041501 4.5625 131.4375 C4.23701172 132.14455078 3.91152344 132.85160156 3.57617188 133.58007812 C1.11328125 138.88671875 1.11328125 138.88671875 0 140 C-10.45355586 141.2298301 -21.54443508 136.19356274 -30.18359375 130.5859375 C-32 129 -32 129 -33.375 125.75 C-32.94471674 121.44716738 -31.66929627 118.21053662 -29.8125 114.33203125 C-28.9025635 111.72033851 -29.0600574 110.55546895 -30 108 C-30.86882812 108.37253906 -31.73765625 108.74507813 -32.6328125 109.12890625 C-33.78523438 109.60199219 -34.93765625 110.07507813 -36.125 110.5625 C-37.26195313 111.03816406 -38.39890625 111.51382813 -39.5703125 112.00390625 C-43.32439514 113.09421499 -45.30587459 113.24702821 -49 112 C-50.7578125 110.03125 -50.7578125 110.03125 -52.125 107.5 C-52.61742188 106.59507812 -53.10984375 105.69015625 -53.6171875 104.7578125 C-54.30167969 103.39269531 -54.30167969 103.39269531 -55 102 C-55.39445312 101.21367187 -55.78890625 100.42734375 -56.1953125 99.6171875 C-59.47507165 92.6446625 -62.23283815 85.70329163 -60 78 C-57.7075239 76.12669165 -55.18028771 75.13011199 -52.4375 74.0625 C-51.72658203 73.76021484 -51.01566406 73.45792969 -50.28320312 73.14648438 C-48.53240548 72.40621423 -46.76739246 71.69972578 -45 71 C-45 70.34 -45 69.68 -45 69 C-46.07121094 68.51789063 -47.14242187 68.03578125 -48.24609375 67.5390625 C-49.64338104 66.90137434 -51.04050824 66.26333531 -52.4375 65.625 C-53.49807617 65.14933594 -53.49807617 65.14933594 -54.58007812 64.6640625 C-59.88671875 62.2265625 -59.88671875 62.2265625 -61 60 C-61.48965614 49.88753626 -56.63928737 38.22273054 -51 30 C-47.57021237 27.71347491 -46.08847774 27.910885 -42.12109375 28.5078125 C-40.02932085 28.99319627 -38.25999111 29.66759161 -36.3125 30.5625 C-33.16018168 31.9304872 -31.36645015 32.30604092 -28 32 C-28.76213093 27.45964555 -30.3674942 23.67173693 -32.2578125 19.5 C-33.14831817 16.50040194 -33.05352191 14.93826294 -32 12 C-24.88461857 4.8155372 -10.00806936 -1.22906115 0 0 Z " fill="#CCCED4" transform="translate(133,232)"/>
<path d="M0 0 C21.67603879 -0.69175222 43.14271405 1.16324507 64.04736328 7.10791016 C64.72831055 7.29659668 65.40925781 7.4852832 66.11083984 7.6796875 C85.52959946 13.19114856 104.67092999 22.29677412 121.04736328 34.10791016 C121.5871582 34.4965625 122.12695312 34.88521484 122.68310547 35.28564453 C130.9977285 41.32822019 138.62478749 48.00980481 146.04736328 55.10791016 C146.97419922 55.98189453 147.90103516 56.85587891 148.85595703 57.75634766 C181.67581548 89.50548732 202.86610663 136.88932441 204.11474609 182.57324219 C204.11717429 184.41826663 204.08656396 186.2633006 204.04736328 188.10791016 C197.04679615 191.85366815 190.19267495 195.14458619 182.04736328 194.10791016 C179.07868044 192.31335806 176.62283988 190.25886335 175.04736328 187.10791016 C174.01327127 178.94350755 177.46421596 172.30208179 180.60986328 164.92041016 C181.66809427 162.43256661 182.70782447 159.93948435 183.73876953 157.43994141 C184.20484619 156.34399658 184.67092285 155.24805176 185.15112305 154.11889648 C186.11654908 150.87547528 186.18790029 149.26994833 185.04736328 146.10791016 C183.00515086 144.39293652 181.18460747 143.08668215 178.92236328 141.73291016 C178.29491211 141.34643311 177.66746094 140.95995605 177.02099609 140.56176758 C166.57378577 134.26775152 155.77094544 129.65215256 144.03662109 126.32397461 C139.22302282 124.86926268 136.85117994 123.49369677 134.04736328 119.10791016 C133.46857422 118.23134766 132.88978516 117.35478516 132.29345703 116.45166016 C131.69662109 115.51322266 131.09978516 114.57478516 130.48486328 113.60791016 C119.07524369 95.96948877 119.07524369 95.96948877 103.04736328 84.10791016 C102.78310547 84.70474609 102.51884766 85.30158203 102.24658203 85.91650391 C99.60472816 90.74412613 94.30445662 94.72127534 89.18408203 96.63134766 C81.10326405 98.43365075 73.46889328 97.87663885 66.27001953 93.72119141 C60.18129633 89.30178423 55.48068638 83.61025901 54.04736328 76.10791016 C53.3564074 68.81881219 53.94413378 63.68380123 57.04736328 57.10791016 C46.06829199 53.81293114 35.47189654 51.23688321 24.04736328 50.10791016 C23.70125 49.23392578 23.70125 49.23392578 23.34814453 48.34228516 C22.64969939 46.58651003 21.94606806 44.83279376 21.23876953 43.08056641 C20.4595881 41.13644486 19.69587451 39.1860339 18.94970703 37.22900391 C16.71720933 31.54559451 14.15913978 26.14192046 11.10986328 20.85791016 C10.48208984 19.75962891 9.85431641 18.66134766 9.20751953 17.52978516 C7.26766242 14.8740608 7.26766242 14.8740608 4.32470703 14.52978516 C0.06822749 15.28063018 -3.53422037 16.82430764 -7.45263672 18.60791016 C-16.8547175 22.88759192 -16.8547175 22.88759192 -21.95263672 22.10791016 C-23.83154297 20.86962891 -23.83154297 20.86962891 -24.95263672 19.10791016 C-25.2886906 16.01010442 -24.61179759 13.1351675 -23.95263672 10.10791016 C-23.83017578 9.34994141 -23.70771484 8.59197266 -23.58154297 7.81103516 C-22.79194838 5.12347097 -22.1017518 3.93153685 -19.95263672 2.10791016 C-13.43639082 0.14978639 -6.75352896 0.24682155 0 0 Z " fill="#00C8FE" transform="translate(264.95263671875,42.89208984375)"/>
<path d="M0 0 C9.97298396 7.87033434 18.41878443 19.22019549 20.84765625 32.01953125 C22.39933809 47.67741167 18.9842847 62.98756664 8.875 75.375 C0.27490698 84.6093732 -12.34797732 91.84927295 -25.13671875 92.5234375 C-40.98192875 92.84244505 -54.30763894 88.78152511 -66.28125 77.9375 C-72.28787863 71.59087352 -76.2105508 64.43686392 -78.9375 56.1875 C-79.35 54.95 -79.7625 53.7125 -80.1875 52.4375 C-83.4274781 37.79868984 -79.52213816 24.30028465 -71.77734375 11.83984375 C-64.81557428 1.80366228 -54.40017491 -4.93559426 -42.65234375 -8.1484375 C-27.12213028 -10.92460605 -13.18551497 -9.07063241 0 0 Z " fill="#CC01FE" transform="translate(215.9375,76.8125)"/>
<path d="M0 0 C8.09879005 7.18644801 13.78206215 17.16035312 15 28 C15.1511839 30.79355424 15.18501132 33.57772923 15.1875 36.375 C15.19974609 37.09171875 15.21199219 37.8084375 15.22460938 38.546875 C15.25471288 49.66510461 11.49820804 59.01790192 3.9765625 67.1796875 C-5.08303796 75.52311401 -16.47881078 77.51363313 -28.39453125 77.21484375 C-41.17923333 76.4530251 -53.32177076 71.76787238 -62 62 C-69.6080702 51.98565644 -73.56380807 39.54270806 -72 27 C-69.51124984 14.60042822 -63.48136411 4.27133551 -53 -3 C-35.58662712 -13.14059396 -16.11663642 -12.71451132 0 0 Z " fill="#002F7B" transform="translate(386,271)"/>
<path d="M0 0 C3.2384054 1.89426866 6.29146508 3.90349297 9.3125 6.125 C19.56912739 13.35056437 32.24264679 21.62126638 44.515625 24.61328125 C48.42058171 26.79293476 49.66809577 30.31572246 51.5625 34.25 C55.34852656 43.52835827 55.34852656 43.52835827 62.23144531 49.80151367 C65.8327287 50.05970092 68.01527216 49.10193711 71.33203125 47.69140625 C72.54310547 47.19189453 73.75417969 46.69238281 75.00195312 46.17773438 C76.90560211 45.37363422 78.80716427 44.56477378 80.70825195 43.75463867 C94.29989022 38.00127472 94.29989022 38.00127472 101 39 C104.09710563 40.53973752 106.43804969 42.87609938 108 46 C109.03359368 54.18924225 105.5662082 61.09171173 102.5 68.5 C101.96878723 69.81198858 101.43882774 71.12448534 100.91015625 72.4375 C99.62118455 75.63099484 98.31533052 78.81725633 97 82 C62.54488181 82.97274476 30.34835483 75.4501973 0 59 C-1.04542969 58.43539062 -2.09085938 57.87078125 -3.16796875 57.2890625 C-16.65225861 49.70080955 -28.43696955 40.20637055 -40 30 C-41.62478755 28.58308968 -43.24974564 27.16637484 -44.875 25.75 C-45.91735852 24.83412013 -46.95935977 23.91783176 -48 23 C-47.21292098 20.89411299 -46.42017374 18.79034384 -45.625 16.6875 C-45.18414062 15.51574219 -44.74328125 14.34398437 -44.2890625 13.13671875 C-43 10 -43 10 -41 7 C-39.203125 7.09765625 -39.203125 7.09765625 -37 8 C-35.296875 10.87109375 -35.296875 10.87109375 -33.75 14.4375 C-33.22921875 15.61183594 -32.7084375 16.78617187 -32.171875 17.99609375 C-31 21 -31 21 -31 23 C-19.45574293 22.94449876 -6.81475742 18.49254381 2 11 C1.25640327 5.44946714 1.25640327 5.44946714 0 0 Z " fill="#00C8FE" transform="translate(182,348)"/>
<path d="M0 0 C1.15814209 0.00418945 2.31628418 0.00837891 3.50952148 0.01269531 C21.04142963 0.2367148 38.43702413 2.51361287 55.3125 7.3125 C55.99344727 7.50118652 56.67439453 7.68987305 57.37597656 7.88427734 C76.79473618 13.39573841 95.93606671 22.50136397 112.3125 34.3125 C112.85229492 34.70115234 113.39208984 35.08980469 113.94824219 35.49023438 C122.26286522 41.53281004 129.88992421 48.21439465 137.3125 55.3125 C138.23933594 56.18648437 139.16617188 57.06046875 140.12109375 57.9609375 C172.9409522 89.71007716 194.13124335 137.09391425 195.37988281 182.77783203 C195.38231101 184.62285648 195.35170068 186.46789044 195.3125 188.3125 C188.31193287 192.058258 181.45781167 195.34917603 173.3125 194.3125 C170.34381716 192.5179479 167.8879766 190.4634532 166.3125 187.3125 C165.27840799 179.1480974 168.72935268 172.50667163 171.875 165.125 C172.93323099 162.63715645 173.97296118 160.14407419 175.00390625 157.64453125 C175.46998291 156.54858643 175.93605957 155.4526416 176.41625977 154.32348633 C177.38310644 151.07529237 177.47444723 149.47464414 176.3125 146.3125 C174.10777548 144.55995089 172.09099848 143.16396779 169.6875 141.75 C169.08292969 141.37681641 168.47835937 141.00363281 167.85546875 140.61914062 C165.4020049 139.11515159 162.97942164 137.63350407 160.38452148 136.38452148 C157.02499193 134.72080892 155.46148137 133.60417816 153.73828125 130.23046875 C153.37089844 128.99941406 153.00351562 127.76835937 152.625 126.5 C137.88855043 82.12922728 102.15663741 45.65748912 61.3125 24.3125 C60.67570312 23.97508789 60.03890625 23.63767578 59.3828125 23.29003906 C36.32490263 11.23169334 11.1284525 4.64413072 -14.6875 2.3125 C-10.07346579 -0.76352281 -5.43260361 -0.02654049 0 0 Z " fill="#0097FE" transform="translate(273.6875,42.6875)"/>
<path d="M0 0 C7.38088093 5.5298763 12.68275897 12.72598293 14.75 21.8125 C15.96299841 33.06845293 15.33656983 43.14312272 8.5625 52.5 C2.4640883 59.82319731 -5.47489663 65.90329092 -15.19580078 67.04003906 C-27.14563779 67.91502137 -36.86439487 66.2334841 -46.43359375 58.578125 C-54.05300057 51.17173385 -58.31285758 41.18295132 -58.5 30.625 C-58.35773262 20.02608005 -54.62718487 11.55270157 -47.3984375 3.8359375 C-34.21642965 -8.50578299 -15.06865851 -9.83617352 0 0 Z " fill="#FFF000" transform="translate(497.25,78.1875)"/>
<path d="M0 0 C3.89516295 2.86175237 6.01456674 7.08285987 8.3125 11.25 C8.70276367 11.95600342 9.09302734 12.66200684 9.49511719 13.3894043 C15.2134634 23.9076603 19.81005279 34.42325546 22.9375 46 C23.14922852 46.77706299 23.36095703 47.55412598 23.57910156 48.35473633 C24.84229833 53.35749047 25.45042435 57.83958274 25 63 C22.71591403 66.09130927 19.73030753 67.12633432 16.23046875 68.5234375 C14.52600586 69.21953125 14.52600586 69.21953125 12.78710938 69.9296875 C10.40016143 70.88809308 8.01214911 71.8438523 5.62304688 72.796875 C-2.96506532 76.22067468 -2.96506532 76.22067468 -10 82 C-10.89230382 84.23158188 -10.89230382 84.23158188 -10.6875 86.5 C-10.69136719 87.2321875 -10.69523437 87.964375 -10.69921875 88.71875 C-9.33022589 93.18518482 -5.75820013 95.58830033 -1.78613281 97.74511719 C-0.60374023 98.25719727 0.57865234 98.76927734 1.796875 99.296875 C2.74823334 99.71552826 2.74823334 99.71552826 3.71881104 100.14263916 C5.72458255 101.02284937 7.73680367 101.8869259 9.75 102.75 C11.77591471 103.63060272 13.80036641 104.51445773 15.82403564 105.40020752 C17.64809735 106.19670106 19.47582088 106.98479286 21.30371094 107.77246094 C24 109 24 109 25 110 C25.57682714 116.07764526 24.69428208 121.62215103 23 127.4375 C22.77997314 128.20610352 22.55994629 128.97470703 22.33325195 129.76660156 C17.93377586 144.440473 10.80814235 163.79009348 -1 174 C-7.72831549 174.27462512 -13.96690856 170.68467616 -20 168 C-18.63710651 164.95353221 -17.06976355 162.88245987 -14.75 160.5 C-8.36705297 153.29600999 -5.03106551 144.67907343 -2.125 135.625 C-1.90956543 134.95919922 -1.69413086 134.29339844 -1.47216797 133.60742188 C-0.27117579 129.64723224 0.48799805 126.13012983 0 122 C-2.26129445 119.14886299 -4.96923398 117.88668882 -8.2265625 116.36328125 C-9.25910156 115.86763672 -10.29164063 115.37199219 -11.35546875 114.86132812 C-13.5084688 113.8414183 -15.66466014 112.82821387 -17.82421875 111.82226562 C-25.17029926 108.27666667 -33.57024102 104.14453797 -37.21337891 96.4309082 C-38.43538744 92.65451498 -38.74214829 89.79772814 -37.1953125 86.05078125 C-32.13141105 76.88337346 -23.1682566 73.49695198 -13.96704102 69.61621094 C-7.58312896 66.90170842 -0.95796538 63.95796538 4 59 C6.22899884 42.38809287 -1.57236563 26.97204891 -11.2578125 13.96875 C-12.62863567 12.25890605 -14.0181281 10.56369986 -15.43359375 8.890625 C-17 7 -17 7 -18 5 C-16.13103445 4.15321949 -14.25449819 3.32313789 -12.375 2.5 C-11.33085937 2.0359375 -10.28671875 1.571875 -9.2109375 1.09375 C-5.80783506 -0.06545764 -3.55843073 -0.50695452 0 0 Z " fill="#939599" transform="translate(487,225)"/>
<path d="M0 0 C2.84364336 2.71327575 4.87068581 5.69589177 7 9 C13.94906219 8.75617326 19.39651865 6.86198853 25.68188477 4.08349609 C29.25685331 2.53819617 32.09284098 1.4994387 36 2 C38.375 3.5625 38.375 3.5625 40 6 C39.63556465 12.60124946 37.05724439 17.95231377 34.3515625 23.859375 C33.00700046 26.9342341 32.03197367 29.40259727 31.8515625 32.7734375 C33.25342887 35.98705118 33.25342887 35.98705118 40 39 C39.34 46.59 38.68 54.18 38 62 C34.968125 62.7734375 34.968125 62.7734375 31.875 63.5625 C23.81766887 65.851701 14.01492037 68.98507963 8 75 C8.24862377 79.97247538 10.23765721 84.16060666 12.2578125 88.6328125 C13.07660163 91.24431889 12.92281217 92.46518684 12 95 C7.99715846 94.58303734 4.61430103 93.94459471 0.875 92.4375 C-2.2189314 91.20832183 -4.62831306 90.60333095 -8 91 C-8.99 91.495 -8.99 91.495 -10 92 C-10.82065213 86.95562072 -11.17145196 82.03954371 -11.203125 76.92578125 C-11.21013931 76.16834625 -11.21715363 75.41091125 -11.22438049 74.63052368 C-11.24183264 72.19112161 -11.24823546 69.75196227 -11.25 67.3125 C-11.25067474 66.479534 -11.25134949 65.64656799 -11.25204468 64.7883606 C-11.23594303 52.29212572 -10.78037944 40.23000078 -8 28 C-7.80712402 27.13584473 -7.61424805 26.27168945 -7.41552734 25.38134766 C-5.441052 16.70139918 -3.25668218 8.29317903 0 0 Z " fill="#00C8FE" transform="translate(93,170)"/>
<path d="M0 0 C11.05858639 2.08605152 22.14213928 14.27637167 28.36328125 23.27734375 C37.7027284 38.06919883 42.55411768 51.99901603 42.375 69.5625 C42.38660156 70.70396484 42.39820313 71.84542969 42.41015625 73.02148438 C42.33588738 94.69561586 32.01105346 112.98894654 17 128 C13.54914948 127.90673377 11.98616094 126.98985136 9.1875 124.9375 C6.99363473 121.99145236 6.03045676 120.12553378 6.24609375 116.41796875 C7.47677913 112.47084829 9.9865961 109.430925 12.43041992 106.13745117 C23.00480099 91.65772346 24.53107066 73.37276561 23 56 C20.89938731 43.1851052 12.61365512 31.62651224 2.73046875 23.59765625 C-1.51610993 19.67700009 -3.20144865 15.00605864 -3.4375 9.3125 C-3.27347242 5.52018228 -2.36140785 3.05015181 0 0 Z " fill="#66009F" transform="translate(402,242)"/>
<path d="M0 0 C5.93455414 5.75862862 9.09790027 12.79498378 9.3515625 20.98046875 C9.28797293 29.12901816 6.75579471 34.6399 1.5390625 40.79296875 C0.6934375 41.49421875 -0.1521875 42.19546875 -1.0234375 42.91796875 C-1.8690625 43.63984375 -2.7146875 44.36171875 -3.5859375 45.10546875 C-10.76108705 48.88872942 -18.83620258 49.77945936 -26.70703125 47.80859375 C-33.62492728 45.14876189 -39.45290184 39.61334236 -42.9921875 33.1484375 C-46.19681327 25.86384837 -46.08728547 18.11683498 -43.4609375 10.66796875 C-40.23563596 3.53835483 -35.1018084 -1.20859222 -27.9765625 -4.36328125 C-18.62481182 -7.8047255 -7.94881867 -5.85322102 0 0 Z " fill="#FFF000" transform="translate(59.0234375,377.08203125)"/>
<path d="M0 0 C6.54368968 4.50606389 11.41000786 10.03531717 13 18 C13.83608387 26.58013934 12.69861533 33.99824559 7.4921875 41.0390625 C1.62607551 47.45085933 -4.80243032 50.17691522 -13.4375 50.5625 C-21.95484446 50.25440469 -28.09612783 47.37033025 -33.9375 41.1875 C-39.16279595 34.56961338 -40.661177 28.45055667 -40.40625 20.02734375 C-39.3388636 12.07326244 -35.23384753 6.30672971 -29.02734375 1.40625 C-20.31801462 -4.63490316 -9.39643714 -4.87031449 0 0 Z " fill="#FDF000" transform="translate(359,90)"/>
<path d="M0 0 C4.55419765 0.70064579 8.160259 1.32111093 12 4 C13.3680407 9.4112105 12.69796156 13.71500744 11.0625 18.9375 C10.84013672 19.6682373 10.61777344 20.39897461 10.38867188 21.15185547 C6.91554517 31.99257335 1.76033549 41.86885241 -5 51 C-12.10434523 50.74627338 -17.84710013 48.73991596 -24.32617188 45.99560547 C-28.27109505 44.38780873 -30.909032 43.53894 -35 45 C-36.33625133 46.12369158 -36.33625133 46.12369158 -36.28515625 49.02734375 C-35.88738021 54.56896336 -33.73581372 58.79716514 -31.40039062 63.77148438 C-29.43706889 68.17805094 -28.22724676 71.23572566 -30 76 C-40.17655575 85.80798834 -58.29968378 91.27897616 -71.875 93.6875 C-75.54482418 92.88013868 -75.88819691 92.28100358 -77.875 89.25 C-79.39041996 86.54030868 -80.3571585 84.03640026 -81 81 C-80.35675781 80.84144531 -79.71351563 80.68289062 -79.05078125 80.51953125 C-67.34862608 77.49800474 -53.78960141 73.78960141 -45 65 C-45.3378652 59.975023 -46.71073513 55.77815276 -48.5625 51.125 C-50.6718262 45.33818963 -51.97089146 41.11661621 -51 35 C-49.02624015 31.94385572 -47.59937334 30.43595757 -44.03759766 29.46508789 C-37.86018391 28.60339594 -33.86386642 29.75526563 -28.3125 32.4375 C-23.35425241 34.76792076 -19.62912204 36.50529127 -14 36 C-13.73832031 35.30390625 -13.47664063 34.6078125 -13.20703125 33.890625 C-11.8846376 30.72372759 -10.30484571 27.77669573 -8.6875 24.75 C-4.58718316 16.85078106 -2.25334031 8.57723087 0 0 Z " fill="#909398" transform="translate(277,129)"/>
<path d="M0 0 C20.70757269 1.60903436 41.29675713 11.59787258 58.3125 23.0546875 C58.96347656 23.49167969 59.61445313 23.92867187 60.28515625 24.37890625 C61.65972415 26.62107215 61.44556495 28.29550293 60.95751953 30.82470703 C59.16753947 37.01307869 56.36838823 42.90295854 53.81835938 48.80664062 C51.30444727 54.83204901 49.51363631 59.50551253 50.3125 66.0546875 C52.66407612 70.06107644 54.89417506 71.70464377 59.3125 73.0546875 C54.02997963 76.57636775 47.4442702 75.66974736 41.3125 75.0546875 C35.67919922 73.18464801 31.50815237 70.11447041 28.3125 65.0546875 C25.60447015 56.93059794 27.56010743 49.57887362 30.41796875 41.79296875 C31.91848105 37.19969747 31.85109295 33.67046634 30.3125 29.0546875 C28.49322077 27.98558373 28.49322077 27.98558373 26.3125 27.0546875 C24.78738192 26.10318781 23.26686771 25.14428542 21.75 24.1796875 C12.02838147 18.36090853 2.5106046 16.29710494 -8.6875 15.0546875 C-4.10371076 0.13299063 -4.10371076 0.13299063 0 0 Z " fill="#909398" transform="translate(390.6875,163.9453125)"/>
<path d="M0 0 C8.11538524 7.20117373 13.74529915 17.14968922 15 28 C15.06388388 29.95740193 15.08638169 31.91670147 15.0625 33.875 C15.05347656 34.84179688 15.04445313 35.80859375 15.03515625 36.8046875 C15.02355469 37.52914062 15.01195312 38.25359375 15 39 C14.67 39 14.34 39 14 39 C13.91363281 38.39414062 13.82726562 37.78828125 13.73828125 37.1640625 C12.054755 27.1246858 8.29838538 18.27166433 0 12 C-10.23498944 5.91902634 -20.31013315 4.36789303 -32.078125 6.578125 C-40.31527993 9.16694512 -47.05272047 14.37243237 -51.69921875 21.66796875 C-56.52170941 31.02277156 -57.42531223 40.76449781 -55.38671875 51.11328125 C-52.594367 59.81016534 -47.24523972 66.40261713 -39.3125 70.9375 C-37.89303545 71.66150477 -36.45470368 72.34969261 -35 73 C-34.2265625 73.35964844 -33.453125 73.71929687 -32.65625 74.08984375 C-29.4584567 75.18555822 -26.55762726 75.42074986 -23.1875 75.625 C-22.02605469 75.69976562 -20.86460937 75.77453125 -19.66796875 75.8515625 C-18.34732422 75.92503906 -18.34732422 75.92503906 -17 76 C-17 76.33 -17 76.66 -17 77 C-33.36806585 77.39283358 -47.76723197 75.82958041 -60.2578125 63.9609375 C-68.45811368 54.73100209 -72.88318145 42.36940444 -72.37890625 30.0390625 C-70.79250479 17.31514154 -65.22980858 6.76287373 -55.30859375 -1.3984375 C-37.93724148 -13.44962943 -16.72064948 -13.19102085 0 0 Z " fill="#6701A1" transform="translate(386,271)"/>
<path d="M0 0 C1.57207688 0.45100566 3.11922603 0.98795719 4.65625 1.546875 C3.5115625 2.413125 3.5115625 2.413125 2.34375 3.296875 C-1.86346799 6.74082584 -1.86346799 6.74082584 -3.59814453 11.67675781 C-2.67973228 20.329838 0.77400214 27.71733632 4.23828125 35.62109375 C4.68816406 36.68457031 5.13804687 37.74804688 5.6015625 38.84375 C6.01937988 39.79604492 6.43719727 40.74833984 6.86767578 41.72949219 C7.81024511 45.09706186 7.60441845 47.19746261 6.65625 50.546875 C4.63085537 52.34379524 2.95282171 53.57719847 0.65625 54.921875 C0.03322998 55.30126221 -0.58979004 55.68064941 -1.23168945 56.0715332 C-16.68438499 65.25988053 -37.87267309 76.33439857 -56.34375 74.546875 C-58.15625 72.484375 -58.15625 72.484375 -59.34375 69.546875 C-59.900625 68.350625 -60.4575 67.154375 -61.03125 65.921875 C-62.34375 62.546875 -62.34375 62.546875 -62.34375 59.546875 C-61.55355469 59.48371094 -60.76335937 59.42054688 -59.94921875 59.35546875 C-45.92599617 57.83294744 -26.68082814 52.88395314 -16.34375 42.546875 C-16.61717773 37.07832034 -17.62047869 32.53304578 -19.40625 27.359375 C-21.59767724 20.52822267 -22.56744654 13.67310778 -21.34375 6.546875 C-15.99223809 -1.52574466 -9.0232316 -1.74449144 0 0 Z " fill="#939599" transform="translate(444.34375,384.453125)"/>
<path d="M0 0 C5.6771423 2.17778901 9.55769359 6.09732117 13 11 C13.62890625 13.18359375 13.62890625 13.18359375 14 15 C13.25234375 14.95359375 12.5046875 14.9071875 11.734375 14.859375 C10.74953125 14.82328125 9.7646875 14.7871875 8.75 14.75 C7.28820312 14.68039062 7.28820312 14.68039062 5.796875 14.609375 C2.19349169 15.11264083 1.35353678 16.28268198 -1 19 C-2.35703657 21.34583749 -2.35703657 21.34583749 -3.4375 23.921875 C-3.85773438 24.86546875 -4.27796875 25.8090625 -4.7109375 26.78125 C-5.13632812 27.7609375 -5.56171875 28.740625 -6 29.75 C-6.85275638 31.68291447 -7.70690145 33.61521693 -8.5625 35.546875 C-9.17544922 36.93229492 -9.17544922 36.93229492 -9.80078125 38.34570312 C-14.2966443 48.2966443 -14.2966443 48.2966443 -16 50 C-22.40031406 50.40636915 -27.75562468 49.3086065 -33.875 47.5 C-34.78902588 47.23227783 -35.70305176 46.96455566 -36.64477539 46.6887207 C-51.1897451 42.27020294 -68.02100275 35.97899725 -79 25 C-78.65805382 18.73098674 -78.65805382 18.73098674 -76.44921875 16.27734375 C-75.97097656 15.85582031 -75.49273437 15.43429687 -75 15 C-73.67162109 15.85271484 -73.67162109 15.85271484 -72.31640625 16.72265625 C-65.45188871 21.0379514 -58.5396966 24.90531346 -51.0625 28.0625 C-50.37808838 28.36099854 -49.69367676 28.65949707 -48.98852539 28.96704102 C-44.12774152 30.93972925 -40.24706453 31.5197822 -35 31 C-30.34816713 28.9638171 -29.02272194 24.21838014 -27.125 19.8125 C-21.20632369 6.69573168 -15.89725119 -2.18845276 0 0 Z " fill="#939599" transform="translate(357,409)"/>
<path d="M0 0 C4.4698805 3.26645113 7.49026269 7.40047557 9.234375 12.6328125 C10.01143729 20.83622959 10.4470836 28.10595539 5.08203125 34.828125 C0.90723954 38.90582853 -3.81804967 42.19762406 -9.765625 42.6328125 C-10.41015625 42.70628906 -11.0546875 42.77976562 -11.71875 42.85546875 C-18.32086319 43.30561283 -23.37900723 41.42813741 -28.765625 37.6328125 C-33.73703636 32.64090048 -36.41379293 27.36223248 -37.078125 20.3203125 C-36.4093329 12.42856575 -33.9206161 5.83155772 -27.765625 0.6328125 C-18.92892256 -5.18942029 -9.13283115 -5.08995367 0 0 Z " fill="#01C7FD" transform="translate(155.765625,282.3671875)"/>
<path d="M0 0 C-7.81140638 22.88164377 -18.4045111 42.2358147 -35 60 C-41.49563587 55.46816102 -45.58936403 48.87365181 -47 41 C-47.65291897 31.90194884 -47.42815883 24.16200704 -43 16 C-42.443125 14.96875 -41.88625 13.9375 -41.3125 12.875 C-32.36465853 1.75065655 -14.1841612 -8.88731904 0 0 Z " fill="#0041DC" transform="translate(376,278)"/>
<path d="M0 0 C5.21390125 4.24505896 9.05773491 9.10069547 9.93359375 15.9140625 C10.0506152 24.00024437 8.42886924 28.94802903 3.22265625 35.11328125 C-2.80270791 40.13441805 -8.66030614 41.92513912 -16.40234375 41.30078125 C-23.44602855 39.4477675 -28.53534133 36.58466018 -32.40234375 30.30078125 C-35.45927218 24.01826627 -35.50411428 16.61023815 -33.78515625 9.88671875 C-30.91059297 3.29811795 -25.47840575 -0.38904419 -19.02734375 -3.13671875 C-12.29104952 -4.18200579 -5.8263656 -3.78782634 0 0 Z " fill="#FFF000" transform="translate(459.40234375,7.69921875)"/>
<path d="M0 0 C8.82181375 5.17546407 14.71747041 11.25438654 18.30859375 20.9609375 C20.36710851 30.00909844 20.60279123 41.72476896 16 50 C10.1247244 59.24811901 1.86440733 66.51111389 -9 69 C-20.76182806 70.37541076 -30.44561679 69.00295822 -40.3125 62.1875 C-44.03018255 59.22391127 -46.51193977 56.04309787 -49 52 C-49 51.34 -49 50.68 -49 50 C-48.46375 50.2165625 -47.9275 50.433125 -47.375 50.65625 C-38.35224963 53.86170079 -26.90206758 55.11437919 -17.875 51.25 C-16.56375701 50.53477655 -15.26904013 49.78768008 -14 49 C-12.96875 48.4225 -11.9375 47.845 -10.875 47.25 C-3.57736444 41.53880695 1.14954613 35.19719633 3 26 C3.93277391 16.9472532 3.67547319 8.42295939 0 0 Z " fill="#FFBA00" transform="translate(493,76)"/>
<path d="M0 0 C4.55896175 0.86359726 6.97884509 3.52373252 10.125 6.75 C10.98279053 7.62192993 10.98279053 7.62192993 11.85791016 8.51147461 C20.77084482 17.73625017 27.78530665 27.78653157 34 39 C29.71 38.67 25.42 38.34 21 38 C18.85984122 41.5669313 17.14258299 44.74646292 15.51953125 48.51953125 C15.07802734 49.54111328 14.63652344 50.56269531 14.18164062 51.61523438 C13.72982422 52.67033203 13.27800781 53.72542969 12.8125 54.8125 C12.11737305 56.42415039 12.11737305 56.42415039 11.40820312 58.06835938 C10.26897512 60.71089856 9.13302325 63.35479593 8 66 C5.29790625 62.56266162 3.88658431 59.36928824 2.375 55.25 C-2.34164181 42.99096011 -8.84429292 31.9629937 -16.95703125 21.6484375 C-19.12211264 18.84169719 -21.0636719 15.96758599 -23 13 C-22.3709375 12.91363281 -21.741875 12.82726562 -21.09375 12.73828125 C-11.65604804 11.18901993 -5.69769742 7.6562809 0 0 Z " fill="#002F7C" transform="translate(368,127)"/>
<path d="M0 0 C3.05583852 3.3262667 4.919361 6.63486646 6.65625 10.78125 C7.12160156 11.87050781 7.58695312 12.95976562 8.06640625 14.08203125 C9.02213542 16.36067708 9.97786458 18.63932292 10.93359375 20.91796875 C11.39894531 22.00722656 11.86429687 23.09648437 12.34375 24.21875 C12.75818359 25.20810547 13.17261719 26.19746094 13.59960938 27.21679688 C15.40481817 30.80455494 17.32815726 34.16407863 21 36 C22.70702735 36.06996014 24.41668003 36.08440154 26.125 36.0625 C27.03507812 36.05347656 27.94515625 36.04445312 28.8828125 36.03515625 C29.58148438 36.02355469 30.28015625 36.01195312 31 36 C27.52111552 41.94309431 22.6902641 47.76991197 16 50 C9.36333761 50.75051109 4.37806121 50.3967316 -1.24609375 46.6796875 C-5.58481868 42.52456117 -7.98158337 37.17758244 -10.234375 31.703125 C-10.65870819 30.69085846 -10.65870819 30.69085846 -11.09161377 29.65814209 C-11.68274512 28.24421815 -12.27082392 26.82901441 -12.85595703 25.41259766 C-13.75443983 23.2392605 -14.6635596 21.07060313 -15.57421875 18.90234375 C-16.14906426 17.52369867 -16.72330495 16.14480121 -17.296875 14.765625 C-17.56868591 14.11668274 -17.84049683 13.46774048 -18.12054443 12.7991333 C-20 8.23172418 -20 8.23172418 -20 6 C-20.99 5.67 -21.98 5.34 -23 5 C-20.93847611 4.35105763 -18.87573742 3.7059736 -16.8125 3.0625 C-15.66394531 2.70285156 -14.51539063 2.34320313 -13.33203125 1.97265625 C-4.30528019 -0.6623508 -4.30528019 -0.6623508 0 0 Z " fill="#909398" transform="translate(340,164)"/>
<path d="M0 0 C8.38447511 7.61131655 12.48982631 20.90773862 15.875 31.4375 C16.09043457 32.09959473 16.30586914 32.76168945 16.52783203 33.44384766 C17.7343904 37.38940349 18.48585336 40.88209653 18 45 C15.84592567 47.67934365 13.48666511 48.86922314 10.3671875 50.2265625 C9.47902344 50.6184375 8.59085937 51.0103125 7.67578125 51.4140625 C6.75152344 51.81367187 5.82726562 52.21328125 4.875 52.625 C3.03823277 53.42779176 1.20225049 54.2323827 -0.6328125 55.0390625 C-1.44637207 55.39178223 -2.25993164 55.74450195 -3.09814453 56.10791016 C-4.96582492 56.85252663 -4.96582492 56.85252663 -6 58 C-6.07148199 59.35243917 -6.08399454 60.70834367 -6.0625 62.0625 C-6.041875 63.361875 -6.02125 64.66125 -6 66 C-12.50359608 64.09227848 -17.82840771 61.96015281 -22.875 57.25 C-24.53444307 53.93111385 -24.84558634 50.57543202 -24 47 C-21.15426859 42.51329938 -18.00188581 40.6733764 -13.25 38.4375 C-12.3216333 37.99361938 -12.3216333 37.99361938 -11.37451172 37.54077148 C-9.58667404 36.6861355 -7.79344741 35.84280045 -6 35 C-4.37217887 34.19316692 -2.74649794 33.3819667 -1.125 32.5625 C-0.09375 32.046875 0.9375 31.53125 2 31 C3.20620073 20.38543361 -3.4689357 10.5912064 -9 2 C-5.51866397 -0.32089069 -4.09543281 -0.52248434 0 0 Z " fill="#909399" transform="translate(272,57)"/>
<path d="M0 0 C7.21828685 4.88423002 11.86132511 9.77164423 14.54296875 18.15625 C15.09860257 21.06546482 15.12755618 23.86376697 15.14453125 26.82421875 C15.15871094 27.94828125 15.17289063 29.07234375 15.1875 30.23046875 C14.96673343 33.19397931 14.50309595 34.83096025 12.95703125 37.32421875 C12.93125 36.47859375 12.90546875 35.63296875 12.87890625 34.76171875 C12.49059364 24.85424375 12.49059364 24.85424375 7.95703125 16.32421875 C1.5855767 11.07036111 -3.80454946 8.88602898 -12.0546875 8.984375 C-17.73908913 9.63083636 -22.6268285 11.93643695 -26.70703125 15.96875 C-31.1015094 21.66101263 -32.78158201 28.18429056 -32.04296875 35.32421875 C-29.69379875 42.68918416 -26.12807046 47.76337831 -19.29296875 51.57421875 C-14.9855121 53.61286236 -10.76462968 54.10562334 -6.04296875 54.32421875 C-11.34627301 57.3512189 -16.80051867 57.13971448 -22.63671875 55.671875 C-31.00292192 52.66365689 -36.91936803 48.03397616 -40.98046875 40.07421875 C-44.58037998 32.21542949 -45.71730981 24.39508023 -42.94921875 16.01171875 C-40.01741044 9.77382873 -36.84355573 5.09148169 -31.04296875 1.32421875 C-30.49511719 0.91429687 -29.94726562 0.504375 -29.3828125 0.08203125 C-21.44514791 -4.97713959 -8.09889936 -4.41335816 0 0 Z " fill="#91949A" transform="translate(152.04296875,270.67578125)"/>
<path d="M0 0 C4.37201467 2.82209963 7.76163308 6.25992888 10 11 C10 11.66 10 12.32 10 13 C8.453125 13.12375 8.453125 13.12375 6.875 13.25 C3.92316088 14.0831804 3.0971914 14.85327837 1.375 17.453125 C-0.17474803 20.60105069 -1.60119097 23.78235388 -3 27 C-3.92484468 28.90203906 -4.8612099 30.79854859 -5.8125 32.6875 C-6.21082031 33.49574219 -6.60914063 34.30398437 -7.01953125 35.13671875 C-8 37 -8 37 -9 38 C-15.07100904 38.37649668 -19.84885689 37.49044195 -25.5625 35.5 C-26.33682373 35.23517822 -27.11114746 34.97035645 -27.90893555 34.69750977 C-33.23700078 32.80128289 -38.30942504 30.57195424 -43.3125 27.9375 C-43.91586182 27.62167969 -44.51922363 27.30585938 -45.14086914 26.98046875 C-49.04016113 24.82273155 -52.08822312 22.37326605 -55 19 C-54.8125 16.6875 -54.8125 16.6875 -54 15 C-50.80757455 16.04782062 -47.63927817 17.13226467 -44.484375 18.2890625 C-37.15477412 20.91115821 -30.85558004 22.65677969 -23 22 C-22.78384033 21.47567383 -22.56768066 20.95134766 -22.3449707 20.41113281 C-21.34861681 18.01776639 -20.33085473 15.63408359 -19.3125 13.25 C-18.80299805 12.0125 -18.80299805 12.0125 -18.28320312 10.75 C-16.23382685 6.00004378 -14.55917342 2.79884637 -10 0 C-6.09649995 -1.30116668 -3.99981631 -0.99995408 0 0 Z " fill="#909399" transform="translate(179,184)"/>
<path d="M0 0 C4.92263843 2.57319736 7.27351214 5.11174213 9.30078125 10.3125 C11.49505348 18.74635081 10.76808102 26.36924418 6.421875 33.9140625 C4.53383149 36.68388457 2.58237804 38.85851577 0 41 C-0.845625 41.721875 -1.69125 42.44375 -2.5625 43.1875 C-9.73764955 46.97076067 -17.81276508 47.86149061 -25.68359375 45.890625 C-32.97714326 43.08635976 -38.28993853 37.31146142 -42.375 30.8125 C-43 29 -43 29 -42 26 C-40.7315625 26.99 -40.7315625 26.99 -39.4375 28 C-33.12442026 31.62776157 -24.69586712 30.91467325 -17.75390625 29.5625 C-11.3320196 27.18951648 -5.57082233 21.83204296 -2.5625 15.75 C-0.56209426 10.64764351 -0.20322721 5.43632795 0 0 Z " fill="#FFBB00" transform="translate(58,379)"/>
<path d="M0 0 C4.70388327 3.00691273 8.86219979 7.9519524 10.8515625 13.18359375 C11.046875 16.19921875 11.046875 16.19921875 10.9765625 19.43359375 C10.95851563 20.51125 10.94046875 21.58890625 10.921875 22.69921875 C10.89867187 23.5190625 10.87546875 24.33890625 10.8515625 25.18359375 C10.5628125 24.57902344 10.2740625 23.97445313 9.9765625 23.3515625 C8.24856741 20.02157197 6.25813016 16.88687758 2.8515625 15.18359375 C-5.3128401 14.14950174 -11.95426587 17.60044643 -19.3359375 20.74609375 C-21.82378105 21.80432474 -24.31686331 22.84405493 -26.81640625 23.875 C-28.46032349 24.57411499 -28.46032349 24.57411499 -30.13745117 25.28735352 C-33.39049605 26.2556441 -34.98412563 26.35720855 -38.1484375 25.18359375 C-39.98432956 22.87486462 -41.46633791 20.75533001 -42.9609375 18.24609375 C-43.36763672 17.59962891 -43.77433594 16.95316406 -44.19335938 16.28710938 C-47.1484375 11.50435268 -47.1484375 11.50435268 -47.1484375 9.18359375 C-43.08615369 7.59328558 -39.01528917 6.0280267 -34.93530273 4.48388672 C-33.55290559 3.95690709 -32.17292735 3.42353066 -30.7956543 2.88330078 C-20.74618273 -1.05179923 -10.5221616 -4.5249625 0 0 Z " fill="#919499" transform="translate(280.1484375,372.81640625)"/>
<path d="M0 0 C6.77756978 7.40216935 11.60206953 18.05741585 13 28 C12.69140625 30.71875 12.69140625 30.71875 12 33 C8.07493975 36.06645332 1.10014764 40 -4 40 C-4 41.32 -4 42.64 -4 44 C-3.41992188 44.18175781 -2.83984375 44.36351562 -2.2421875 44.55078125 C9.99159664 48.48739496 9.99159664 48.48739496 13 53 C13.19278474 63.54532529 6.71243366 73.67695122 1.5390625 82.48828125 C0 84 0 84 -2.26171875 84.171875 C-3.06222656 84.03265625 -3.86273438 83.8934375 -4.6875 83.75 C-5.49574219 83.62109375 -6.30398437 83.4921875 -7.13671875 83.359375 C-8.05904297 83.18148437 -8.05904297 83.18148437 -9 83 C-7.6696875 81.63875 -7.6696875 81.63875 -6.3125 80.25 C-0.55782603 73.52482282 2.37483918 65.81974547 2 57 C0.85660156 56.37351562 -0.28679687 55.74703125 -1.46484375 55.1015625 C-2.9558888 54.27633002 -4.44676555 53.45079342 -5.9375 52.625 C-7.06961914 52.00625 -7.06961914 52.00625 -8.22460938 51.375 C-8.94326172 50.97539062 -9.66191406 50.57578125 -10.40234375 50.1640625 C-11.06741943 49.79748535 -11.73249512 49.4309082 -12.41772461 49.05322266 C-14 48 -14 48 -15 46 C-15.45612616 40.64051759 -15.45612616 40.64051759 -13.8984375 38.453125 C-10.4005115 35.77570016 -5.99591108 34.88281971 -1.8359375 33.57421875 C1.2424392 32.26790441 1.2424392 32.26790441 2.02734375 29.23046875 C1.95599573 20.80120941 -2.50629911 12.78981943 -7.86328125 6.48828125 C-9 5 -9 5 -9 3 C-9.66 2.67 -10.32 2.34 -11 2 C-7.19136463 0.207701 -4.20539781 -0.62633584 0 0 Z " fill="#909399" transform="translate(200,260)"/>
<path d="M0 0 C4.3682208 2.27866063 6.96874249 4.84545162 8.9296875 9.31640625 C9.65423987 15.18005169 9.74020267 20.39143273 7.4296875 25.87890625 C2.99115392 30.20647649 -1.44411674 32.50015689 -7.6953125 32.81640625 C-13.5923845 32.51243347 -16.723992 29.60289028 -20.8828125 25.62890625 C-24.01688697 20.88302205 -24.7128394 16.73097779 -23.66015625 11.13671875 C-22.02442446 5.94547415 -19.51637869 3.37307675 -15.0703125 0.31640625 C-10.21665609 -1.30147922 -4.91398121 -1.62254097 0 0 Z " fill="#01C6FE" transform="translate(193.0703125,102.68359375)"/>
<path d="M0 0 C4.65549784 4.2052748 7.70241483 8.63028559 8.265625 15.0078125 C8.26046875 16.03648438 8.2553125 17.06515625 8.25 18.125 C8.25773437 19.67574219 8.25773437 19.67574219 8.265625 21.2578125 C8 24 8 24 6 27 C5.97421875 26.34773438 5.9484375 25.69546875 5.921875 25.0234375 C5.55093176 19.30753939 4.97917557 15.40935671 1 11 C-3.96622469 7.45269665 -9.0993857 7.15972265 -15 8 C-18.69720876 9.28298662 -21.31009127 11.19510649 -23.875 14.1875 C-26.03221353 19.58053384 -26.52808706 24.1361633 -24.9375 29.75 C-22.14184281 34.43948948 -19.62180844 37.24755274 -14.38671875 38.75 C-11.92862054 39.25065932 -9.48637631 39.67077626 -7 40 C-11.41246496 42.46346138 -15.03193384 42.73629686 -20 42 C-27.41446335 39.60284268 -32.16351418 35.7473859 -36 29 C-38.81910445 23.10550887 -39.12527175 16.55899902 -37.16015625 10.34375 C-33.79580958 2.822113 -29.1231995 -1.38017162 -21.5 -4.375 C-12.82469442 -5.92416171 -7.38084882 -4.92468006 0 0 Z " fill="#6802A3" transform="translate(196,95)"/>
<path d="M0 0 C8.22036097 1.49966045 14.3804717 8.98874577 19.2109375 15.3203125 C22.09932988 19.64659453 24.17776896 24.13825807 26 29 C26.24621094 29.65355469 26.49242187 30.30710937 26.74609375 30.98046875 C29.49907657 39.88494421 28.80937409 50.22070597 26 59 C21.57135029 58.4938686 19.15110054 57.15110054 16 54 C13.44341036 49.6172749 12.89200906 46.35925593 12.6875 41.3125 C12.05763682 31.44464358 7.20889347 23.59191052 0.41796875 16.62109375 C-2.36776158 13.43630564 -2.20545219 10.01210755 -2.16796875 5.94140625 C-1.96569543 3.60350299 -1.29922669 1.94884004 0 0 Z " fill="#6801A1" transform="translate(209,74)"/>
<path d="M0 0 C4.08848879 0.57459842 6.87469727 1.85350368 10.3125 4.125 C11.19550781 4.68445313 12.07851562 5.24390625 12.98828125 5.8203125 C15 8 15 8 15.51171875 11.20703125 C14.89434271 15.7831544 13.41855117 19.39576241 11.5 23.5625 C8.29152762 30.46488452 8.29152762 30.46488452 8 38 C9.37926773 40.34261608 9.37926773 40.34261608 11 42 C5.52694533 43.82435156 -0.30294183 43.60635356 -6 43 C-9.54881204 41.20128705 -10.75073432 38.74779704 -12 35 C-13.27115521 25.62523032 -8.99900416 18.21994037 -5 10 C-4.47921875 8.92621094 -3.9584375 7.85242188 -3.421875 6.74609375 C-2.30272995 4.48529211 -1.16666465 2.23655527 0 0 Z " fill="#929599" transform="translate(233,24)"/>
<path d="M0 0 C5.69432117 2.41577262 8.72682395 7.39577627 11.375 12.8125 C13.07906033 21.50320768 12.47256198 29.24579492 8 37 C3.89425694 42.5523261 -1.294284 46.27538318 -8 48 C-16.66165126 49.15198875 -23.84906942 48.20536208 -31 43 C-33.2905887 40.77826667 -35.08339682 38.57228321 -37 36 C-35.98873047 36.23783203 -35.98873047 36.23783203 -34.95703125 36.48046875 C-27.04867643 37.8699155 -17.62119182 38.56014256 -10.5703125 34.1953125 C-4.98641708 29.94488464 -2.09122816 25.18245632 1 19 C1.09778166 16.73089029 1.12975646 14.45871058 1.125 12.1875 C1.12757813 10.96417969 1.13015625 9.74085937 1.1328125 8.48046875 C1.01945473 5.50982844 0.69145246 2.8810519 0 0 Z " fill="#FCB800" transform="translate(360,92)"/>
<path d="M0 0 C8.1020958 -0.69314508 14.31932988 0.11797183 21 5 C27.47065307 11.75999121 28.61461462 17.94933998 28.421875 27.171875 C27.83181419 32.52613046 25.88500806 36.27568571 22 40 C20.515 40.495 20.515 40.495 19 41 C0 10.29314159 0 10.29314159 0 0 Z " fill="#0144DC" transform="translate(137,279)"/>
<path d="M0 0 C6.03660666 3.10454057 9.85942549 7.57827647 12 14 C12.92154272 21.16874512 12.17126202 27.03523118 8 33 C3.03116217 38.88415006 -2.59193505 41.5591935 -10.125 42.3125 C-16.58277807 41.79171145 -22.78191762 39.90902731 -27.125 34.875 C-29 32 -29 32 -29 30 C-28.319375 30.165 -27.63875 30.33 -26.9375 30.5 C-19.4245984 31.77879176 -13.39801532 30.89689632 -7.04296875 26.7109375 C-2.80653203 23.37530101 -0.49961591 20.29276202 1 15 C1.42142842 9.92695602 1.31812282 4.94296056 0 0 Z " fill="#FFBB00" transform="translate(457,7)"/>
<path d="M0 0 C1.15628906 -0.02126953 1.15628906 -0.02126953 2.3359375 -0.04296875 C4.84334888 0.20948393 6.45761902 0.93556533 8.625 2.1875 C4.48704693 13.91170036 -4.03830697 21.60799005 -14.671875 27.44921875 C-20.05850636 30.01837449 -25.49950798 31.25527162 -31.375 32.1875 C-31.72908433 27.76144589 -31.80158529 24.20317927 -30.0625 20.0625 C-26.84226088 16.61759303 -23.36513777 14.54408266 -19.33984375 12.12890625 C-15.29459369 9.48004027 -11.87966204 6.31990097 -8.37109375 3.0078125 C-5.48774422 0.37837829 -3.8141233 0.03167876 0 0 Z " fill="#6701A0" transform="translate(223.375,136.8125)"/>
<path d="M0 0 C2.61348222 2.10561404 3.70610576 4.24644759 4.90234375 7.34375 C5.23556641 8.17777344 5.56878906 9.01179688 5.91210938 9.87109375 C6.5951886 11.62237877 7.27488375 13.37498754 7.95117188 15.12890625 C8.28568359 15.96292969 8.62019531 16.79695313 8.96484375 17.65625 C9.2599585 18.41744141 9.55507324 19.17863281 9.85913086 19.96289062 C11.22701677 22.40535586 12.67487931 23.47251225 15 25 C15.99 25.66 16.98 26.32 18 27 C12.32583775 30.90886733 8.00022732 32.94310463 1 32 C-6.60077543 28.19961229 -9.50375811 21.46353071 -12.3125 13.875 C-12.58900391 13.17246094 -12.86550781 12.46992188 -13.15039062 11.74609375 C-14.54161152 8.03850758 -15.20837289 5.77128862 -14 2 C-4.74846626 -0.55214724 -4.74846626 -0.55214724 0 0 Z " fill="#939599" transform="translate(170,14)"/>
<path d="M0 0 C6.38331833 5.76055557 6.38331833 5.76055557 6.8046875 9.41015625 C6.81163315 11.37924748 6.69569279 13.34790636 6.5625 15.3125 C6.046875 14.796875 5.53125 14.28125 5 13.75 C1.50381664 11.68814827 -0.49560036 12.51292604 -4.4375 13.3125 C-7.88052434 14.44880463 -11.21534393 15.84387918 -14.56445312 17.22851562 C-18.60772191 18.83261746 -22.03573129 20.129706 -26.4375 19.3125 C-28.7734375 17.01171875 -28.7734375 17.01171875 -30.8125 14 C-31.50085938 13.01386719 -32.18921875 12.02773437 -32.8984375 11.01171875 C-34.4375 8.3125 -34.4375 8.3125 -34.4375 5.3125 C-9.122929 -4.47852878 -9.122929 -4.47852878 0 0 Z " fill="#919499" transform="translate(126.4375,160.6875)"/>
<path d="M0 0 C4.58742318 2.999469 6.89406118 5.96914616 9 11 C2.81844844 15.42661955 -3.27997747 18.76625992 -10.375 21.4375 C-11.05240234 21.69611816 -11.72980469 21.95473633 -12.42773438 22.22119141 C-16.03657095 23.52577331 -19.1558512 24.45763676 -23 24 C-26.10825291 21.33578322 -26.62694451 18.04468139 -27.375 14.1953125 C-26.7653277 10.62618922 -24.6186896 8.33828987 -22 6 C-19.64025393 4.55943378 -17.21511393 3.57678885 -14.625 2.625 C-13.99078125 2.36589844 -13.3565625 2.10679687 -12.703125 1.83984375 C-8.34288198 0.15803573 -4.64968039 -0.42781563 0 0 Z " fill="#6600A0" transform="translate(403,365)"/>
<path d="M0 0 C5.67853635 1.41963409 9.53174216 4.39363961 14 8 C13.50053347 12.79487869 12.43170097 16.68897203 10.61328125 21.14453125 C9.83828663 23.12013006 9.83828663 23.12013006 10.125 25.8125 C10 28 10 28 8.0625 29.75 C4.05154005 31.38712651 0.35601679 32.38196416 -4 32 C-7.36791395 29.45352847 -7.88659866 27.69300817 -8.5625 23.5625 C-8.15704173 15.39095633 -4.36881547 6.80305282 0 0 Z " fill="#919499" transform="translate(171,237)"/>
<path d="M0 0 C1.1653125 0.01417969 2.330625 0.02835937 3.53125 0.04296875 C5.27921875 0.05263672 5.27921875 0.05263672 7.0625 0.0625 C10.03125 0.23046875 10.03125 0.23046875 12.03125 1.23046875 C12.33984375 3.05078125 12.33984375 3.05078125 12.46875 5.35546875 C12.74360832 8.56214913 13.22090081 11.06797561 14.59375 13.98046875 C16.7573747 18.87214199 16.7573747 18.87214199 16.03125 22.23046875 C12.58060773 25.68111102 8.37355417 28.05931667 4.03125 30.23046875 C3.04125 29.90046875 2.05125 29.57046875 1.03125 29.23046875 C-0.3203125 26.46484375 -0.3203125 26.46484375 -1.59375 22.98046875 C-2.01914063 21.8409375 -2.44453125 20.70140625 -2.8828125 19.52734375 C-4.32739083 15.14164551 -5.11707532 11.15774598 -5.15625 6.54296875 C-5.17042969 5.77597656 -5.18460938 5.00898438 -5.19921875 4.21875 C-4.79019723 0.69007285 -3.35487765 0.26044445 0 0 Z " fill="#909499" transform="translate(168.96875,336.76953125)"/>
<path d="M0 0 C3.37968841 1.8448411 5.59456365 3.99833373 7.0625 7.625 C7.041875 8.40875 7.02125 9.1925 7 10 C6.56816406 10.40734375 6.13632813 10.8146875 5.69140625 11.234375 C3.31128892 13.71893166 2.25920279 16.48793741 0.875 19.625 C-1.91666667 25.91666667 -1.91666667 25.91666667 -3 27 C-8.52479577 27.2857653 -12.76465209 26.74511597 -18 25 C-16.78683281 16.60360605 -15.45164965 7.91808879 -9.6875 1.375 C-6.09532518 -0.46285688 -3.98930584 -0.6298904 0 0 Z " fill="#929599" transform="translate(136,345)"/>
<path d="M0 0 C11.68849887 -0.60457753 22.85249277 2.79224792 34 6 C33.525625 7.11375 33.05125 8.2275 32.5625 9.375 C30.73814745 14.17683359 30.30291156 18.90272966 30 24 C29.40316406 23.6596875 28.80632812 23.319375 28.19140625 22.96875 C23.70426104 20.46181598 19.28187024 18.08499196 14.5546875 16.06640625 C13.79212646 15.73382813 13.02956543 15.40125 12.24389648 15.05859375 C10.72637918 14.40320362 9.19977879 13.76839398 7.66430664 13.15625 C3.57953407 11.37169952 2.30006677 10.71530276 0.50390625 6.43359375 C0 3 0 3 0 0 Z " fill="#01317C" transform="translate(289,93)"/>
<path d="M0 0 C0.61619487 11.5365372 0.61619487 11.5365372 -1.5 16.5625 C-5.97237444 20.92306508 -10.38456901 23.19588765 -16.6875 23.4375 C-20.47981772 23.27347242 -22.94984819 22.36140785 -26 20 C-21.66704392 14.13776531 -7.99578487 0 0 0 Z " fill="#0243DD" transform="translate(202,112)"/>
<path d="M0 0 C2.71232939 4.06849409 2.30699887 6.16476784 2 11 C1.34 11.66 0.68 12.32 0 13 C-0.66 12.67 -1.32 12.34 -2 12 C-5.27448306 13.1940104 -8.4427881 14.58351189 -11.640625 15.96875 C-15.33473583 17.10275611 -17.32701497 17.12610143 -21 16 C-23.60523868 12.84629002 -25 11.13351845 -25 7 C-7.68989186 -1.32584342 -7.68989186 -1.32584342 0 0 Z " fill="#94969A" transform="translate(105,328)"/>
<path d="M0 0 C0.33 0 0.66 0 1 0 C0.78369257 11.4446293 -2.18932533 19.81892 -10.0546875 28.24609375 C-15.9352618 33.54805732 -22.31994265 35.65903761 -30 37 C-26.62355407 32.91272335 -23.1496394 29.15966406 -19.3125 25.5 C-12.29403634 18.57724266 -6.28459111 10.5230875 -1.24609375 2.05078125 C-0.83488281 1.37402344 -0.42367188 0.69726562 0 0 Z " fill="#05C0FB" transform="translate(400,310)"/>
<path d="M0 0 C3.42026777 3.81115551 5.12896029 8.42055491 6.97265625 13.14453125 C7.9199536 15.34930614 7.9199536 15.34930614 11 16 C9.75023244 19.65316671 9.32901247 20.78065836 6 23 C3.625 23.5 3.625 23.5 1 23 C-4.81939117 17.92668462 -7.35349908 10.0937138 -10 3 C-10 2.34 -10 1.68 -10 1 C-6.3435672 -0.21881093 -3.83710078 -0.4712229 0 0 Z " fill="#8F939A" transform="translate(133,232)"/>
<path d="M0 0 C3.5 -0.375 3.5 -0.375 7 0 C9.70236878 4.05355318 9.36747676 7.17905256 9.375 11.9375 C9.39949219 12.74896484 9.42398438 13.56042969 9.44921875 14.39648438 C9.46843356 18.30029395 9.47613196 20.34081731 7.140625 23.57421875 C5 25 5 25 2.375 24.875 C0 24 0 24 -2 22 C-2.25878906 20.07641602 -2.25878906 20.07641602 -2.265625 17.75390625 C-2.26820313 16.91666016 -2.27078125 16.07941406 -2.2734375 15.21679688 C-2.26570312 14.34087891 -2.25796875 13.46496094 -2.25 12.5625 C-2.25773438 11.69044922 -2.26546875 10.81839844 -2.2734375 9.91992188 C-2.27085937 9.08138672 -2.26828125 8.24285156 -2.265625 7.37890625 C-2.26336914 6.6113501 -2.26111328 5.84379395 -2.25878906 5.05297852 C-2 3 -2 3 0 0 Z " fill="#0041DC" transform="translate(156,454)"/>
<path d="M0 0 C0.78890625 -0.00257812 1.5778125 -0.00515625 2.390625 -0.0078125 C3.21046875 -0.00007813 4.0303125 0.00765625 4.875 0.015625 C6.10476563 0.00402344 6.10476563 0.00402344 7.359375 -0.0078125 C8.14828125 -0.00523438 8.9371875 -0.00265625 9.75 0 C10.46929688 0.00225586 11.18859375 0.00451172 11.9296875 0.00683594 C13.875 0.265625 13.875 0.265625 16.875 2.265625 C17.75 4.640625 17.75 4.640625 17.875 7.265625 C16.67016602 9.40087891 16.67016602 9.40087891 14.875 11.265625 C12.73022461 11.75146484 12.73022461 11.75146484 10.27734375 11.7265625 C9.39369141 11.72269531 8.51003906 11.71882813 7.59960938 11.71484375 C6.67986328 11.69035156 5.76011719 11.66585937 4.8125 11.640625 C3.88888672 11.63933594 2.96527344 11.63804688 2.01367188 11.63671875 C-4.84407383 11.54655117 -4.84407383 11.54655117 -7.125 9.265625 C-7.4375 5.765625 -7.4375 5.765625 -7.125 2.265625 C-4.07526315 0.2324671 -3.43543132 0.0107742 0 0 Z " fill="#0041DC" transform="translate(7.125,32.734375)"/>
<path d="M0 0 C5.13882368 -0.65602004 5.13882368 -0.65602004 7.66430664 1.26782227 C10.0953436 4.42048307 9.47086259 8.1008017 9.4375 11.9375 C9.45748047 12.74896484 9.47746094 13.56042969 9.49804688 14.39648438 C9.49484821 18.29565308 9.47107184 20.34919006 7.13671875 23.57421875 C5 25 5 25 2.375 24.875 C0 24 0 24 -2 22 C-2.25878906 20.07641602 -2.25878906 20.07641602 -2.265625 17.75390625 C-2.26820313 16.91666016 -2.27078125 16.07941406 -2.2734375 15.21679688 C-2.26570312 14.34087891 -2.25796875 13.46496094 -2.25 12.5625 C-2.25773438 11.69044922 -2.26546875 10.81839844 -2.2734375 9.91992188 C-2.27085937 9.08138672 -2.26828125 8.24285156 -2.265625 7.37890625 C-2.26336914 6.6113501 -2.26111328 5.84379395 -2.25878906 5.05297852 C-2 3 -2 3 0 0 Z " fill="#0041DC" transform="translate(156,420)"/>
<path d="M0 0 C1.2365332 -0.01836914 1.2365332 -0.01836914 2.49804688 -0.03710938 C3.68817383 -0.04000977 3.68817383 -0.04000977 4.90234375 -0.04296875 C5.62800537 -0.04707764 6.35366699 -0.05118652 7.10131836 -0.05541992 C9.0625 0.1875 9.0625 0.1875 12.0625 2.1875 C12.375 5.6875 12.375 5.6875 12.0625 9.1875 C8.77025911 12.47974089 4.5983992 11.59690468 0.125 11.625 C-0.79474609 11.65787109 -1.71449219 11.69074219 -2.66210938 11.72460938 C-5.18625669 11.74486147 -7.46526116 11.70023074 -9.9375 11.1875 C-12.109375 8.83203125 -12.109375 8.83203125 -12.9375 6.1875 C-12.25 3.4375 -12.25 3.4375 -10.9375 1.1875 C-7.53373106 -0.51438447 -3.75074101 0.00291886 0 0 Z " fill="#0041DC" transform="translate(45.9375,32.8125)"/>
<path d="M0 0 C1.38541992 0.00483398 1.38541992 0.00483398 2.79882812 0.00976562 C4.17844727 -0.0144043 4.17844727 -0.0144043 5.5859375 -0.0390625 C6.91141602 -0.0400293 6.91141602 -0.0400293 8.26367188 -0.04101562 C9.07312256 -0.04399658 9.88257324 -0.04697754 10.71655273 -0.05004883 C13.37279653 0.41105211 14.2561472 1.18912743 15.86132812 3.32226562 C16.17382812 5.88476562 16.17382812 5.88476562 15.86132812 8.32226562 C13.37075562 10.81283813 12.57660154 10.57884692 9.14257812 10.58789062 C8.21058594 10.59046875 7.27859375 10.59304688 6.31835938 10.59570312 C5.34253906 10.58796875 4.36671875 10.58023437 3.36132812 10.57226562 C2.38550781 10.58 1.4096875 10.58773438 0.40429688 10.59570312 C-0.52769531 10.593125 -1.4596875 10.59054687 -2.41992188 10.58789062 C-3.27650391 10.58563477 -4.13308594 10.58337891 -5.015625 10.58105469 C-7.13867188 10.32226562 -7.13867188 10.32226562 -9.13867188 8.32226562 C-9.38867188 5.32226562 -9.38867188 5.32226562 -9.13867188 2.32226562 C-6.26271631 -0.55368994 -3.93318632 0.0316034 0 0 Z " fill="#0041DD" transform="translate(139.138671875,443.677734375)"/>
<path d="M0 0 C2.875 0.6875 2.875 0.6875 3.875 1.6875 C4.12598924 5.15958807 4.06022096 8.6449062 4.0625 12.125 C4.07474609 13.10533203 4.08699219 14.08566406 4.09960938 15.09570312 C4.10250977 16.50045898 4.10250977 16.50045898 4.10546875 17.93359375 C4.10957764 18.79654053 4.11368652 19.6594873 4.11791992 20.54858398 C3.875 22.6875 3.875 22.6875 1.875 24.6875 C-1.125 24.9375 -1.125 24.9375 -4.125 24.6875 C-7.06372655 21.74877345 -6.41669002 19.1638338 -6.44726562 15.14453125 C-6.44404297 14.16871094 -6.44082031 13.19289063 -6.4375 12.1875 C-6.46166992 10.72376953 -6.46166992 10.72376953 -6.48632812 9.23046875 C-6.48697266 8.29847656 -6.48761719 7.36648437 -6.48828125 6.40625 C-6.49126221 5.54966797 -6.49424316 4.69308594 -6.49731445 3.81054688 C-6.37445068 3.10994141 -6.25158691 2.40933594 -6.125 1.6875 C-3.125 -0.3125 -3.125 -0.3125 0 0 Z " fill="#0041DC" transform="translate(30.125,43.3125)"/>
<path d="M0 0 C2.875 0.6875 2.875 0.6875 3.875 1.6875 C4.12598924 5.15958807 4.06022096 8.6449062 4.0625 12.125 C4.07474609 13.10533203 4.08699219 14.08566406 4.09960938 15.09570312 C4.10250977 16.50045898 4.10250977 16.50045898 4.10546875 17.93359375 C4.10957764 18.79654053 4.11368652 19.6594873 4.11791992 20.54858398 C3.875 22.6875 3.875 22.6875 1.875 24.6875 C-1.125 24.9375 -1.125 24.9375 -4.125 24.6875 C-7.06372655 21.74877345 -6.41669002 19.1638338 -6.44726562 15.14453125 C-6.44404297 14.16871094 -6.44082031 13.19289063 -6.4375 12.1875 C-6.46166992 10.72376953 -6.46166992 10.72376953 -6.48632812 9.23046875 C-6.48697266 8.29847656 -6.48761719 7.36648437 -6.48828125 6.40625 C-6.49126221 5.54966797 -6.49424316 4.69308594 -6.49731445 3.81054688 C-6.37445068 3.10994141 -6.25158691 2.40933594 -6.125 1.6875 C-3.125 -0.3125 -3.125 -0.3125 0 0 Z " fill="#0042DC" transform="translate(30.125,9.3125)"/>
<path d="M0 0 C3 0.25 3 0.25 5 2.25 C5.45027679 5.73053949 5.32407972 9.24366192 5.3125 12.75 C5.32861328 13.72582031 5.34472656 14.70164062 5.36132812 15.70703125 C5.36197266 16.63902344 5.36261719 17.57101562 5.36328125 18.53125 C5.36626221 19.38783203 5.36924316 20.24441406 5.37231445 21.12695312 C5.1880188 22.17786133 5.1880188 22.17786133 5 23.25 C2 25.25 2 25.25 -1.125 25 C-2.07375 24.7525 -3.0225 24.505 -4 24.25 C-5.82671197 20.59657606 -5.18470722 16.27160841 -5.1875 12.25 C-5.19974609 11.321875 -5.21199219 10.39375 -5.22460938 9.4375 C-5.22654297 8.550625 -5.22847656 7.66375 -5.23046875 6.75 C-5.23457764 5.9353125 -5.23868652 5.120625 -5.24291992 4.28125 C-4.81648929 0.71551846 -3.4031187 0.28359323 0 0 Z " fill="#0040DC" transform="translate(483,482.75)"/>
<path d="M0 0 C3 0.25 3 0.25 5 2.25 C5.45027679 5.73053949 5.32407972 9.24366192 5.3125 12.75 C5.32861328 13.72582031 5.34472656 14.70164062 5.36132812 15.70703125 C5.36197266 16.63902344 5.36261719 17.57101562 5.36328125 18.53125 C5.36626221 19.38783203 5.36924316 20.24441406 5.37231445 21.12695312 C5.1880188 22.17786133 5.1880188 22.17786133 5 23.25 C2 25.25 2 25.25 -1.125 25 C-2.07375 24.7525 -3.0225 24.505 -4 24.25 C-5.82671197 20.59657606 -5.18470722 16.27160841 -5.1875 12.25 C-5.19974609 11.321875 -5.21199219 10.39375 -5.22460938 9.4375 C-5.22654297 8.550625 -5.22847656 7.66375 -5.23046875 6.75 C-5.23457764 5.9353125 -5.23868652 5.120625 -5.24291992 4.28125 C-4.81648929 0.71551846 -3.4031187 0.28359323 0 0 Z " fill="#0040DC" transform="translate(483,448.75)"/>
<path d="M0 0 C1.38541992 0.00483398 1.38541992 0.00483398 2.79882812 0.00976562 C4.17844727 -0.0144043 4.17844727 -0.0144043 5.5859375 -0.0390625 C6.91141602 -0.0400293 6.91141602 -0.0400293 8.26367188 -0.04101562 C9.07312256 -0.04399658 9.88257324 -0.04697754 10.71655273 -0.05004883 C13.38191889 0.41263568 14.29739004 1.13696278 15.86132812 3.32226562 C15.42654552 8.75704823 15.42654552 8.75704823 13.86132812 10.32226562 C10.38924006 10.57325486 6.90392193 10.50748659 3.42382812 10.50976562 C2.44349609 10.52201172 1.46316406 10.53425781 0.453125 10.546875 C-0.48337891 10.54880859 -1.41988281 10.55074219 -2.38476562 10.55273438 C-3.2477124 10.55684326 -4.11065918 10.56095215 -4.99975586 10.56518555 C-7.13867188 10.32226562 -7.13867188 10.32226562 -9.13867188 8.32226562 C-9.38867188 5.32226562 -9.38867188 5.32226562 -9.13867188 2.32226562 C-6.26271631 -0.55368994 -3.93318632 0.0316034 0 0 Z " fill="#0041DC" transform="translate(173.138671875,443.677734375)"/>
<path d="M0 0 C1.37961914 -0.03673828 1.37961914 -0.03673828 2.78710938 -0.07421875 C3.67076172 -0.07808594 4.55441406 -0.08195312 5.46484375 -0.0859375 C6.27429443 -0.09415527 7.08374512 -0.10237305 7.91772461 -0.11083984 C10.0625 0.375 10.0625 0.375 11.90063477 2.20068359 C13.0625 4.375 13.0625 4.375 12.25 7.625 C11.858125 8.5325 11.46625 9.44 11.0625 10.375 C7.60423658 10.43289006 4.14609707 10.46855821 0.6875 10.5 C-0.29734375 10.51675781 -1.2821875 10.53351563 -2.296875 10.55078125 C-3.23789062 10.55722656 -4.17890625 10.56367188 -5.1484375 10.5703125 C-6.45240479 10.58602295 -6.45240479 10.58602295 -7.78271484 10.60205078 C-9.9375 10.375 -9.9375 10.375 -11.9375 8.375 C-12.1875 5.375 -12.1875 5.375 -11.9375 2.375 C-8.64678316 -0.91571684 -4.46984495 0.00623844 0 0 Z " fill="#0041DC" transform="translate(465.9375,472.625)"/>
<path d="M0 0 C1.37961914 0.04930664 1.37961914 0.04930664 2.78710938 0.09960938 C3.71072266 0.10541016 4.63433594 0.11121094 5.5859375 0.1171875 C12.42966425 0.24216425 12.42966425 0.24216425 14.72460938 2.53710938 C14.97460938 5.53710938 14.97460938 5.53710938 14.72460938 8.53710938 C12.72460938 10.53710938 12.72460938 10.53710938 10.56982422 10.76416016 C9.7005127 10.75368652 8.83120117 10.74321289 7.93554688 10.73242188 C6.99453125 10.72597656 6.05351562 10.71953125 5.08398438 10.71289062 C4.09914063 10.69613281 3.11429687 10.679375 2.09960938 10.66210938 C1.10703125 10.65308594 0.11445313 10.6440625 -0.90820312 10.63476562 C-3.36417197 10.61115054 -5.81966231 10.57821737 -8.27539062 10.53710938 C-9.91739117 7.51237153 -10.43383723 6.12858804 -9.52929688 2.75195312 C-6.43552673 -0.28819882 -4.21761087 -0.03383933 0 0 Z " fill="#0041DD" transform="translate(497.275390625,472.462890625)"/>
<path d="M0 0 C2.48836965 3.73255448 2.54226552 5.58440935 2 10 C-0.0625 12.5 -0.0625 12.5 -3 14 C-6.8137751 14 -9.02424548 13.84985071 -11.9375 11.3125 C-13.32431433 8.2941394 -13.4112874 6.29029921 -13 3 C-11.6602648 0.52148989 -10.72328842 -0.65082628 -8.1875 -1.875 C-5.0647141 -2.05344491 -2.84985945 -1.23906933 0 0 Z " fill="#0041DC" transform="translate(44,245)"/>
<path d="M0 0 C2.91279326 1.65058285 3.03147144 3.11329717 3.9375 6.375 C4 10 4 10 2.5625 12.9375 C-0.11335266 15.09123507 -0.7955237 15.36136447 -4.0625 15.5 C-8 15 -8 15 -10 14 C-11.63278358 10.73443285 -11.6227188 7.51694594 -11 4 C-8.15614633 -0.55016587 -5.11496172 -0.65099513 0 0 Z " fill="#0041DD" transform="translate(385,31)"/>
<path d="M0 0 C2.4375 1.5625 2.4375 1.5625 4 4 C4.56288002 7.94016013 4.60396028 10.05782196 2.4375 13.4375 C-0.96719488 15.61999672 -3.03430012 15.63734462 -7 15 C-9.5 12.9375 -9.5 12.9375 -11 10 C-10.93977486 6.50694211 -10.63658168 4.09633511 -8.875 1.0625 C-5.81547541 -0.6712306 -3.43182475 -0.42145216 0 0 Z " fill="#0040DD" transform="translate(394,490)"/>
<path d="M0 0 C0 0.99 0 1.98 0 3 C-6.93 3 -13.86 3 -21 3 C-21 2.67 -21 2.34 -21 2 C-18.81347261 1.66034526 -16.62571975 1.32857523 -14.4375 1 C-13.21933594 0.814375 -12.00117188 0.62875 -10.74609375 0.4375 C-7.12372152 0.01444923 -3.64287954 -0.07501425 0 0 Z " fill="#009FFE" transform="translate(279,427)"/>
</svg>
